<svg xmlns="http://www.w3.org/2000/svg" version="1.1" xmlns:xlink="http://www.w3.org/1999/xlink" width="512" height="512" x="0" y="0" viewBox="0 0 511 511.999" style="enable-background:new 0 0 512 512" xml:space="preserve" class=""><g transform="matrix(0.6900000000000005,0,0,0.6900000000000005,79.50947079241263,79.35992431640614)"><path d="M216.5 366c5.52 0 10-4.48 10-10s-4.48-10-10-10-10 4.48-10 10 4.48 10 10 10zm0 0" fill="#ffffff" opacity="1" data-original="#000000" class=""></path><path d="m3.43 389.07 120 120a9.996 9.996 0 0 0 14.14 0l66-66a9.996 9.996 0 0 0 0-14.14l-2.93-2.93h144.15c12.66 0 24.741-4.746 34.058-13.395l121.316-113.699c11.613-10.785 15.461-27.918 9.57-42.629a38.492 38.492 0 0 0-23.851-22.355 38.492 38.492 0 0 0-32.453 3.957c-.063.039-26.934 17.672-26.934 17.672-.183-54.207-32.945-112.012-78.043-138.035a30.088 30.088 0 0 0 5.887-10.375c5.16-15.7-3.418-32.692-19.14-37.883-.493-.164-.985-.309-1.477-.461l25.742-46.242a9.989 9.989 0 0 0 .512-8.664 9.984 9.984 0 0 0-6.457-5.801C335.063 2.723 315.879 0 296.5 0c-19.375 0-38.562 2.723-57.02 8.086a9.997 9.997 0 0 0-5.945 14.469l25.742 46.242c-.5.156-1 .305-1.5.469-15.699 5.183-24.273 22.171-19.113 37.882a30.052 30.052 0 0 0 5.91 10.36C198.804 143.918 166.5 202.316 166.5 256c0 1.465.035 2.91.082 4.344-17.91 4.886-34.562 13.789-48.566 26.05l-30.391 26.59-4.055-4.054a9.996 9.996 0 0 0-14.14 0l-66 66a9.996 9.996 0 0 0 0 14.14zM257.332 24.184C270.145 21.402 283.27 20 296.5 20s26.355 1.402 39.172 4.184L313.387 64.21a121.925 121.925 0 0 0-33.77 0zm6.688 64.082c20.52-6.715 42.89-7.223 64.933-.008 5.246 1.73 8.11 7.402 6.387 12.637a9.94 9.94 0 0 1-8.887 6.855c-19.719-6.27-40.2-6.281-59.91-.02h-.004c-4.11-.257-7.598-2.945-8.879-6.832-1.723-5.242 1.14-10.914 6.36-12.632zm5.53 39.55c17.34-6.246 35.305-6.394 52.688-.421C368.7 143.37 406.5 201.063 406.5 256c0 4.656-.293 9.094-.871 13.242l-48.067 31.535C350.123 291.56 338.844 286 326.5 286h-20v-11.719c11.64-4.129 20-15.246 20-28.281 0-16.543-13.457-30-30-30-5.512 0-10-4.484-10-10s4.488-10 10-10c3.543 0 7.281 1.809 10.816 5.227 3.97 3.84 10.301 3.734 14.141-.23 3.84-3.97 3.734-10.302-.234-14.142-5.075-4.914-10.153-7.69-14.723-9.207V166c0-5.523-4.477-10-10-10s-10 4.477-10 10v11.719c-11.637 4.129-20 15.246-20 28.281 0 16.543 13.457 30 30 30 5.516 0 10 4.484 10 10s-4.484 10-10 10c-4.273 0-8.883-2.688-12.984-7.566-3.555-4.227-9.864-4.774-14.09-1.22-4.227 3.556-4.774 9.864-1.219 14.09 5.344 6.36 11.633 10.79 18.293 13.024V286h-3.328c-4.914 0-7.121-3.203-10.582-5.441-21.13-15.836-47.3-24.559-73.7-24.559-4.128 0-8.265.215-12.382.633 0-.211-.008-.418-.008-.633 0-54.168 37.258-111.668 83.05-128.184zM131.189 301.441C149.977 284.988 174.12 276 198.89 276c22.101 0 44.011 7.3 61.691 20.555 2.55 1.492 9.652 9.445 22.586 9.445H326.5c11.383 0 20 9.254 20 20 0 11.027-8.973 20-20 20h-70c-5.523 0-10 4.477-10 10s4.477 10 10 10h70c22.055 0 40-17.945 40-40 0-2.293-.203-4.555-.586-6.781l98.2-64.43a18.573 18.573 0 0 1 15.558-1.86 18.562 18.562 0 0 1 11.492 10.778c2.887 7.203 1.074 15.27-4.644 20.578L365.207 397.98a29.917 29.917 0 0 1-20.418 8.02H180.641l-78.84-78.844zm-54.688 28.7L182.36 436l-51.86 51.86L24.64 382zm0 0" fill="#ffffff" opacity="1" data-original="#000000" class=""></path></g></svg>