<svg xmlns="http://www.w3.org/2000/svg" version="1.1" xmlns:xlink="http://www.w3.org/1999/xlink" width="512" height="512" x="0" y="0" viewBox="0 0 682.667 682.667" style="enable-background:new 0 0 512 512" xml:space="preserve" class=""><g transform="matrix(0.8000000000000002,0,0,0.8000000000000002,68.26649284362793,68.26690063476559)"><defs><clipPath id="a" clipPathUnits="userSpaceOnUse"><path d="M0 512h512V0H0Z" fill="#ffffff" opacity="1" data-original="#000000"></path></clipPath></defs><g clip-path="url(#a)" transform="matrix(1.33333 0 0 -1.33333 0 682.667)"><path d="M0 0h16.639c7.002 0 12.728 5.727 12.728 12.729v31.179c0 9.496-5.244 22.082-17.49 22.082H-2.438c-17.972 0-39.458 36.766-68.173 36.766h-80.618c-29.337 0-55.076-36.822-72.623-36.766-27.156.03-93.941-16.072-93.941-31.804V12.729c0-7.002 5.727-12.729 12.699-12.729h22.026m158.513 0h64.801m-163.531 0h64.771" style="stroke-width:14.995;stroke-linecap:round;stroke-linejoin:round;stroke-miterlimit:10;stroke-dasharray:none;stroke-opacity:1" transform="translate(325.293 141.041)" fill="none" stroke="#ffffff" stroke-width="14.995" stroke-linecap="round" stroke-linejoin="round" stroke-miterlimit="10" stroke-dasharray="none" stroke-opacity="" data-original="#000000" opacity="1" class=""></path><path d="M0 0c0-7.652 6.264-13.918 13.889-13.918h193.634c7.625 0 13.891 6.266 13.891 13.918" style="stroke-width:14.995;stroke-linecap:round;stroke-linejoin:round;stroke-miterlimit:10;stroke-dasharray:none;stroke-opacity:1" transform="translate(101.441 207.031)" fill="none" stroke="#ffffff" stroke-width="14.995" stroke-linecap="round" stroke-linejoin="round" stroke-miterlimit="10" stroke-dasharray="none" stroke-opacity="" data-original="#000000" opacity="1" class=""></path><path d="M0 0c-13.805 0-25-11.195-25-25.029 0-13.805 11.195-25.03 25-25.03 13.834 0 25.031 11.225 25.031 25.03C25.031-11.195 13.834 0 0 0Zm223.314 0c-13.834 0-25.029-11.195-25.029-25.029 0-13.805 11.195-25.03 25.029-25.03 13.805 0 25.002 11.225 25.002 25.03C248.316-11.195 237.119 0 223.314 0Z" style="stroke-width:14.995;stroke-linecap:round;stroke-linejoin:round;stroke-miterlimit:10;stroke-dasharray:none;stroke-opacity:1" transform="translate(72.102 166.07)" fill="none" stroke="#ffffff" stroke-width="14.995" stroke-linecap="round" stroke-linejoin="round" stroke-miterlimit="10" stroke-dasharray="none" stroke-opacity="" data-original="#000000" opacity="1" class=""></path><path d="M0 0v-47.283h-2.211" style="stroke-width:14.995;stroke-linecap:round;stroke-linejoin:round;stroke-miterlimit:10;stroke-dasharray:none;stroke-opacity:1" transform="translate(214.373 240.397)" fill="none" stroke="#ffffff" stroke-width="14.995" stroke-linecap="round" stroke-linejoin="round" stroke-miterlimit="10" stroke-dasharray="none" stroke-opacity="" data-original="#000000" opacity="1" class=""></path><path d="M0 0h196.811c19.105 0 34.724 15.619 34.724 34.697 0 19.106-15.619 34.725-34.724 34.725H-230.74c-19.106 0-34.725-15.619-34.725-34.725C-265.465 15.619-249.846 0-230.74 0h196.781" style="stroke-width:14.995;stroke-linecap:round;stroke-linejoin:round;stroke-miterlimit:10;stroke-dasharray:none;stroke-opacity:1" transform="translate(272.965 46.59)" fill="none" stroke="#ffffff" stroke-width="14.995" stroke-linecap="round" stroke-linejoin="round" stroke-miterlimit="10" stroke-dasharray="none" stroke-opacity="" data-original="#000000" opacity="1" class=""></path><path d="M0 0v19.871m-9.92-9.949H9.922" style="stroke-width:14.995;stroke-linecap:round;stroke-linejoin:round;stroke-miterlimit:10;stroke-dasharray:none;stroke-opacity:1" transform="translate(42.225 71.365)" fill="none" stroke="#ffffff" stroke-width="14.995" stroke-linecap="round" stroke-linejoin="round" stroke-miterlimit="10" stroke-dasharray="none" stroke-opacity="" data-original="#000000" opacity="1" class=""></path><path d="M0 0v19.871m-9.922-9.949H9.92" style="stroke-width:14.995;stroke-linecap:round;stroke-linejoin:round;stroke-miterlimit:10;stroke-dasharray:none;stroke-opacity:1" transform="translate(469.775 71.365)" fill="none" stroke="#ffffff" stroke-width="14.995" stroke-linecap="round" stroke-linejoin="round" stroke-miterlimit="10" stroke-dasharray="none" stroke-opacity="" data-original="#000000" opacity="1" class=""></path><path d="M0 0h4.961m-39.033 0h4.961m-39.063 0h4.99m-39.062 0h4.961m-39.033 0h4.961m-39.061 0h4.959m-39.033 0h4.961m-39.033 0h4.96m-39.06 0h4.961m-39.033 0h4.961M34.102 0h4.959" style="stroke-width:14.995;stroke-linecap:round;stroke-linejoin:round;stroke-miterlimit:10;stroke-dasharray:none;stroke-opacity:1" transform="translate(389.838 81.287)" fill="none" stroke="#ffffff" stroke-width="14.995" stroke-linecap="round" stroke-linejoin="round" stroke-miterlimit="10" stroke-dasharray="none" stroke-opacity="" data-original="#000000" opacity="1" class=""></path><path d="M0 0v4.961" style="stroke-width:14.995;stroke-linecap:round;stroke-linejoin:round;stroke-miterlimit:10;stroke-dasharray:none;stroke-opacity:1" transform="translate(427.879 201.334)" fill="none" stroke="#ffffff" stroke-width="14.995" stroke-linecap="round" stroke-linejoin="round" stroke-miterlimit="10" stroke-dasharray="none" stroke-opacity="" data-original="#000000" opacity="1" class=""></path><path d="M0 0v4.961" style="stroke-width:14.995;stroke-linecap:round;stroke-linejoin:round;stroke-miterlimit:10;stroke-dasharray:none;stroke-opacity:1" transform="translate(427.879 316.533)" fill="none" stroke="#ffffff" stroke-width="14.995" stroke-linecap="round" stroke-linejoin="round" stroke-miterlimit="10" stroke-dasharray="none" stroke-opacity="" data-original="#000000" opacity="1" class=""></path><path d="M0 0v4.961" style="stroke-width:14.995;stroke-linecap:round;stroke-linejoin:round;stroke-miterlimit:10;stroke-dasharray:none;stroke-opacity:1" transform="translate(224.748 433.803)" fill="none" stroke="#ffffff" stroke-width="14.995" stroke-linecap="round" stroke-linejoin="round" stroke-miterlimit="10" stroke-dasharray="none" stroke-opacity="" data-original="#000000" opacity="1" class=""></path><path d="M0 0v32.996" style="stroke-width:14.995;stroke-linecap:round;stroke-linejoin:round;stroke-miterlimit:10;stroke-dasharray:none;stroke-opacity:1" transform="translate(224.748 292.156)" fill="none" stroke="#ffffff" stroke-width="14.995" stroke-linecap="round" stroke-linejoin="round" stroke-miterlimit="10" stroke-dasharray="none" stroke-opacity="" data-original="#000000" opacity="1" class=""></path><path d="M385.982 116.012h83.793v43.143h-83.793z" style="stroke-width:14.995;stroke-linecap:round;stroke-linejoin:round;stroke-miterlimit:10;stroke-dasharray:none;stroke-opacity:1" fill="none" stroke="#ffffff" stroke-width="14.995" stroke-linecap="round" stroke-linejoin="round" stroke-miterlimit="10" stroke-dasharray="none" stroke-opacity="" data-original="#000000" opacity="1" class=""></path><path d="M0 0c16.016 0 29.111-13.123 29.111-29.139v-44.646h-58.222v44.646C-29.111-13.123-16.016 0 0 0Z" style="stroke-width:14.995;stroke-linecap:round;stroke-linejoin:round;stroke-miterlimit:10;stroke-dasharray:none;stroke-opacity:1" transform="translate(427.879 232.94)" fill="none" stroke="#ffffff" stroke-width="14.995" stroke-linecap="round" stroke-linejoin="round" stroke-miterlimit="10" stroke-dasharray="none" stroke-opacity="" data-original="#000000" opacity="1" class=""></path><path d="M0 0v66.047m33.961 0V0" style="stroke-width:14.995;stroke-linecap:round;stroke-linejoin:round;stroke-miterlimit:10;stroke-dasharray:none;stroke-opacity:1" transform="translate(410.898 228.094)" fill="none" stroke="#ffffff" stroke-width="14.995" stroke-linecap="round" stroke-linejoin="round" stroke-miterlimit="10" stroke-dasharray="none" stroke-opacity="" data-original="#000000" opacity="1" class=""></path><path d="m0 0 65.879-38.012m-161.18 93.033 65.879-38.013m78.406-84.5L-94.479 15.336" style="stroke-width:14.995;stroke-linecap:round;stroke-linejoin:round;stroke-miterlimit:10;stroke-dasharray:none;stroke-opacity:1" transform="translate(349.387 383.941)" fill="none" stroke="#ffffff" stroke-width="14.995" stroke-linecap="round" stroke-linejoin="round" stroke-miterlimit="10" stroke-dasharray="none" stroke-opacity="" data-original="#000000" opacity="1" class=""></path><path d="M0 0c16.045 0 29.111 13.096 29.111 29.141 0 16.043-13.066 29.111-29.111 29.111s-29.111-13.068-29.111-29.111C-29.111 13.096-16.045 0 0 0Z" style="stroke-width:14.995;stroke-linecap:round;stroke-linejoin:round;stroke-miterlimit:10;stroke-dasharray:none;stroke-opacity:1" transform="translate(427.879 289.889)" fill="none" stroke="#ffffff" stroke-width="14.995" stroke-linecap="round" stroke-linejoin="round" stroke-miterlimit="10" stroke-dasharray="none" stroke-opacity="" data-original="#000000" opacity="1" class=""></path><path d="M0 0c16.102 0 29.141-13.039 29.141-29.111v-75.969h-58.252v75.969C-29.111-13.039-16.072 0 0 0Z" style="stroke-width:14.995;stroke-linecap:round;stroke-linejoin:round;stroke-miterlimit:10;stroke-dasharray:none;stroke-opacity:1" transform="translate(224.748 465.41)" fill="none" stroke="#ffffff" stroke-width="14.995" stroke-linecap="round" stroke-linejoin="round" stroke-miterlimit="10" stroke-dasharray="none" stroke-opacity="" data-original="#000000" opacity="1" class=""></path><path d="M210.178 325.152h29.141v35.178h-29.141z" style="stroke-width:14.995;stroke-linecap:round;stroke-linejoin:round;stroke-miterlimit:10;stroke-dasharray:none;stroke-opacity:1" fill="none" stroke="#ffffff" stroke-width="14.995" stroke-linecap="round" stroke-linejoin="round" stroke-miterlimit="10" stroke-dasharray="none" stroke-opacity="" data-original="#000000" opacity="1" class=""></path><path d="M0 0h46.857c7.993 0 14.571-6.547 14.571-14.541v-69.902c0-7.995-6.578-14.571-14.571-14.571H2.551l-9.78-16.924-9.751-16.921-9.78 16.921-9.779 16.924h-44.305c-7.994 0-14.543 6.576-14.543 14.571v69.902C-95.387-6.547-88.838 0-80.844 0h46.856" style="stroke-width:14.995;stroke-linecap:round;stroke-linejoin:round;stroke-miterlimit:10;stroke-dasharray:none;stroke-opacity:1" transform="translate(102.887 374.162)" fill="none" stroke="#ffffff" stroke-width="14.995" stroke-linecap="round" stroke-linejoin="round" stroke-miterlimit="10" stroke-dasharray="none" stroke-opacity="" data-original="#000000" opacity="1" class=""></path><path d="m0 0-13.125-16.584 18.906-8.334-13.123-16.611" style="stroke-width:14.995;stroke-linecap:round;stroke-linejoin:round;stroke-miterlimit:10;stroke-dasharray:none;stroke-opacity:1" transform="translate(89.564 345.42)" fill="none" stroke="#ffffff" stroke-width="14.995" stroke-linecap="round" stroke-linejoin="round" stroke-miterlimit="10" stroke-dasharray="none" stroke-opacity="" data-original="#000000" opacity="1" class=""></path><path d="M0 0h13.352m94.166 0h13.351" style="stroke-width:14.995;stroke-linecap:round;stroke-linejoin:round;stroke-miterlimit:10;stroke-dasharray:none;stroke-opacity:1" transform="translate(121.426 167.092)" fill="none" stroke="#ffffff" stroke-width="14.995" stroke-linecap="round" stroke-linejoin="round" stroke-miterlimit="10" stroke-dasharray="none" stroke-opacity="" data-original="#000000" opacity="1" class=""></path></g></g></svg>