<svg xmlns="http://www.w3.org/2000/svg" version="1.1" xmlns:xlink="http://www.w3.org/1999/xlink" width="512" height="512" x="0" y="0" viewBox="0 0 512 512" style="enable-background:new 0 0 512 512" xml:space="preserve" class=""><g transform="matrix(0.8,0,0,0.8,51.20000610351562,51.20002708435058)"><path d="M208.517 188.055h-67.388a8 8 0 0 0-8 8v215.092a8 8 0 0 0 8 8h67.388a8 8 0 0 0 8-8V196.055a8 8 0 0 0-8-8zm-8 215.091h-51.388V204.055h51.388zM83.388 271.489H16a8 8 0 0 0-8 8v131.657a8 8 0 0 0 8 8h67.388a8 8 0 0 0 8-8V279.489a8 8 0 0 0-8-8zm-8 131.657H24V287.489h51.388zm-32.007-188.56a8 8 0 0 1 1.397-11.227l125.13-97.433a8.006 8.006 0 0 1 7.381-1.298l120.449 39.038L400.437 40.089l-14.748 3.177a8 8 0 0 1-3.369-15.641l41.075-8.848a8.002 8.002 0 0 1 9.563 9.21l-6.601 37.438a8.002 8.002 0 0 1-9.267 6.489 8 8 0 0 1-6.489-9.268l2.163-12.265-107.13 108.045a8.005 8.005 0 0 1-8.147 1.978l-121.096-39.248-121.783 94.827a7.965 7.965 0 0 1-4.91 1.688 7.981 7.981 0 0 1-6.317-3.085zm423.394 82.621v-189.55a8 8 0 0 0-8-8h-67.389a8 8 0 0 0-8 8v160.806a111.748 111.748 0 0 0-41.739 11.312v-55.634a8 8 0 0 0-8-8h-67.388a8 8 0 0 0-8 8v187.006a8 8 0 0 0 8 8h19.245c15.723 43.267 57.25 74.255 105.882 74.255 62.095 0 112.614-50.518 112.614-112.613 0-33.128-14.381-62.957-37.225-83.582zm-16-181.549v169.494c-15.122-9.424-32.627-15.365-51.389-16.688V115.658zM274.259 403.147V232.141h51.388v57.271c-28.37 20.468-46.874 53.8-46.874 91.377 0 7.653.771 15.13 2.233 22.358zm117.127 74.255c-53.273 0-96.613-43.34-96.613-96.613s43.34-96.613 96.613-96.613S488 327.516 488 380.789s-43.341 96.613-96.614 96.613zm33.429-78.878c.848 6.984-1.038 13.373-5.452 18.476-4.543 5.252-11.736 8.931-19.977 10.373v3.965a8 8 0 0 1-16 0v-4.096c-12.688-2.574-22.421-11.125-25.389-23.03a8 8 0 0 1 15.525-3.871c2.223 8.914 11.465 11.864 18.717 11.701 6.265-.149 12.302-2.363 15.022-5.509 1.441-1.666 1.972-3.598 1.67-6.081-.518-4.264-3.119-9.488-18.768-12.057-23.719-3.895-29.259-16.293-29.73-26.009-.65-13.382 8.567-24.581 22.953-27.917v-4.231a8 8 0 0 1 16 0v4.16c9.344 2.054 18.249 7.962 22.894 19.026a8 8 0 0 1-4.279 10.473 7.998 7.998 0 0 1-10.473-4.279c-3.766-8.969-12.976-11.279-20.428-9.586-1.858.421-11.104 2.96-10.686 11.578.111 2.292.406 8.379 16.341 10.996 19.576 3.214 30.362 11.934 32.06 25.918zm-33.429-105.618c-48.458 0-87.883 39.424-87.883 87.883s39.424 87.883 87.883 87.883 87.883-39.424 87.883-87.883c.001-48.459-39.424-87.883-87.883-87.883zm0 159.766c-39.636 0-71.883-32.247-71.883-71.883s32.247-71.883 71.883-71.883c39.637 0 71.883 32.247 71.883 71.883.001 39.637-32.246 71.883-71.883 71.883z" fill="#ffffff" opacity="1" data-original="#000000" class=""></path></g></svg>