<svg xmlns="http://www.w3.org/2000/svg" version="1.1" xmlns:xlink="http://www.w3.org/1999/xlink" width="512" height="512" x="0" y="0" viewBox="0 0 512 512" style="enable-background:new 0 0 512 512" xml:space="preserve" class=""><g transform="matrix(0.7600000000000005,0,0,0.7600000000000005,76.43994129180896,61.44014923095699)"><path d="M128.248 314.442c-36.208 0-65.666 29.458-65.666 65.666s29.458 65.666 65.666 65.666 65.666-29.458 65.666-65.666-29.457-65.666-65.666-65.666zm0 115.332c-27.386 0-49.666-22.28-49.666-49.666s22.28-49.666 49.666-49.666 49.666 22.28 49.666 49.666-22.28 49.666-49.666 49.666zm373.409-135.41-16.098-16.099a8 8 0 0 0-9.9-1.125l-29.52 18.47a7.993 7.993 0 0 0-3.259 4.005l-5.884 15.899-28.034 28.035c-16.959-25.943-39.788-47.78-66.562-63.509a199.654 199.654 0 0 0-55.295-22.151c29.37-14.312 51.256-41.9 57.449-75.465h1.415c12.175 0 22.08-9.904 22.08-22.079 0-10.286-7.072-18.952-16.608-21.393l.002-.694c0-46.231-28.386-87.064-71.202-103.311-.727-4.304-2.643-8.23-5.68-11.57-10.006-11.007-28.236-11.868-33.616-11.868h-.044c-5.388 0-23.617.862-33.623 11.868-3.037 3.341-4.953 7.267-5.681 11.571-42.815 16.247-71.202 57.08-71.202 103.311l.002.694c-9.537 2.44-16.608 11.106-16.608 21.393 0 12.174 9.905 22.079 22.079 22.079h1.415c6.197 33.582 28.103 61.181 57.496 75.487a200.132 200.132 0 0 0-41.014 14.505l-2.86-7.429a7.998 7.998 0 0 0-7.466-5.126h-30.381a8 8 0 0 0-7.466 5.126l-5.685 14.768a103.589 103.589 0 0 0-22.57 9.357l-14.472-6.427a7.997 7.997 0 0 0-8.904 1.654l-21.483 21.483a7.999 7.999 0 0 0-1.654 8.904l6.427 14.47a103.538 103.538 0 0 0-9.358 22.572l-14.766 5.684A7.996 7.996 0 0 0 8 364.917v30.382a8 8 0 0 0 5.126 7.466l14.763 5.683a103.507 103.507 0 0 0 9.359 22.577l-6.425 14.466a7.999 7.999 0 0 0 1.654 8.904l21.483 21.483a8.002 8.002 0 0 0 8.904 1.655l14.473-6.428a103.573 103.573 0 0 0 22.569 9.357l5.684 14.767a7.998 7.998 0 0 0 7.466 5.126h30.382a8 8 0 0 0 7.466-5.126l5.683-14.763a103.548 103.548 0 0 0 22.577-9.359l14.465 6.425a8 8 0 0 0 8.904-1.654l21.483-21.483a8 8 0 0 0 1.655-8.904l-2.247-5.059h73.106l-14.758 14.758a8 8 0 0 0 0 11.313l31.646 31.646a8 8 0 0 0 11.314 0l57.718-57.718h50.001a7.997 7.997 0 0 0 7.954-8.852 199.549 199.549 0 0 0-12.748-51.904l36.75-36.75 15.899-5.883a7.996 7.996 0 0 0 4.005-3.26l18.47-29.52a7.997 7.997 0 0 0-1.124-9.898zm-104.259 60.747-9.426 9.426v-22.994a183.291 183.291 0 0 1 9.426 13.568zM219.115 34.139c3.551-3.905 12.504-6.631 21.786-6.631h.042c9.274 0 18.228 2.726 21.778 6.631 1.476 1.624 2.032 3.412 1.803 5.798-.013.135-.015.269-.021.403l-.022-.003-5.071 39.051c-.598 4.606-4.403 7.949-9.048 7.949h-18.887c-4.645 0-8.45-3.343-9.048-7.949l-5.072-39.051-.022.003c-.006-.134-.008-.268-.021-.403-.229-2.386.327-4.175 1.803-5.798zm-16.406 17.656 3.851 29.654c1.62 12.479 12.331 21.889 24.915 21.889h18.887c12.583 0 23.294-9.41 24.914-21.888l3.851-29.654c34.043 14.983 56.315 48.597 56.315 86.463v.008H146.394v-.008c0-37.867 22.272-71.481 56.315-86.464zm143.259 102.471c3.353 0 6.08 2.727 6.08 6.079s-2.727 6.079-6.08 6.079h-210.1c-3.352 0-6.079-2.727-6.079-6.079s2.727-6.079 6.079-6.079zm-192.355 28.157h174.61c-8.882 40.529-44.931 70.087-87.293 70.093h-.024c-42.363-.006-78.411-29.564-87.293-70.093zm87.305 86.093h.017c32.865.003 64.643 8.876 92.32 24.873v45.085H223.849a103.672 103.672 0 0 0-4.601-9.282l6.425-14.467a8 8 0 0 0-1.655-8.904l-21.483-21.483a7.999 7.999 0 0 0-8.904-1.654l-14.472 6.427a103.782 103.782 0 0 0-11.409-5.506 185.33 185.33 0 0 1 73.15-15.089zM195.105 460.68l-13.201-5.863a7.995 7.995 0 0 0-7.442.499 87.654 87.654 0 0 1-25.716 10.661 8 8 0 0 0-5.614 4.909l-5.185 13.471H118.55l-5.187-13.475a8 8 0 0 0-5.614-4.909 87.662 87.662 0 0 1-25.709-10.659 8.004 8.004 0 0 0-7.441-.499l-13.208 5.866-13.715-13.715 5.864-13.202a8 8 0 0 0-.5-7.443 87.64 87.64 0 0 1-10.66-25.715 8 8 0 0 0-4.909-5.614L24 389.806V370.41l13.473-5.186a8 8 0 0 0 4.909-5.614 87.658 87.658 0 0 1 10.66-25.711 8.001 8.001 0 0 0 .499-7.442l-5.865-13.206 13.715-13.715 13.208 5.866a7.999 7.999 0 0 0 7.441-.499 87.683 87.683 0 0 1 25.709-10.659 8 8 0 0 0 5.614-4.909l5.187-13.475h19.396l5.187 13.475a7.998 7.998 0 0 0 5.614 4.909 87.666 87.666 0 0 1 25.708 10.659 8.004 8.004 0 0 0 7.442.5l13.208-5.866 13.715 13.715-5.864 13.203a7.998 7.998 0 0 0 .5 7.442 87.647 87.647 0 0 1 10.66 25.714 7.998 7.998 0 0 0 4.909 5.614l13.471 5.185v19.396l-13.475 5.187a7.998 7.998 0 0 0-4.909 5.614 87.643 87.643 0 0 1-10.659 25.708 8.001 8.001 0 0 0-.499 7.442l5.866 13.208zm27.519-36.249a103.394 103.394 0 0 0 5.979-15.983l14.767-5.684a7.998 7.998 0 0 0 5.126-7.466v-30.382a8 8 0 0 0-5.126-7.466l-7.734-2.977h105.618a8 8 0 0 0 8-8V303.78a185.527 185.527 0 0 1 22.718 19.41v57.348l-5.93 5.93c-5.704-3.242-13.098-2.449-17.958 2.411l-35.553 35.553zm96.452 56.747-20.332-20.333 59.914-59.914 20.332 20.333zm104.257-56.747h-28.26a14.875 14.875 0 0 0-1.615-10.556l21.758-21.758a183.463 183.463 0 0 1 8.117 32.314zm48.862-101.447-14.982 5.544a7.992 7.992 0 0 0-2.88 1.846l-71.803 71.803-4.785-4.785 71.803-71.803a8.006 8.006 0 0 0 1.846-2.88l5.545-14.983 21.809-13.646 7.094 7.094z" fill="#ffffff" opacity="1" data-original="#000000" class=""></path></g></svg>