<svg xmlns="http://www.w3.org/2000/svg" version="1.1" xmlns:xlink="http://www.w3.org/1999/xlink" width="512" height="512" x="0" y="0" viewBox="0 0 100 100" style="enable-background:new 0 0 512 512" xml:space="preserve" class=""><g><path d="M90.53 9.58H9.47A6.48 6.48 0 0 0 3 16.06v67.88a6.48 6.48 0 0 0 6.47 6.48h81.06A6.48 6.48 0 0 0 97 83.94V16.06a6.48 6.48 0 0 0-6.47-6.48zm3.56 74.36a3.57 3.57 0 0 1-3.56 3.57H9.47a3.57 3.57 0 0 1-3.56-3.57V23.45h88.18zm0-63.4H5.91v-4.48a3.57 3.57 0 0 1 3.56-3.57h81.06a3.57 3.57 0 0 1 3.56 3.57z" fill="#000000" opacity="1" data-original="#000000" class=""></path><path d="m35.05 46.8 17.17 5.43a1.35 1.35 0 0 0 .44.07 1.46 1.46 0 0 0 1.39-1 19.71 19.71 0 0 0 .9-5.87A19.48 19.48 0 0 0 35.49 26 1.45 1.45 0 0 0 34 27.41v18a1.45 1.45 0 0 0 1.05 1.39zm1.89-17.87A16.56 16.56 0 0 1 51.65 49l-14.71-4.65z" fill="#000000" opacity="1" data-original="#000000" class=""></path><path d="M29.83 68.88a19.37 19.37 0 0 0 18.55-13.59 1.44 1.44 0 0 0-.94-1.82l-16.16-5.11V31.42A1.45 1.45 0 0 0 29.83 30a19.46 19.46 0 0 0 0 38.92zm-1.46-35.95v16.49a1.46 1.46 0 0 0 1 1.39l15.72 5a16.55 16.55 0 1 1-16.72-22.88zM52.38 84.06h10.3V65.13h-10.3zm2.91-16h4.48v13.09h-4.48zM65.86 84.06h10.29v-23.9H65.86zm2.91-21h4.48v18.09h-4.48zM79.33 84.06h10.3V52.89h-10.3zm2.91-28.26h4.48v25.35h-4.48zM64.61 25.96h23.57v2.91H64.61zM64.61 34.15h23.57v2.91H64.61zM11.82 72.96h23.57v2.91H11.82zM11.82 81.15h23.57v2.91H11.82zM11.82 14.36h7.04v2.91h-7.04zM64.61 43.02h23.57v2.91H64.61z" fill="#000000" opacity="1" data-original="#000000" class=""></path></g></svg>