<svg xmlns="http://www.w3.org/2000/svg" version="1.1" xmlns:xlink="http://www.w3.org/1999/xlink" width="512" height="512" x="0" y="0" viewBox="0 0 512 512" style="enable-background:new 0 0 512 512" xml:space="preserve" class=""><g><path d="M462.083 104.414H250.761V54.936c0-3.762-1.406-7.157-4.067-9.819L213.646 12.07C210.986 9.407 207.59 8 203.825 8H23.382C15.725 8 9.495 14.229 9.495 21.886v280.192c0 7.656 6.229 13.886 13.887 13.886h41.379v51.92c0 22.289 18.133 40.422 40.422 40.422h104.176v35.512h-41.351c-19.657 0-35.649 13.499-35.649 30.091V496a8 8 0 0 0 8 8h286.549a8 8 0 0 0 8-8v-22.092c0-16.592-15.992-30.091-35.649-30.091h-41.351v-35.512h104.176c22.289 0 40.422-18.133 40.422-40.422V144.835c-.001-22.288-18.134-40.421-40.423-40.421zm-354.21 211.55h129.002c7.656 0 13.886-6.229 13.886-13.886V147.526h208.632v190.166h-351.52zm106.391-280.65 9.183 9.183h-9.183zM25.495 24h172.769v25.554c0 6.034 4.909 10.943 10.943 10.943h25.554v239.467H25.495zm393.412 449.908V488H148.358v-14.092c0-7.638 8.998-14.091 19.649-14.091h231.25c10.652 0 19.65 6.454 19.65 14.091zm-77-30.091H225.358v-35.512h116.549zm144.598-75.933c0 13.466-10.956 24.422-24.422 24.422h-356.9c-13.466 0-24.422-10.956-24.422-24.422v-51.92h11.112v29.728a8 8 0 0 0 8 8h367.52a8 8 0 0 0 8-8v-201.67c0-6.891-5.606-12.497-12.497-12.497H250.761v-11.112h211.322c13.466 0 24.422 10.956 24.422 24.422zM117.82 106.021a8 8 0 0 1 8-8h86.793a8 8 0 0 1 0 16H125.82a8 8 0 0 1-8-8zm0-30.001a8 8 0 0 1 8-8h86.793a8 8 0 0 1 0 16H125.82a8 8 0 0 1-8-8zm0 100.963a8 8 0 0 1 8-8h86.793a8 8 0 0 1 0 16H125.82a8 8 0 0 1-8-8zm0-30.002a8 8 0 0 1 8-8h86.793a8 8 0 0 1 0 16H125.82a8 8 0 0 1-8-8zm0 100.964a8 8 0 0 1 8-8h86.793a8 8 0 0 1 0 16H125.82a8 8 0 0 1-8-8zm0-30.002a8 8 0 0 1 8-8h86.793a8 8 0 0 1 0 16H125.82a8 8 0 0 1-8-8zM55.992 120.02h25.3c9.016 0 16.35-7.334 16.35-16.349v-25.3c0-9.015-7.334-16.349-16.35-16.349h-25.3c-9.015 0-16.349 7.334-16.349 16.349v25.3c.001 9.015 7.335 16.349 16.349 16.349zm-.348-41.649c0-.173.176-.349.349-.349h25.3c.173 0 .35.176.35.349v25.3c0 .173-.177.349-.35.349h-25.3c-.173 0-.349-.176-.349-.349zm.348 112.61h25.3c9.016 0 16.35-7.334 16.35-16.349v-25.3c0-9.015-7.334-16.349-16.35-16.349h-25.3c-9.015 0-16.349 7.334-16.349 16.349v25.3c.001 9.015 7.335 16.349 16.349 16.349zm-.348-41.649c0-.173.176-.349.349-.349h25.3c.173 0 .35.176.35.349v25.3c0 .173-.177.349-.35.349h-25.3c-.173 0-.349-.176-.349-.349zm41.998 96.262v-25.3c0-9.015-7.334-16.349-16.35-16.349h-25.3c-9.015 0-16.349 7.334-16.349 16.349v25.3c0 9.015 7.334 16.349 16.349 16.349h25.3c9.016-.001 16.35-7.335 16.35-16.349zm-41.998 0v-25.3c0-.173.176-.349.349-.349h25.3c.173 0 .35.176.35.349v25.3c0 .173-.177.349-.35.349h-25.3c-.174-.001-.349-.176-.349-.349zm377.291 63.057a8 8 0 0 1-8 8H285.219a8 8 0 0 1 0-16h139.716a8 8 0 0 1 8 8zm0-44.028a8 8 0 0 1-8 8H285.219a8 8 0 0 1 0-16h139.716a8 8 0 0 1 8 8zm0-44.029a8 8 0 0 1-8 8H285.219a8 8 0 0 1 0-16h139.716a8 8 0 0 1 8 8zm0-44.029a8 8 0 0 1-8 8H285.219a8 8 0 0 1 0-16h139.716a8 8 0 0 1 8 8z" fill="#000000" opacity="1" data-original="#000000" class=""></path></g></svg>