<svg xmlns="http://www.w3.org/2000/svg" version="1.1" xmlns:xlink="http://www.w3.org/1999/xlink" width="512" height="512" x="0" y="0" viewBox="0 0 512 512" style="enable-background:new 0 0 512 512" xml:space="preserve" class=""><g transform="matrix(0.8,0,0,0.8,51.19869956970214,51.19999999999999)"><path d="M134.72 393.67H65.94c-3.31 0-6 2.69-6 6V491c0 3.31 2.69 6 6 6h68.78c3.31 0 6-2.69 6-6v-91.33c0-3.32-2.69-6-6-6zm-6 91.33H71.94v-79.33h56.78zm119.01-143.71h-68.78c-3.31 0-6 2.69-6 6V491c0 3.31 2.69 6 6 6h68.78c3.31 0 6-2.69 6-6V347.29c0-3.31-2.68-6-6-6zm-6 143.71h-56.78V353.29h56.78zm232.04-177.43h-68.78c-3.31 0-6 2.69-6 6V491c0 3.31 2.69 6 6 6h68.78c3.31 0 6-2.69 6-6V313.57c0-3.31-2.69-6-6-6zm-6 177.43h-56.78V319.57h56.78zm-109.03-91.33h-68.78c-3.31 0-6 2.69-6 6V491c0 3.31 2.69 6 6 6h68.78c3.31 0 6-2.69 6-6v-91.33c0-3.32-2.69-6-6-6zm-6 91.33h-56.78v-79.33h56.78zM94.13 374.78c20.03 0 36.33-16.3 36.33-36.33 0-4.86-.97-9.51-2.71-13.75l56.23-34.8c6.66 7.59 16.43 12.39 27.29 12.39 10.9 0 20.7-4.84 27.36-12.47l54.03 33.22a36.092 36.092 0 0 0-2.67 13.65c0 20.03 16.3 36.33 36.33 36.33s36.33-16.3 36.33-36.33c0-6.97-1.97-13.48-5.39-19.01l65.23-56.86c6.28 5.17 14.31 8.28 23.06 8.28 20.03 0 36.33-16.3 36.33-36.33s-16.3-36.33-36.33-36.33-36.33 16.3-36.33 36.33c0 6.97 1.98 13.48 5.39 19.02l-65.23 56.86c-6.28-5.17-14.31-8.28-23.06-8.28-10.91 0-20.7 4.84-27.36 12.47l-54.03-33.22c1.72-4.22 2.67-8.83 2.67-13.65 0-20.03-16.3-36.33-36.33-36.33s-36.33 16.3-36.33 36.33c0 4.87.97 9.51 2.71 13.75l-56.23 34.8c-6.66-7.59-16.43-12.39-27.29-12.39-20.03 0-36.33 16.3-36.33 36.33s16.3 36.32 36.33 36.32zm351.44-166.35c13.42 0 24.33 10.92 24.33 24.33s-10.92 24.33-24.33 24.33-24.33-10.92-24.33-24.33 10.91-24.33 24.33-24.33zM326.34 312.37c13.42 0 24.33 10.92 24.33 24.33s-10.92 24.33-24.33 24.33S302 350.12 302 336.7s10.92-24.33 24.34-24.33zm-115.06-70.75c13.42 0 24.33 10.92 24.33 24.33s-10.92 24.33-24.33 24.33-24.33-10.92-24.33-24.33 10.91-24.33 24.33-24.33zM94.13 314.11c13.42 0 24.33 10.92 24.33 24.33s-10.92 24.33-24.33 24.33-24.33-10.91-24.33-24.32 10.92-24.34 24.33-24.34zm80.66-164.7h17.15c.51 0 .85.25 1.01.73 1.28 3.91 2.88 7.75 4.74 11.44.23.46.17.87-.2 1.24l-12.14 12.14c-2.46 2.46-3.82 5.75-3.82 9.24s1.36 6.78 3.82 9.24l16.82 16.82c2.46 2.46 5.75 3.82 9.24 3.82s6.78-1.36 9.24-3.82l12.14-12.14c.36-.36.78-.43 1.24-.2 3.68 1.87 7.53 3.46 11.43 4.74.49.16.73.5.73 1.01v17.16c0 7.21 5.86 13.07 13.07 13.07h23.79c7.21 0 13.07-5.86 13.07-13.07v-17.15c0-.51.25-.85.73-1.01 3.91-1.28 7.75-2.88 11.44-4.74.46-.23.87-.17 1.24.2l12.14 12.14c2.46 2.46 5.75 3.82 9.24 3.82s6.78-1.36 9.24-3.82l16.82-16.82c2.47-2.46 3.82-5.75 3.82-9.24s-1.36-6.78-3.82-9.24l-12.14-12.14c-.36-.36-.43-.78-.2-1.24a82.43 82.43 0 0 0 4.74-11.43c.16-.49.5-.73 1.01-.73h17.16c7.21 0 13.07-5.86 13.07-13.07v-23.79c0-7.21-5.86-13.07-13.07-13.07H350.4c-.51 0-.85-.25-1.01-.73a82.048 82.048 0 0 0-4.74-11.44c-.23-.46-.17-.87.2-1.24l12.14-12.14c2.46-2.46 3.82-5.75 3.82-9.24s-1.36-6.78-3.82-9.24l-16.82-16.82c-2.46-2.46-5.75-3.82-9.24-3.82s-6.78 1.36-9.24 3.82l-12.14 12.14c-.36.36-.78.43-1.24.2a81.549 81.549 0 0 0-11.44-4.74c-.49-.16-.73-.5-.73-1.01V28.07c0-7.21-5.86-13.07-13.07-13.07h-23.79c-7.21 0-13.07 5.86-13.07 13.07v17.15c0 .51-.25.85-.73 1.01a81.926 81.926 0 0 0-11.43 4.74c-.46.23-.87.17-1.24-.2l-12.13-12.14c-2.46-2.46-5.75-3.82-9.24-3.82s-6.78 1.36-9.24 3.82l-16.82 16.82c-5.09 5.09-5.09 13.39 0 18.48l12.14 12.14c.36.36.43.78.2 1.24a81.549 81.549 0 0 0-4.74 11.44c-.16.49-.5.73-1.01.73h-17.16c-7.21 0-13.07 5.86-13.07 13.07v23.79c-.02 7.21 5.84 13.07 13.05 13.07zm-1.07-36.85c0-.58.49-1.07 1.07-1.07h17.16c5.66 0 10.65-3.61 12.41-8.99 1.1-3.34 2.46-6.62 4.05-9.76a13.025 13.025 0 0 0-2.42-15.14l-12.13-12.13a1.08 1.08 0 0 1 0-1.51l16.82-16.82c.25-.25.55-.31.76-.31.2 0 .5.05.75.31l12.14 12.14c4 4.01 10.09 4.98 15.15 2.42 3.14-1.59 6.42-2.95 9.76-4.05 5.38-1.77 8.99-6.76 8.99-12.41V28.07c0-.58.49-1.07 1.07-1.07h23.79c.58 0 1.07.49 1.07 1.07v17.16c0 5.66 3.61 10.65 8.99 12.41 3.34 1.1 6.62 2.46 9.76 4.05a13.042 13.042 0 0 0 15.15-2.42l12.14-12.14c.25-.25.55-.31.75-.31s.5.05.76.31l16.82 16.82c.25.25.31.55.31.75s-.05.5-.31.76L336.35 77.6a13.04 13.04 0 0 0-2.42 15.15c1.59 3.14 2.95 6.42 4.05 9.76 1.77 5.38 6.76 8.99 12.41 8.99h17.15c.58 0 1.07.49 1.07 1.07v23.79c0 .58-.49 1.07-1.07 1.07H350.4c-5.66 0-10.65 3.61-12.41 8.99a70.219 70.219 0 0 1-4.05 9.76 13.042 13.042 0 0 0 2.42 15.15l12.14 12.14c.25.25.31.55.31.75s-.05.5-.31.75l-16.82 16.82c-.25.25-.55.31-.75.31s-.5-.05-.75-.31l-12.14-12.14a13.027 13.027 0 0 0-15.14-2.42 70.94 70.94 0 0 1-9.76 4.05 13.035 13.035 0 0 0-8.99 12.41v17.15c0 .58-.49 1.07-1.07 1.07h-23.79c-.58 0-1.07-.49-1.07-1.07v-17.16c0-5.66-3.61-10.65-8.99-12.42a70.219 70.219 0 0 1-9.76-4.05c-1.88-.95-3.9-1.42-5.91-1.42-3.38 0-6.72 1.32-9.23 3.83l-12.14 12.14c-.25.25-.55.31-.75.31s-.5-.05-.76-.31l-16.82-16.82a1.08 1.08 0 0 1 0-1.51l12.13-12.14a13.04 13.04 0 0 0 2.42-15.15 70.427 70.427 0 0 1-4.05-9.76 13.048 13.048 0 0 0-12.42-8.99h-17.15c-.58 0-1.07-.49-1.07-1.07zm97.45 72.39c33.36 0 60.5-27.14 60.5-60.5s-27.14-60.5-60.5-60.5-60.5 27.14-60.5 60.5 27.14 60.5 60.5 60.5zm0-109c26.74 0 48.5 21.76 48.5 48.5s-21.76 48.5-48.5 48.5-48.5-21.76-48.5-48.5 21.76-48.5 48.5-48.5zm-31.57 49.41c-2.34-2.34-2.34-6.14 0-8.49 2.34-2.34 6.14-2.34 8.49 0l16.2 16.2 29.97-29.96c2.34-2.34 6.14-2.34 8.49 0 2.34 2.34 2.34 6.14 0 8.49l-34.21 34.21a5.991 5.991 0 0 1-8.48 0zM68.82 244.22c1.8 1.57 3.72 3.03 5.71 4.37l-2.85 10.65c-.75 2.8-.36 5.73 1.09 8.25s3.8 4.32 6.6 5.07l15.85 4.25a10.883 10.883 0 0 0 8.25-1.09 10.79 10.79 0 0 0 5.07-6.6l2.85-10.65c2.39-.17 4.78-.48 7.13-.93l5.51 9.55c3 5.19 9.66 6.98 14.85 3.98l14.21-8.2c5.19-3 6.98-9.66 3.98-14.86l-5.51-9.55c1.57-1.8 3.03-3.72 4.37-5.71l10.65 2.85c2.8.75 5.73.37 8.25-1.09a10.79 10.79 0 0 0 5.07-6.6l4.25-15.85c.75-2.8.36-5.73-1.09-8.25s-3.8-4.32-6.6-5.07l-10.65-2.85c-.16-2.39-.48-4.78-.93-7.13l9.55-5.51a10.81 10.81 0 0 0 5.06-6.6c.75-2.81.37-5.74-1.08-8.25l-8.2-14.21c-3-5.19-9.66-6.98-14.85-3.98l-9.55 5.51c-1.8-1.57-3.72-3.04-5.71-4.37l2.85-10.65c.75-2.8.36-5.73-1.09-8.25s-3.8-4.32-6.6-5.07l-15.85-4.25c-5.79-1.56-11.77 1.9-13.32 7.69l-2.85 10.65c-2.39.16-4.78.48-7.13.93l-5.51-9.55a10.81 10.81 0 0 0-6.6-5.06 10.81 10.81 0 0 0-8.25 1.08l-14.21 8.2a10.81 10.81 0 0 0-5.06 6.6 10.81 10.81 0 0 0 1.08 8.25l5.51 9.55a57.505 57.505 0 0 0-4.37 5.71l-10.65-2.85c-5.79-1.55-11.77 1.9-13.32 7.69l-4.25 15.85c-.75 2.8-.36 5.73 1.09 8.25s3.8 4.32 6.6 5.07l10.65 2.85c.16 2.39.48 4.78.93 7.13l-9.55 5.51a10.81 10.81 0 0 0-5.06 6.6 10.81 10.81 0 0 0 1.08 8.25l8.2 14.21a10.81 10.81 0 0 0 6.6 5.06c2.81.75 5.74.37 8.25-1.08zm-21.65-17.7 9.27-5.35a10.85 10.85 0 0 0 5.21-11.64 46.22 46.22 0 0 1-.91-6.95c-.26-4.71-3.49-8.69-8.04-9.91l-10.35-2.77 3.66-13.67L56.36 179a10.84 10.84 0 0 0 11.92-4.56c1.27-1.95 2.71-3.82 4.26-5.56 3.14-3.51 3.67-8.61 1.31-12.69l-5.35-9.27 12.26-7.08 5.35 9.27a10.85 10.85 0 0 0 11.64 5.21c2.28-.48 4.62-.78 6.94-.91 4.71-.26 8.69-3.49 9.91-8.04l2.77-10.35 13.67 3.66-2.77 10.35a10.85 10.85 0 0 0 4.56 11.92c1.95 1.28 3.82 2.71 5.56 4.26 3.51 3.14 8.61 3.67 12.69 1.31l9.27-5.35 7.08 12.26-9.27 5.35a10.85 10.85 0 0 0-5.21 11.64c.48 2.28.78 4.62.91 6.95.26 4.71 3.49 8.69 8.04 9.91l10.35 2.77-3.66 13.67-10.35-2.77a10.85 10.85 0 0 0-11.92 4.56 46.236 46.236 0 0 1-4.26 5.56 10.848 10.848 0 0 0-1.31 12.69l5.35 9.27-12.26 7.08-5.35-9.27a10.85 10.85 0 0 0-11.64-5.21c-2.28.48-4.61.78-6.94.91-4.71.26-8.69 3.49-9.91 8.04l-2.77 10.35-13.67-3.66 2.77-10.35A10.85 10.85 0 0 0 81.77 239a46.236 46.236 0 0 1-5.56-4.26 10.848 10.848 0 0 0-12.69-1.31l-9.27 5.35zm60.2 8.67c5.97 0 12.02-1.52 17.55-4.71 16.82-9.71 22.6-31.29 12.89-48.11s-31.29-22.6-48.11-12.89-22.6 31.29-12.89 48.11c6.51 11.28 18.37 17.6 30.56 17.6zM95.7 179.86c5.37-3.1 11.63-3.93 17.62-2.32s11 5.45 14.1 10.82c6.4 11.09 2.59 25.32-8.5 31.72s-25.32 2.59-31.72-8.5-2.59-25.32 8.5-31.72z" fill="#000000" opacity="1" data-original="#000000" class=""></path></g></svg>