<svg xmlns="http://www.w3.org/2000/svg" version="1.1" xmlns:xlink="http://www.w3.org/1999/xlink" width="512" height="512" x="0" y="0" viewBox="0 0 512 512" style="enable-background:new 0 0 512 512" xml:space="preserve" class=""><g transform="matrix(0.85,0,0,0.85,38.39273747205735,38.39982168677963)"><g fill-rule="evenodd"><path fill="#ffffff" d="M386.606 504.593C381.589 351.891 346.3 385.17 274.779 335H237.22a270.117 270.117 0 0 1-39.8 22.818c-45.014 21.544-68.031 25.711-72.028 146.778h261.214z" opacity="0" data-original="#69a7ff" class=""></path><path fill="#ffffff" d="M221.318 273.882h69.392V367.2c0 15.591-15.619 28.318-34.7 28.318-19.105 0-34.7-12.727-34.7-28.318z" opacity="0" data-original="#e1aa72" class=""></path><path fill="#ffffff" d="M173.668 244.912h164.664v-56.24c0-30.926-25.086-55.3-55.19-48.217-9.1 2.154-17.972-1.984-24.492-5.272-43.65-21.913-84.982 12.982-84.982 53.489z" opacity="0" data-original="#4d6c8f" class=""></path><path fill="#ffffff" d="M201.617 217.3a22.412 22.412 0 1 1-30.557 8.419 22.4 22.4 0 0 1 30.557-8.419zm131.018 0a22.412 22.412 0 1 1-30.558 8.419 22.448 22.448 0 0 1 30.558-8.419z" opacity="0" data-original="#e1aa72" class=""></path><path fill="#ffffff" d="M290.71 334.77c-10.488 7.738-22.365 12.671-34.639 12.812h-.142c-12.274-.141-24.123-5.074-34.611-12.812v-60.888h69.392z" opacity="0" data-original="#cb9967" class=""></path><path fill="#ffffff" d="M195.211 196.609c-9.78 44.9-7.313 62.334-3.317 79.909 6.492 28.516 34.952 62.419 64.12 62.7 29.14-.283 57.629-34.186 64.091-62.7 4-17.575 6.464-35.008-3.288-79.909-31.663 4.876-60.548.737-80.759-22.252-13.124 15.931-23.584 19.021-40.847 22.252z" opacity="0" data-original="#fbbd80" class=""></path><path fill="#ffffff" d="m234.981 504.593 7.2-70.696-19.587-38.381h66.812l-19.587 38.381 7.2 70.696z" opacity="0" data-original="#cb3745" class=""></path><path fill="#ffffff" d="m234.981 504.593 7.2-70.696h27.638l7.2 70.696z" opacity="0" data-original="#fb4455" class=""></path><path fill="#ffffff" d="m290.71 345.23-34.7 50.286 28.828 18.17c2.07 1.3 3.969 2.438 6.407 2.155a7.994 7.994 0 0 0 5.726-3.544l33.193-47.083c-11.367-5.528-24.491-11.14-39.458-19.984z" opacity="0" data-original="#dfe6ed" class=""></path><path fill="#ffffff" d="m221.318 345.23 34.7 50.286-28.857 18.17c-2.069 1.3-3.968 2.438-6.378 2.155a8.049 8.049 0 0 1-5.754-3.544l-33.194-47.083c11.367-5.528 24.492-11.14 39.487-19.984z" opacity="0" data-original="#dfe6ed" class=""></path><path fill="#ffffff" d="M432.754 321.73a68.6 68.6 0 1 0-68.6-68.6 68.727 68.727 0 0 0 68.6 68.6z" opacity="0" data-original="#fb4455" class=""></path><path fill="#ffffff" d="M79.246 321.73a68.6 68.6 0 1 0-68.6-68.6 68.727 68.727 0 0 0 68.6 68.6z" opacity="0" data-original="#45bf64" class=""></path><path fill="#ffffff" d="M304.685 198.026c1.644 7.6 2.92 14.372 3.884 20.495a201 201 0 0 1 2.607 26.391c.085 4.223-.028 8.05-.283 11.593a129.772 129.772 0 0 1-3.2 20.013c-2.608 11.4-8.7 23.669-16.98 34.327-8.078 10.375-18.227 19.191-29.14 24.152a49.035 49.035 0 0 1-11.764 3.656 41.065 41.065 0 0 0 6.208.567 44.681 44.681 0 0 0 17.969-4.22 69.743 69.743 0 0 0 16.724-10.97c14.429-12.558 25.625-30.955 29.4-47.509a137.882 137.882 0 0 0 2.977-17.348 117.759 117.759 0 0 0 .51-14.258 210.411 210.411 0 0 0-3.288-30.5c-.935-5.414-2.1-11.31-3.487-17.8a167.05 167.05 0 0 1-12.132 1.417z" opacity="0" data-original="#e2aa73" class=""></path><path fill="#ffffff" d="M226.817 159.192c6.52 3.26 15.392 7.427 24.492 5.272 25.143-5.924 46.8 10.12 53.234 33.562h.142c4-.311 8.022-.793 12.132-1.417 1.389 6.492 2.552 12.388 3.487 17.8a22.437 22.437 0 0 1 12.331 2.891 22.752 22.752 0 0 1 5.7 4.621v-33.249c0-30.926-25.086-55.3-55.19-48.217-9.1 2.154-17.972-1.984-24.492-5.272-30.387-15.251-59.612-2.977-74.607 19.53 12.925-3.883 27.694-3.09 42.774 4.479z" opacity="0" data-original="#456181" class=""></path><path fill="#ffffff" d="M424.789 185.016a68.6 68.6 0 0 1 13.975 133.143 70.381 70.381 0 0 1-12.983 3c-.312.028-.652.084-.992.113.34.028.652.085.992.113q3.444.341 6.973.34c2.353 0 4.706-.113 7-.34a68.608 68.608 0 0 0-7-136.856 67.465 67.465 0 0 0-7.965.482z" opacity="0" data-original="#e23d4d" class=""></path><path fill="#ffffff" d="M71.28 185.016a68.607 68.607 0 0 1 13.975 133.143 70.381 70.381 0 0 1-12.983 3c-.34.028-.652.084-.992.113.34.028.652.085.964.113 2.3.227 4.649.34 7 .34s4.7-.113 7-.34a68.608 68.608 0 0 0-7-136.856 67.12 67.12 0 0 0-7.966.482z" opacity="0" data-original="#3eac5a" class=""></path><path fill="#ffffff" d="M321.92 376.893c29.026 15.59 44.7 36.2 48.5 127.7h16.186c-3.486-106.242-21.628-122.456-56.438-139.379z" opacity="0" data-original="#5f96e6" class=""></path><path fill="#ffffff" d="m321.92 376.893 8.248-11.679c-11.367-5.528-24.491-11.14-39.458-19.984l-8.362 12.1c2.863 1.56 5.641 3 8.362 4.366 11.736 5.924 22.139 10.318 31.21 15.194z" opacity="0" data-original="#c9cfd5" class=""></path><path fill="#ffffff" d="M241.529 440.304h28.942l-.652-6.407h-27.638z" opacity="0" data-original="#e23d4d" class=""></path></g><path d="M324.544 355.19c-8.068-3.8-17.1-8.044-26.832-13.567v-14.067a99.808 99.808 0 0 0 3.908-3.836c12.352-12.892 21.815-29.8 25.314-45.221.963-4.242 1.833-8.449 2.489-12.945a29.369 29.369 0 0 0 15.912-45.611V189.1c0-18.134-7.926-35.238-21.2-45.753a49.148 49.148 0 0 0-42.6-9.279c-6.519 1.551-13.6-1.621-19.737-4.717-21.016-10.548-43.934-9.9-62.879 1.794a68.508 68.508 0 0 0-32.254 57.955v30.975a30.082 30.082 0 0 0-1.7 2.626 29.4 29.4 0 0 0 17.608 42.826c.658 4.507 1.529 8.723 2.494 12.975 3.955 17.356 14.873 35.84 29.249 49.178v13.934c-7.572 4.288-14.527 7.723-19.917 10.315-2.377 1.137-4.691 2.225-6.944 3.285a873.481 873.481 0 0 0-8.217 3.9 6.968 6.968 0 0 0-.933.453c-16.7 8.152-30.182 16.475-40.237 34.419-11.929 21.285-17.813 54.415-19.674 110.776a7 7 0 0 0 7 7.233h261.214a7 7 0 0 0 7-7.232c-1.86-56.372-7.743-89.5-19.67-110.793-11.833-21.112-28.409-28.909-49.394-38.78zm-5.961 12.671 1.079.507-28.45 40.356c-.293.425-.493.536-.653.574a13.431 13.431 0 0 1-1.982-1.1l-22.657-14.28 26.887-39c9.393 5.224 18.021 9.295 25.776 12.943zm-62.572 15.756L228.32 343.5v-5.246c8.695 5.169 18.082 8.307 27.626 8.4h.136c9.125-.088 18.541-3.026 27.627-8.456v5.247zm78.959-138.79a15.448 15.448 0 0 1-4.324 4.844 176.962 176.962 0 0 0-1.9-26.076c.141.074.285.142.423.22a15.472 15.472 0 0 1 5.801 21.012zm-153.617 4.741a15.4 15.4 0 0 1 1.894-25.92 177.063 177.063 0 0 0-1.894 25.92zm7.016-54.02a459.623 459.623 0 0 0-2.574 12.634 29.211 29.211 0 0 0-5.127 1.322V189.1a54.409 54.409 0 0 1 25.6-46.037c14.936-9.213 32.425-9.64 49.232-1.2 6.017 3.034 17.219 8.684 29.248 5.836a35.391 35.391 0 0 1 30.692 6.629c9.952 7.881 15.894 20.881 15.894 34.774v20.4a29.482 29.482 0 0 0-5.128-1.321c-.748-3.966-1.6-8.162-2.573-12.628a7 7 0 0 0-7.908-5.43c-33.7 5.194-58.035-1.333-74.407-19.955a7 7 0 0 0-10.662.171c-11.417 13.859-19.96 16.683-36.732 19.822a7 7 0 0 0-5.555 5.387zm10.352 79.85c-3.741-16.477-5.937-32.421 2.373-72.374 13.267-2.725 23.822-6.369 35.171-17.973 18.22 17.027 42.892 23.532 75.016 19.8 7.866 38.618 5.681 54.325 2 70.551-3.482 15.348-13.923 32.206-26.989 43.631-.083.068-.16.141-.24.213-9.225 8-19.738 13.282-30.035 13.4-10.36-.124-20.944-5.481-30.217-13.572l-.029-.025c-13.086-11.423-23.55-28.294-27.05-43.649zm-5.307 92.49c2.281-1.073 4.624-2.175 7.041-3.331 5.123-2.463 11.612-5.671 18.738-9.628l26.91 38.986-22.678 14.279a13.592 13.592 0 0 1-1.983 1.1c-.161-.04-.369-.16-.694-.631l-28.4-40.279zM228.656 498h-50.389c.637-15.45 1.656-29.314 3.036-41.293a7 7 0 0 0-13.911-1.6c-1.459 12.659-2.491 26.748-3.142 42.9h-31.595C136.308 407.752 150.5 389.74 179.6 374.6l29.664 42.077a15.035 15.035 0 0 0 10.76 6.558 13.611 13.611 0 0 0 1.421.075 14.727 14.727 0 0 0 6.457-1.569l7.106 13.931zm14.076 0 5.773-56.665H263.5L269.268 498zm22.8-70.669h-19.063l-6.6-12.939 16.143-10.165 16.122 10.161zM347.75 498c-.657-16.429-1.69-30.523-3.143-42.91a7 7 0 0 0-13.908 1.631c1.394 11.891 2.393 25.453 3.036 41.279h-50.391l-6.35-62.323 7.106-13.937a14.853 14.853 0 0 0 6.5 1.564 14.568 14.568 0 0 0 1.468-.077 14.953 14.953 0 0 0 10.631-6.492l29.717-42.152c29.094 15.142 43.278 33.17 46.93 123.413zM219.471 26.463a37.533 37.533 0 1 1 43.106 47.9c-.223.043-.242.158-.242.273V89.6a7 7 0 1 1-14 0V74.638a14.321 14.321 0 0 1 11.545-14.014 23.531 23.531 0 1 0-27.021-30.053 7 7 0 0 1-13.388-4.108zm42.864 79.526v.113a7 7 0 1 1-14 0v-.113a7 7 0 1 1 14 0zM299.62 92.84l4.847-8.362a13.216 13.216 0 0 1 15.674-5.861 18.835 18.835 0 1 0-6.727-31.641 7 7 0 0 1-9.514-10.271 32.838 32.838 0 1 1 12.353 55.372l-4.513 7.784a7 7 0 0 1-12.12-7.021zm-79 9.01a7 7 0 1 1-11.652 7.767l-.056-.085a7 7 0 1 1 11.651-7.767zm80.519 3.274a7 7 0 0 1 1.941 9.709l-.056.085a7 7 0 0 1-11.652-7.767l.057-.085a7 7 0 0 1 9.714-1.942zm131.613 72.837a75.6 75.6 0 0 0-7 150.866v88.947H404.24a7 7 0 0 0 0 14h28.516a7 7 0 0 0 7-7v-95.947a75.6 75.6 0 0 0-7-150.866zm0 137.2a61.6 61.6 0 1 1 61.6-61.6 61.666 61.666 0 0 1-61.596 61.598zm-325 102.615H86.245v-88.949a75.6 75.6 0 1 0-14 0v95.949a7 7 0 0 0 7 7h28.515a7 7 0 0 0 0-14zM17.646 253.562a61.6 61.6 0 1 1 61.6 61.6 61.667 61.667 0 0 1-61.6-61.6zm449.542-24.529-24.53 24.529 24.53 24.529a7 7 0 0 1-9.9 9.9l-24.531-24.53-24.53 24.53a7 7 0 1 1-9.9-9.9l24.529-24.529-24.529-24.529a7 7 0 1 1 9.9-9.9l24.53 24.53 24.531-24.53a7 7 0 0 1 9.9 9.9zM153.774 62.792a32.827 32.827 0 1 1 54.108 16.987l4.5 7.76a7 7 0 1 1-12.115 7.022l-4.85-8.361a13.206 13.206 0 0 1 2.789-16.551 18.835 18.835 0 1 0-30.782-9.98 7 7 0 0 1-13.65 3.125zm-35.649 161.753a7 7 0 0 1 0 9.9l-48.133 48.134a7 7 0 0 1-9.9 0l-19.73-19.728a7 7 0 1 1 9.9-9.9l14.779 14.779 43.182-43.182a7 7 0 0 1 9.902-.003z" fill="#000000" opacity="1" data-original="#000000" class=""></path></g></svg>