<svg xmlns="http://www.w3.org/2000/svg" version="1.1" xmlns:xlink="http://www.w3.org/1999/xlink" width="512" height="512" x="0" y="0" viewBox="0 0 510 510" style="enable-background:new 0 0 512 512" xml:space="preserve" fill-rule="evenodd" class=""><g transform="matrix(0.8500000000000002,0,0,0.8500000000000002,38.249999999999915,38.250000572204556)"><path d="m121.539 461.22 3.884 6.862a.128.128 0 0 0 .011.02c4.569 8.128 1.669 18.498-6.41 23.062l-17.026 9.65-.025.013c-8.127 4.57-18.498 1.67-23.064-6.414l-50.066-88.467c-4.612-8.136-1.712-18.518 6.38-23.088l17.046-9.65.006-.004c8.088-4.568 18.463-1.699 23.068 6.388l.01.019 2.957 5.224 42.869-24.82c13.906-8.042 28.14-13.158 43.414-8.198 14.275 4.629 37.577 14.62 61.361 18.918a8.1 8.1 0 0 1 1.042.261c13.055 4.228 20.948 17.451 17.383 30.708-.127.473-.263.939-.409 1.397a32.419 32.419 0 0 0 3.17-1.625l60.709-35.358c22.932-13.359 38.26-11.585 46.913-5.779 7.7 5.165 11.306 13.965 11.076 22.623-.233 8.766-4.47 17.108-11.345 21.342l-110.158 67.823c-12.065 7.446-25.28 9.202-38.971 5.549l-.008-.002-76.709-20.558zm-35.348-62.46 27.467 48.535 9.859-5.692a7.996 7.996 0 0 1 6.071-.8l79.903 21.414c9.286 2.477 18.258 1.345 26.441-3.706l.007-.004 110.164-67.827c2.549-1.57 3.654-4.893 3.741-8.143.269-10.155-10.011-16.534-33.941-2.593L255.196 415.3c-10.143 5.911-20.772 7.559-32.357 5.715l-.027-.005-7.524-1.224-.011-.002a7.05 7.05 0 0 1-.323-.059l-.011-.003c-13.738-2.82-26.481-6.967-40.619-10.767-4.264-1.146-6.796-5.538-5.65-9.802s5.538-6.795 9.802-5.649c13.701 3.682 26.054 7.722 39.352 10.477 5.614.592 9.804-1.605 11.099-6.427l.001-.004c1.298-4.827-1.765-9.457-6.426-11.181-24.373-4.499-48.214-14.589-62.847-19.333l-.003-.001c-10.793-3.505-20.636 1.147-30.462 6.83zm-24.754-11.253-.008-.015c-.264-.442-.835-.611-1.284-.357l-17.04 9.646-.007.004a.932.932 0 0 0-.336 1.271l.003.004 50.069 88.472.003.006c.255.451.837.597 1.291.345l17.006-9.639.011-.006c.451-.255.597-.837.344-1.292zm-4.679 8.332a7.065 7.065 0 0 1 8.028 5.957c.552 3.864-2.116 7.476-5.981 8.028-3.864.575-7.452-2.116-8.027-5.981-.552-3.864 2.116-7.452 5.98-8.004zM431.69 125.165l-42.869 24.82c-13.906 8.042-28.14 13.158-43.414 8.198-14.275-4.629-37.577-14.62-61.361-18.918a8.1 8.1 0 0 1-1.042-.261c-13.055-4.228-20.948-17.451-17.383-30.708.127-.473.263-.939.409-1.397a32.419 32.419 0 0 0-3.17 1.625l-60.709 35.358c-22.932 13.359-38.26 11.585-46.913 5.779-7.7-5.165-11.306-13.965-11.076-22.623.233-8.766 4.47-17.108 11.345-21.342l110.158-67.823c12.065-7.446 25.28-9.202 38.971-5.549l.008.002 76.709 20.558 7.108-4.104-3.884-6.862a.128.128 0 0 0-.011-.02c-4.569-8.128-1.669-18.498 6.41-23.062l17.026-9.65.025-.013c8.127-4.57 18.498-1.67 23.064 6.414l50.066 88.467c4.612 8.136 1.712 18.518-6.38 23.088l-17.046 9.65-.006.004c-8.088 4.568-18.463 1.699-23.068-6.388l-.01-.019zm-35.348-62.46-9.859 5.692a7.996 7.996 0 0 1-6.071.8l-79.903-21.414c-9.286-2.477-18.258-1.345-26.441 3.706l-.007.004-110.164 67.827c-2.549 1.57-3.654 4.893-3.741 8.143-.269 10.155 10.011 16.534 33.941 2.593L254.804 94.7c10.143-5.911 20.772-7.559 32.357-5.715l.027.005 7.524 1.224.011.002c.108.017.216.037.323.059l.011.003c13.738 2.82 26.481 6.967 40.619 10.767 4.264 1.146 6.796 5.538 5.65 9.802s-5.538 6.795-9.802 5.649c-13.701-3.682-26.054-7.722-39.352-10.477-5.614-.592-9.804 1.605-11.099 6.427l-.001.004c-1.298 4.827 1.765 9.457 6.426 11.181 24.373 4.499 48.214 14.589 62.847 19.333l.003.001c10.793 3.505 20.636-1.147 30.462-6.83l42.999-24.895zm52.221 59.788.008.015c.264.442.835.611 1.284.357l17.04-9.646.007-.004a.932.932 0 0 0 .336-1.271l-.003-.004-50.069-88.472-.003-.006c-.255-.451-.837-.597-1.291-.345l-17.006 9.639-.011.006c-.451.255-.597.837-.344 1.292zm4.679-8.332a7.065 7.065 0 0 1-8.028-5.957c-.552-3.864 2.116-7.476 5.981-8.028 3.864-.575 7.452 2.116 8.027 5.981.552 3.864-2.116 7.452-5.98 8.004zm-172.327 50.737a93.002 93.002 0 0 1 19.486 8.075l12.493-5.555a7.998 7.998 0 0 1 8.907 1.653l19.128 19.128a8 8 0 0 1 1.658 8.897l-5.536 12.496a92.9 92.9 0 0 1 8.083 19.524l12.739 4.903a8 8 0 0 1 5.127 7.466v27.057a7.999 7.999 0 0 1-5.127 7.466l-12.744 4.905a93.802 93.802 0 0 1-8.082 19.485l5.54 12.506a8 8 0 0 1-1.658 8.897l-19.128 19.128a8 8 0 0 1-8.897 1.658l-12.492-5.534a92.809 92.809 0 0 1-19.499 8.078l-4.905 12.742a7.999 7.999 0 0 1-7.466 5.127h-27.057a8 8 0 0 1-7.466-5.127l-4.903-12.741a93.583 93.583 0 0 1-19.514-8.085l-12.506 5.54a8 8 0 0 1-8.897-1.658l-19.128-19.128a7.998 7.998 0 0 1-1.653-8.907l5.553-12.488a93.593 93.593 0 0 1-8.09-19.489l-12.754-4.909a7.999 7.999 0 0 1-5.127-7.466v-27.057a8 8 0 0 1 5.127-7.466l12.751-4.907a93.653 93.653 0 0 1 8.095-19.513l-5.555-12.493a7.998 7.998 0 0 1 1.653-8.907l19.128-19.128a7.998 7.998 0 0 1 8.907-1.653l12.493 5.555a93.012 93.012 0 0 1 19.493-8.077l4.929-12.776a8.001 8.001 0 0 1 7.464-5.12h27.057c3.311 0 6.28 2.04 7.468 5.131zm-13.464 9.565L263.046 163h-16.073l-4.428 11.474a7.997 7.997 0 0 1-5.614 4.903 77.112 77.112 0 0 0-22.639 9.382 8 8 0 0 1-7.447.499l-11.218-4.988-11.357 11.357 4.988 11.218a8 8 0 0 1-.499 7.447 77.752 77.752 0 0 0-9.413 22.684 8 8 0 0 1-4.906 5.599L163 246.978v16.071l11.44 4.403a8.001 8.001 0 0 1 4.905 5.594c1.926 8.003 5.085 15.661 9.407 22.651a8 8 0 0 1 .506 7.458l-4.988 11.218 11.362 11.363 11.223-4.972a8.002 8.002 0 0 1 7.42.494c7.016 4.298 14.649 7.488 22.678 9.391a7.998 7.998 0 0 1 5.622 4.911l4.403 11.44h16.071l4.403-11.44a8 8 0 0 1 5.617-4.91 76.781 76.781 0 0 0 22.628-9.375 8.002 8.002 0 0 1 7.448-.511l11.222 4.972 11.369-11.368-4.972-11.223a8.002 8.002 0 0 1 .494-7.42c4.299-7.017 7.489-14.651 9.392-22.656a8 8 0 0 1 4.91-5.617l11.44-4.403v-16.071l-11.44-4.403a7.998 7.998 0 0 1-4.911-5.622 76.97 76.97 0 0 0-9.381-22.661 8.003 8.003 0 0 1-.504-7.437l4.972-11.222-11.363-11.363-11.218 4.988a8 8 0 0 1-7.447-.499 77.112 77.112 0 0 0-22.639-9.382 7.998 7.998 0 0 1-5.618-4.914zM255 316.355c-33.785 0-61.355-27.57-61.355-61.355s27.57-61.355 61.355-61.355 61.355 27.57 61.355 61.355-27.57 61.355-61.355 61.355zm0-16c24.975 0 45.355-20.38 45.355-45.355s-20.38-45.355-45.355-45.355-45.355 20.38-45.355 45.355 20.38 45.355 45.355 45.355zm-8-78.317v-.806c0-4.416 3.585-8 8-8s8 3.584 8 8v.729c6.329 1.956 12.006 6.408 15.082 13.724 1.711 4.07-.205 8.764-4.275 10.475s-8.764-.204-10.475-4.275c-2.152-5.118-7.939-6.017-12.056-4.396-1.977.779-3.73 2.246-3.619 4.567.082 1.66 1.306 2.489 2.587 3.115 1.878.919 4.057 1.411 6.098 1.748 10.655 1.743 22.081 6.931 23.627 19.599l.002.011c1.421 11.77-7.167 19.127-16.971 21.679v.56c0 4.416-3.585 8-8 8s-8-3.584-8-8v-.679c-8.016-2.293-14.692-8.033-16.876-16.805a8.004 8.004 0 0 1 5.83-9.696 8.004 8.004 0 0 1 9.696 5.831c1.078 4.327 5.628 5.894 9.856 5.795 2.046-.048 4.275-.468 6.155-1.389 1.35-.662 2.634-1.626 2.426-3.374-.259-2.099-1.831-3.134-3.496-3.889-2.135-.969-4.564-1.482-6.832-1.853l-.008-.002c-10.529-1.733-21.464-7.354-22.075-19.872l-.001-.004c-.47-9.746 5.442-16.963 13.74-20.23.52-.204 1.049-.392 1.585-.563zm191.069 95.837c-34.622 0-62.875-28.253-62.875-62.875s28.253-62.875 62.875-62.875c34.623 0 62.875 28.253 62.875 62.875s-28.252 62.875-62.875 62.875zm0-16c25.812 0 46.875-21.063 46.875-46.875s-21.063-46.875-46.875-46.875c-25.811 0-46.875 21.063-46.875 46.875s21.064 46.875 46.875 46.875zm-8-80.609v-.996c0-4.416 3.585-8 8-8 4.416 0 8 3.584 8 8v.919c6.515 1.968 12.369 6.517 15.529 14.034a8.004 8.004 0 0 1-4.274 10.475 8.003 8.003 0 0 1-10.475-4.275c-2.267-5.391-8.356-6.352-12.693-4.644-2.124.835-3.986 2.426-3.867 4.919.089 1.802 1.399 2.718 2.788 3.398 1.952.954 4.215 1.468 6.336 1.817 10.864 1.778 22.534 7.044 24.111 19.961l.001.01c1.454 12.048-7.403 19.538-17.456 22.094v.752c0 4.416-3.584 8-8 8-4.415 0-8-3.584-8-8v-.871c-8.242-2.305-15.123-8.168-17.363-17.166a8.004 8.004 0 0 1 5.83-9.696 8.004 8.004 0 0 1 9.696 5.83c1.135 4.559 5.91 6.238 10.363 6.133 2.136-.05 4.463-.489 6.426-1.451 1.473-.722 2.848-1.794 2.62-3.702-.277-2.249-1.944-3.372-3.727-4.18-2.214-1.005-4.732-1.539-7.084-1.924l-.008-.001c-10.728-1.766-21.89-7.47-22.514-20.224v-.005c-.479-9.917 5.542-17.258 13.987-20.582a26.03 26.03 0 0 1 1.774-.625zM71.931 317.875c-34.623 0-62.875-28.253-62.875-62.875s28.252-62.875 62.875-62.875c34.622 0 62.875 28.253 62.875 62.875s-28.253 62.875-62.875 62.875zm0-16c25.811 0 46.875-21.063 46.875-46.875s-21.064-46.875-46.875-46.875c-25.812 0-46.875 21.063-46.875 46.875s21.063 46.875 46.875 46.875zm-8-80.609v-.996c0-4.416 3.584-8 8-8 4.415 0 8 3.584 8 8v.919c6.514 1.968 12.368 6.517 15.529 14.034 1.711 4.07-.205 8.764-4.275 10.475s-8.764-.204-10.475-4.275c-2.267-5.391-8.356-6.352-12.693-4.644-2.123.835-3.985 2.426-3.867 4.919.089 1.802 1.399 2.718 2.789 3.398 1.951.954 4.214 1.468 6.335 1.817 10.865 1.778 22.534 7.044 24.111 19.961l.001.01c1.455 12.048-7.403 19.538-17.455 22.094v.752c0 4.416-3.585 8-8 8-4.416 0-8-3.584-8-8v-.871c-8.243-2.305-15.124-8.168-17.364-17.166a8.005 8.005 0 0 1 5.831-9.696 8.003 8.003 0 0 1 9.695 5.83c1.135 4.559 5.91 6.238 10.363 6.133 2.137-.05 4.463-.489 6.426-1.451 1.473-.722 2.848-1.794 2.62-3.702-.277-2.249-1.944-3.372-3.727-4.18-2.214-1.005-4.732-1.539-7.084-1.924l-.008-.001c-10.728-1.766-21.89-7.47-22.514-20.224v-.005c-.479-9.917 5.542-17.258 13.987-20.582a25.868 25.868 0 0 1 1.775-.625z" fill="#000000" opacity="1" data-original="#000000" class=""></path></g></svg>