<svg xmlns="http://www.w3.org/2000/svg" version="1.1" xmlns:xlink="http://www.w3.org/1999/xlink" width="512" height="512" x="0" y="0" viewBox="0 0 512 512" style="enable-background:new 0 0 512 512" xml:space="preserve" class=""><g transform="matrix(0.8500000000000005,0,0,0.8500000000000005,38.399999999999864,38.397750663757165)"><path d="M210.17 150.93h95.67c3.31 0 6-2.69 6-6v-28.77c0-13.91-7.84-26.2-19.11-31.7 4.66-6.47 7.38-14.28 7.38-22.67 0-22.34-19.3-40.52-43.03-40.52s-43.03 18.18-43.03 40.52c0 8.69 2.93 16.74 7.89 23.35-10.59 5.81-17.77 17.72-17.77 31.02v28.77c0 3.32 2.69 6 6 6zm46.91-117.65c17.11 0 31.03 12.79 31.03 28.52s-13.92 28.52-31.03 28.52-31.03-12.79-31.03-28.52 13.92-28.52 31.03-28.52zm-40.91 82.89c0-10.34 6.34-19.35 15.08-21.98 7.2 5.1 16.14 8.13 25.83 8.13 9.91 0 19.03-3.18 26.31-8.49 9.38 2.05 16.45 11.42 16.45 22.34v22.77h-83.67zm261.72 228.34c4.66-6.47 7.38-14.28 7.38-22.67 0-22.34-19.3-40.52-43.03-40.52s-43.03 18.18-43.03 40.52c0 8.69 2.93 16.74 7.89 23.35-10.59 5.81-17.77 17.72-17.77 31.02v28.77c0 3.31 2.69 6 6 6H491c3.31 0 6-2.69 6-6v-28.77c0-13.91-7.84-26.2-19.11-31.7zm-35.65-51.19c17.11 0 31.03 12.79 31.03 28.52s-13.92 28.52-31.03 28.52-31.03-12.79-31.03-28.52 13.92-28.52 31.03-28.52zM485 398.97h-83.67V376.2c0-10.34 6.34-19.35 15.08-21.98 7.2 5.1 16.14 8.13 25.83 8.13 9.91 0 19.03-3.18 26.31-8.49 9.38 2.05 16.44 11.42 16.44 22.34v22.77zm-381.44-53.6c4.66-6.47 7.38-14.28 7.38-22.67 0-22.34-19.3-40.52-43.03-40.52s-43.03 18.18-43.03 40.52c0 8.69 2.93 16.74 7.89 23.35C22.18 351.86 15 363.77 15 377.07v28.77c0 3.31 2.69 6 6 6h95.67c3.31 0 6-2.69 6-6v-28.77c0-13.91-7.84-26.2-19.11-31.7zm-35.65-51.18c17.11 0 31.03 12.79 31.03 28.52s-13.92 28.52-31.03 28.52-31.03-12.79-31.03-28.52 13.92-28.52 31.03-28.52zm42.76 105.65H27v-22.77c0-10.34 6.34-19.35 15.08-21.98 7.2 5.1 16.14 8.13 25.83 8.13 9.91 0 19.03-3.18 26.31-8.49 9.38 2.05 16.44 11.42 16.44 22.34v22.77zM401 278.53c.76-3.73-.05-7.51-2.29-10.66l-44.38-62.57c-4.41-6.22-13.27-8.03-19.75-4.03l-18.71 11.53c-3.28 2.02-5.5 5.18-6.26 8.9-.54 2.66-.27 5.34.73 7.8-.06.02-.13.04-.19.06-2.64.83-5.37 1.69-7.55 2.33-1.17.34-2.13.36-3.31.08l-19.02-4.59c-15.5-3.74-34.08 4.65-45.47 11.94-7.68-2.12-15.37-2.97-23.4-2.57l-13.48-4.37c.96-2.65 1.08-5.51.32-8.27-1.01-3.67-3.44-6.68-6.85-8.48l-19.51-10.31c-6.76-3.57-15.5-1.16-19.47 5.38l-39.62 65.13c-2.01 3.3-2.56 7.14-1.54 10.81 1.01 3.67 3.44 6.68 6.85 8.48l19.51 10.31c2.12 1.12 4.44 1.65 6.74 1.65 5.03 0 10.01-2.54 12.74-7.03l.12-.19c2.83 3.71 6.17 7.44 10.01 11.17l-2.96 5.16c-2.36 4.13-2.92 8.87-1.56 13.35s4.44 8.11 8.69 10.22c2.53 1.26 5.25 1.85 7.96 1.85.91 0 1.81-.07 2.7-.21 1.16 4.65 4.33 8.81 9.03 11.15 2.58 1.28 5.36 1.89 8.11 1.89 2.01 0 4.01-.33 5.89-.95 1.62 3.31 4.27 5.99 7.68 7.69 2.52 1.25 5.24 1.85 7.94 1.85 3.27 0 6.52-.88 9.36-2.5 1.93 2.95 4.7 4.84 7.02 5.99 2.58 1.28 5.36 1.89 8.11 1.89 5.34 0 10.56-2.3 13.98-6.4 1.99 1.23 4.91 3.07 9.21 5.87l.51.33c4.23 2.75 8.82 3.94 13.2 3.94 7.29 0 13.97-3.3 17.34-8.25 1.22-1.78 2.02-3.87 2.25-6.07 6.78-.7 12.67-4.52 15.81-9.63 1.6-2.6 2.41-5.33 2.48-7.98 6.81-.79 12.5-4.57 15.28-9.48 1.36-2.39 2-4.89 1.98-7.34 4.51-.98 8.47-3.62 10.72-7.03 1.71-2.61 2.7-6.14 1.89-9.83 4.29-1.61 8.12-4.27 10.78-7.64a15.24 15.24 0 0 0 7.83 2.19c2.63 0 5.27-.69 7.6-2.12l18.71-11.53c3.26-2.03 5.48-5.19 6.24-8.91zm-257.79 16.29-19.51-10.31c-.58-.31-.81-.75-.89-1.06-.09-.32-.12-.82.23-1.39l39.62-65.13c.49-.81 1.48-1.28 2.44-1.28.41 0 .82.09 1.18.28l19.51 10.31c.58.31.81.75.89 1.06.09.32.12.82-.23 1.39l-39.62 65.13c-.71 1.15-2.43 1.63-3.62 1zm33.51 34.2c-1.26-.63-2.17-1.68-2.55-2.96-.39-1.29-.22-2.68.49-3.91l5.27-9.2c0-.01.01-.01.01-.02l9.84-17.18c1.13-1.98 3.35-3.13 5.57-3.13.92 0 1.83.2 2.67.62 1.26.63 2.17 1.68 2.55 2.96.39 1.29.22 2.67-.49 3.91l-15.12 26.4c-1.59 2.79-5.37 3.94-8.24 2.51zm19.69 12.79c-2.42-1.2-3.5-3.79-2.53-6.01l.13-.3c.92-2.12 1.19-2.69 1.26-2.85-.05.1-.09.17-.12.22l-.01-.01c.08-.13.17-.26.24-.39l15.12-26.39c.05-.09.09-.19.15-.29l.01.01c.29-.46 2.31-3.5 2.58-3.88 1.62-2.26 5.09-3.02 7.75-1.71 1.34.67 2.3 1.75 2.69 3.06.25.81.38 2.06-.39 3.4l-17.68 30.94c-.4.7-.73 1.43-1.03 2.16l-.16-.09c-1.47 2.58-5.14 3.55-8.01 2.13zm21.69 8.62c-1.26-.62-2.17-1.67-2.56-2.96s-.22-2.68.48-3.91l17.68-30.94.72-1.26c1.13-1.98 3.35-3.14 5.58-3.14.92 0 1.83.2 2.67.61 1.26.63 2.17 1.68 2.56 2.96.39 1.29.22 2.68-.48 3.91l-4.4 7.71-14 24.5c-1.6 2.79-5.38 3.95-8.25 2.52zm24.32 5.34c-2.04-1.01-4.57-2.28-.85-10.31l9.19-16.09c.98-1.72 5.95-3.4 8.72-2.03 1.34.67 2.3 1.75 2.69 3.06.25.81.38 2.06-.39 3.41l-11.34 19.85c-1.48 2.56-5.15 3.53-8.02 2.11zm95.49-45.99c-1.02 1.55-4.36 2.9-7.07 1.39-5.48-3.04-11.08-6.04-16.5-8.94-2.73-1.46-5.45-2.92-8.17-4.39-2.92-1.57-6.56-.49-8.13 2.43a5.99 5.99 0 0 0 2.43 8.13c2.73 1.48 5.47 2.94 8.21 4.41 4.74 2.54 9.62 5.15 14.4 7.78 2.89 2.15 2.07 3.6 1.72 4.23-1.46 2.59-6.45 4.87-12.11 2.61l-19.77-12.06c-2.83-1.73-6.52-.83-8.25 2s-.83 6.52 2 8.25l19.95 12.17c1.15.86 1.96 1.98.64 4.12-1.8 2.93-6.92 5.71-12.71 2.81l-12.48-7.92c-2.8-1.78-6.51-.95-8.28 1.85s-.95 6.5 1.85 8.28l12.56 7.97c1.89 1.39 1.53 1.91 1.32 2.22-1.69 2.48-8.33 4.75-14.1 1.01l-.5-.32c-4.05-2.63-7.18-4.62-9.57-6.09l6.84-11.97c2.26-3.95 2.77-8.51 1.45-12.85-1.35-4.43-4.57-8.19-8.84-10.31-2.28-1.13-4.85-1.68-7.46-1.74.22-2.18.01-4.39-.64-6.54-1.36-4.47-4.45-8.1-8.7-10.21-4.41-2.19-9.42-2.35-13.89-.86a17.354 17.354 0 0 0-7.8-7.77c-5.08-2.52-10.92-2.47-15.79-.26-1.64-2.85-4.09-5.17-7.15-6.7-8.51-4.24-19.28-.96-24 7.29l-5.99 10.45c-3.81-3.92-6.95-7.79-9.4-11.55l27.8-45.69 16.99 5.51c.72.23 1.48.33 2.24.28 3.96-.25 7.82-.15 11.64.31-2.29 2.42-4.51 5.17-6.63 8.25-3.36 4.87-3.57 10.8-.56 15.87 2.86 4.82 8 7.68 13.77 7.68h.17c11.62-.11 17.3-5.92 22.8-11.55.29-.3.59-.6.89-.91 4.2.94 9.36.78 14.84-2.39l36.13 21.88 32.47 19.26c1.99 1.63 1.54 2.34 1.38 2.58zm13.55-18.66c-1.68 2.39-5.7 4.78-9.94 5.11l-31.31-18.57-39.39-23.86a6.014 6.014 0 0 0-6.9.48c-3.48 2.83-6.51 3.38-10.15 1.84a5.99 5.99 0 0 0-6.47 1.18c-1.34 1.27-2.53 2.49-3.68 3.67-4.96 5.08-7.7 7.87-14.34 7.94h-.06c-1.1 0-2.57-.32-3.45-1.8-.6-1.02-.57-1.95.11-2.94 3.26-4.72 6.69-8.46 10.2-11.09a.7.7 0 0 0 .1-.08c11.3-8.86 29.6-16.77 41.27-13.95l19.02 4.59c3.21.78 6.32.7 9.49-.22 2.31-.68 5.11-1.56 7.81-2.41 1.17-.37 2.34-.74 3.49-1.1l34.93 49.25c.04.54-.2 1.19-.73 1.96zm37.78-14.98c-.06.31-.25.74-.79 1.08l-18.71 11.53c-1.14.7-2.89.34-3.67-.76l-44.38-62.56c-.38-.53-.38-1.01-.32-1.33.06-.31.25-.74.79-1.08l18.71-11.53c.4-.25.87-.36 1.35-.36.89 0 1.81.4 2.32 1.12l44.38 62.57c.38.53.38 1.01.32 1.32zm-41.12-153.89 9.75 7.38c29.45 22.27 50.05 51.46 59.91 84.75l-22.47 1.86c-2.42.2-4.48 1.84-5.22 4.15s-.02 4.84 1.84 6.41l47.05 39.87a6.005 6.005 0 0 0 4.37 1.4c1.59-.13 3.05-.89 4.08-2.1l39.87-47.06a5.994 5.994 0 0 0-5.07-9.85l-27.49 2.27c-11.16-43.88-36.97-82.1-74.88-110.77l-9.75-7.38c-2.64-2-6.4-1.48-8.4 1.17l-14.76 19.51c-2 2.63-1.47 6.39 1.17 8.39zm19.54-15.89 4.97 3.76c37.08 28.04 61.85 65.71 71.64 108.93a5.995 5.995 0 0 0 6.35 4.65l18.18-1.5-26.62 31.42L410.74 227l15.22-1.26a5.996 5.996 0 0 0 5.33-7.42c-9.63-38.82-32.51-72.8-66.17-98.26l-4.97-3.76zM338.99 419.8a6.01 6.01 0 0 0-7.82-3.3l-11.33 4.61c-34.2 13.91-69.82 16.68-103.47 8.13l9.9-20.26c1.06-2.18.71-4.79-.9-6.61a6 6 0 0 0-6.45-1.7l-58.32 20.04c-1.5.52-2.74 1.61-3.44 3.04s-.8 3.08-.28 4.58l20.04 58.32a6.008 6.008 0 0 0 5.3 4.04c.12.01.25.01.37.01 2.28 0 4.38-1.3 5.39-3.37l12.1-24.78c43.42 12.85 89.45 10.22 133.48-7.69l11.33-4.61a6.002 6.002 0 0 0 3.3-7.82zm-9.93 23.97c-43.06 17.52-88.1 19.53-130.24 5.84-2.85-.92-5.93.39-7.25 3.07l-8 16.39-13.39-38.95 38.95-13.39-6.7 13.72c-.77 1.58-.81 3.42-.11 5.03s2.08 2.83 3.76 3.34c38.29 11.58 79.19 9.3 118.28-6.6l5.77-2.35 4.69 11.54zm-272-203.17 23.91 5.14c.42.09.85.13 1.27.13a6 6 0 0 0 5.86-4.74l2.57-11.96c7.76-36.1 25.52-67.1 51.53-90.09l11.17 19.58a6.002 6.002 0 0 0 11-1.39l16.27-59.49c.42-1.53.21-3.17-.58-4.56a5.959 5.959 0 0 0-3.63-2.81l-59.49-16.27c-2.34-.64-4.84.19-6.32 2.11a6 6 0 0 0-.47 6.65l13.67 23.96c-35.07 28.65-58.81 68.18-68.8 114.65l-2.57 11.96c-.69 3.25 1.37 6.44 4.61 7.13zm9.7-16.56c9.77-45.45 33.46-83.81 68.5-110.93a6.009 6.009 0 0 0 1.54-7.72l-9.04-15.84 39.73 10.87-10.87 39.73-7.57-13.26a5.967 5.967 0 0 0-4.1-2.92c-1.73-.33-3.51.12-4.88 1.23-31.13 25.12-52.27 60.21-61.14 101.47l-1.31 6.09-12.18-2.62z" fill="#000000" opacity="1" data-original="#000000" class=""></path></g></svg>