<svg xmlns="http://www.w3.org/2000/svg" version="1.1" xmlns:xlink="http://www.w3.org/1999/xlink" width="512" height="512" x="0" y="0" viewBox="0 0 512 512" style="enable-background:new 0 0 512 512" xml:space="preserve" class=""><g transform="matrix(0.85,0,0,0.85,38.39999885559084,38.399994993209845)"><linearGradient id="a" x1="256" x2="256" y1="15" y2="497" gradientUnits="userSpaceOnUse"><stop stop-opacity="1" stop-color="#a03a8d" offset="0"></stop><stop stop-opacity="1" stop-color="#010101" offset="0"></stop></linearGradient><path fill="url(#a)" d="M135.49 361.84c0 5.63 4.94 8.39 16.2 13.35 1.16.51 2.33 1.02 3.49 1.55 1.13.51 2.26 1.01 3.38 1.5 10.96 4.82 23.37 10.29 23.37 24.33 0 12.68-9.98 23.3-23.23 25.81v15.34c0 3.31-2.69 6-6 6s-6-2.69-6-6v-15.34c-13.25-2.5-23.23-13.12-23.23-25.81 0-3.31 2.69-6 6-6s6 2.69 6 6c0 7.92 7.73 14.37 17.23 14.37s17.23-6.45 17.23-14.37c0-5.63-4.94-8.39-16.21-13.35-1.16-.51-2.32-1.02-3.49-1.55-1.13-.51-2.26-1.01-3.39-1.5-10.95-4.82-23.37-10.29-23.37-24.33 0-12.68 9.98-23.3 23.23-25.81v-15.34c0-3.31 2.69-6 6-6s6 2.69 6 6v15.34c13.25 2.5 23.23 13.12 23.23 25.81 0 3.31-2.69 6-6 6s-6-2.69-6-6c0-7.92-7.73-14.37-17.23-14.37s-17.21 6.45-17.21 14.37zm106.63 20.37c0 49.3-40.11 89.41-89.41 89.41S63.3 431.51 63.3 382.21s40.11-89.41 89.41-89.41 89.41 40.11 89.41 89.41zm-12 0c0-42.68-34.72-77.41-77.41-77.41S75.3 339.52 75.3 382.21s34.72 77.41 77.41 77.41 77.41-34.73 77.41-77.41zm243.96-84.35v30.08c0 8.77-5.58 16.29-14.89 22.5.21 1.16.32 2.33.32 3.51v30.08c0 8.54-5.29 15.89-14.17 22 6.68 6.46 8.3 12.7 8.3 17.22v30.08c0 28.36-58.29 43.67-113.13 43.67-46.56 0-95.01-10.72-109.08-31.32-20.57 19.41-48.27 31.32-78.72 31.32-63.3 0-114.79-51.5-114.79-114.79 0-43.72 24.57-81.8 60.62-101.18V172.8h-8.63a5.998 5.998 0 0 1-4.96-9.37l40.18-59.16c1.12-1.64 2.98-2.63 4.96-2.63s3.85.98 4.96 2.63l40.18 59.16a5.998 5.998 0 0 1-4.96 9.37h-8.63v94.96c19.95 1.54 38.48 8.21 54.28 18.68V105.88h-13.51a5.998 5.998 0 0 1-4.96-9.37l53.58-78.88c1.12-1.64 2.98-2.63 4.96-2.63s3.85.98 4.96 2.63l53.58 78.88a5.998 5.998 0 0 1-4.96 9.37h-13.51v102.18c16.06-2.98 33.71-4.51 51.02-4.51 1.09 0 2.17.01 3.26.02V172.8h-8.63a5.998 5.998 0 0 1-4.96-9.37l40.18-59.16c1.12-1.64 2.98-2.63 4.96-2.63s3.85.98 4.96 2.63l40.18 59.16a5.998 5.998 0 0 1-4.96 9.37h-8.63v38.7c27.16 7.23 46.76 19.28 46.76 35.73v28.86c11.38 7.98 13.88 16.14 13.88 21.77zm-113.13 73.75c-37.65 0-76.91-7.21-97.84-20.91 2.03 7.12 3.39 14.52 4.01 22.12 19.51 8.04 48.76 12.79 79.25 12.79 53.97 0 95.21-14.54 100.54-28.62-22.07 9.6-54.58 14.62-85.96 14.62zm-114.99-94.29c0 14.95 43.25 31.67 101.13 31.67s101.13-16.72 101.13-31.67v-9.65c-19.88 15.21-61.4 23.24-101.13 23.24-39.72 0-81.25-8.03-101.13-23.24zm20.99 31.39c14.56 11.18 50.06 20.82 94 20.82 57.88 0 101.13-16.72 101.13-31.67 0-2.91-1.83-6.07-5.26-9.18-13.21 21.07-62.73 32.31-109.73 32.31-28.73 0-58.39-4.21-80.14-12.28zm95.4-141.91v37.15c13.48.69 26.81 2.29 39.11 4.76V166.8c0-3.31 2.69-6 6-6h3.3l-28.85-42.49-28.85 42.49h3.3c3.31 0 5.99 2.69 5.99 6zm-15.26 48.76c-27.88 0-54.05 3.8-73.7 10.71-16.92 5.95-27.43 13.98-27.43 20.96s10.51 15.01 27.43 20.96c19.65 6.91 45.82 10.71 73.7 10.71s54.05-3.8 73.7-10.71c16.92-5.95 27.43-13.98 27.43-20.96s-10.51-15.01-27.43-20.96c-19.65-6.9-45.82-10.71-73.7-10.71zM227.93 99.88v195.67c7.56 6.57 14.26 14.11 19.89 22.43V299.1c-8.7-6.07-13.86-13.35-13.86-21.79v-30.08c0-17.12 21.23-29.47 50.11-36.59V99.88c0-3.31 2.69-6 6-6h8.18L256 31.68l-42.25 62.21h8.18c3.31-.01 6 2.68 6 5.99zM110.54 166.8v108.64c12.16-4.82 25.34-7.62 39.11-7.98V166.8c0-3.31 2.69-6 6-6h3.3l-28.85-42.49-28.85 42.49h3.3c3.3 0 5.99 2.69 5.99 6zm144.97 215.41c0-56.68-46.11-102.79-102.79-102.79s-102.8 46.11-102.8 102.79S96.04 485 152.71 485s102.8-46.11 102.8-102.79zm186.13 71.12v-9.65c-19.88 15.21-61.4 23.24-101.13 23.24-38.42 0-73.57-7.04-94.01-18.6-2.02 2.86-4.17 5.62-6.43 8.27 5.69 13.88 46.21 28.41 100.44 28.41 57.88 0 101.13-16.72 101.13-31.67zm-7.45-41.08c-22.08 10.14-55.54 15.45-87.82 15.45-31.96 0-62.41-5-83.4-13.52-2.45 8.44-5.84 16.47-10.06 23.99 18.51 10.28 51.9 16.76 87.6 16.76 57.88 0 101.13-16.72 101.13-31.67 0-4.23-3.61-8.1-7.45-11.01zm13.31-28.23v-9.65c-19.88 15.21-61.4 23.24-101.13 23.24-30.02 0-58.15-4.25-78.93-11.79-.17 5.61-.75 11.13-1.7 16.51 19.51 8.41 49.16 13.37 80.64 13.37 57.88-.01 101.12-16.73 101.12-31.68zm14.58-56.08v-9.65c-19.88 15.21-61.4 23.24-101.13 23.24-39.72 0-81.25-8.03-101.13-23.24v9.65c0 14.95 43.25 31.67 101.13 31.67s101.13-16.72 101.13-31.67z" opacity="1" data-original="url(#a)" class=""></path></g></svg>