<svg xmlns="http://www.w3.org/2000/svg" version="1.1" xmlns:xlink="http://www.w3.org/1999/xlink" width="512" height="512" x="0" y="0" viewBox="0 0 60 60" style="enable-background:new 0 0 512 512" xml:space="preserve" class=""><g transform="matrix(0.7000000000000001,0,0,0.7000000000000001,9.000021427623953,9.000153910112566)"><g fill="#000" fill-rule="evenodd" stroke-width="13" style="stroke-width: 13;"><path fill-rule="nonzero" d="M3 32a2.994 2.994 0 0 0 2.122-.877L10 26.254l2.463 2.465a5 5 0 0 0 7.074 0l14.672-14.677 4.462 4.464a5.007 5.007 0 0 0 7.075 0l8.932-8.944.742.742a2.391 2.391 0 0 0 4.074-1.511l.5-6.441v-.01A2.191 2.191 0 0 0 57.66.006l-6.447.5A2.383 2.383 0 0 0 49.7 4.57l.742.744-8.235 8.239-4.461-4.464a5 5 0 0 0-7.074 0L16 23.767 13.539 21.3a5.006 5.006 0 0 0-7.075 0L.889 26.89A2.992 2.992 0 0 0 3 32zm-.7-3.7 5.579-5.591a3 3 0 0 1 4.245 0l3.169 3.171a1 1 0 0 0 1.415 0L32.086 10.5a3.073 3.073 0 0 1 4.246 0l4.462 4.464a2.048 2.048 0 0 0 2.829 0l8.941-8.946a1 1 0 0 0 0-1.413l-1.453-1.453a.358.358 0 0 1-.087-.4.378.378 0 0 1 .341-.255L57.808 2c.05-.002.1.017.134.054.04.038.06.091.058.146l-.5 6.44a.391.391 0 0 1-.666.249l-1.449-1.451a1.03 1.03 0 0 0-1.415 0l-9.639 9.653a3.078 3.078 0 0 1-4.245 0l-4.462-4.464a1.988 1.988 0 0 0-1.415-.587c-.53 0-1.039.21-1.413.586L18.124 27.305a3.074 3.074 0 0 1-4.246 0l-2.463-2.465a2 2 0 0 0-2.827 0l-4.883 4.875a1.008 1.008 0 0 1-1.41 0 .976.976 0 0 1 0-1.4zM40 38a10 10 0 1 0-15.975 8H24a2.987 2.987 0 0 0-2.22 5 2.954 2.954 0 0 0 0 4A2.987 2.987 0 0 0 24 60h12a2.987 2.987 0 0 0 2.22-5 2.954 2.954 0 0 0 0-4A2.987 2.987 0 0 0 36 46h-.025A9.982 9.982 0 0 0 40 38zm-3 15a1 1 0 0 1-1 1H24a1 1 0 0 1 0-2h12a1 1 0 0 1 1 1zm-1 5H24a1 1 0 0 1 0-2h12a1 1 0 0 1 0 2zm0-10a1 1 0 0 1 0 2H24a1 1 0 0 1 0-2zM22 38a8 8 0 1 1 8 8 8.009 8.009 0 0 1-8-8z" fill="#000000" opacity="1" data-original="#000000" stroke-width="13" style="stroke-width: 13;" class=""></path><path d="M30 37a1 1 0 1 1 .867-1.5 1 1 0 1 0 1.731-1A3 3 0 0 0 31 33.2V33a1 1 0 0 0-2 0v.184A2.993 2.993 0 0 0 30 39a1 1 0 1 1-.867 1.5 1 1 0 0 0-1.731 1 3 3 0 0 0 1.6 1.3v.2a1 1 0 0 0 2 0v-.184A2.993 2.993 0 0 0 30 37z" fill="#000000" opacity="1" data-original="#000000" stroke-width="13" style="stroke-width: 13;" class=""></path><path fill-rule="nonzero" d="M50 20a9.988 9.988 0 0 0-5.975 18H44a2.987 2.987 0 0 0-2.22 5 2.954 2.954 0 0 0 0 4 2.954 2.954 0 0 0 0 4 2.954 2.954 0 0 0 0 4A2.987 2.987 0 0 0 44 60h12a2.987 2.987 0 0 0 2.22-5 2.954 2.954 0 0 0 0-4 2.954 2.954 0 0 0 0-4 2.954 2.954 0 0 0 0-4A2.987 2.987 0 0 0 56 38h-.026A9.987 9.987 0 0 0 50 20zm7 25a1 1 0 0 1-1 1H44a1 1 0 0 1 0-2h12a1 1 0 0 1 1 1zm0 4a1 1 0 0 1-1 1H44a1 1 0 0 1 0-2h12a1 1 0 0 1 1 1zm0 4a1 1 0 0 1-1 1H44a1 1 0 0 1 0-2h12a1 1 0 0 1 1 1zm-1 5H44a1 1 0 0 1 0-2h12a1 1 0 0 1 0 2zm0-18a1 1 0 0 1 0 2H44a1 1 0 0 1 0-2zm-6-2a8 8 0 1 1 8-8 8.009 8.009 0 0 1-8 8z" fill="#000000" opacity="1" data-original="#000000" stroke-width="13" style="stroke-width: 13;" class=""></path><path d="M50 29a1 1 0 1 1 .867-1.5 1 1 0 0 0 1.731-1A2.993 2.993 0 0 0 51 25.2V25a1 1 0 0 0-2 0v.184A2.993 2.993 0 0 0 50 31a1 1 0 1 1-.867 1.5 1 1 0 0 0-1.731 1c.363.61.93 1.07 1.6 1.3v.2a1 1 0 0 0 2 0v-.184A2.993 2.993 0 0 0 50 29z" fill="#000000" opacity="1" data-original="#000000" stroke-width="13" style="stroke-width: 13;" class=""></path><path fill-rule="nonzero" d="M4.025 54H4a3 3 0 0 0 0 6h12a3 3 0 0 0 0-6h-.025a10 10 0 1 0-11.95 0zM16 56a1 1 0 0 1 0 2H4a1 1 0 0 1 0-2zm-6-18a8 8 0 1 1-8 8 8.009 8.009 0 0 1 8-8z" fill="#000000" opacity="1" data-original="#000000" stroke-width="13" style="stroke-width: 13;" class=""></path><path d="M10 47a1 1 0 1 1-.867 1.5 1 1 0 1 0-1.731 1 3 3 0 0 0 1.6 1.3v.2a1 1 0 0 0 2 0v-.184A2.993 2.993 0 0 0 10 45a1 1 0 1 1 .867-1.5 1 1 0 1 0 1.731-1A3 3 0 0 0 11 41.2V41a1 1 0 0 0-2 0v.184A2.993 2.993 0 0 0 10 47z" fill="#000000" opacity="1" data-original="#000000" stroke-width="13" style="stroke-width: 13;" class=""></path></g></g></svg>