<svg xmlns="http://www.w3.org/2000/svg" version="1.1" xmlns:xlink="http://www.w3.org/1999/xlink" width="512" height="512" x="0" y="0" viewBox="0 0 512 512" style="enable-background:new 0 0 512 512" xml:space="preserve" class=""><g transform="matrix(0.8000000000000006,0,0,0.8000000000000006,51.19999999999985,51.19999999999985)"><path d="M442.73 352.1c15.4-10.63 25.51-28.39 25.51-48.47 0-32.46-26.41-58.87-58.87-58.87s-58.87 26.41-58.87 58.87c0 20.12 10.15 37.9 25.59 48.52a102.344 102.344 0 0 0-32.43 18.44c-14.93 12.6-25.91 29.16-31.71 47.51-6.98-4.59-14.56-8.35-22.59-11.13 15.4-10.63 25.51-28.39 25.51-48.47 0-32.46-26.41-58.87-58.87-58.87s-58.87 26.41-58.87 58.87c0 20.08 10.12 37.84 25.51 48.47-8.03 2.78-15.61 6.54-22.59 11.13-5.8-18.35-16.78-34.91-31.71-47.51a102.344 102.344 0 0 0-32.43-18.44c15.44-10.62 25.59-28.41 25.59-48.52 0-32.46-26.41-58.87-58.87-58.87s-58.87 26.41-58.87 58.87c0 20.08 10.12 37.84 25.51 48.47C29.29 365.96.5 403.99.5 448.62c0 4.42 3.58 8 8 8h156.79c-7.29 14.05-11.41 29.99-11.41 46.88 0 4.42 3.58 8 8 8h188.25c4.42 0 8-3.58 8-8 0-16.89-4.12-32.83-11.41-46.88H503.5c4.42 0 8-3.58 8-8 0-44.63-28.79-82.66-68.77-96.52zm-76.23-48.47c0-23.64 19.23-42.87 42.87-42.87s42.87 19.23 42.87 42.87-19.23 42.87-42.87 42.87-42.87-19.23-42.87-42.87zM213.13 358.5c0-23.64 19.23-42.87 42.87-42.87s42.87 19.23 42.87 42.87-19.23 42.87-42.87 42.87-42.87-19.23-42.87-42.87zM59.75 303.63c0-23.64 19.23-42.87 42.87-42.87s42.87 19.23 42.87 42.87-19.23 42.87-42.87 42.87-42.87-19.23-42.87-42.87zM16.87 440.62c4.05-43.75 40.96-78.12 85.76-78.12 40.11 0 74.65 27.63 83.8 66.32-3.91 3.65-7.54 7.59-10.85 11.81H16.87zm153.37 54.88c4.05-43.75 40.96-78.12 85.76-78.12 44.79 0 81.71 34.37 85.76 78.12zm166.18-54.88c-3.3-4.22-6.93-8.16-10.85-11.81 9.15-38.68 43.69-66.32 83.8-66.32 44.79 0 81.71 34.37 85.76 78.12H336.42zM256 61.02c-63.48 0-115.12 51.64-115.12 115.12S192.52 291.26 256 291.26s115.12-51.64 115.12-115.12S319.48 61.02 256 61.02zm0 214.24c-54.66 0-99.12-44.47-99.12-99.12S201.34 77.02 256 77.02s99.12 44.47 99.12 99.12-44.46 99.12-99.12 99.12zm0-185.23c-47.48 0-86.11 38.63-86.11 86.11s38.63 86.11 86.11 86.11 86.11-38.63 86.11-86.11S303.48 90.03 256 90.03zm0 156.22c-38.66 0-70.11-31.45-70.11-70.11s31.45-70.11 70.11-70.11 70.11 31.45 70.11 70.11-31.45 70.11-70.11 70.11zm26.61-53.37c0 11.53-7.92 21.24-18.61 23.97v3.73c0 4.42-3.58 8-8 8s-8-3.58-8-8v-3.4a24.9 24.9 0 0 1-15.45-9.84 7.998 7.998 0 1 1 12.96-9.38c1.66 2.29 4.3 3.66 7.09 3.66h5.27c4.82 0 8.74-3.92 8.74-8.74s-3.92-8.74-8.74-8.74h-3.74c-13.64 0-24.74-11.1-24.74-24.74 0-11.53 7.92-21.24 18.61-23.97v-3.73c0-4.42 3.58-8 8-8s8 3.58 8 8v3.4a24.9 24.9 0 0 1 15.45 9.84 7.998 7.998 0 1 1-12.96 9.38c-1.66-2.29-4.3-3.66-7.09-3.66h-5.27c-4.82 0-8.74 3.92-8.74 8.74s3.92 8.74 8.74 8.74h3.74c13.64 0 24.74 11.1 24.74 24.74zM248 39.33V8.5c0-4.42 3.58-8 8-8s8 3.58 8 8v30.83c0 4.42-3.58 8-8 8s-8-3.58-8-8zm-83-5.31c-2.21-3.83-.9-8.72 2.93-10.93s8.72-.9 10.93 2.93l15.42 26.7a7.998 7.998 0 0 1-6.92 12c-2.77 0-5.45-1.43-6.94-4zM102.96 86.7a7.998 7.998 0 0 1 10.93-2.93l26.7 15.42a7.998 7.998 0 0 1 2.93 10.93c-1.48 2.57-4.17 4-6.94 4a8.02 8.02 0 0 1-3.99-1.07l-26.7-15.42a7.998 7.998 0 0 1-2.93-10.93zm-24.47 87.57c0-4.42 3.58-8 8-8h30.83c4.42 0 8 3.58 8 8s-3.58 8-8 8H86.49c-4.42 0-8-3.58-8-8zM317.23 54.6l15.42-26.7c2.21-3.83 7.1-5.14 10.93-2.93s5.14 7.1 2.93 10.93l-15.42 26.7c-1.48 2.57-4.17 4-6.94 4a8.02 8.02 0 0 1-3.99-1.07c-3.83-2.21-5.14-7.11-2.93-10.93zm49.39 58.76a7.998 7.998 0 0 1 2.93-10.93l26.7-15.42c3.83-2.21 8.72-.9 10.93 2.93s.9 8.72-2.93 10.93l-26.7 15.42a8.008 8.008 0 0 1-10.93-2.93zm24.32 56.65h30.83c4.42 0 8 3.58 8 8s-3.58 8-8 8h-30.83c-4.42 0-8-3.58-8-8s3.58-8 8-8z" fill="#000000" opacity="1" data-original="#000000" class=""></path></g></svg>