<svg xmlns="http://www.w3.org/2000/svg" version="1.1" xmlns:xlink="http://www.w3.org/1999/xlink" width="512" height="512" x="0" y="0" viewBox="0 0 512 512" style="enable-background:new 0 0 512 512" xml:space="preserve" class=""><g transform="matrix(0.85,0,0,0.85,38.40099849700928,38.40364494323731)"><path fill-rule="evenodd" d="M84.48 310.681a9.6 9.6 0 0 0 4.539 5.967l57.843 33.235a6.36 6.36 0 1 1-6.338 11.029l-57.843-33.235a22.124 22.124 0 0 1-10.527-13.7c-2.522-9.329-.153-19.237 7.348-25.346l-17.379-68.613a12.081 12.081 0 0 0-5.1-7.2 10.642 10.642 0 0 0-8.071-1.489 11.006 11.006 0 0 0-6.94 4.808c-1.923 2.971-1.953 5.349-1.459 8.7l24.331 118.44c.838 4.109 1.486 7.1 3.6 10.872a30.972 30.972 0 0 0 7.167 8.537l60.694 51.248a6.353 6.353 0 0 1 2.162 3.769h.009l1.918 10.976 72.172-22-20.126-48.613a29.767 29.767 0 0 0-13.26-15.096l-79.185-45.5c-9.013-5.178-18.289 3.092-15.555 13.208zm311.47-124.917a6.38 6.38 0 0 1 12.677 1.446 153.686 153.686 0 0 1-292.5 46.163q-2.8-6.127-5.02-12.395l-4.324 9.181a6.374 6.374 0 0 1-11.529-5.439l11.453-24.32a6.378 6.378 0 0 1 8.541-3.075l24.331 11.459a6.374 6.374 0 0 1-5.441 11.528l-11.693-5.507a139.686 139.686 0 0 0 5.258 13.276 140.886 140.886 0 0 0 268.247-42.317zm-23.582-55.2a6.374 6.374 0 1 1 5.438-11.529l11.693 5.508a138.962 138.962 0 0 0-5.256-13.275A140.886 140.886 0 0 0 116 153.586a6.38 6.38 0 0 1-12.677-1.447 153.685 153.685 0 0 1 292.5-46.162q2.8 6.127 5.019 12.394l4.325-9.181a6.374 6.374 0 0 1 11.528 5.44l-11.465 24.336a6.388 6.388 0 0 1-8.5 3.072zm-116.395 2.93a24.625 24.625 0 1 0 17.41 7.212 24.546 24.546 0 0 0-17.41-7.212zm8.378 16.245a11.851 11.851 0 1 0 3.469 8.378 11.815 11.815 0 0 0-3.469-8.378zm-51.539 48.683a32.457 32.457 0 0 1 6.049-4.358 31.754 31.754 0 0 1 15.5-4.049h43.216a31.741 31.741 0 0 1 15.5 4.049 32.361 32.361 0 0 1 6.05 4.357 51.852 51.852 0 1 0-86.321 0zm78 9.658a19.349 19.349 0 0 0-3.916-2.887 19.049 19.049 0 0 0-9.315-2.4h-43.216a19.059 19.059 0 0 0-9.316 2.4 19.313 19.313 0 0 0-3.914 2.888 51.855 51.855 0 0 0 69.677 0zm-34.839-103.034a64.631 64.631 0 1 1-45.7 18.93 64.424 64.424 0 0 1 45.7-18.93zM245.726 47.6h20.491a17.063 17.063 0 0 1 17.032 17.03v5.942a101.812 101.812 0 0 1 23.509 9.744l4.206-4.206a17.056 17.056 0 0 1 24.082 0l14.49 14.49a17.06 17.06 0 0 1 0 24.085l-4.2 4.2a101.815 101.815 0 0 1 9.744 23.51h5.942a17.064 17.064 0 0 1 17.031 17.03v20.491a17.066 17.066 0 0 1-17.031 17.032h-5.942a101.9 101.9 0 0 1-9.743 23.51l4.2 4.2a17.059 17.059 0 0 1 0 24.083l-14.488 14.49a17.06 17.06 0 0 1-24.085 0l-4.206-4.2a101.715 101.715 0 0 1-23.509 9.744v5.942a17.064 17.064 0 0 1-17.032 17.031h-20.491a17.063 17.063 0 0 1-17.026-17.029v-5.941a101.334 101.334 0 0 1-23.51-9.745l-4.205 4.2a17.06 17.06 0 0 1-24.085 0l-14.488-14.49a17.027 17.027 0 0 1 .012-24.07l4.193-4.217a101.754 101.754 0 0 1-9.743-23.51h-5.943a17.064 17.064 0 0 1-17.03-17.032v-20.486a17.063 17.063 0 0 1 17.03-17.03h5.942a101.768 101.768 0 0 1 9.745-23.51l-4.206-4.2a17.06 17.06 0 0 1 0-24.085L176.9 76.11a17.058 17.058 0 0 1 24.083 0l4.205 4.206a101.815 101.815 0 0 1 23.51-9.744V64.63a17.061 17.061 0 0 1 17.028-17.03zm20.491 12.776a4.285 4.285 0 0 1 4.255 4.254v10.915a6.389 6.389 0 0 0 5.554 6.333 89.839 89.839 0 0 1 28.315 11.834 6.362 6.362 0 0 0 7.917-.866l7.739-7.7a4.286 4.286 0 0 1 6.017 0L340.5 99.633a4.286 4.286 0 0 1 0 6.018l-7.72 7.72a6.39 6.39 0 0 0-.547 8.411 89.783 89.783 0 0 1 11.653 28.377 6.367 6.367 0 0 0 6.213 4.992l10.915.024a4.285 4.285 0 0 1 4.255 4.253v20.491a4.285 4.285 0 0 1-4.255 4.255H350.1a6.39 6.39 0 0 0-6.334 5.554 89.805 89.805 0 0 1-11.833 28.315 6.367 6.367 0 0 0 .866 7.918l7.7 7.738a4.287 4.287 0 0 1 0 6.017l-14.488 14.489a4.287 4.287 0 0 1-6.019 0l-7.721-7.72a6.389 6.389 0 0 0-8.411-.547 89.808 89.808 0 0 1-28.377 11.653 6.367 6.367 0 0 0-4.983 6.209l-.024 10.915a4.285 4.285 0 0 1-4.255 4.254h-20.495a4.285 4.285 0 0 1-4.253-4.254V263.8a6.39 6.39 0 0 0-5.553-6.334 90.146 90.146 0 0 1-28.32-11.829 6.361 6.361 0 0 0-7.916.866l-7.738 7.7a4.286 4.286 0 0 1-6.018 0l-14.489-14.49a4.231 4.231 0 0 1-1.232-3.007 4.274 4.274 0 0 1 1.219-3.022l7.733-7.708a6.388 6.388 0 0 0 .547-8.411 89.845 89.845 0 0 1-11.653-28.377 6.366 6.366 0 0 0-6.213-4.992l-10.915-.024a4.285 4.285 0 0 1-4.254-4.255v-20.489a4.285 4.285 0 0 1 4.254-4.253h10.915a6.388 6.388 0 0 0 6.333-5.554 89.88 89.88 0 0 1 11.835-28.316 6.362 6.362 0 0 0-.866-7.916l-7.7-7.738a4.291 4.291 0 0 1 0-6.018l14.49-14.489a4.284 4.284 0 0 1 6.017 0l7.721 7.72a6.389 6.389 0 0 0 8.411.547 89.79 89.79 0 0 1 28.376-11.653 6.366 6.366 0 0 0 4.992-6.213l.024-10.915a4.285 4.285 0 0 1 4.253-4.254zm5.011 388.843 106.465 32.459 10.547-34.6-106.464-32.456-10.548 34.6zm108.848 46.488a6.362 6.362 0 0 0 7.935-4.242l14.258-46.77a6.361 6.361 0 0 0-4.241-7.934l-14.211-4.333 1.792-10.261 58.921-49.749a42.527 42.527 0 0 0 15.081-26.918l24.213-117.93c1.727-5.853.046-13.336-3.215-18.373a23.514 23.514 0 0 0-32.627-7.063 24.848 24.848 0 0 0-10.536 14.79L420.583 283.5a23.681 23.681 0 0 0-15.01 2.95l-79.186 45.5a42.389 42.389 0 0 0-18.7 21.28L287.1 402.943l-7.711-2.351a6.363 6.363 0 0 0-7.935 4.242L257.2 451.6a6.365 6.365 0 0 0 4.243 7.935l118.636 36.169zm-80.735-89.033 72.171 22 1.928-10.974a6.342 6.342 0 0 1 2.162-3.769l60.698-51.245a29.78 29.78 0 0 0 10.686-19.086c.075.011 22.106-108.015 24.472-119.161a11.009 11.009 0 0 0-1.529-8.308 10.841 10.841 0 0 0-15.011-3.319 12.081 12.081 0 0 0-5.1 7.2l-17.379 68.611c7.5 6.109 9.869 16.017 7.348 25.346a22.127 22.127 0 0 1-10.527 13.7l-57.843 33.235a6.36 6.36 0 1 1-6.338-11.029l57.843-33.235c11.55-6.636 1.982-26.642-11.015-19.175l-79.185 45.5a29.775 29.775 0 0 0-13.26 15.091l-20.125 48.613zm-175.635 40.405 106.464-32.457 10.548 34.6-106.464 32.456-10.548-34.6zm4.423-14.651-1.794-10.261-58.919-49.749A42.529 42.529 0 0 1 52.333 345.5c-8.1-39.454-16-79.012-24.322-118.412a23.866 23.866 0 0 1 18.3-28.238 23.294 23.294 0 0 1 17.654 3.285A24.858 24.858 0 0 1 74.5 216.924L91.362 283.5a23.686 23.686 0 0 1 15.011 2.95l79.185 45.5a42.4 42.4 0 0 1 18.7 21.28l20.585 49.722 7.712-2.351a6.364 6.364 0 0 1 7.935 4.242l14.257 46.757a6.362 6.362 0 0 1-4.242 7.935L131.87 495.707a6.361 6.361 0 0 1-7.935-4.242l-14.26-46.77a6.364 6.364 0 0 1 4.242-7.934z" fill="#000000" opacity="1" data-original="#000000" class=""></path></g></svg>