<svg xmlns="http://www.w3.org/2000/svg" version="1.1" xmlns:xlink="http://www.w3.org/1999/xlink" width="512" height="512" x="0" y="0" viewBox="0 0 482 482.64" style="enable-background:new 0 0 512 512" xml:space="preserve" class=""><g><path d="m75.426 370.016-6.211-14.75a37.414 37.414 0 0 0-20.367 20.52 38.044 38.044 0 0 0 9.87 40.573l11.204-11.437a22.107 22.107 0 0 1-6.121-23.426 21.664 21.664 0 0 1 11.625-11.48zM45.96 336.313 34.72 324.969A101.9 101.9 0 0 0 8.64 368.39a106.478 106.478 0 0 0 8.597 77.976l14.16-7.457A90.255 90.255 0 0 1 24 372.887a86 86 0 0 1 21.96-36.575zM421.922 416.36a38.038 38.038 0 0 0 9.879-40.575 37.414 37.414 0 0 0-20.367-20.52l-6.211 14.75a21.652 21.652 0 0 1 11.632 11.481 22.107 22.107 0 0 1-6.12 23.426zM463.398 446.367A106.46 106.46 0 0 0 472 368.391a101.867 101.867 0 0 0-26.04-43.422l-11.241 11.344a86 86 0 0 1 21.96 36.574 90.255 90.255 0 0 1-7.398 66.023zm0 0" fill="#ffffff" opacity="1" data-original="#000000" class=""></path><path d="M416.32 449.68c-.02-8.067-6.043-14.856-14.047-15.84l-42.656-5.32a129.839 129.839 0 0 0-2.305-5.52l26.458-34.008c4.921-6.41 4.324-15.48-1.395-21.191l-35.2-35.2c-5.714-5.726-14.796-6.32-21.206-1.386l-33.992 26.441a141.902 141.902 0 0 0-5.52-2.304l-5.336-42.625c-.965-8.02-7.762-14.063-15.84-14.086H215.36c-8.066.02-14.855 6.043-15.84 14.046l-5.32 42.657c-1.781.695-3.62 1.46-5.52 2.304l-34.007-26.457c-6.41-4.925-15.48-4.332-21.192 1.395l-35.199 35.2c-5.73 5.714-6.324 14.796-1.386 21.206l26.44 33.992a125.722 125.722 0 0 0-2.304 5.52l-42.617 5.312c-8.031.961-14.082 7.774-14.094 15.864v16.96h-64v16h480v-16h-64zm-336 0 47.52-5.918a8.004 8.004 0 0 0 6.61-5.41 109.866 109.866 0 0 1 5.374-12.977 8.008 8.008 0 0 0-.894-8.383l-29.38-37.914 35.274-35.262 37.84 29.442a8.008 8.008 0 0 0 8.383.894 109.866 109.866 0 0 1 12.976-5.375 8.004 8.004 0 0 0 5.41-6.609l5.926-47.527h49.907l5.918 47.52a8.004 8.004 0 0 0 5.41 6.609 109.537 109.537 0 0 1 12.972 5.375 8.007 8.007 0 0 0 8.387-.899l37.91-29.375 35.266 35.274-29.441 37.84a7.991 7.991 0 0 0-.895 8.382 109.593 109.593 0 0 1 5.375 12.977 8.004 8.004 0 0 0 6.61 5.41l47.542 5.926v16.96h-80.41c-4.101-40.882-38.508-72.011-79.597-72.011s-75.497 31.129-79.602 72.012H80.32zm223.45 16.96H176.87c4.008-31.992 31.207-55.995 63.45-55.995 32.242 0 59.44 24.003 63.449 55.996zM201.648 197.688a40.094 40.094 0 0 1 2.84 14.066 7.896 7.896 0 0 0-4.168 6.887v32c0 13.254 10.746 24 24 24h32c13.254 0 24-10.746 24-24v-32a7.896 7.896 0 0 0-4.168-6.887 40.046 40.046 0 0 1 2.856-14.09l1.152-1.754c18.008-27.469 48.16-73.453 48.16-107.91 0-48.602-39.398-88-88-88-48.601 0-88 39.398-88 88 0 34.457 30.153 80.441 48.16 107.91zm62.672 28.953v8h-48v-8zm-8 32h-32a8 8 0 0 1-8-8h48a8 8 0 0 1-8 8zM240.32 16c39.743.047 71.953 32.254 72 72 0 29.68-29.601 74.863-45.535 99.145l-1.137 1.726a50.91 50.91 0 0 0-5.464 21.77h-39.727a50.875 50.875 0 0 0-5.45-21.746l-1.152-1.75C197.922 162.863 168.32 117.68 168.32 88c.047-39.746 32.254-71.953 72-72zm0 0" fill="#ffffff" opacity="1" data-original="#000000" class=""></path><path d="m219.52 186.008 13.375-8.762-1.278-1.965c-12.554-19.203-41.93-64.058-41.93-87.304.028-27.961 22.672-50.625 50.633-50.672v-16c-36.8.043-66.625 29.867-66.664 66.672 0 28 28.977 72.289 44.535 96.062zM469.977 219.047l-15.899-2.008 9.832-12.64a11.838 11.838 0 0 0-.965-15.606l-16.8-16.8a11.829 11.829 0 0 0-15.602-.97l-12.621 9.856-1.992-15.895a11.823 11.823 0 0 0-11.739-10.343H380.45a11.827 11.827 0 0 0-11.722 10.343l-2.008 15.895-12.64-9.832c-4.704-3.649-11.388-3.23-15.606.969l-16.801 16.8a11.832 11.832 0 0 0-.969 15.598l9.856 12.625-15.895 1.992a11.823 11.823 0 0 0-10.344 11.739v23.742a11.82 11.82 0 0 0 10.344 11.718l15.895 1.993-9.832 12.64a11.848 11.848 0 0 0 .968 15.61l16.801 16.8a11.815 11.815 0 0 0 15.602.965l12.62-9.84 1.993 15.899a11.827 11.827 0 0 0 11.738 10.344h23.742c5.954-.008 10.977-4.438 11.72-10.344l2.01-15.899 12.638 9.832a11.825 11.825 0 0 0 15.609-.964l16.8-16.801a11.838 11.838 0 0 0 .97-15.602l-9.86-12.625 15.899-1.992a11.816 11.816 0 0 0 10.343-11.734V230.77a11.824 11.824 0 0 0-10.343-11.723zm-5.657 31.77-18.968 2.398a8 8 0 0 0-6.575 5.351 48.715 48.715 0 0 1-2.402 5.707 8.005 8.005 0 0 0 .871 8.43l11.738 15.106-11.55 11.55-15.106-11.734a8.002 8.002 0 0 0-8.406-.906 48.715 48.715 0 0 1-5.707 2.402 8 8 0 0 0-5.352 6.574l-2.367 18.946h-16.351l-2.403-18.97a7.994 7.994 0 0 0-5.351-6.573 48.658 48.658 0 0 1-5.703-2.403 8.004 8.004 0 0 0-8.43.871l-15.106 11.739-11.55-11.551 11.734-15.106a7.999 7.999 0 0 0 .902-8.41 49.309 49.309 0 0 1-2.398-5.703 7.994 7.994 0 0 0-6.574-5.351l-18.946-2.368v-16.351l18.97-2.403a7.994 7.994 0 0 0 6.573-5.351c.68-1.95 1.48-3.856 2.403-5.703a8.004 8.004 0 0 0-.875-8.434l-11.735-15.101 11.551-11.551 15.106 11.734a7.997 7.997 0 0 0 8.43.871 49.366 49.366 0 0 1 5.706-2.398 8.005 8.005 0 0 0 5.352-6.578l2.398-18.965h16.352l2.402 18.965a8 8 0 0 0 5.352 6.578c1.949.68 3.855 1.48 5.703 2.398a8.004 8.004 0 0 0 8.433-.87l15.102-11.735 11.555 11.55-11.739 15.102a8.01 8.01 0 0 0-.96 8.465 48.94 48.94 0 0 1 2.402 5.703 8.004 8.004 0 0 0 6.574 5.356l18.969 2.398zM10.664 266.23l15.895 2.008-9.832 12.64a11.848 11.848 0 0 0 .968 15.61l16.801 16.801a11.82 11.82 0 0 0 15.602.969l12.62-9.86 1.993 15.899a11.827 11.827 0 0 0 11.738 10.344h23.742c5.954-.008 10.977-4.438 11.72-10.344l2.01-15.899 12.638 9.832a11.825 11.825 0 0 0 15.609-.964l16.8-16.801a11.838 11.838 0 0 0 .97-15.602l-9.86-12.625 15.899-1.992a11.816 11.816 0 0 0 10.343-11.734V230.77a11.824 11.824 0 0 0-10.343-11.723l-15.899-2.008 9.832-12.64a11.838 11.838 0 0 0-.965-15.606l-16.8-16.8a11.829 11.829 0 0 0-15.602-.97l-12.621 9.856-1.992-15.895a11.823 11.823 0 0 0-11.739-10.343H76.45a11.827 11.827 0 0 0-11.722 10.343l-2.008 15.895-12.64-9.832c-4.704-3.649-11.388-3.23-15.606.969l-16.801 16.8a11.832 11.832 0 0 0-.969 15.598l9.856 12.625-15.895 1.992A11.823 11.823 0 0 0 .32 230.77v23.742a11.82 11.82 0 0 0 10.344 11.718zm5.656-31.765 18.97-2.402a7.994 7.994 0 0 0 6.573-5.352c.68-1.95 1.48-3.856 2.403-5.703a8.004 8.004 0 0 0-.868-8.434l-11.765-15.07 11.55-11.55 15.106 11.734a7.988 7.988 0 0 0 8.43.87 49.366 49.366 0 0 1 5.707-2.398 8.005 8.005 0 0 0 5.351-6.574l2.399-18.969h16.351l2.403 18.969a7.999 7.999 0 0 0 5.351 6.574c1.95.68 3.856 1.48 5.703 2.399a7.995 7.995 0 0 0 8.43-.864l15.106-11.734 11.55 11.55-11.734 15.106a7.996 7.996 0 0 0-.863 8.43 49.366 49.366 0 0 1 2.398 5.707 8.012 8.012 0 0 0 6.578 5.351l18.965 2.399v16.351l-18.965 2.403a8 8 0 0 0-6.578 5.351 49.309 49.309 0 0 1-2.398 5.704 7.996 7.996 0 0 0 .87 8.43l11.735 15.105-11.55 11.55-15.102-11.734a8.003 8.003 0 0 0-8.504-.945 48.715 48.715 0 0 1-5.707 2.402 8 8 0 0 0-5.352 6.574l-2.367 18.946H80.145l-2.403-18.97a7.994 7.994 0 0 0-5.351-6.573 48.658 48.658 0 0 1-5.704-2.403 7.995 7.995 0 0 0-8.43.864l-15.073 11.77-11.551-11.552 11.734-15.105a7.995 7.995 0 0 0 .871-8.434 49.309 49.309 0 0 1-2.398-5.703 7.994 7.994 0 0 0-6.574-5.351l-18.946-2.368zM72.32 58.64h56v16h-56zM83.883 17.293 92.758 3.98l48 32-8.875 13.313zM83.883 115.98l48-31.996 8.875 13.313-48 32zM360.32 58.64h56v16h-56zM347.879 35.984l48-32 8.875 13.313-48 32zM347.879 97.293l8.875-13.313 48 32-8.875 13.313zm0 0" fill="#ffffff" opacity="1" data-original="#000000" class=""></path><path d="M88.32 282.64c22.09 0 40-17.91 40-40 0-22.093-17.91-40-40-40s-40 17.907-40 40c.028 22.079 17.918 39.973 40 40zm0-64c13.254 0 24 10.747 24 24s-10.746 24-24 24-24-10.745-24-24 10.746-24 24-24zM392.32 202.64c-22.09 0-40 17.907-40 40 0 22.09 17.91 40 40 40s40-17.91 40-40c-.027-22.081-17.918-39.972-40-40zm0 64c-13.254 0-24-10.745-24-24s10.746-24 24-24 24 10.747 24 24-10.746 24-24 24zm0 0" fill="#ffffff" opacity="1" data-original="#000000" class=""></path></g></svg>