<svg xmlns="http://www.w3.org/2000/svg" version="1.1" xmlns:xlink="http://www.w3.org/1999/xlink" width="512" height="512" x="0" y="0" viewBox="0 0 64 64" style="enable-background:new 0 0 512 512" xml:space="preserve" class=""><g><path d="M62 4H2C.897 4 0 4.897 0 6v41c0 1.103.897 2 2 2h25v5h-9c-1.103 0-2 .897-2 2v2c0 1.103.897 2 2 2h28c1.103 0 2-.897 2-2v-2c0-1.103-.897-2-2-2h-9v-5h25c1.103 0 2-.897 2-2V6c0-1.103-.897-2-2-2zM46.001 58H18v-2h28zM35 54h-6v-5h6zM2 47v-2h45a1 1 0 0 0 0-2H2V6h60l.001 37H51a1 1 0 0 0 0 2h11.001v2z" fill="#ffffff" opacity="1" data-original="#000000" class=""></path><path d="M6 36h4a1 1 0 0 0 1-1V14a1 1 0 0 0-1-1H9V9a1 1 0 0 0-2 0v4H6a1 1 0 0 0-1 1v21a1 1 0 0 0 1 1zm1-21h2v19H7zM14 30h1v6a1 1 0 0 0 2 0v-6h1a1 1 0 0 0 1-1V15a1 1 0 0 0-1-1h-1v-2a1 1 0 0 0-2 0v2h-1a1 1 0 0 0-1 1v14a1 1 0 0 0 1 1zm1-14h2v12h-2zM46 37h4a1 1 0 0 0 1-1V15a1 1 0 0 0-1-1h-1v-4a1 1 0 0 0-2 0v4h-1a1 1 0 0 0-1 1v21a1 1 0 0 0 1 1zm1-21h2v19h-2zM22 36h1a1 1 0 0 0 2 0h1a1 1 0 0 0 1-1v-6a1 1 0 0 0-1-1h-1v-7a1 1 0 0 0-2 0v7h-1a1 1 0 0 0-1 1v6a1 1 0 0 0 1 1zm1-6h2v4h-2zM30 30h4a1 1 0 0 0 1-1V9a1 1 0 0 0-1-1h-4a1 1 0 0 0-1 1v20a1 1 0 0 0 1 1zm1-20h2v18h-2zM38 33h1v2a1 1 0 0 0 2 0v-2h1a1 1 0 0 0 1-1v-3a1 1 0 0 0-1-1h-1V14a1 1 0 0 0-2 0v14h-1a1 1 0 0 0-1 1v3a1 1 0 0 0 1 1zm1-3h2v1h-2z" fill="#ffffff" opacity="1" data-original="#000000" class=""></path><path d="M60 40V8a1 1 0 0 0-2 0v31H5a1 1 0 0 0 0 2h54a1 1 0 0 0 1-1z" fill="#ffffff" opacity="1" data-original="#000000" class=""></path></g></svg>