<svg xmlns="http://www.w3.org/2000/svg" version="1.1" xmlns:xlink="http://www.w3.org/1999/xlink" width="512" height="512" x="0" y="0" viewBox="0 0 512 512" style="enable-background:new 0 0 512 512" xml:space="preserve" class=""><g><path fill="#ffffff" d="M240.205 113.807h-59.133a7 7 0 0 0-7 7v249.376a7 7 0 0 0 7 7h59.133a7 7 0 0 0 7-7V120.809a7 7 0 0 0-7-7.002zm-7 249.374h-45.131V127.812H233.2zm-78.466-136.1H95.6a7 7 0 0 0-7 7v136.1a7 7 0 0 0 7 7h59.133a7 7 0 0 0 7-7v-136.1a7 7 0 0 0-6.996-6.997zm-7 136.1h-45.133V241.088h45.129zM69.241 170.446H10.108a7 7 0 0 0-7 7v192.737a7 7 0 0 0 7 7h59.133a7 7 0 0 0 7-7V177.448a7 7 0 0 0-7-7.002zm-7 192.735H17.109V184.45h45.13zM25.775 127.562a25.611 25.611 0 0 0 17.912-7.288l47.248 27.272a25.743 25.743 0 1 0 47.412-6.256l60.81-60.81a26.042 26.042 0 0 0 12.617 3.27 25.54 25.54 0 0 0 17.9-7.273l39.864 23.011a25.71 25.71 0 1 0 6.989-12.134l-39.882-23.021a25.716 25.716 0 0 0-37.8-28.629l-.022.013a25.846 25.846 0 0 0-9.584 34.875L128.431 131.4a25.84 25.84 0 0 0-25.428.145l-.023.014a25.616 25.616 0 0 0-5.068 3.844L50.657 108.13a25.706 25.706 0 0 0-37.779-28.624h-.006a25.749 25.749 0 0 0 12.9 48.052zM288.617 95.63a11.616 11.616 0 0 1 5.838-1.578 11.793 11.793 0 0 1 3.055.4 11.742 11.742 0 1 1-8.893 1.173zm-82.789-47.785a11.756 11.756 0 1 1-4.283 16.071 11.806 11.806 0 0 1 4.283-16.071zm-95.843 95.841a11.757 11.757 0 1 1-4.288 16.037 11.809 11.809 0 0 1 4.288-16.037zM19.87 91.639a11.75 11.75 0 1 1-4.294 16.06 11.772 11.772 0 0 1 4.294-16.06zm490.57 353.51-41.5-71.889a11.664 11.664 0 0 0-13.953-5.159l-9.267-16.037a95.622 95.622 0 0 0-113.045-153.739v-20.877a7 7 0 0 0-7-7h-59.107a7 7 0 0 0-7 7v192.735a7 7 0 0 0 7 7h59.105a7 7 0 0 0 7-7v-10.554a95.614 95.614 0 0 0 79.292 10.853l9.724 16.845A11.663 11.663 0 0 0 419.166 402l41.5 71.89a11.658 11.658 0 0 0 15.916 4.263l29.592-17.091a11.668 11.668 0 0 0 4.266-15.915zm-191.769-81.968h-45.1V184.45h45.1v24.776a95.491 95.491 0 0 0 0 139.505zM302.4 278.989a81.67 81.67 0 1 1 81.67 81.64 81.762 81.762 0 0 1-81.67-81.64zm131.929 81.349 8.429 14.587-9.041 5.222-8.544-14.8a95.65 95.65 0 0 0 9.155-5.009zm37.289 104.514-39.148-67.813 2.169-1.253.016-.008.02-.013 20.973-12.114c.061-.033.125-.056.185-.091.079-.046.151-.1.228-.147l1.927-1.114 39.148 67.813zm-87.548-259a73.123 73.123 0 1 0 73.137 73.137 73.206 73.206 0 0 0-73.138-73.137zm0 132.241a59.119 59.119 0 1 1 59.133-59.1 59.171 59.171 0 0 1-59.134 59.1z" opacity="1" data-original="#00b3fe" class=""></path></g></svg>