<svg xmlns="http://www.w3.org/2000/svg" xmlns:xlink="http://www.w3.org/1999/xlink" viewBox="0 0 81 55" fill="#fff" fill-rule="evenodd" stroke="#000" stroke-linecap="round" stroke-linejoin="round"><use xlink:href="#A" x=".5" y=".5"/><symbol id="A" overflow="visible"><path d="M8.415 44.93c.678 0 1.32.162 1.64.487.053.505-.393 1.317-.678 1.317-.34-.126-.66-.2-1.052-.2-1.623 0-2.425 1.695-2.425 3.372 0 1.046.357 1.677 1.177 1.677.874 0 1.765-.595 2.265-1.046.125.1.285.38.285.703 0 .36-.107.703-.428 1.028-.57.577-1.534 1.064-2.925 1.064-1.605 0-2.7-.92-2.7-3.066 0-2.813 1.837-5.337 4.833-5.337h.018zm5.24 6.564c.874 0 2.46-1.55 2.907-4.508.018-.18.036-.234.07-.415-.196-.072-.464-.126-.73-.126-.66 0-1.337.198-1.944 1.028-.624.883-.892 1.983-.892 2.867 0 .757.214 1.154.57 1.154h.018zm-2.87-.8c0-1.064.357-2.92 1.694-4.274 1.14-1.2 2.532-1.48 3.8-1.48.838 0 1.98.27 2.693.415-.178.793-.606 3.786-.802 5.517-.1.74-.125 1.767-.1 2.146-.588.252-1.694.325-1.998.325-.16 0-.196-.74-.142-1.442l.07-.72c-.695 1.172-2.068 2.164-3.513 2.164-1.034 0-1.712-.865-1.712-2.632v-.018zM23.4 44.93c.73 0 1.427.27 1.748.613-.018.505-.4 1.352-1.035 1.118-.267-.1-.535-.162-.892-.162-.48 0-.892.216-.892.667 0 .343.25.595 1.444 1.443.856.63 1.195 1.2 1.195 1.983 0 1.317-1.23 2.74-3.37 2.74-.874 0-1.64-.343-1.9-.703-.32-.54-.07-1.605.286-1.425.464.234 1.23.487 1.854.487.588 0 .963-.27.963-.63 0-.306-.267-.577-1.355-1.352-.9-.685-1.195-1.316-1.195-2.037 0-1.497 1.266-2.74 3.12-2.74h.018zm6.152 0c.73 0 1.427.27 1.748.613-.018.505-.4 1.352-1.034 1.118a2.41 2.41 0 0 0-.892-.162c-.48 0-.892.216-.892.667 0 .343.25.595 1.444 1.443.856.63 1.195 1.2 1.195 1.983 0 1.317-1.23 2.74-3.37 2.74-.874 0-1.64-.343-1.9-.703-.32-.54-.07-1.605.285-1.425.464.234 1.23.487 1.854.487.588 0 .963-.27.963-.63 0-.306-.267-.577-1.355-1.352-.9-.685-1.195-1.316-1.195-2.037 0-1.497 1.266-2.74 3.12-2.74h.017zm5.616 6.564c.874 0 2.46-1.55 2.907-4.508.018-.18.036-.234.072-.415a2.22 2.22 0 0 0-.73-.126c-.66 0-1.337.198-1.944 1.028-.624.883-.892 1.983-.892 2.867 0 .757.214 1.154.57 1.154h.018zm-2.87-.8c0-1.064.357-2.92 1.694-4.274 1.14-1.2 2.532-1.48 3.8-1.48.838 0 1.98.27 2.693.415-.178.793-.606 3.786-.802 5.517-.1.74-.125 1.767-.1 2.146-.588.252-1.694.325-1.997.325-.16 0-.196-.74-.143-1.442l.07-.72c-.695 1.172-2.07 2.164-3.513 2.164-1.035 0-1.713-.865-1.713-2.632v-.018zm12.215-3.4c.82-1.334 1.9-2.344 3.388-2.344 1.266 0 1.676 1.2 1.445 2.885l-.482 2.975c-.125.884-.214 1.677-.196 2.218-.464.234-1.82.325-2.122.325-.125 0-.143-.992.018-2.038l.588-3.336c.1-.523.07-1.154-.428-1.154-.66 0-2.23 1.064-3.014 5.428-.054.36-.196.577-.393.703-.267.163-.838.307-1.997.325l.802-5.013c.23-1.515.32-2.5.267-2.867a18.93 18.93 0 0 1 2.068-.45c.197 0 .232.56.054 1.912l-.054.432h.054zm9.057 4.202c.784 0 2.372-1.48 2.817-4.093.018-.144.072-.415.107-.577-.232-.216-.535-.36-1.016-.36-1.802 0-2.604 2.182-2.604 3.75 0 .847.286 1.28.678 1.28h.018zm-1.177 1.857c-1.14 0-1.854-1.028-1.854-2.795 0-2.92 1.8-5.608 4.832-5.608.535 0 1.016.144 1.32.325.16-.83.535-3.4.553-4.147.5-.1 1.57-.252 2.05-.252.197 0 .25.198.18.65l-1.337 9.052c-.107.974-.125 1.93-.107 2.47-.57.252-1.73.307-2.032.307-.126 0-.196-.83-.16-1.57l.054-.63c-.892 1.478-2.122 2.2-3.478 2.2h-.017zm10.45-5.806c.945-2.128 2.068-2.597 2.8-2.597.232 0 .588.144.75.325.072.595-.392 1.785-.802 2.236-.214-.108-.48-.216-.785-.216-.607 0-1.8.956-2.55 5.067-.054.343-.16.487-.356.577-.303.18-1.498.325-2.068.343l.9-6.257a10.07 10.07 0 0 0 .036-1.605c.34-.162 1.677-.47 1.98-.47.16 0 .286.992.035 2.597h.054zm6.294 3.967c.874 0 2.46-1.55 2.907-4.508.018-.18.036-.234.07-.415-.196-.072-.464-.126-.73-.126-.66 0-1.337.198-1.944 1.028-.624.883-.892 1.983-.892 2.867 0 .757.214 1.154.57 1.154h.017zm-2.87-.8c0-1.064.357-2.92 1.694-4.274 1.14-1.2 2.532-1.48 3.8-1.48.838 0 1.98.27 2.693.415-.18.793-.607 3.786-.803 5.517-.1.74-.125 1.767-.1 2.146-.588.252-1.694.325-1.998.325-.16 0-.196-.74-.143-1.442l.072-.72c-.696 1.172-2.068 2.164-3.513 2.164-1.035 0-1.713-.865-1.713-2.632v-.018z" fill="#373535" stroke="none"/><path d="M63.91 14.373c.588 6.93-10.2 13.528-24.095 14.734S14.18 25.67 13.592 18.74 23.79 5.2 37.687 4.004 63.323 7.44 63.91 14.373" fill="#bbe6fb" stroke="none"/><path d="M38.094 4.818c-5.3-.087-11.503 2.04-16.118 4.034a13.62 13.62 0 0 0-.739 4.431c0 8.222 7.342 14.888 16.4 14.888s16.4-6.666 16.4-14.888c0-2.602-.737-5.047-2.03-7.175-3.692-.58-8.77-1.205-13.913-1.3" stroke="none"/><path d="M37.637 4.816c-2.934-.18-7.992 1.367-12.2 2.91-.64 1.53-.997 3.203-.997 4.96 0 7.204 6.46 13.044 13.293 13.044 6.788 0 12.794-5.85 13.293-13.044.162-2.343-.636-4.55-1.743-6.454a112.77 112.77 0 0 0-11.636-1.416" stroke="none"/><path d="M30.107 11.74c.36-.806.905-1.2 1.434-1.877-.06-.16-.187-.683-.187-.865a1.46 1.46 0 0 1 1.451-1.467 1.43 1.43 0 0 1 .535.104c2.402-1.85 5.563-2.658 8.74-1.94l.854.234c-3.14-.44-6.68.684-9.087 2.65.074.175.278.677.278.88 0 .8-.52 1.007-1.32 1.007-.182 0-.356-.035-.517-.097-.544.738-1.2 2.145-1.536 3.025 1.33 1.204 2.534 1.64 4.102 2.233-.004-.075.054-.145.054-.222 0-2.443 2.127-4.428 4.543-4.428 2.165 0 3.958 1.592 4.308 3.68 1.08-.695 2.125-1.228 2.92-2.258-.186-.23-.386-.878-.386-1.197a1.33 1.33 0 0 1 1.317-1.33 1.3 1.3 0 0 1 .298.038c.404-.84.7-1.73.904-2.648C45.034 4.434 37.724 4.82 37.724 4.82s-5.817-.3-9.754 1.63c.263 1.92 1.02 3.745 2.138 5.3m18.056-1.102a2.46 2.46 0 0 1 .528.665c.353.642-.356 1.23-1.083 1.23-.074 0-.145-.01-.216-.022-.82 1.294-2.254 2.954-3.528 3.8 1.954.324 3.797 1.115 5.264 2.338 1.068-1.935 1.887-4.73 1.887-7.102 0-1.806-.8-3.13-1.98-4.102-.062.968-.573 2.32-.872 3.203M32.3 22.893c.65-1.818 2.253-3.227 3.768-4.467-.222-.307-.554-1.067-.693-1.427a10.59 10.59 0 0 1-4.752-3.04l-.03.122a9.79 9.79 0 0 0-.164 3.224 1.92 1.92 0 0 1 1.555 1.894c0 .56-.485 1.37-.86 1.723.4.893.688 1.323 1.177 1.97m-.117 1.528c-.777-.78-1.314-2.34-1.818-3.317-.094.015-.2.025-.3.025-1.054 0-2.157-.894-1.908-1.93.138-.572.53-.947 1.165-1.26-.145-1.186-.184-2.9.088-4.123.078-.353.243-.518.353-.854-1.162-1.72-1.914-3.978-1.914-6.218l.006-.244c-1.964.996-3.437 2.566-3.437 5.036 0 5.465 3.113 10.825 7.744 12.927l.01-.044m11.4-7.553c-.598 1.72-2.217 2.957-4.124 2.957a4.32 4.32 0 0 1-2.7-.947c-1.533 1.207-2.924 3.328-3.63 5.168.317.345.538.63.894.935 1.073.282 2.55 0 3.7 0 4.67 0 8.805-2.1 11.177-5.784-1.577-1.104-3.436-2.155-5.327-2.33" stroke="none" fill="#373535"/><path d="M29.987 12.378a10.71 10.71 0 0 1 1.339-2.228c-.06-.16-.093-.332-.093-.514a1.46 1.46 0 0 1 1.451-1.467 1.43 1.43 0 0 1 .535.104c2.402-1.85 5.563-2.658 8.74-1.94l.854.234c-3.14-.44-6.385.533-8.793 2.498a1.47 1.47 0 0 1 .114.57 1.46 1.46 0 0 1-1.451 1.467c-.182 0-.356-.035-.517-.097a9.91 9.91 0 0 0-1.315 2.434c1.143 1.246 2.547 2.23 4.114 2.824l-.012-.227c0-2.443 1.958-4.423 4.374-4.423 2.165 0 3.958 1.592 4.308 3.68 1.08-.695 2.04-1.587 2.836-2.617-.186-.23-.3-.518-.3-.837a1.33 1.33 0 0 1 1.317-1.33 1.3 1.3 0 0 1 .298.038c.404-.84.7-1.73.904-2.648-3.778-2.828-11.088-2.442-11.088-2.442S31.787 5.15 27.85 7.1c.263 1.92 1.02 3.745 2.138 5.3m18.38-1.524a1.33 1.33 0 0 1 .438.985c0 .735-.6 1.332-1.317 1.332-.074 0-.145-.01-.216-.022a10.72 10.72 0 0 1-3.18 3.233c1.884.298 3.658 1.106 5.124 2.33a13.49 13.49 0 0 0 1.678-6.537c0-1.806-.8-3.13-1.98-4.102a10.76 10.76 0 0 1-.55 2.782M32.5 23.33a10.73 10.73 0 0 1 3.298-4.689c-.222-.307-.405-.643-.543-1.003a10.59 10.59 0 0 1-4.752-3.04l-.03.122a9.79 9.79 0 0 0-.164 3.224 1.92 1.92 0 0 1 1.555 1.894 1.93 1.93 0 0 1-.614 1.415 11.6 11.6 0 0 0 1.25 2.077m-.32 1.067c-.777-.78-1.43-1.678-1.932-2.656a1.87 1.87 0 0 1-.3.024 1.92 1.92 0 0 1-1.908-1.93 1.93 1.93 0 0 1 1.076-1.734 10.81 10.81 0 0 1 .177-3.649l.283-1.033a10.75 10.75 0 0 1-1.843-6.039l.006-.243c-1.964.996-3.437 2.566-3.437 5.036 0 5.465 3.228 10.165 7.86 12.266l.01-.044m11.28-6.89c-.6 1.72-2.217 2.957-4.124 2.957a4.32 4.32 0 0 1-2.7-.947c-1.533 1.207-2.7 2.853-3.397 4.693a11.96 11.96 0 0 0 1.012.976c1.073.282 2.198.434 3.36.434 4.67 0 8.775-2.438 11.146-6.12-1.577-1.104-3.406-1.818-5.297-1.993" stroke="none" fill="#1287b1"/><path d="M43.607 16.363l4.04-.975-4.057-.21 3.3-2.55-3.746 1.358 2.546-3.567-3.516 2.363 1.23-4.176-2.415 3.442-.055-4.35-1.59 3.874-1.325-3.92.072 4.618-2.29-4.14 1.24 4.396-3.714-2.73 2.91 3.696-4.61-1.714 3.64 2.722-4.666.145 4.77 1.245-4.775 1.044 4.713.346-3.975 2.573 4.093-1.5-2.84 3.637 3.588-2.926-1.292 4.88 2.77-3.97-.388 4.7 1.573-4.252 1.338 4.47.325-4.482L42.5 24.22l-1.174-4.374 3.638 2.85-2.35-3.633 3.99 1.572-3.052-3.032 4.092.325-4.03-1.564z" stroke="none"/><g fill="#373535"><path d="M.58 24.183C13.114 11.51 23.125 7.597 32.2 5.81c1.202-.236 1.43-2.892 1.43-2.892s.168 1.956 1 2.21 1.934-3.062 1.934-3.062-1.01 2.977 0 3.147 2.86-2.892 2.86-2.892-.757 2.637-.252 2.807 3.028-3.827 3.028-3.827-1.514 2.637-.084 2.892 3.517-1.8 3.517-1.8-1.64 1.88-.91 2.14c3.113 1.106 5.63-2.984 5.63-2.984s-.584 1.794-2.098 3.75c3.28.85 5.717-4.147 5.717-4.147L51.557 6.15c1.262.68 6.3-5.188 6.3-5.188s-2.608 4.593-4.122 5.53c.84.68 3.87-2.04 3.87-2.04S55.175 7.51 56.1 7.68c1.346 1.106 6.31-5.7 6.31-5.7s-1.934 3.998-4.795 7.145c2.39 1.21 8.328-6.55 8.328-6.55s-.168 2.467-4.46 6.38c3.197-.425 7.32-6.55 7.32-6.55S67.288 7 63.67 10.233c3.14-.33 8.16-8.166 8.16-8.166s-1.934 5.444-5.888 8.59c4.374.978 10.683-5.614 10.683-5.614s-2.482 4.68-5.72 6.592c3.618 1.403 8.58-4.38 8.58-4.38s-4.963 7.74-12.87 7.4c-2.595-.112-10.442-7.96-27.256-7.315C17.152 8.192 12.44 17.72.58 24.183" stroke="none"/><path d="M1.094 23.22C13.628 10.547 23.638 6.634 32.724 4.848c1.203-.236 1.43-2.892 1.43-2.892s.168 1.957 1 2.2 1.934-3.062 1.934-3.062-1 2.977 0 3.147 2.86-2.892 2.86-2.892-.757 2.637-.253 2.807S42.734.34 42.734.34s-1.514 2.637-.084 2.892 3.517-1.8 3.517-1.8-1.64 1.88-.9 2.14c3.113 1.106 5.63-2.984 5.63-2.984s-.584 1.794-2.097 3.75C52.07 5.188 54.508.2 54.508.2L52.07 5.188C53.333 5.87 58.38 0 58.38 0s-2.607 4.593-4.12 5.528c.84.68 3.87-2.04 3.87-2.04S55.7 6.55 56.614 6.72c1.346 1.106 6.3-5.7 6.3-5.7S60.99 5.018 58.13 8.165c2.4 1.2 8.328-6.55 8.328-6.55s-.168 2.467-4.46 6.38c3.197-.426 7.32-6.55 7.32-6.55S67.802 6.04 64.185 9.27c3.14-.33 8.16-8.166 8.16-8.166S70.4 6.55 66.456 9.696c4.374.978 10.683-5.613 10.683-5.613s-2.482 4.678-5.72 6.592c3.618 1.403 8.58-4.38 8.58-4.38s-4.963 7.74-12.87 7.4c-2.594-.112-10.442-7.96-27.255-7.315-22.208.85-26.918 10.377-38.78 16.84m-.842 2.35c6.624 3.36 12.682-.5 20.315 1.665 5.804 1.654 12.87 3.694 22.46 2.3S60.82 23.9 64.73 16.382c1.22-3.36 6.182.766 6.182.766s-3.617-1.53-3.533-.808 5.426 3.232 5.426 3.232-4.837-1.53-4.543-.383 6.056 5.742 6.056 5.742-6.52-5.018-7.065-4.338 2.776 3.445 2.776 3.445-5.5-3.445-7.445-2.43c-1.392.73 5.72 5.45 5.72 5.45s-4.627-3.573-5.72-2.637 5.216 8.6 5.216 8.6-7.15-7.826-7.865-7.443 1.976 4.126 1.976 4.126-3.533-3.913-4.5-3.232 5.047 10.845 5.047 10.845-6.52-10.42-9.2-8.676c4.227 9.378 2.65 10.718 2.65 10.718s-.54-9.567-5.805-9.314c-2.65.128 1.262 7.145 1.262 7.145s-3.6-6.4-5.998-6.28c4.42 8.456 2.844 11.895 2.844 11.895s.73-7.222-5.263-11.24c2.27 2.04-1.425 11.24-1.425 11.24s3.25-13.557-2.398-10.972c-.893.408-.063 6.762-.063 6.762s-1.136-7.273-2.84-6.9c-.993.223-6.3 10.08-6.3 10.08s4.354-10.654 3.03-10.207c-.965.326-2.776 4.72-2.776 4.72s.883-4.338 0-4.593-5.805 4.593-5.805 4.593 3.66-4.338 3.028-5.23c-.956-1.353-2.077-1.417-3.407-.893-1.935.763-4.542 4.338-4.542 4.338s2.6-3.62 2.145-4.976c-.73-2.18-8.2 4.2-8.2 4.2s4.416-4.2 3.407-5.104-6.5-.617-8.202-.622c-5.047-.016-6.796-1.213-8.328-2.44" stroke="none"/><path d="M0 24.803c6.624 3.36 12.68-.5 20.315 1.666 5.804 1.654 12.87 3.693 22.46 2.3s17.79-5.614 21.703-13.14c1.22-3.36 6.182.765 6.182.765s-3.617-1.53-3.533-.808 5.426 3.232 5.426 3.232-4.837-1.53-4.543-.382 6.057 5.74 6.057 5.74-6.52-5.02-7.066-4.338 2.776 3.445 2.776 3.445-5.5-3.445-7.445-2.43c-1.392.73 5.72 5.45 5.72 5.45s-4.627-3.573-5.72-2.637 5.216 8.59 5.216 8.59-7.15-7.826-7.866-7.443 1.977 4.125 1.977 4.125-3.534-3.913-4.5-3.232 5.047 10.845 5.047 10.845-6.52-10.42-9.21-8.676c4.227 9.378 2.65 10.718 2.65 10.718s-.54-9.567-5.805-9.314c-2.65.128 1.262 7.145 1.262 7.145s-3.6-6.41-5.997-6.282c4.42 8.456 2.843 11.896 2.843 11.896s.73-7.222-5.263-11.24c2.27 2.04-1.425 11.24-1.425 11.24s3.252-13.557-2.397-10.972c-.893.408-.063 6.762-.063 6.762s-1.136-7.273-2.84-6.9c-.993.223-6.3 10.08-6.3 10.08s4.354-10.654 3.03-10.207c-.965.325-2.776 4.72-2.776 4.72s.883-4.338 0-4.593S24.1 35.52 24.1 35.52s3.66-4.338 3.028-5.23c-.956-1.353-2.077-1.417-3.407-.893-1.936.762-4.543 4.337-4.543 4.337s2.6-3.62 2.145-4.976c-.73-2.178-8.2 4.2-8.2 4.2s4.416-4.2 3.407-5.103-6.5-.617-8.202-.622C3.28 27.227 1.532 26.03 0 24.803" stroke="none"/></g></symbol></svg>