<svg xmlns="http://www.w3.org/2000/svg" viewBox="0 0 795.62 832.32">
  <defs>
    <style>
      .cls-1 {
        fill: none;
      }

      .cls-2 {
        fill: #2487c9;
      }
    </style>
  </defs>
  <title>AzureTableStore</title>
  <g id="Layer_1" data-name="Layer 1">
    <rect class="cls-1" width="795.62" height="832.32"/>
  </g>
  <g id="AzureTableStore">
    <path class="cls-2" d="M479.21,744c100.06-17.67,182.7-32.3,183.65-32.5l1.72-.37L570.12,598.78c-52-61.79-94.46-112.6-94.46-112.89,0-.55,97.54-269.16,98.08-270.12.19-.32,66.57,114.29,160.91,277.81C823,646.67,895.8,772.89,896.48,774.08l1.23,2.15-300.21,0-300.21,0Z" transform="translate(-114.21 -95.09)"/>
    <path class="cls-2" d="M118.92,764.27c0-.16,44.51-77.42,98.92-171.7l98.91-171.42L432,324.42c63.4-53.21,115.44-96.8,115.65-96.88s-.63,2-1.86,4.66S488.26,355.66,420.65,500.67L297.71,764.33l-89.39.12C159.15,764.51,118.92,764.43,118.92,764.27Z" transform="translate(-114.21 -95.09)"/>
  </g>
</svg>
