<svg id="logosandtypes_com" xmlns="http://www.w3.org/2000/svg" viewBox="0 0 150 150.2"><style>.st1{fill:#ff4f1f}</style><g id="Layer_2"><path id="Layer_3" d="M0 .2h150v150H0V.2z" fill="none"/></g><g id="genesys"><path class="st1" d="M99.3 7.9c3.5 0 6.2 2.8 6.2 6.2s-2.8 6.2-6.2 6.2H99c-3.1 0-5.9-2.8-5.9-5.9 0-1.7.7-3.5 1.7-4.5 1.1-1.3 2.8-2 4.5-2m0-7.9c-7.9 0-14.5 6.9-14.2 14.9.3 7.3 6.2 13.1 13.5 13.5h.7c7.9 0 14.2-6.6 14.2-14.2S106.9 0 99.3 0zM89.6 99.8c7.9 0 14.5 6.6 14.5 14.5s-6.6 14.5-14.5 14.5H74.1c-7.9 0-14.5-6.6-14.5-14.5s6.6-14.5 14.5-14.5h15.5m0-9.6H74.1c-13.1 0-23.8 10.7-23.8 23.8s10.7 23.8 23.8 23.8h15.5c13.1 0 23.8-10.7 23.8-23.8.1-13.1-10.6-23.8-23.8-23.8zM89.6 43.9c7.9 0 14.5 6.6 14.5 14.5s-6.6 14.5-14.5 14.5H53c-7.9 0-14.5-6.6-14.5-14.5S45.1 43.9 53 43.9h36.6m0-9.4H53c-13.1 0-23.8 10.7-23.8 23.8S39.9 82.2 53 82.2h36.6c13.1 0 23.8-10.7 23.8-23.8s-10.6-23.9-23.8-23.9z"/></g></svg>