<svg xmlns="http://www.w3.org/2000/svg" xmlns:xlink="http://www.w3.org/1999/xlink" viewBox="0 0 795.62 832.32">
  <defs>
    <style>
      .cls-1 {
        fill: none;
      }

      .cls-2 {
        fill: url(#linear-gradient);
      }

      .cls-3 {
        fill: url(#linear-gradient-2);
      }

      .cls-4 {
        fill: url(#radial-gradient);
      }
    </style>
    <linearGradient id="linear-gradient" x1="-10058.62" y1="-3258.75" x2="-9553.64" y2="-3557.14" gradientTransform="translate(1452.86 1231.07) scale(0.12)" gradientUnits="userSpaceOnUse">
      <stop offset="0" stop-color="#909ca9"/>
      <stop offset="1" stop-color="#eeeded"/>
    </linearGradient>
    <linearGradient id="linear-gradient-2" x1="-10047.29" y1="-8882.46" x2="-9640.97" y2="-8882.46" gradientTransform="translate(1452.86 1231.07) scale(0.12)" gradientUnits="userSpaceOnUse">
      <stop offset="0" stop-color="#949fab"/>
      <stop offset="1" stop-color="#dcdee1"/>
    </linearGradient>
    <radialGradient id="radial-gradient" cx="-5400.3" cy="-6467.28" r="539.47" gradientTransform="matrix(-0.11, -0.02, 0.03, -0.23, 111.59, -1169.89)" gradientUnits="userSpaceOnUse">
      <stop offset="0" stop-color="#ef392d"/>
      <stop offset="1" stop-color="#a91f24"/>
    </radialGradient>
  </defs>
  <title>MicrosoftSQL</title>
  <g id="Layer_1" data-name="Layer 1">
    <rect class="cls-1" width="795.62" height="832.32"/>
  </g>
  <g id="MicrosoftSQL">
    <g>
      <path class="cls-2" d="M611.38,484.54,445.56,538.68,301.3,602.35,260.94,613c-10.28,9.77-21.05,19.68-32.71,29.7-12.78,11-24.69,21.06-33.84,28.33a252.94,252.94,0,0,0-32.84,32.58c-11.4,14.29-20.43,29.46-24.31,41.11-6.9,21.06-3.51,42.37,9.77,62,17.05,25.06,51,50.63,90.62,68.05,20.18,8.9,54.14,20.31,79.71,26.7,42.49,10.78,124.71,22.43,170,24.19,9.14.37,21.43.37,21.93,0,1-.63,8-14,16.17-30.71,27.82-56.78,47.88-110,58.78-155.54,6.52-27.57,11.65-64.3,15-107.78.88-12.16,1.25-52.9.5-66.68a468.9,468.9,0,0,0-6.27-58.79c-.5-2.63-.63-5-.37-5.13.5-.38,2-.88,22.43-6.77l-4.13-9.78Zm-37.85,22.18c1.5,0,5.51,38.48,6.51,62.8.25,5.14.13,8.52-.12,8.52-1,0-21.18-11.91-35.59-20.93-12.54-7.9-36.35-23.69-40.11-26.7-1.26-.87-1.13-1,9.15-4.51C530.79,520,572.15,506.72,573.53,506.72Zm-84.48,27.83c1.13,0,4,1.63,10.9,5.89,25.82,16.17,60.92,35.72,76,42.24,4.63,2,5.13,1.25-5.52,8.52-22.81,15.54-51.26,30.83-86.1,46.25-6.14,2.76-11.28,4.89-11.41,4.89s.5-3.14,1.5-6.9c8.4-31.21,13.17-62.79,13.42-88.11.12-12.53.12-12.53,1.25-12.91-.25.13-.13.13,0,.13Zm-17.42,6.64c.75.75.25,28.83-.75,36.47a319.53,319.53,0,0,1-11.53,54.52,86.44,86.44,0,0,1-2.88,8.78c-.51.62-17.68-16.17-23.32-22.69a169.38,169.38,0,0,1-23.06-33.59c-2.88-5.64-7.39-16.67-7-17,2-1.38,68.06-26.95,68.56-26.45Zm-82,32.21a.47.47,0,0,1,.38.13,23.07,23.07,0,0,1,1.88,4.51c4,10.9,13,26.94,20.8,37.22a212.89,212.89,0,0,0,28.95,31.21c3,2.51,5.77,4.89,6.14,5.26.76.76,1,.63-19.42,8.4-23.69,9-49.51,18-79.09,27.58q-10.59,3.4-21.18,6.89c-1.13.38-.75-.25,2.51-5.39,14.66-22.94,37-67.93,49.51-99.77,2.13-5.51,4.26-11,4.63-12.28a4.54,4.54,0,0,1,2.76-3.26,12,12,0,0,1,2.13-.5ZM364.6,583.8c.37.26-6,13.67-12.29,26-12.16,23.69-25.44,47-43.24,75.32-3,4.89-5.89,9.41-6.27,9.91-.62.87-.87.62-2.88-3.26a115.05,115.05,0,0,1-9.65-29.08c-1.88-9.78-1.5-26.82.63-37.35,1.63-7.77,1.5-7.64,5.26-9.53,16-8.14,67.93-32.46,68.44-32Zm216.2,8.78v5.26a681.55,681.55,0,0,1-7.4,94.25c-.75,4.89-1.38,8.9-1.5,9s-3.64-1-7.9-2.26a323.15,323.15,0,0,1-57.65-24.69c-12.16-6.64-29.83-17.55-29.33-18,.12-.12,5.39-2.88,11.53-6.14a737.86,737.86,0,0,0,68.56-40.23c7.64-5.14,19.17-13.41,21.68-15.67l2-1.5ZM270,629.67c.5,0,.37,1-.38,5.52-.5,3.26-1.13,9.28-1.38,13.41-1,18.3,2,31.84,11,50.39,2.51,5.13,4.51,9.4,4.39,9.52-.88.75-83.85,25.07-109.92,32.21l-15,4.14c-.88.25-1,.12-.63-2,2.88-18.42,16.92-42.49,36.47-62.79,13-13.54,23.44-21.43,41.24-31.59,12.78-7.26,32.46-18.17,34-18.67,0-.13.13-.13.26-.13Zm195.52,35a52.31,52.31,0,0,1,6.77,3.64c26.82,15.54,64.17,30,96,37.35l2.88.63-4,2.25c-16.67,9.28-71.44,32.09-127.46,53-8.15,3-16.17,6-17.68,6.64a9.07,9.07,0,0,1-2.88.88c0-.13,2.26-4.52,5.14-9.9,15.67-29.33,31.46-65,39.48-89.87,1-2.38,1.63-4.51,1.76-4.64Zm-19.93,6.52a36.12,36.12,0,0,1-2.13,5.77c-10.9,26.44-25.19,55.27-43.49,87.61-4.64,8.27-8.52,14.91-8.65,14.91s-3.89-2.25-8.4-5c-26.57-16.3-50.13-36.35-65.55-55.78l-2.25-2.75,11.4-3.14c40.86-11.15,75.58-23.18,110-38C441.42,672.79,445.44,671.16,445.56,671.16ZM569.39,714.4h0c.13,2.89-6.27,28.7-11.53,47.38-4.39,15.66-8.15,28-15,49.63-3,9.53-5.64,17.42-5.77,17.42a8.11,8.11,0,0,1-1.62-.37c-37.23-6.77-70.57-16.17-101.9-28.7-8.78-3.52-21.31-9.16-22.06-9.78-.25-.25,7.27-3.76,16.79-7.9,57-24.94,116.19-53.27,136.49-65.42a16.19,16.19,0,0,1,4.64-2.26ZM283.5,724.18c.25.25-15.66,23.19-38,54.39-7.77,10.91-16.8,23.69-20.18,28.45s-8.52,12.29-11.41,16.8L208.68,832,203,827.2a207.69,207.69,0,0,1-23.32-23.81c-10.77-13.41-18-27.57-20.93-40.48-1.37-6-1.37-9-.12-9.4,1.88-.5,35.34-8.4,66.68-15.67,17.42-4,37.6-8.77,44.87-10.53s13.16-3.13,13.28-3.13Zm16,6.14,4,4.51A235.29,235.29,0,0,0,362.34,783c4,2.26,7,4.26,6.76,4.39-.87.63-77.45,27.82-112.92,40.1-19.93,7-36.35,12.66-36.47,12.66a20.4,20.4,0,0,1-2.51-1.63l-2.26-1.63,3.64-5.26c11.78-17.05,26.57-35.72,58.78-74.57l22.18-26.7Zm100,71.57c.13-.13,5.64,1.87,12.41,4.38a401.27,401.27,0,0,0,46.5,14.42c21.31,5.39,52.14,10.65,70.31,12.15,2.76.25,4.26.51,3.76.88-.88.5-19.3,6.65-32.83,10.91-21.56,6.76-87.36,26.19-141,41.61-9.9,2.88-18.42,5.26-18.92,5.39-1.25.25-5.39-.88-5.39-1.38a90.82,90.82,0,0,1,6.64-8.4,744.74,744.74,0,0,0,50.89-68.43c4.13-6.27,7.64-11.41,7.64-11.53Zm-22.06.62c.13.13-8.77,14.42-24.31,39-6.64,10.4-14,22.19-16.67,26.32s-6.27,10.28-8.4,13.79L324.49,888l-1.88-.5c-4.52-1.25-36.23-12.41-44.62-15.79a310.73,310.73,0,0,1-29.21-13.41c-10-5.39-22.56-13.42-21.55-13.66.25-.13,17.42-4.77,38.1-10.41,54.89-14.91,85.35-23.56,105.28-29.83a51.63,51.63,0,0,1,6.89-1.88Zm156,36.6h.13c.5,1.25-19.8,57.65-27.2,75.45-1.63,4-2.25,5-3.13,4.89-2.13-.12-31.58-4.26-49.51-6.89-31.21-4.77-83.6-13.92-96.76-16.92l-3-.63,18.67-4.26c40.11-9,59.41-13.92,79-19.93a558.16,558.16,0,0,0,73.82-28.45,59.75,59.75,0,0,1,8-3.26Z" transform="translate(-114.21 -95.09)"/>
      <path class="cls-3" d="M440.42,98c-2.76-.38-47.25,15.66-75.95,27.32-38.73,15.79-68.81,30.83-87.36,43.87-6.89,4.89-15.54,13.53-16.92,16.92a11.69,11.69,0,0,0-.75,4.26l16.79,15.92,40,12.78,95.12,17L520.13,254.8l1.13-9.4c-.37,0-.62-.12-1-.12L506,243l-2.88-5.14c-14.79-26.07-31.08-58.41-40.61-80.21a417,417,0,0,1-18.3-50.51c-2.13-8.53-2.38-9-3.75-9.15h0Zm-2,6.39h.13c.13.12.63,3.64,1.13,7.77a262,262,0,0,0,12.16,52.77c4.63,13.78,4.63,13-.75,11.4-12.79-3.51-70.07-13.41-111.55-19.17-6.64-.88-12.28-1.76-12.28-1.88-.51-.51,29.95-16.42,43.36-22.69,17.17-7.9,64.3-27.57,67.8-28.2ZM317.59,160.55l4.89,1.63c26.57,9,93.37,21.81,130.22,24.81,4.14.38,7.65.76,7.77.76s-3.38,2-7.89,4.13c-17.8,8.9-37.35,19.81-50.89,28.2-4,2.51-7.64,4.52-8.14,4.52s-3.14-.51-5.89-.88l-5-.76-12.53-12.28c-22.06-21.43-39.35-38-46-44.24Zm-5,3.88,17.67,22.06c9.65,12.16,19.43,24.07,21.56,26.7s3.89,4.76,3.76,4.89c-.5.37-25.57-4.52-38.85-7.52-13.66-3.14-19.3-4.64-27.7-7.27l-6.9-2.26v-1.75c.13-8.4,10.78-20.93,28.83-33.72l1.63-1.13Zm150.15,30.08c.5,0,1.13,1.13,2.63,4.52,4.26,9.4,17.55,34.71,20.81,39.6,1,1.63,2.75,1.76-14.92-1.13-42.48-6.89-56.15-9.14-56.15-9.4a13.44,13.44,0,0,1,2.89-1.88,244.08,244.08,0,0,0,38.22-26.44c2.89-2.38,5.52-4.64,6-5,.12-.25.38-.37.5-.25Z" transform="translate(-114.21 -95.09)"/>
      <path class="cls-4" d="M261.07,184.36s-2.76,4.39-.13,10.91c1.63,4,6.39,8.89,11.78,13.91,0,0,55.78,54.39,62.55,62.17,30.83,35.59,44.24,70.68,45.49,119.06.75,31.09-5.14,58.41-19.8,90.12C334.89,537.43,279.87,600.22,195,669.91l12.41-4.14c8-6,18.93-12.4,44.5-26.44,59-32.34,125.46-62,206.93-92.62,117.31-44.12,310.2-95.76,420-112.56l11.41-1.75-1.76-2.76c-10-15.54-16.92-25.19-25.19-35.47-24.07-29.83-53.27-54-89-74.07-49.13-27.45-112.68-48.88-193.14-64.8-15.16-3-48.5-8.77-75.58-12.91-57.4-8.89-94.5-15-135.36-22.06-14.66-2.5-36.6-6.26-51.13-9.39a328.56,328.56,0,0,1-33.22-8.9c-9-3.52-22.06-7-24.81-17.68ZM293.4,215.7a33.16,33.16,0,0,1,4.77,1.5c4.76,1.63,10.9,3.51,18.17,5.52q8.25,2.26,16.55,4.38c7.52,1.88,13.78,3.64,13.91,3.64.87.87,13.53,41.35,17.8,56.9,1.62,5.89,2.88,10.9,2.75,10.9s-1.5-2-3.13-4.89c-14.67-25.82-37.85-52-64.68-73.07a54.65,54.65,0,0,1-6.14-4.88Zm61.67,17a49.77,49.77,0,0,1,6.77,1.13c21.3,4.76,59.53,12,84,16.17,4.14.62,7.4,1.38,7.4,1.63s-1.51,1.12-3.39,2.13c-4.13,2.13-20.81,12-26.32,15.79-13.91,9.27-26.44,19.3-35.47,28.32-3.63,3.64-6.77,6.65-6.77,6.65s-.75-2.13-1.38-4.77c-4.51-17.42-13.91-43.24-22.43-61.41a53.74,53.74,0,0,1-2.51-5.76c0,.25,0,.12.13.12Zm108.54,20.68c.75.25,2,4.51,4.51,13.91a205.24,205.24,0,0,1,6,57.41c-.26,5.26-.51,10.15-.76,10.78l-.37,1.25-6.52-2.13c-13.41-4.26-35.22-10.66-53.89-15.92-10.66-2.88-19.3-5.51-19.3-5.76,0-.76,15.54-16.3,22.18-22.19,12.66-11.15,47-37.72,48.13-37.35Zm8.65,1.25c.37-.37,51.89,8.53,75.32,13,17.43,3.38,42.74,8.65,44.25,9.28.75.24-1.89,1.75-10.28,5.51-33.09,14.91-57.66,28.32-82.1,44.62-6.39,4.26-11.78,7.77-11.9,7.77a67.16,67.16,0,0,1-.25-8c0-23.82-4.77-47.88-13.54-68.18A18.4,18.4,0,0,1,472.26,254.67ZM605.49,281c.37.37-1.26,10.52-2.76,16.54-4.51,18.67-16.67,46.38-31.58,72.44a85,85,0,0,1-5.27,8.53c-.25.12-3.63-1.76-7.52-4a408.42,408.42,0,0,0-49.13-24.06c-5-2.13-9.4-3.89-9.53-4.13-.87-.76,39.48-27.45,60.79-40.24,16.92-10.27,44.49-25.57,45-25.06Zm9.52,1.5c1.13,0,23.94,6.27,35.85,9.78,29.45,8.77,63.29,21.18,85.35,31.2l9.15,4.14-6.39,1.5c-53.9,12.41-100,26.7-144.51,44.75-3.64,1.5-6.9,2.76-7.15,2.76s1-2.89,2.64-6.4c13.41-28.45,22-58.15,24.18-83.47.13-2.38.5-4.26.88-4.26Zm-227.1,52.14c.37-.38,17.79,3.76,27.19,6.39,14.29,4,44.62,14.16,44.62,14.91,0,.13-3.38,3-7.39,6.52-16.42,13.66-32.21,28.08-51.14,46.38-5.64,5.39-10.4,9.77-10.65,9.77s-.38-.75-.25-1.75c2.88-21.06,2.25-48.13-1.76-75.58C388.16,337.77,387.78,334.76,387.91,334.64ZM754,335c.25.24-8,13.28-13.29,20.67-7.52,10.78-18.55,25.07-43.49,56.41-13.16,16.54-28,35.21-32.84,41.48s-9.15,11.53-9.27,11.53a42.52,42.52,0,0,1-3.51-5,259.09,259.09,0,0,0-50.76-56c-3.76-3.13-7.9-6.51-9.28-7.52a13.81,13.81,0,0,1-2.5-2.13c0-.37,21.3-9.52,37.47-16,28.33-11.53,66.93-25.32,95.88-34.22,15.17-4.76,31.34-9.4,31.59-9.14Zm9.65,2.5c.5-.12,3.51,1.38,7.14,3.51,30.46,17.42,60.29,39.86,83.85,62.92,6.64,6.52,23.06,23.56,22.81,23.69,0,0-5.76.5-12.53,1-52.77,4-120.32,15.16-185.25,30.83-4.38,1-8.27,1.88-8.52,1.88s4.64-4.89,10.78-10.78C720,413.85,737.47,390.66,758,349.3c2.88-6.14,5.39-11.4,5.64-11.78ZM484.54,366.1c1.75.37,18,8,30.33,14.16,11.28,5.64,28.2,14.66,29.08,15.42.12.12-5.89,3.25-13.29,6.89-23.56,11.78-43.74,22.93-64.8,35.72-6,3.63-11,6.64-11.15,6.64-.5,0-.38-.5,3-6.64a261.68,261.68,0,0,0,25.44-69.06c.5-1.88,1-3.13,1.38-3.13Zm-16.3,3c.38.37-3.88,15.79-6.51,24.18a308.22,308.22,0,0,1-22.19,50.89c-2,3.51-5,8.65-6.64,11.53l-3.13,5-7-6.76c-8.15-7.9-14.79-12.79-23.31-17.18-3.39-1.75-6-3.25-6-3.5,0-1,21.43-20.43,37.85-34.47,11.78-10.15,36.6-30.08,37-29.7Zm99.65,41,6.14,4a477.32,477.32,0,0,1,43.24,32c7.14,5.89,20.93,18.3,23.69,21.31l1.5,1.63-10.15,2.88C574.9,487.8,530.54,502,478.77,521c-5.76,2.13-10.65,3.89-11,3.89-.75,0-1.38.62,11.54-11.29,33.08-30.45,62.41-64,84.22-96.75l4.39-6.77Zm-26.2,6.52c.25.25-16.92,24.44-27.2,38.1-12.28,16.29-34.09,43.61-49.13,61.41-6.26,7.4-11.65,13.54-11.9,13.66S453,528,453,525.15A105,105,0,0,0,442.3,480c-2.88-5.77-3.38-7.15-2.75-7.77,2.38-2.14,38.85-22.94,61.91-35.35,15.54-8.27,39.85-20.55,40.23-20.3ZM383.27,455.46a55.37,55.37,0,0,1,6.52,3.26,137.49,137.49,0,0,1,21.55,14.54c.25.25-3,2.88-7.27,6-11.9,8.53-29.95,22.19-40.48,30.59-11,8.77-11.4,9-10.15,7.14,8.27-12.66,12.41-19.8,16.8-28.95a234.82,234.82,0,0,0,10.52-26.2c1-3.63,2.26-6.39,2.51-6.39Zm42.24,33.09c.62-.13,1.38,1,4.76,6,7.14,10.65,12.66,24.94,14,36.47l.25,2.51-17.17,6.64c-30.71,11.9-59,23.69-78.21,32.46-5.39,2.51-14.79,7-20.93,10s-11.16,5.51-11.16,5.39,3.89-3,8.65-6.52c37.48-27.2,69.94-57,94.25-86.86,2.63-3.13,5-6,5.27-6.14Zm-19.43,4.76c.5.5-13.79,16.67-23.56,26.57a415.69,415.69,0,0,1-77.84,62.8l-7.52,4.76c-.87.5.25-.75,13.29-14.92,8.27-8.9,14.54-16.42,21.68-25.69,4.76-6.14,5.64-7,12.54-11.91C363.09,521.64,405.58,492.81,406.08,493.31Z" transform="translate(-114.21 -95.09)"/>
    </g>
  </g>
</svg>
