<svg xmlns="http://www.w3.org/2000/svg" viewBox="0 0 795.62 833.82">
  <defs>
    <style>
      .cls-1 {
        fill: none;
      }

      .cls-2 {
        fill: #fff;
      }

      .cls-2, .cls-3, .cls-4, .cls-5 {
        fill-rule: evenodd;
      }

      .cls-3 {
        fill: #a5a284;
      }

      .cls-4 {
        fill: #499d49;
      }

      .cls-5 {
        fill: #58aa50;
      }
    </style>
  </defs>
  <title>MongoDB</title>
  <g id="Layer_1" data-name="Layer 1">
    <rect class="cls-1" width="795.62" height="832.32"/>
  </g>
  <g id="MongoDB">
    <path class="cls-2" d="M536,927.58l-25.3-8.65s3.09-129-43.21-138.24c-30.85-35.81,4.95-1518.29,116-5,0,0-38.27,19.13-45.06,51.85-7.41,32.1-2.47,100-2.47,100Z" transform="translate(-114.21 -95.09)"/>
    <path class="cls-3" d="M536,927.58l-25.3-8.65s3.09-129-43.21-138.24c-30.85-35.81,4.95-1518.29,116-5,0,0-38.27,19.13-45.06,51.85-7.41,32.1-2.47,100-2.47,100Z" transform="translate(-114.21 -95.09)"/>
    <path class="cls-2" d="M549.58,923.66S771.16,778,719.3,475c-50-220.32-167.87-292.53-180.83-320.31-14.19-19.75-27.77-54.31-27.77-54.31L520,713.19c0,.62-19.14,187.63,29.63,210.48" transform="translate(-114.21 -95.09)"/>
    <path class="cls-4" d="M549.58,923.66S771.16,778,719.3,475c-50-220.32-167.87-292.53-180.83-320.31-14.19-19.75-27.77-54.31-27.77-54.31L520,713.19c0,.62-19.14,187.63,29.63,210.48" transform="translate(-114.21 -95.09)"/>
    <path class="cls-2" d="M497.74,928.91S289.74,787,302.09,537c11.72-250,158.61-372.78,187-395,18.52-19.75,19.14-27.16,20.38-46.91,13,27.78,10.49,415.37,12.33,461C527.36,732,511.93,895.59,497.74,928.91Z" transform="translate(-114.21 -95.09)"/>
    <path class="cls-5" d="M497.74,928.91S289.74,787,302.09,537c11.72-250,158.61-372.78,187-395,18.52-19.75,19.14-27.16,20.38-46.91,13,27.78,10.49,415.37,12.33,461C527.36,732,511.93,895.59,497.74,928.91Z" transform="translate(-114.21 -95.09)"/>
  </g>
</svg>
