<svg xmlns="http://www.w3.org/2000/svg" viewBox="0 0 795.62 832.32">
  <defs>
    <style>
      .cls-1 {
        fill: none;
      }

      .cls-2, .cls-3 {
        fill: #00678f;
      }

      .cls-3 {
        fill-rule: evenodd;
      }
    </style>
  </defs>
  <title>MySQL</title>
  <g id="Layer_1" data-name="Layer 1">
    <rect class="cls-1" width="795.62" height="832.32"/>
  </g>
  <g id="MySQL">
    <path class="cls-2" d="M843.66,722.19C800.79,721,768.05,725,740.05,736.81c-8,3.36-20.64,3.44-21.94,13.41,4.37,4.59,5,11.43,8.53,17.07,6.68,10.82,18,25.31,28,32.91,11,8.31,22.34,17.19,34.13,24.38,21,12.8,44.4,20.1,64.6,32.91,11.91,7.56,23.73,17.08,35.35,25.6,5.74,4.21,9.6,10.77,17.06,13.41v-1.22c-3.92-5-4.93-11.86-8.53-17.06l-15.84-15.85c-15.49-20.57-35.17-38.63-56.07-53.64-16.68-12-54-28.13-61-47.54L763.21,760c11.82-1.34,25.66-5.61,36.57-8.54,18.33-4.91,34.71-3.64,53.63-8.53L879,735.6v-4.88c-9.57-9.82-16.39-22.81-26.82-31.69-27.29-23.25-57.08-46.47-87.76-65.83-17-10.74-38-17.72-56.07-26.81-6.07-3.07-16.72-4.65-20.73-9.76-9.47-12.08-14.63-27.38-21.94-41.44-15.3-29.47-30.32-61.65-43.88-92.64-9.24-21.14-15.29-42-26.82-60.95-55.34-91-114.92-145.93-207.22-199.91-19.63-11.49-43.27-16-68.26-21.95l-40.22-2.43c-8.19-3.43-16.7-13.44-24.38-18.29-30.58-19.32-109-61.33-131.65-6.09-14.29,34.86,21.38,68.88,34.13,86.54,9,12.4,20.42,26.29,26.82,40.23,4.21,9.16,4.93,18.34,8.53,28,8.87,23.87,16.58,49.85,28,71.92,5.79,11.16,12.18,22.92,19.5,32.91,4.5,6.12,12.19,8.82,13.41,18.28-7.53,10.53-8,26.89-12.19,40.23-19.05,60.07-11.87,134.73,15.85,179.19,8.51,13.64,28.53,42.91,56.07,31.69,24.08-9.81,18.7-40.22,25.6-67,1.56-6.08.6-10.56,3.65-14.63v1.22q11,21.93,21.94,43.88c16.25,26.15,45.06,53.48,69.48,71.92,12.67,9.57,22.64,26.1,39,31.7v-1.22h-1.22c-3.17-4.95-8.13-7-12.19-11a278.63,278.63,0,0,1-28-31.69C409.44,675,389.81,642,371.93,607.6c-8.54-16.4-16-34.5-23.16-51.19C346,550,346,540.24,340.23,536.9c-7.88,12.23-19.49,22.13-25.59,36.57-9.75,23.09-11,51.25-14.63,80.45-2.14.77-1.18.24-2.44,1.22-17-4.09-22.94-21.57-29.25-36.57-16-37.91-18.92-99-4.88-142.62,3.64-11.29,20.05-46.85,13.41-57.29-3.17-10.41-13.64-16.42-19.5-24.38a192,192,0,0,1-19.51-34.13c-13.06-29.57-19.16-62.75-32.91-92.64-6.57-14.28-17.69-28.74-26.82-41.44C168,212,156.69,201.64,148.86,184.62c-2.78-6.05-6.57-15.73-2.44-21.94,1.32-4.2,3.17-6,7.32-7.32,7.07-5.45,26.76,1.82,34.13,4.88,19.54,8.12,35.85,15.85,52.41,26.82,8,5.27,16,15.46,25.6,18.28h11c17.16,3.95,36.38,1.23,52.41,6.1,28.34,8.61,53.73,22,76.8,36.57,70.26,44.36,127.7,107.51,167,182.84,6.33,12.13,9.06,23.71,14.63,36.57,11.23,25.95,25.39,52.64,36.57,78s22,50.85,37.79,71.92c8.29,11.07,40.3,17,54.85,23.16,10.2,4.31,26.91,8.8,36.57,14.62,18.45,11.13,36.33,24.38,53.63,36.57,8.65,6.1,35.24,19.46,36.57,30.48Z" transform="translate(-114.21 -95.09)"/>
    <path class="cls-3" d="M298.79,257.76a87.37,87.37,0,0,0-21.94,2.44v1.22h1.22c4.26,8.76,11.79,14.39,17.06,21.94q6.11,12.79,12.19,25.59l1.22-1.21c7.55-5.32,11-13.83,11-26.82-3-3.18-3.47-7.17-6.09-11-3.49-5.06-10.23-7.94-14.63-12.19Z" transform="translate(-114.21 -95.09)"/>
  </g>
</svg>
