<svg xmlns="http://www.w3.org/2000/svg" xmlns:xlink="http://www.w3.org/1999/xlink" viewBox="0 0 795.62 832.32">
  <defs>
    <style>
      .cls-1 {
        fill: none;
      }

      .cls-2 {
        fill: #237fc3;
      }

      .cls-3 {
        fill: url(#linear-gradient);
      }

      .cls-4 {
        fill: #003b58;
      }
    </style>
    <linearGradient id="linear-gradient" x1="-2.55" y1="1065.34" x2="43.98" y2="1065.34" gradientTransform="matrix(0, 11.49, 11.49, 0, -11803.33, 191.7)" gradientUnits="userSpaceOnUse">
      <stop offset="0" stop-color="#99daf6"/>
      <stop offset="0.92" stop-color="#237fc3"/>
      <stop offset="1" stop-color="#237fc3"/>
    </linearGradient>
  </defs>
  <title>SQLite</title>
  <g id="Layer_1" data-name="Layer 1">
    <rect class="cls-1" width="795.62" height="832.32"/>
  </g>
  <g id="SQLite">
    <path id="solid-background" class="cls-2" d="M723.52,132H206.82c-34.63,0-63,28.62-63,63.59V771c0,35,28.33,63.58,63,63.58H547.14C543.27,663.56,601.1,331.73,723.52,132Z" transform="translate(-114.21 -95.09)"/>
    <path id="gradient-background" class="cls-3" d="M704.75,150.53H206.82c-24.59,0-44.6,20.2-44.6,45V729c112.77-43.7,282-81.41,399.06-79.7C584.8,525.12,653.91,281.77,704.75,150.53Z" transform="translate(-114.21 -95.09)"/>
    <path id="feather" class="cls-4" d="M844.05,113.15C808.66,81.29,765.81,94.09,723.52,132c-6.27,5.63-12.54,11.88-18.77,18.55-72.34,77.5-139.48,221-160.35,330.66,8.13,16.64,14.48,37.88,18.66,54.1,1.07,4.16,2,8.07,2.81,11.39,1.84,7.86,2.82,13,2.82,13s-.65-2.47-3.31-10.27c-.5-1.49-1.07-3.12-1.74-5-.28-.8-.68-1.76-1.11-2.79-4.72-11.08-17.78-34.45-23.52-44.63-4.91,14.63-9.26,28.32-12.89,40.71,16.58,30.64,26.69,83.15,26.69,83.15s-.88-3.4-5-15.28c-3.7-10.5-22.13-43.11-26.5-50.73-7.46,27.84-10.43,46.63-7.75,51.21,5.19,8.86,10.14,24.16,14.48,41.08,9.82,38.11,16.64,84.51,16.64,84.51s.22,3.07.59,7.81a781.24,781.24,0,0,0,1.91,95.18c3.25,39.71,9.37,73.81,17.17,92.07l5.3-2.92c-11.46-36-16.11-83.09-14.07-137.45,3.08-83.08,22-183.28,57-287.71C671.64,340.89,753.65,214.41,828.7,154c-68.4,62.39-161,264.32-188.71,339.1-31,83.74-53,162.32-66.27,237.61,22.86-70.59,96.8-100.93,96.8-100.93s36.26-45.16,78.64-109.68c-25.38,5.85-67.07,15.86-81,21.78-20.59,8.73-26.14,11.7-26.14,11.7s66.71-41,124-59.6c78.71-125.19,164.47-303,78.11-380.83" transform="translate(-114.21 -95.09)"/>
  </g>
</svg>
