<svg xmlns="http://www.w3.org/2000/svg" version="1.1" xmlns:xlink="http://www.w3.org/1999/xlink" width="512" height="512" x="0" y="0" viewBox="0 0 512 512" style="enable-background:new 0 0 512 512" xml:space="preserve" class=""><g><linearGradient id="a" x1="56.21" x2="460.33" y1="256" y2="256" gradientUnits="userSpaceOnUse"><stop offset="0" stop-color="#e08312"></stop><stop offset=".99" stop-color="#e5bb0c"></stop></linearGradient><linearGradient xlink:href="#a" id="b" x1="280.76" x2="455.53" y1="76.8" y2="76.8"></linearGradient><linearGradient xlink:href="#a" id="c" x1="0" x2="512" y1="334.46" y2="334.46"></linearGradient><linearGradient xlink:href="#a" id="d" x1="158.19" x2="353.81" y1="475.01" y2="475.01"></linearGradient><linearGradient xlink:href="#a" id="e" x1="172.27" x2="339.73" y1="461.8" y2="461.8"></linearGradient><linearGradient xlink:href="#a" id="f" x1="87.97" x2="222.39" y1="58.66" y2="58.66"></linearGradient><linearGradient xlink:href="#a" id="g" x1="87.97" x2="222.39" y1="72.56" y2="72.56"></linearGradient><linearGradient xlink:href="#a" id="h" x1="87.97" x2="222.39" y1="86.47" y2="86.47"></linearGradient><linearGradient xlink:href="#a" id="i" x1="87.97" x2="222.39" y1="100.37" y2="100.37"></linearGradient><linearGradient xlink:href="#a" id="j" x1="87.97" x2="222.39" y1="114.27" y2="114.27"></linearGradient><linearGradient xlink:href="#a" id="k" x1="87.97" x2="222.39" y1="128.17" y2="128.17"></linearGradient><g data-name="Layer 2"><g data-name="Layer 1"><path fill="#f4f3f2" d="M281.26 3.94H93.1a33 33 0 0 0-32.95 32.94v438.24a33 33 0 0 0 32.95 32.94h330.35a33 33 0 0 0 32.94-32.94l-.86-325.46z" opacity="1" data-original="#f4f3f2" class=""></path><path fill="url(#a)" d="M423.45 512H93.1a36.92 36.92 0 0 1-36.89-36.88V36.88A36.92 36.92 0 0 1 93.1 0h189.59l176.78 147.82.86 327.29A36.92 36.92 0 0 1 423.45 512zM93.1 7.88a29 29 0 0 0-29 29v438.24a29 29 0 0 0 29 29h330.35a29 29 0 0 0 29-29l-.85-323.61L279.83 7.88z" opacity="1" data-original="url(#a)" class=""></path><path fill="url(#a)" d="m281.26 3.94-.5 142.28s.5 3.44 3.45 3.44h171.32z" opacity="1" data-original="url(#a)" class=""></path><rect width="512" height="175.21" y="246.86" fill="url(#c)" rx="13.59" opacity="1" data-original="url(#c)"></rect><rect width="195.62" height="5.47" x="158.19" y="472.28" fill="url(#d)" rx="2.26" opacity="1" data-original="url(#d)"></rect><rect width="167.46" height="5.47" x="172.27" y="459.07" fill="url(#e)" rx="2.26" opacity="1" data-original="url(#e)"></rect><rect width="134.42" height="5.47" x="87.97" y="55.93" fill="url(#f)" rx="2.26" opacity="1" data-original="url(#f)"></rect><rect width="134.42" height="5.47" x="87.97" y="69.83" fill="url(#g)" rx="2.26" opacity="1" data-original="url(#g)"></rect><rect width="134.42" height="5.47" x="87.97" y="83.73" fill="url(#h)" rx="2.26" opacity="1" data-original="url(#h)"></rect><rect width="134.42" height="5.47" x="87.97" y="97.63" fill="url(#i)" rx="2.26" opacity="1" data-original="url(#i)"></rect><rect width="134.42" height="5.47" x="87.97" y="111.53" fill="url(#j)" rx="2.26" opacity="1" data-original="url(#j)"></rect><rect width="134.42" height="5.47" x="87.97" y="125.44" fill="url(#k)" rx="2.26" opacity="1" data-original="url(#k)"></rect><g fill="#fff"><path d="M187.24 342.33 209 348.9a40 40 0 0 1-6.9 15.27 29.94 29.94 0 0 1-11.69 9.25q-7 3.12-17.76 3.12-13.09 0-21.38-3.8t-14.31-13.37q-6-9.58-6-24.51 0-19.92 10.6-30.61t30-10.69q15.17 0 23.84 6.13t12.89 18.83l-21.9 4.87a18.66 18.66 0 0 0-2.49-5.39 14.21 14.21 0 0 0-5.09-4.37 15.63 15.63 0 0 0-19.65 5.24q-3.39 5-3.39 15.8 0 13.35 4 18.29t11.38 4.95q7.13 0 10.76-4t5.33-11.58zM216.69 348.63l23.6-1.48q.77 5.75 3.12 8.76 3.83 4.88 11 4.87 5.31 0 8.18-2.49a7.46 7.46 0 0 0 2.88-5.78 7.38 7.38 0 0 0-2.74-5.58q-2.74-2.46-12.7-4.65-16.32-3.67-23.27-9.75a19.58 19.58 0 0 1-7-15.49 21.06 21.06 0 0 1 3.58-11.69 23.79 23.79 0 0 1 10.79-8.65q7.18-3.15 19.73-3.14 15.38 0 23.46 5.72t9.6 18.2l-23.37 1.37c-.62-3.62-1.93-6.24-3.91-7.89s-4.74-2.46-8.24-2.46q-4.33 0-6.52 1.83a5.63 5.63 0 0 0-2.19 4.46 4.45 4.45 0 0 0 1.81 3.45q1.76 1.59 8.32 3 16.26 3.51 23.29 7.09t10.24 8.89a22.62 22.62 0 0 1 3.2 11.88 25.45 25.45 0 0 1-4.27 14.24 26.72 26.72 0 0 1-11.93 9.88q-7.67 3.36-19.33 3.36-20.47 0-28.35-7.88t-8.98-20.07zM294.1 294.92H320l18.07 57.76 17.83-57.76h25.17l-29.8 80.26h-26.86z" fill="#ffffff" opacity="1" data-original="#ffffff"></path></g></g></g></g></svg>