<svg xmlns="http://www.w3.org/2000/svg" version="1.1" xmlns:xlink="http://www.w3.org/1999/xlink" width="512" height="512" x="0" y="0" viewBox="0 0 512 512" style="enable-background:new 0 0 512 512" xml:space="preserve" class=""><g><path d="M496 432.011H272c-8.832 0-16-7.168-16-16v-320c0-8.832 7.168-16 16-16h224c8.832 0 16 7.168 16 16v320c0 8.832-7.168 16-16 16z" style="" fill="#eceff1" data-original="#eceff1" class=""></path><path d="M336 176.011h-64c-8.832 0-16-7.168-16-16s7.168-16 16-16h64c8.832 0 16 7.168 16 16s-7.168 16-16 16zM336 240.011h-64c-8.832 0-16-7.168-16-16s7.168-16 16-16h64c8.832 0 16 7.168 16 16s-7.168 16-16 16zM336 304.011h-64c-8.832 0-16-7.168-16-16s7.168-16 16-16h64c8.832 0 16 7.168 16 16s-7.168 16-16 16zM336 368.011h-64c-8.832 0-16-7.168-16-16s7.168-16 16-16h64c8.832 0 16 7.168 16 16s-7.168 16-16 16zM432 176.011h-32c-8.832 0-16-7.168-16-16s7.168-16 16-16h32c8.832 0 16 7.168 16 16s-7.168 16-16 16zM432 240.011h-32c-8.832 0-16-7.168-16-16s7.168-16 16-16h32c8.832 0 16 7.168 16 16s-7.168 16-16 16zM432 304.011h-32c-8.832 0-16-7.168-16-16s7.168-16 16-16h32c8.832 0 16 7.168 16 16s-7.168 16-16 16zM432 368.011h-32c-8.832 0-16-7.168-16-16s7.168-16 16-16h32c8.832 0 16 7.168 16 16s-7.168 16-16 16z" style="" fill="#388e3c" data-original="#388e3c" class=""></path><path d="M282.208 19.691c-3.648-3.04-8.544-4.352-13.152-3.392l-256 48A15.955 15.955 0 0 0 0 80.011v352c0 7.68 5.472 14.304 13.056 15.712l256 48c.96.192 1.952.288 2.944.288 3.712 0 7.328-1.28 10.208-3.68a16.006 16.006 0 0 0 5.792-12.32v-448c0-4.768-2.112-9.28-5.792-12.32z" style="" fill="#2e7d32" data-original="#2e7d32"></path><path d="m220.032 309.483-50.592-57.824 51.168-65.792c5.44-6.976 4.16-17.024-2.784-22.464-6.944-5.44-16.992-4.16-22.464 2.784l-47.392 60.928-39.936-45.632c-5.856-6.72-15.968-7.328-22.56-1.504-6.656 5.824-7.328 15.936-1.504 22.56l44 50.304-44.608 57.344c-5.44 6.976-4.16 17.024 2.784 22.464a16.104 16.104 0 0 0 9.856 3.36c4.768 0 9.472-2.112 12.64-6.176l40.8-52.48 46.528 53.152A15.874 15.874 0 0 0 208 336.011c3.744 0 7.488-1.312 10.528-3.968 6.656-5.824 7.328-15.936 1.504-22.56z" style="" fill="#fafafa" data-original="#fafafa"></path></g></svg>