<svg xmlns="http://www.w3.org/2000/svg" version="1.1" xmlns:xlink="http://www.w3.org/1999/xlink" width="512" height="512" x="0" y="0" viewBox="0 0 64 64" style="enable-background:new 0 0 512 512" xml:space="preserve" class=""><g transform="matrix(1.12,0,0,1.12,-3.839999885559088,-3.8400000000000034)"><path d="M32 9.93a1 1 0 0 0 1-1V5a1 1 0 0 0-2 0v3.93a1 1 0 0 0 1 1ZM17.41 15.39A1 1 0 1 0 18.82 14L16 11.19a1 1 0 0 0-1.41 0 1 1 0 0 0 0 1.42ZM12.36 27.56H8.44a1 1 0 1 0 0 2h3.92a1 1 0 1 0 0-2ZM17.41 41.74l-2.78 2.78a1 1 0 0 0 .71 1.71 1 1 0 0 0 .7-.3l2.78-2.77a1 1 0 0 0 0-1.42 1 1 0 0 0-1.41 0ZM46.59 41.74a1 1 0 0 0-1.41 0 1 1 0 0 0 0 1.42L48 45.93a1 1 0 0 0 .7.3 1 1 0 0 0 .71-1.71ZM55.56 27.56h-3.92a1 1 0 0 0 0 2h3.92a1 1 0 0 0 0-2ZM48 11.19 45.18 14a1 1 0 0 0 1.41 1.42l2.78-2.78a1 1 0 0 0 0-1.42 1 1 0 0 0-1.37-.03ZM23.15 42.09v1.13a1 1 0 0 0 2 0v-1.68a1 1 0 0 0-.48-.86 14.16 14.16 0 1 1 18-21.42A1 1 0 0 0 44.19 18a16.16 16.16 0 1 0-21 24.13Z" fill="#000000" opacity="1" data-original="#000000" class=""></path><path d="M40.85 46.22v-4.13a16.06 16.06 0 0 0 7.32-13.53 15.23 15.23 0 0 0-.17-2.08 16.3 16.3 0 0 0-1.15-4.26A1 1 0 1 0 45 23a14.76 14.76 0 0 1 1 3.75 13.1 13.1 0 0 1 .12 1.81 14.06 14.06 0 0 1-6.84 12.12 1 1 0 0 0-.48.86v4.68H23.16A3 3 0 0 0 21 51.15a2.91 2.91 0 0 0-.75 2 3 3 0 0 0 3 3h1.95A4 4 0 0 0 29.05 60H35a4 4 0 0 0 3.94-3.93h2a3 3 0 0 0 3-3 2.91 2.91 0 0 0-.75-2 3 3 0 0 0-2.2-4.93ZM35 58h-5.9a2 2 0 0 1-1.94-1.93h9.78A2 2 0 0 1 35 58Zm5.89-3.93H23.16a1 1 0 0 1 0-1.92h17.68a1 1 0 1 1 0 1.92Zm0-3.92H23.16a1 1 0 0 1 0-1.93h17.68a1 1 0 0 1 0 1.93ZM32 27a5 5 0 1 0-5-5 5 5 0 0 0 5 5Zm0-8a3 3 0 1 1-3 3 3 3 0 0 1 3-3Z" fill="#000000" opacity="1" data-original="#000000" class=""></path><path d="M23 35v2a1 1 0 0 0 1 1h16a1 1 0 0 0 1-1v-2a7 7 0 0 0-5.26-6.78 1 1 0 0 0-.69.07 7 7 0 0 1-6.1 0 1 1 0 0 0-.69-.07A7 7 0 0 0 23 35Zm5.43-4.75a9 9 0 0 0 7.14 0A5 5 0 0 1 39 35v1H25v-1a5 5 0 0 1 3.43-4.78Z" fill="#000000" opacity="1" data-original="#000000" class=""></path></g></svg>