<svg xmlns="http://www.w3.org/2000/svg" version="1.1" xmlns:xlink="http://www.w3.org/1999/xlink" width="512" height="512" x="0" y="0" viewBox="0 0 64 64" style="enable-background:new 0 0 512 512" xml:space="preserve" class=""><g><path d="M53 44h6v2h-6zM53 48h6v2h-6zM53 52h6v2h-6zM5 44h6v2H5zM5 48h6v2H5zM5 52h6v2H5zM56 9h-4V5h-6v2h-4v6h-2v2h18v-2h-2zm-2 2v2h-2v-2zm-4-4v6h-2V7zm-6 2h2v4h-2zM40 17h4v2h-4zM46 17h12v2H46zM40 21h18v2H40zM13 5h2v2h-2zM5 5h2v2H5zM9 5h2v2H9zM11 13H5v6h6zm-2 4H7v-2h2zM13 13h12v2H13zM13 17h12v2H13zM5 21h2v2H5zM9 21h16v2H9z" fill="#000000" opacity="1" data-original="#000000" class=""></path><path d="M50 33v-6h10c1.654 0 3-1.346 3-3V4c0-1.654-1.346-3-3-3H38c-1.654 0-3 1.346-3 3v20c0 1.654 1.346 3 3 3h10v4H37v4.321c-1.506-.207-3.18-.321-5-.321s-3.494.114-5 .321V31H16v-4h10c1.654 0 3-1.346 3-3V4c0-1.654-1.346-3-3-3H4C2.346 1 1 2.346 1 4v20c0 1.654 1.346 3 3 3h10v6h11v2.676c-3.742.827-6 2.362-6 4.324v8h-4v-5c0-1.654-1.346-3-3-3H4c-1.654 0-3 1.346-3 3v12c0 1.654 1.346 3 3 3h8c1.654 0 3-1.346 3-3v-5h4v8c0 2.991 5.224 5 13 5s13-2.009 13-5v-8h4v5c0 1.654 1.346 3 3 3h8c1.654 0 3-1.346 3-3V43c0-1.654-1.346-3-3-3h-8c-1.654 0-3 1.346-3 3v5h-4v-8c0-1.962-2.258-3.497-6-4.324V33zm-13-9V4c0-.551.449-1 1-1h22c.551 0 1 .449 1 1v20c0 .551-.449 1-1 1H38c-.551 0-1-.449-1-1zM4 3h22c.551 0 1 .449 1 1v5H3V4c0-.551.449-1 1-1zM3 24V11h24v13c0 .551-.449 1-1 1H4c-.551 0-1-.449-1-1zm10 31c0 .551-.449 1-1 1H4c-.551 0-1-.449-1-1V43c0-.551.449-1 1-1h8c.551 0 1 .449 1 1zm38-12c0-.551.449-1 1-1h8c.551 0 1 .449 1 1v12c0 .551-.449 1-1 1h-8c-.551 0-1-.449-1-1zM32 61c-7.678 0-11-1.987-11-3v-3.146C23.202 56.198 27.09 57 32 57s8.798-.802 11-2.146V58c0 1.013-3.322 3-11 3zm0-6c-7.678 0-11-1.987-11-3v-3.146C23.202 50.198 27.09 51 32 51s8.798-.802 11-2.146V52c0 1.013-3.322 3-11 3zm0-6c-7.678 0-11-1.987-11-3v-3.146C23.202 44.198 27.09 45 32 45s8.798-.802 11-2.146V46c0 1.013-3.322 3-11 3zm11-9c0 1.013-3.322 3-11 3s-11-1.987-11-3c0-.622 1.258-1.609 4-2.28V40h2v-2.667c1.4-.206 3.06-.333 5-.333s3.6.127 5 .333V40h2v-2.28c2.742.671 4 1.658 4 2.28z" fill="#000000" opacity="1" data-original="#000000" class=""></path></g></svg>