<svg xmlns="http://www.w3.org/2000/svg" version="1.1" xmlns:xlink="http://www.w3.org/1999/xlink" width="512" height="512" x="0" y="0" viewBox="0 0 64 64" style="enable-background:new 0 0 512 512" xml:space="preserve" class=""><g transform="matrix(1.12,0,0,1.12,-3.8397483444213876,-3.840003662109382)"><path d="M56.42 42.28 54 41.9a12.6 12.6 0 0 0-.74-1.78l1.45-2a1 1 0 0 0-.1-1.3l-3.15-3.15a1 1 0 0 0-1.3-.1l-2 1.45a11.23 11.23 0 0 0-1.79-.74L46 31.85a1 1 0 0 0-.72-.81V20.43a1 1 0 0 0-1-1h-2.86v-1.86h2.85a1 1 0 0 0 1-1V5a1 1 0 0 0-1-1H5.7a1 1 0 0 0-1 1v11.57a1 1 0 0 0 1 1h2.86v1.86H5.7a1 1 0 0 0-1 1V32a1 1 0 0 0 1 1h2.86v1.86H5.7a1 1 0 0 0-1 1v11.57a1 1 0 0 0 1 1h22.86c.21.4 2.56.55 3 .67a11.52 11.52 0 0 0 .74 1.78l-1.45 2a1 1 0 0 0 .1 1.3l3.15 3.15a1 1 0 0 0 1.3.1l2-1.45a12.06 12.06 0 0 0 1.79.74l.38 2.43a1 1 0 0 0 1 .85H45a1 1 0 0 0 1-.85l.37-2.43a11.23 11.23 0 0 0 1.78-.72l2 1.45a1 1 0 0 0 1.3-.1l3.15-3.15a1 1 0 0 0 .1-1.3l-1.45-2a12.6 12.6 0 0 0 .75-1.8l2.43-.38a1 1 0 0 0 .85-1v-4.45a1 1 0 0 0-.86-.99zM6.7 15.57V6h36.57v9.57zm32.72 2v1.86H10.56v-1.86zM6.7 31v-9.57h36.57V31zm32.67 2-.2 1.28a12.06 12.06 0 0 0-1.79.74l-2-1.45a1 1 0 0 0-1.3.1l-1.18 1.19H10.56V33zm-11.1 13.43H6.7v-9.57h24.21c-.67.71.11 1.51.53 2.09h-5.93a1 1 0 0 0-1 1v3.85a1 1 0 0 0 1 1h2.76zm.12-3.63h-1.88V41h5.39c-.13.31-.24.63-.35.95l-2.43.38a1 1 0 0 0-.73.47zm26.88 4.07-2.22.35a1 1 0 0 0-.82.74 9 9 0 0 1-1 2.48 1 1 0 0 0 0 1.1l1.33 1.83-1.94 1.94L48.81 54a1 1 0 0 0-1.1 0 9 9 0 0 1-2.48 1 1 1 0 0 0-.74.82L44.14 58H41.4l-.35-2.22a1 1 0 0 0-.74-.82 9.17 9.17 0 0 1-2.49-1 1 1 0 0 0-1.1 0l-1.82 1.35-1.9-1.94 1.33-1.83a1 1 0 0 0 .05-1.1 9 9 0 0 1-1-2.48 1 1 0 0 0-.82-.74l-2.22-.35v-2.74l2.22-.35a1 1 0 0 0 .82-.74 9 9 0 0 1 1-2.48 1 1 0 0 0-.11-1.18l-.11-.14L33 37.63l1-1 .09-.09.83-.83 1.8 1.29a1 1 0 0 0 1.1 0 9.17 9.17 0 0 1 2.49-1 1 1 0 0 0 .74-.82L41.4 33h2.74l.35 2.22a1 1 0 0 0 .74.82 9 9 0 0 1 2.48 1 1 1 0 0 0 1.1 0l1.83-1.33 1.94 1.94-1.33 1.83a1 1 0 0 0 0 1.1 9 9 0 0 1 1 2.48 1 1 0 0 0 .82.74l2.22.35z" fill="#000000" opacity="1" data-original="#000000" class=""></path><path d="M9.56 7.86a1 1 0 0 0-1 1v3.85a1 1 0 0 0 2 0V8.86a1 1 0 0 0-1-1zM13.42 7.86a1 1 0 0 0-1 1v3.85a1 1 0 0 0 2 0V8.86a1 1 0 0 0-1-1zM17.28 7.86a1 1 0 0 0-1 1v3.85a1 1 0 0 0 2 0V8.86a1 1 0 0 0-1-1zM21.13 7.86a1 1 0 0 0-1 1v3.85a1 1 0 1 0 2 0V8.86a1 1 0 0 0-1-1zM9.56 23.29a1 1 0 0 0-1 1v3.85a1 1 0 0 0 2 0v-3.85a1 1 0 0 0-1-1zM13.42 23.29a1 1 0 0 0-1 1v3.85a1 1 0 0 0 2 0v-3.85a1 1 0 0 0-1-1zM17.28 23.29a1 1 0 0 0-1 1v3.85a1 1 0 0 0 2 0v-3.85a1 1 0 0 0-1-1zM21.13 23.29a1 1 0 0 0-1 1v3.85a1 1 0 0 0 2 0v-3.85a1 1 0 0 0-1-1zM9.56 38.71a1 1 0 0 0-1 1v3.86a1 1 0 0 0 2 0v-3.86a1 1 0 0 0-1-1zM13.42 38.71a1 1 0 0 0-1 1v3.86a1 1 0 0 0 2 0v-3.86a1 1 0 0 0-1-1zM17.28 38.71a1 1 0 0 0-1 1v3.86a1 1 0 0 0 2 0v-3.86a1 1 0 0 0-1-1zM21.13 38.71a1 1 0 0 0-1 1v3.86a1 1 0 0 0 2 0v-3.86a1 1 0 0 0-1-1zM40.42 7.86H25a1 1 0 0 0-1 1v3.85a1 1 0 0 0 1 1h15.42a1 1 0 0 0 1-1V8.86a1 1 0 0 0-1-1zm-1 3.85H26V9.86h13.42zM40.42 23.29H25a1 1 0 0 0-1 1v3.85a1 1 0 0 0 1 1h15.42a1 1 0 0 0 1-1v-3.85a1 1 0 0 0-1-1zm-1 3.85H26v-1.85h13.42zM42.77 39a6.46 6.46 0 1 0 6.47 6.46A6.47 6.47 0 0 0 42.77 39zm0 10.92a4.46 4.46 0 1 1 4.47-4.46A4.46 4.46 0 0 1 42.77 50zM58.3 23.73h-1.83v-4a7.39 7.39 0 0 0-7.38-7.37h-2.23a1 1 0 0 0-.79 1.72l2.73 2.54v7.06H47a1 1 0 0 0-.71 1.71l5.67 5.67a1 1 0 0 0 .7.29 1 1 0 0 0 .71-.29L59 25.44a1 1 0 0 0-.7-1.71zM52.63 29l-3.25-3.26c.7.09 1.41-.2 1.42-1v-8.5c.06-.66-1.13-1.39-1.5-1.83a5.38 5.38 0 0 1 5.17 5.37v5c0 .79.72 1.09 1.42 1z" fill="#000000" opacity="1" data-original="#000000" class=""></path></g></svg>