<svg xmlns="http://www.w3.org/2000/svg" version="1.1" xmlns:xlink="http://www.w3.org/1999/xlink" width="512" height="512" x="0" y="0" viewBox="0 0 512 512" style="enable-background:new 0 0 512 512" xml:space="preserve" class=""><g transform="matrix(0.7900000000000006,0,0,0.7900000000000006,53.75999999999985,53.75999999999985)"><path fill="#f44336" d="M429.553 439H82.447C36.913 439 0 402.087 0 356.553V155.447C0 109.913 36.913 73 82.447 73h347.107C475.087 73 512 109.913 512 155.447v201.107C512 402.087 475.087 439 429.553 439z" opacity="1" data-original="#f44336" class=""></path><path fill="#e53935" d="M429.586 73H398.68c45.516 0 82.414 36.927 82.414 82.479v201.042c0 45.552-36.898 82.479-82.414 82.479h30.905C475.102 439 512 402.073 512 356.521V155.479C512 109.927 475.102 73 429.586 73z" opacity="1" data-original="#e53935" class=""></path><path fill="#ffffff" d="M194.753 184.295v143.409c0 9.544 10.415 15.429 18.581 10.5l118.78-71.705c7.899-4.768 7.899-16.231 0-21l-118.78-71.705c-8.166-4.928-18.581.957-18.581 10.501z" opacity="1" data-original="#ffffff" class=""></path></g></svg>