<svg xmlns="http://www.w3.org/2000/svg" version="1.1" xmlns:xlink="http://www.w3.org/1999/xlink" width="512" height="512" x="0" y="0" viewBox="0 0 152 152" style="enable-background:new 0 0 512 512" xml:space="preserve" class=""><g><g data-name="Layer 2"><g data-name="04.youtube"><circle cx="76" cy="76" r="76" fill="#f20000" opacity="1" data-original="#f20000" class=""></circle><path fill="#ffffff" d="M112.22 57.72c-1.52-4.72-6.55-7.51-11.22-8.16a236.82 236.82 0 0 0-50.08 0c-4.63.65-9.66 3.48-11.18 8.16a94.94 94.94 0 0 0 0 36.57C41.3 99 46.33 101.8 51 102.45a238.16 238.16 0 0 0 50.08 0c4.63-.65 9.66-3.49 11.18-8.16a94.94 94.94 0 0 0-.04-36.57zM66.91 90.56V61.44L90.62 76c-7.99 4.91-15.75 9.69-23.71 14.56z" opacity="1" data-original="#ffffff"></path></g></g></g></svg>