<?xml version="1.0" encoding="UTF-8" standalone="no"?>
<!DOCTYPE svg PUBLIC "-//W3C//DTD SVG 1.1//EN" "http://www.w3.org/Graphics/SVG/1.1/DTD/svg11.dtd">
<svg width="100%" height="100%" viewBox="0 0 10368 5184" version="1.1" xmlns="http://www.w3.org/2000/svg" xmlns:xlink="http://www.w3.org/1999/xlink" xml:space="preserve" xmlns:serif="http://www.serif.com/" style="fill-rule:evenodd;clip-rule:evenodd;stroke-linejoin:round;stroke-miterlimit:2;">
    <g id="NoesysLetters.ai" transform="matrix(2.38572,0,0,2.38572,4393.32,2481.02)">
        <g transform="matrix(1,0,0,1,-1728,-1080)">
            <g id="Layer-1" serif:id="Layer 1">
                <g transform="matrix(1,0,0,1,1227.71,803.765)">
                    <path d="M0,552L-311.113,552C-377.632,552 -431.557,498.076 -431.557,431.557L-431.557,120.443C-431.557,53.924 -377.632,0 -311.113,0L0,0C66.519,0 120.443,53.924 120.443,120.443L120.443,431.557C120.443,498.076 66.519,552 0,552" style="fill:rgb(188,209,50);"/>
                </g>
                <g transform="matrix(1,0,0,1,1253.93,981.938)">
                    <path d="M0,224.314L-0.108,225.592C-18.594,225.782 -151.563,216.973 -123.506,247.042C-110.892,260.635 -103.334,272.081 -103.035,285.592C-102.491,313.729 -137.861,328.682 -162.601,328.682C-187.338,328.682 -222.6,313.729 -222.056,285.592C-221.758,272.081 -214.309,260.635 -201.667,247.042C-173.53,216.973 -306.278,225.673 -324.766,225.592L-324.657,225.482L-324.766,225.482C-324.983,207.105 -316.148,74.355 -346.216,102.383C-359.809,115.025 -371.282,122.556 -384.765,122.882C-412.904,123.426 -427.775,88.056 -427.775,63.319C-427.775,38.577 -412.904,3.318 -384.765,3.832C-371.282,4.159 -359.809,11.582 -346.216,24.332C-316.148,52.361 -324.876,-80.363 -324.766,-98.849L-322.211,-98.849C-296.193,-99.284 -175.025,-104.368 -201.884,-75.605C-214.525,-62.012 -222.056,-50.43 -222.383,-37.056C-222.927,-8.889 -187.665,6.063 -162.817,6.063C-138.078,6.063 -102.818,-8.889 -103.334,-37.056C-103.661,-50.43 -111.083,-62.012 -123.833,-75.605C-149.441,-102.983 -40.589,-98.116 -7.774,-97.163C-5.219,-97.054 -2.555,-97.163 0,-97.054C0.516,-70.168 7.205,49.94 -21.558,23.164C-35.07,10.413 -46.623,2.991 -60.027,2.664C-88.164,2.15 -103.116,37.409 -103.116,62.147C-103.116,86.997 -88.164,122.258 -60.027,121.714C-46.623,121.387 -35.07,113.857 -21.558,101.214C8.482,73.187 -0.217,205.828 0,224.314" style="fill:white;fill-rule:nonzero;"/>
                </g>
                <g transform="matrix(1,0,0,1,728.271,803.704)">
                    <path d="M0,551.908L-124.649,551.908L-207.078,257.864L-207.078,551.908L-308.156,551.908L-308.156,0L-170.539,0L-101.079,251.692L-101.079,0L0,0L0,551.908Z" style="fill:rgb(188,209,50);"/>
                </g>
                <g transform="matrix(1,0,0,1,1648.25,803.738)">
                    <path d="M0,551.874L-236.927,551.874L-236.927,-0.034L-1.359,-0.034L-1.359,71.142L-115.84,71.142L-115.84,220.122L-12.531,220.122L-12.531,287.028L-115.84,287.028L-115.84,481.054L0,481.054L0,551.874ZM69.028,330.88L179.375,330.88L179.375,457.565C179.375,470.1 186.905,476.488 202.105,476.488C216.756,476.488 223.988,470.1 223.988,457.565L223.988,392.157C223.988,372.203 210.693,348.63 184.051,321.744C132.425,271.641 100.372,237.955 87.731,220.748C75.198,203.756 69.028,184.754 69.028,164.255L69.028,102.351C69.028,30.66 115.651,-5.005 209.007,-5.005C292.688,-5.005 334.528,27.589 334.528,92.7L334.528,188.043L223.988,188.043L223.988,86.529C223.988,75.491 217.926,69.971 206.019,69.971C191.8,69.971 184.677,80.575 184.677,101.914L187.124,137.83C187.124,158.326 200.717,182.197 227.904,209.383C278.36,257.83 310.63,291.703 324.224,310.925C338.036,330.143 344.832,352.028 344.832,376.333L344.832,446.746C344.832,520.231 298.098,556.879 204.441,556.879C114.075,556.879 69.028,523.52 69.028,456.722L69.028,330.88ZM751.346,-0.034L672.125,222.352L632.406,333.651L632.406,551.874L511.129,551.874L511.129,337.894C508.791,318.455 498.379,280.34 480.028,223.521C464.097,175.618 440.717,100.965 409.833,-0.034L525.782,-0.034L580.372,195.493L642.384,-0.034L751.346,-0.034ZM816.023,330.88L926.371,330.88L926.371,457.565C926.371,470.1 934.01,476.488 949.072,476.488C963.835,476.488 971.064,470.1 971.064,457.565L971.064,392.157C971.064,372.203 957.798,348.63 931.128,321.744C879.53,271.641 847.45,237.955 834.808,220.748C822.166,203.756 816.023,184.754 816.023,164.255L816.023,102.351C816.023,30.66 862.646,-5.005 956.086,-5.005C1039.77,-5.005 1081.52,27.589 1081.52,92.7L1081.52,188.043L971.064,188.043L971.064,86.529C971.064,75.491 965.003,69.971 953.124,69.971C938.877,69.971 931.782,80.575 931.782,101.914L934.12,137.83C934.12,158.326 947.821,182.197 975.007,209.383C1025.44,257.83 1057.63,291.703 1071.33,310.925C1085.11,330.143 1091.91,352.028 1091.91,376.333L1091.91,446.746C1091.91,520.231 1045.2,556.879 951.518,556.879C861.151,556.879 816.023,523.52 816.023,456.722L816.023,330.88Z" style="fill:rgb(188,209,50);"/>
                </g>
                <g transform="matrix(1,0,0,1,3183.87,822.738)">
                    <path d="M0,224.474L-0.109,225.642C-18.49,225.861 -151.563,217.163 -123.4,247.203C-110.784,260.687 -103.229,272.269 -102.902,285.643C-102.492,313.81 -137.756,328.762 -162.493,328.762C-187.232,328.762 -222.604,313.81 -222.059,285.643C-221.759,272.269 -214.201,260.687 -201.56,247.203C-173.531,217.163 -306.281,225.861 -324.662,225.642C-324.875,207.292 -316.04,74.435 -346.11,102.572C-359.703,115.215 -371.283,122.745 -384.659,122.962C-412.798,123.506 -427.778,88.246 -427.778,63.505C-427.778,38.737 -412.798,3.395 -384.659,3.913C-371.283,4.24 -359.703,11.77 -346.11,24.412C-316.04,52.44 -324.875,-80.309 -324.662,-98.659L-322.212,-98.659C-296.086,-99.204 -174.918,-104.288 -201.887,-75.416C-214.528,-61.823 -222.059,-50.35 -222.277,-36.866C-222.821,-8.729 -187.559,6.143 -162.82,6.143C-138.053,6.143 -102.712,-8.729 -103.229,-36.866C-103.554,-50.35 -111.084,-61.823 -123.727,-75.416C-149.418,-102.929 -40.482,-97.926 -7.668,-96.975C-5.114,-96.975 -2.557,-96.975 0.106,-96.867C0.514,-70.008 7.201,49.994 -21.452,23.244C-35.045,10.602 -46.517,3.072 -60.001,2.745C-88.168,2.337 -103.01,37.569 -103.01,62.337C-103.01,87.076 -88.168,122.335 -60.001,121.902C-46.517,121.577 -35.045,114.043 -21.452,101.404C8.589,73.373 -0.109,205.906 0,224.474" style="fill:rgb(188,209,50);"/>
                </g>
            </g>
        </g>
    </g>
</svg>
