<?xml version="1.0" encoding="UTF-8" standalone="no"?>
<!DOCTYPE svg PUBLIC "-//W3C//DTD SVG 1.1//EN" "http://www.w3.org/Graphics/SVG/1.1/DTD/svg11.dtd">
<svg width="100%" height="100%" viewBox="0 0 10368 5184" version="1.1" xmlns="http://www.w3.org/2000/svg" xmlns:xlink="http://www.w3.org/1999/xlink" xml:space="preserve" xmlns:serif="http://www.serif.com/" style="fill-rule:evenodd;clip-rule:evenodd;stroke-linejoin:round;stroke-miterlimit:2;">
    <g transform="matrix(71.5856,0,0,71.5856,-7731.69,135.244)">
        <path d="M134.016,37.367L128.432,31.839C133.818,27.389 138.977,22.882 143.654,18.375L148.813,24.328C144.249,28.636 139.289,33.03 133.988,37.367L134.016,37.367Z" style="fill:rgb(195,72,60);"/>
    </g>
    <g transform="matrix(71.5856,0,0,71.5856,-7731.69,135.244)">
        <path d="M130.246,48.393C124.719,42.242 117.604,36.715 109.498,31.584L112.02,22.996C121.601,29.09 130.02,35.468 136.001,43.093L130.246,48.393Z" style="fill:rgb(55,177,102);"/>
    </g>
    <g transform="matrix(71.5856,0,0,71.5856,-7731.69,135.244)">
        <path d="M141.556,40.967L131.437,50.009L137.248,56.783L147.395,47.174L141.556,40.967Z" style="fill:rgb(57,133,188);"/>
    </g>
    <g transform="matrix(71.5856,0,0,71.5856,-7731.69,135.244)">
        <path d="M138.325,57.945L148.161,68.773L153.49,63.473L143.909,52.39L138.325,57.945Z" style="fill:rgb(55,177,102);"/>
    </g>
    <g transform="matrix(71.5856,0,0,71.5856,-7731.69,135.244)">
        <path d="M155.19,61.885L149.493,55.564L164.346,42.299L169.986,48.45L155.19,61.885Z" style="fill:rgb(55,177,102);"/>
    </g>
    <g transform="matrix(71.5856,0,0,71.5856,-7731.69,135.244)">
        <path d="M173.841,33.965L185.293,21.352L188.354,30.252L179.284,39.238L173.841,33.965Z" style="fill:rgb(55,177,102);"/>
    </g>
    <g transform="matrix(71.5856,0,0,71.5856,-7731.69,135.244)">
        <path d="M122.99,8.766L116.867,15.229C122.253,18.772 127.128,22.344 131.437,26.17L137.446,20.275C133.194,15.966 128.262,12.054 122.99,8.766Z" style="fill:rgb(243,160,51);"/>
    </g>
    <g transform="matrix(71.5856,0,0,71.5856,-7731.69,135.244)">
        <path d="M139.997,35.411L145.836,30.422L158.166,44.481L152.611,49.782L139.997,35.411Z" style="fill:rgb(67,84,102);"/>
    </g>
    <g transform="matrix(71.5856,0,0,71.5856,-7731.69,135.244)">
        <path d="M167.776,31.811L162.617,36.998L171.857,46.381L176.903,41.307L167.776,31.811Z" style="fill:rgb(100,141,200);"/>
    </g>
    <g transform="matrix(71.5856,0,0,71.5856,-7731.69,135.244)">
        <path d="M179.936,13.273L173.331,7.434C167.464,16.873 160.066,25.32 151.449,33.058L157.203,38.897C166.982,30.677 174.777,22.174 179.936,13.273Z" style="fill:rgb(212,95,57);"/>
    </g>
    <g transform="matrix(71.5856,0,0,71.5856,-7731.69,135.244)">
        <path d="M154.708,27.248C147.452,18.857 139.487,10.864 130.955,3.267L140.309,0.149C147.084,6.896 153.631,14.039 159.981,21.465L154.708,27.248Z" style="fill:rgb(232,87,73);"/>
    </g>
    <g transform="matrix(71.5856,0,0,71.5856,-7731.69,135.244)">
        <path d="M158.053,15.144L152.129,8.823C154.482,5.904 156.211,2.786 157.515,-0.502L165.905,2.474C163.921,6.782 161.341,11.062 158.053,15.144Z" style="fill:rgb(231,131,55);"/>
    </g>
</svg>
