<?xml version="1.0" standalone="no"?>
<!DOCTYPE svg PUBLIC "-//W3C//DTD SVG 20010904//EN"
 "http://www.w3.org/TR/2001/REC-SVG-20010904/DTD/svg10.dtd">
<svg version="1.0" xmlns="http://www.w3.org/2000/svg"
 width="466.000000pt" height="108.000000pt" viewBox="0 0 466.000000 108.000000"
 preserveAspectRatio="xMidYMid meet">

<g transform="translate(0.000000,108.000000) scale(0.100000,-0.100000)"
fill="#000000" stroke="none">
<path d="M1770 1015 l0 -65 45 0 45 0 0 65 0 65 -45 0 -45 0 0 -65z"/>
<path d="M0 981 c0 -37 2 -40 33 -43 l32 -3 0 -190 0 -190 -32 -3 c-31 -3 -33
-6 -33 -43 l0 -39 163 0 c184 0 240 12 281 61 53 63 39 160 -29 200 l-35 21
30 34 c38 43 46 76 31 124 -13 45 -57 85 -109 100 -20 5 -103 10 -184 10
l-148 0 0 -39z m304 -51 c35 -13 60 -54 52 -85 -9 -37 -54 -55 -136 -55 l-70
0 0 68 c0 38 3 72 7 75 10 10 118 8 147 -3z m25 -229 c36 -10 65 -54 57 -85
-12 -47 -60 -67 -151 -64 l-80 3 -3 78 -3 77 78 -1 c43 -1 89 -4 102 -8z"/>
<path d="M2757 1013 c-4 -3 -7 -37 -7 -75 l0 -68 -50 0 -50 0 0 -40 0 -40 49
0 48 0 5 -108 c6 -158 43 -211 152 -220 76 -6 117 3 166 39 l43 31 -30 30 -30
30 -38 -26 c-51 -35 -116 -36 -150 -1 -23 22 -25 31 -25 124 l0 100 98 3 97 3
3 38 3 37 -100 0 -101 0 0 75 0 75 -38 0 c-21 0 -42 -3 -45 -7z"/>
<path d="M817 875 c-22 -7 -50 -23 -63 -36 l-24 -22 0 26 c0 27 0 27 -75 27
l-75 0 0 -40 c0 -39 1 -40 35 -40 l35 0 0 -120 0 -120 -45 0 -45 0 0 -40 0
-40 155 0 155 0 0 40 0 40 -70 0 -70 0 0 67 c0 109 40 169 127 188 27 5 37 2
58 -20 22 -21 32 -25 61 -19 43 8 46 13 27 52 -16 34 -82 72 -124 72 -13 -1
-41 -7 -62 -15z"/>
<path d="M1215 881 c-28 -7 -72 -28 -105 -50 -12 -8 -10 -15 14 -40 l28 -29
35 21 c23 13 54 21 85 21 42 1 53 -3 74 -27 13 -15 24 -37 24 -47 0 -17 -6
-18 -72 -13 -88 6 -146 -8 -186 -45 -60 -56 -50 -149 20 -192 45 -27 140 -27
193 0 47 24 45 24 45 5 0 -12 14 -15 70 -15 l70 0 0 39 c0 36 -3 40 -27 43
l-28 3 -5 120 c-3 81 -10 127 -19 142 -34 51 -143 83 -216 64z m149 -251 c18
-18 -12 -60 -60 -82 -72 -31 -144 -13 -144 37 0 22 21 47 50 59 22 8 142 -2
154 -14z"/>
<path d="M2354 880 c-18 -4 -46 -17 -63 -29 -31 -22 -31 -22 -31 -2 0 19 -6
21 -65 21 l-65 0 0 -40 c0 -36 3 -40 25 -40 l25 0 0 -120 0 -120 -30 0 c-28 0
-30 -2 -30 -40 l0 -40 105 0 105 0 0 40 c0 38 -2 40 -30 40 l-30 0 0 91 c0 90
0 91 34 125 29 29 41 34 83 34 77 0 88 -18 88 -144 l0 -101 -32 -3 c-31 -3
-33 -6 -33 -43 l0 -39 105 0 105 0 0 40 c0 38 -2 40 -30 40 l-30 0 0 113 c0
137 -13 171 -80 205 -46 23 -72 25 -126 12z"/>
<path d="M3440 874 c-19 -8 -45 -25 -57 -36 l-23 -21 0 26 0 27 -81 0 -80 0 3
-37 c3 -35 6 -38 36 -41 l32 -3 0 -120 0 -119 -45 0 -45 0 0 -40 0 -40 160 0
160 0 0 40 0 40 -70 0 -70 0 0 78 c0 115 44 173 131 176 31 0 44 -5 58 -22 15
-21 22 -22 52 -15 43 12 47 32 14 71 -41 49 -112 63 -175 36z"/>
<path d="M3860 881 c-113 -37 -166 -115 -158 -231 6 -78 42 -131 114 -166 48
-24 63 -26 132 -22 58 3 90 11 122 29 53 29 56 38 30 72 l-21 26 -46 -24 c-54
-29 -137 -34 -183 -10 -25 13 -60 60 -60 80 0 3 79 5 175 5 l176 0 -6 38 c-17
98 -49 148 -117 183 -44 23 -121 32 -158 20z m141 -107 c16 -15 29 -36 29 -46
0 -16 -11 -18 -120 -18 -67 0 -120 4 -120 9 0 15 52 72 74 82 39 16 105 4 137
-27z"/>
<path d="M4385 881 c-113 -29 -172 -112 -163 -231 6 -78 42 -131 114 -166 48
-24 63 -26 132 -22 74 4 126 22 164 55 15 14 15 17 -9 43 l-25 28 -45 -24
c-54 -28 -138 -32 -183 -9 -25 13 -60 60 -60 80 0 3 76 5 169 5 94 0 172 4
175 9 10 16 -14 109 -37 143 -49 72 -149 111 -232 89z m143 -115 c18 -20 30
-41 27 -46 -7 -12 -245 -14 -245 -2 0 4 7 18 16 31 51 72 144 80 202 17z"/>
<path d="M1650 830 l0 -40 65 0 65 0 0 -120 0 -120 -85 0 -85 0 0 -40 0 -40
205 0 205 0 0 40 0 39 -77 3 -78 3 -3 158 -3 157 -104 0 -105 0 0 -40z"/>
<path d="M2536 228 c-9 -62 -20 -123 -23 -135 -5 -21 -1 -23 31 -23 37 0 39 3
48 65 2 15 12 21 38 23 80 6 120 44 120 115 0 54 -23 67 -116 67 l-80 0 -18
-112z m138 40 c13 -22 -8 -46 -44 -50 -22 -3 -25 0 -21 27 1 17 5 34 8 38 8
13 45 3 57 -15z"/>
<path d="M3246 233 c-9 -60 -19 -120 -22 -135 -5 -26 -3 -28 29 -28 32 0 35 2
43 43 9 41 10 42 58 48 64 7 106 50 106 108 0 58 -21 71 -117 71 l-80 0 -17
-107z m132 25 c3 -22 -2 -30 -23 -38 -33 -13 -44 -6 -38 23 10 44 13 48 35 45
17 -2 24 -11 26 -30z"/>
<path d="M3726 328 c-7 -22 -36 -216 -36 -238 0 -15 6 -20 24 -20 14 0 27 4
30 9 3 4 12 53 21 107 8 55 18 111 21 127 5 25 3 27 -26 27 -17 0 -32 -6 -34
-12z"/>
<path d="M2800 243 c-58 -30 -79 -107 -42 -153 19 -23 24 -24 132 -18 l55 3
12 70 c19 109 19 106 -29 104 -24 -1 -54 1 -68 5 -16 4 -37 0 -60 -11z m94
-60 c8 -19 -9 -50 -35 -64 -18 -9 -25 -7 -41 9 -24 24 -17 55 15 69 27 12 54
6 61 -14z"/>
<path d="M3513 246 c-89 -40 -86 -181 4 -178 15 1 51 2 80 2 57 0 57 0 68 80
3 25 8 58 11 73 6 27 5 28 -38 26 -23 -1 -54 1 -68 4 -14 4 -39 1 -57 -7z m88
-67 c8 -15 5 -24 -15 -44 -29 -29 -39 -31 -60 -9 -19 19 -20 35 -3 56 24 31
60 30 78 -3z"/>
<path d="M2285 165 c-26 -47 -44 -89 -40 -93 4 -4 14 3 22 16 21 30 89 32 98
2 8 -25 25 -26 24 -2 -2 40 -35 156 -46 159 -6 2 -32 -35 -58 -82z m64 -12 c1
-18 -5 -23 -24 -23 -30 0 -30 0 -8 45 15 30 18 33 24 18 4 -10 8 -28 8 -40z"/>
<path d="M3000 237 c0 -8 9 -40 20 -72 25 -73 25 -80 -1 -117 -15 -21 -18 -33
-11 -40 24 -24 58 4 130 107 92 133 93 135 53 135 -25 0 -37 -8 -62 -42 -17
-24 -33 -42 -37 -41 -4 1 -12 19 -18 40 -9 33 -15 38 -42 41 -22 2 -32 -1 -32
-11z"/>
<path d="M3916 231 c-25 -28 -17 -53 27 -76 27 -14 37 -26 35 -40 -2 -16 -11
-20 -45 -20 -51 0 -64 -11 -30 -26 34 -15 73 -4 93 26 21 32 11 58 -32 78 -49
24 -43 52 9 51 48 -2 44 20 -4 24 -25 2 -40 -3 -53 -17z"/>
<path d="M4387 243 c-12 -11 -8 -23 8 -23 8 0 15 7 15 15 0 16 -12 20 -23 8z"/>
<path d="M4053 185 c-26 -18 -38 -67 -24 -93 6 -11 22 -23 36 -26 27 -7 65 8
65 25 0 6 -7 6 -20 -1 -14 -8 -26 -8 -40 0 -36 19 -23 35 27 35 41 0 48 3 51
21 7 46 -52 69 -95 39z m66 -18 c14 -18 4 -27 -29 -27 -33 0 -43 9 -29 27 15
17 43 17 58 0z"/>
<path d="M4175 190 c-2 -3 -6 -31 -10 -62 -9 -71 10 -81 21 -12 5 35 12 48 30
56 13 6 24 14 24 18 0 8 -60 8 -65 0z"/>
<path d="M4254 168 c4 -18 10 -48 13 -65 3 -18 11 -33 19 -33 13 0 74 98 74
119 0 24 -17 9 -39 -36 -25 -51 -31 -49 -45 20 -4 15 -11 27 -17 27 -8 0 -9
-11 -5 -32z"/>
<path d="M4375 163 c-4 -21 -9 -50 -11 -65 -4 -21 -2 -28 10 -28 9 0 16 8 16
19 0 10 3 39 6 65 8 56 -12 65 -21 9z"/>
<path d="M4435 176 c-14 -14 -25 -37 -25 -51 0 -34 36 -69 63 -61 12 3 25 6
30 6 4 0 7 6 7 13 0 7 -13 12 -32 12 -30 0 -33 3 -36 32 -3 35 22 57 58 51 10
-2 20 2 22 7 2 6 -12 11 -29 13 -24 2 -39 -3 -58 -22z"/>
<path d="M4551 174 c-26 -34 -27 -68 -1 -94 22 -22 42 -25 71 -10 28 16 24 31
-5 20 -19 -7 -30 -5 -48 10 -25 21 -22 23 38 20 49 -2 63 19 39 56 -22 33 -67
32 -94 -2z m77 -16 c3 -15 -4 -18 -32 -18 -38 0 -44 8 -24 28 17 17 52 11 56
-10z"/>
</g>
</svg>
