<svg height="424pt" viewBox="0 -26 424.005 424" width="424pt" xmlns="http://www.w3.org/2000/svg"><path d="m47.21875 358.011719h202.78125v6.910156.050781c0 .140625.011719.277344.019531.414063.007813.101562.007813.195312.019531.292969.011719.09375.03125.203124.046876.308593.019531.125.035156.253907.0625.375.003906.035157.015624.070313.027343.105469.128907.574219.328125 1.128906.597657 1.648438.210937.410156.457031.792968.742187 1.152343.03125.035157.054687.074219.085937.109375.078126.101563.164063.183594.25.277344.082032.089844.140626.160156.214844.234375.078125.078125.144532.128906.214844.195313.101562.09375.199219.1875.3125.273437.011719.011719.023438.023437.039062.035156.011719.011719.042969.027344.0625.042969.292969.230469.605469.4375.929688.617188l.023438.015624c.3125.167969.640624.3125.972656.429688.058594.023438.113281.042969.167968.0625.316407.105469.640626.1875.972657.246094.070312.011718.140625.019531.210937.03125.332032.050781.664063.078125 1 .082031h160.039063c.34375-.003906.691406-.03125 1.035156-.085937.0625-.011719.128906-.019532.199219-.03125.335937-.058594.664062-.144532.988281-.25.054687-.019532.109375-.042969.167969-.0625.335937-.121094.660156-.265626.972656-.4375.023438-.011719.039062-.023438.0625-.035157.328125-.183593.640625-.398437.933594-.632812.015625-.007813.027344-.015625.039062-.027344l.019532-.015625c.132812-.109375.257812-.222656.382812-.339844.042969-.046875.097656-.085937.140625-.128906.058594-.0625.113281-.125.167969-.1875.214844-.230469.414062-.472656.59375-.726562.03125-.042969.066406-.085938.101562-.128907.078125-.121093.148438-.246093.222656-.371093.042969-.074219.089844-.144532.128907-.21875.054687-.101563.101562-.207032.152343-.3125.046876-.101563.097657-.199219.144532-.308594.03125-.078125.058594-.160156.089844-.242188.050781-.132812.097656-.265625.144531-.40625.015625-.050781.027343-.097656.039062-.152344.09375-.339843.164063-.679687.207031-1.027343.007813-.046875.019532-.09375.023438-.140625.007812-.070313.007812-.140625.011719-.207032.011719-.164062.023437-.332031.023437-.5v-107.84375c0-.039062 0-.078124-.003906-.113281 0-.132812-.011719-.261719-.019531-.390625-.007813-.097656-.015625-.207031-.027344-.308594-.011719-.121093-.035156-.242187-.054687-.363281-.019532-.121093-.035157-.214843-.058594-.320312-.023438-.105469-.054688-.226563-.085938-.339844-.03125-.109375-.058594-.214844-.089844-.320313-.035156-.105468-.078124-.214843-.121093-.324218-.039063-.109375-.078125-.210938-.121094-.316406-.046875-.101563-.101563-.199219-.148437-.304688-.046876-.109375-.097657-.207031-.15625-.304688-.058594-.101562-.113282-.191406-.171876-.285156-.058593-.089844-.128906-.203125-.199218-.304687-.074219-.097657-.125-.167969-.1875-.25-.078125-.101563-.160156-.199219-.242188-.300781-.023437-.03125-.046875-.0625-.074218-.089844-.042969-.050782-.09375-.097656-.136719-.144532-.085938-.089843-.171875-.179687-.261719-.265624-.085938-.085938-.167969-.15625-.253906-.230469-.085938-.074219-.167969-.144531-.253906-.210938-.089844-.070312-.195313-.152343-.292969-.222656-.097657-.066406-.171875-.117187-.261719-.175781-.089844-.054688-.207031-.128906-.308594-.1875-.105468-.0625-.191406-.101563-.285156-.152344-.09375-.054688-.207031-.101562-.3125-.152344-.105469-.050781-.210938-.089844-.316406-.132812-.109375-.042969-.203125-.078125-.308594-.113282-.105469-.035156-.226562-.074218-.34375-.105468-.117188-.035156-.207031-.054688-.3125-.082032-.101562-.023437-.230469-.050781-.347656-.070312-.117188-.019531-.222656-.039062-.339844-.050781-.113281-.015625-.21875-.027344-.332031-.039063-.113281-.007812-.253907-.015625-.378907-.015625-.066406 0-.128906-.011719-.195312-.011719h-43v-108.140624c-.03125-26.066407-21.160156-47.191407-47.230469-47.21875h-2.097656v-1.191407c-.023437-26.070312-21.148437-47.199219-47.222656-47.230469h-75.488281c-.859376 0-1.675782-.359374-2.253907-.996093l-27.390625-29.953125c-8.953125-9.78125-21.597656-15.355469-34.855468-15.36718775h-90.242188c-26.0625.02734375-47.1875 21.14843775-47.21875 47.21484375v263.570312c.0273438 26.066407 21.152344 47.195313 47.21875 47.222657zm362.78125-12.84375-34.234375-42.246094 34.234375-30.28125zm-77.738281-11.976563c2.644531 2.347656 6.628906 2.351563 9.28125.007813l23.726562-20.992188 37.046875 45.714844h-130.777344l36.71875-46.011719zm30.472656-37.433594c-.410156.214844-.800781.472657-1.164063.765626-.515624.417968-.96875.910156-1.34375 1.457031l-23.316406 20.625-61.464844-54.5h123.078126zm-64.964844 6.851563-33.769531 42.316406v-72.261719zm29-193.867187c18.339844.019531 33.207031 14.878906 33.230469 33.21875v108.140624h-103c-.0625 0-.121094.007813-.179688.007813-.132812 0-.269531.011719-.402343.019531-.105469.011719-.207031.023438-.3125.035156-.117188.015626-.238281.035157-.359375.054688-.117188.023438-.21875.042969-.324219.066406-.109375.027344-.226563.054688-.335937.089844-.113282.03125-.214844.0625-.320313.097656-.105469.039063-.21875.078125-.328125.121094s-.203125.082031-.300781.125c-.113281.050781-.222657.101562-.332031.160156-.089844.046875-.183594.09375-.269532.144532-.109375.0625-.21875.128906-.324218.199218-.085938.054688-.167969.113282-.253907.171875-.097656.070313-.199219.144531-.292969.21875-.09375.078125-.171874.140625-.257812.214844-.082031.074219-.167969.148437-.25.226563-.078125.078124-.179688.183593-.265625.273437-.042969.046875-.089844.089844-.132813.136719-.027343.027344-.046874.058594-.070312.085937-.089844.101563-.171875.207031-.253906.316407-.058594.078124-.121094.15625-.175782.238281-.074218.097656-.140624.210937-.199218.316406-.058594.089844-.117188.179687-.164063.269531-.050781.09375-.113281.210938-.164062.316406-.054688.105469-.101563.199219-.144531.300782-.042969.101562-.085938.210937-.125.320312-.039063.109375-.082032.210938-.117188.320313-.035156.105469-.0625.210937-.089844.320312-.03125.109375-.066406.226563-.089844.339844-.023437.117187-.039062.210937-.058593.316406-.019531.121094-.039063.246094-.054688.367188-.011719.101562-.019531.203125-.027343.300781-.007813.132812-.015626.265625-.015626.402344 0 .035156-.007812.074218-.007812.113281v86.910156h-165.023438c8.78125-8.824219 13.707032-20.769531 13.703126-33.21875v-168.839843c.019531-18.335938 14.878906-33.199219 33.21875-33.21875zm-312.769531-61.523438c.019531-18.339844 14.882812-33.199219 33.21875-33.21875h90.242188c9.328124.007812 18.226562 3.933594 24.523437 10.820312l27.375 29.941407c3.234375 3.542969 7.804687 5.558593 12.601563 5.558593h75.488281c18.34375.019532 33.203125 14.886719 33.222656 33.226563v1.191406h-178.773437c-26.066407.03125-47.1875 21.152344-47.21875 47.21875v168.832031c-.023438 18.339844-14.886719 33.203126-33.230469 33.21875h-4.230469c-18.335938-.019531-33.199219-14.882812-33.21875-33.21875zm0 0"/></svg>