<svg xmlns="http://www.w3.org/2000/svg" xmlns:xlink="http://www.w3.org/1999/xlink" viewBox="0 0 795.62 832.32">
  <defs>
    <style>
      .cls-1 {
        fill: none;
      }

      .cls-2 {
        clip-path: url(#clip-path);
      }

      .cls-3 {
        fill: #454c5f;
      }

      .cls-4 {
        clip-path: url(#clip-path-2);
      }
    </style>
    <clipPath id="clip-path" transform="translate(-114.21 -95.09)">
      <rect class="cls-1" x="133.55" y="272.74" width="776.27" height="478.51"/>
    </clipPath>
    <clipPath id="clip-path-2" transform="translate(-114.21 -95.09)">
      <rect class="cls-1" x="133.55" y="272.74" width="1679.91" height="478.51"/>
    </clipPath>
  </defs>
  <title>MariaDB</title>
  <g id="Layer_1" data-name="Layer 1">
    <rect class="cls-1" width="795.62" height="832.32"/>
  </g>
  <g id="MariaDB">
    <g id="g876">
      <g class="cls-2">
        <path id="path8" class="cls-3" d="M793.71,317.2c-16.43.4-26.13,7.2-29.32,20.2a22.94,22.94,0,0,0,15.53,4.77c12.42-.51,24.73-9.5,21.25-24.74a71,71,0,0,0-7.46-.23" transform="translate(-114.21 -95.09)"/>
      </g>
      <g class="cls-4">
        <path id="path30" class="cls-3" d="M878.35,272.74h-1.47c-11.72.36-13.53,6.4-38.84,12.33-25.57,6-50.26.23-77.79,11.21-82.18,32.77-99.69,145.8-174.4,185.91C530,512.18,476,525.48,425.36,540.56c-33.29,9.92-66.29,21.33-96.46,46-23.41,19.19-29.77,34.09-54.23,58.16C249.79,669.22,173.25,625.9,136,657.6a6.76,6.76,0,0,0,.12,10.45c8.09,6.72,23.45,22.72,38.07,27.66-4.64,8.35-30.84,32.93-25.5,45.22,5.63,12.92,70.58,4.14,130.63-30.32,28-16.05,50.24-39.19,93.81-44.7,56.36-7.14,121.29,4.58,186.55,13.52-9.68,27.42-29.1,45.67-44.67,67.5-4.82,4.94,9.68,5.49,26.22,2.51,29.75-7,51.19-12.63,73.64-25,27.59-15.27,31.77-54.41,65.62-62.87,16.36,23.9,57.14,32,88.44,19.27,1.73-.71,3.44-1.48,5.1-2.3,3.79-3.13,1.57-6.78-.75-9.47-1.16-1-2.13-2-3.18-3-17.66-18-21.7-60.63-13.86-81.34,8.93-23.57,17.75-61.28,26.74-92.42,9.66-33.46,13.22-75.63,24.91-92.67,17.57-25.64,37-34.44,53.86-48.9S894,322.13,893.5,289c-.16-10.17-5.43-16.05-15.15-16.3m1.79,34.74c-3.48,22.82-18.89,35.44-36.93,47.47-15.89,10.59-33.31,20.8-44.5,37.35-11.46,16.95-18.74,75-36.51,132.28-14.75,47.55-36.74,94.59-74.34,117.25a4.12,4.12,0,0,1-6.18-2.58c-2.53-13.29-2.1-37.63-6.44-29.71a307.59,307.59,0,0,1-18.81,42c-22.13,40.19-54.13,71-105.85,83-4.17,1-7.36-3.53-4.85-6.84,23.86-31.45,45.21-65.3,47.82-116.94.22-4.46-5.67-6.5-8.63-3C573.65,620.9,571,652.31,554.4,662a245.61,245.61,0,0,1-39.24.58C461,659.47,405.41,644,354.74,659.45,320.23,670,284,699.91,254.78,712c-34.34,14.15-50.61,27.51-94,26.6-4.43-5.68,18.11-30.24,25.76-40.83,2.44-3.4-2.78-7-7.67-9.11-11.75-5.12-23.54-19-36.06-24.45,1.61-2.81,7.3-5.62,10.42-7.35,28.46-15.69,103.88,17.73,124.15-1.19a212.35,212.35,0,0,0,29.43-33.79c8.25-11.52,20.79-23.68,33.77-33.77,4.8-3.73,11.51-8.37,17-12,22.13-14.39,34.3-15.46,62.95-25.57,36.45-12.89,81.58-24.19,120.68-38.39,24.16-8.79,50.43-19.62,71.84-34.79a141.86,141.86,0,0,0,14.35-11.56c61.13-56.66,73.26-156.6,168.65-165.91,11.54-1.13,19.74-1.6,28.34-1.86a74.22,74.22,0,0,0,28.64-6.83c2.94-1.22,20.41-11.25,26.31-6.41,3.93,3.24,1,20.8.75,22.7" transform="translate(-114.21 -95.09)"/>
      </g>
    </g>
  </g>
</svg>
