<svg xmlns="http://www.w3.org/2000/svg" viewBox="0 0 795.62 832.32">
  <defs>
    <style>
      .cls-1, .cls-4, .cls-5, .cls-8 {
        fill: none;
      }

      .cls-2 {
        fill: #010101;
        stroke: #010101;
        stroke-width: 37.4px;
      }

      .cls-3 {
        fill: #356892;
      }

      .cls-4, .cls-5, .cls-6, .cls-7, .cls-8 {
        stroke: #fff;
      }

      .cls-4, .cls-5, .cls-8 {
        stroke-linecap: round;
      }

      .cls-4, .cls-8 {
        stroke-linejoin: round;
      }

      .cls-4, .cls-5 {
        stroke-width: 12.47px;
      }

      .cls-5 {
        stroke-linejoin: bevel;
      }

      .cls-6, .cls-7 {
        fill: #fff;
      }

      .cls-6 {
        stroke-width: 4.16px;
      }

      .cls-7 {
        stroke-width: 2.08px;
      }

      .cls-8 {
        stroke-width: 3px;
      }
    </style>
  </defs>
  <title>Postgres</title>
  <g id="Layer_1" data-name="Layer 1">
    <rect class="cls-1" width="795.62" height="832.32"/>
  </g>
  <g id="Postgres">
    <g id="Layer_3">
      <path class="cls-2" d="M715.09,702c5.32-44.26,3.72-50.76,36.69-43.58l8.38.73c25.35,1.15,58.51-4.08,78-13.13,41.94-19.46,66.81-51.95,25.45-43.42-94.33,19.47-100.82-12.48-100.82-12.48C862.41,442.35,904.05,254.73,868.1,208.8c-98-125.27-267.74-66-270.58-64.49l-.9.16a335.37,335.37,0,0,0-62.94-6.55C491,137.21,458.6,149.11,434,167.75c0,0-302.74-124.73-288.66,156.85,3,59.9,85.86,453.26,184.7,334.45,36.12-43.45,71-80.18,71-80.18A91.67,91.67,0,0,0,461,594.15l1.68-1.44a65.4,65.4,0,0,0,.67,16.92c-25.46,28.45-18,33.44-68.88,43.92-51.5,10.62-21.24,29.51-1.49,34.45,23.95,6,79.35,14.47,116.79-37.93l-1.49,6c10,8,9.31,57.43,10.73,92.75s3.78,68.29,11,87.73,15.7,69.49,82.6,55.15c55.91-12,98.66-29.22,102.55-189.64" transform="translate(-114.21 -95.09)"/>
      <path class="cls-3" d="M863.62,602.64c-94.34,19.46-100.83-12.48-100.83-12.48,99.62-147.82,141.26-335.45,105.32-381.37-98-125.26-267.75-66-270.58-64.48l-.91.16a336.18,336.18,0,0,0-63-6.56C491,137.21,458.6,149.1,434,167.74c0,0-302.75-124.72-288.67,156.86,3,59.9,85.86,453.26,184.7,334.45,36.12-43.45,71-80.18,71-80.18a91.66,91.66,0,0,0,59.85,15.28l1.69-1.44a65.85,65.85,0,0,0,.67,16.92c-25.46,28.45-18,33.44-68.88,43.92-51.5,10.62-21.24,29.51-1.49,34.45,23.95,6,79.35,14.47,116.79-37.93l-1.49,6c10,8,17,52,15.81,91.85s-2,67.25,5.9,88.63,15.69,69.49,82.6,55.15c55.92-12,84.89-43,88.92-94.82,2.86-36.82,9.33-31.38,9.74-64.3L716.38,717c6-49.92,1-66,35.4-58.53l8.37.74c25.36,1.15,58.54-4.08,78-13.13,41.94-19.46,66.81-52,25.46-43.42Z" transform="translate(-114.21 -95.09)"/>
      <path class="cls-4" d="M513.76,631.25c-2.6,92.88.65,186.4,9.74,209.13S552.05,907.31,619,893c55.91-12,76.25-35.18,85.08-86.38,6.5-37.66,19-142.27,20.64-163.7" transform="translate(-114.21 -95.09)"/>
      <path class="cls-4" d="M433.56,165.66S130.6,41.84,144.68,323.42c3,59.91,85.87,453.28,184.7,334.46,36.12-43.45,68.79-77.53,68.79-77.53" transform="translate(-114.21 -95.09)"/>
      <path class="cls-4" d="M597.2,143.06c-10.49,3.29,168.52-65.44,270.25,64.56,35.94,45.92-5.71,233.55-105.32,381.37" transform="translate(-114.21 -95.09)"/>
      <path class="cls-5" d="M762.13,589s6.49,32,100.84,12.48c41.34-8.54,16.46,24-25.47,43.43-34.41,16-111.55,20.06-112.81-2-3.24-56.94,40.6-39.64,37.44-53.91-2.86-12.85-22.47-25.46-35.44-56.9-11.32-27.45-155.3-237.93,39.93-206.67,7.15-1.48-50.92-185.69-233.62-188.68S356.33,361.37,356.33,361.37" transform="translate(-114.21 -95.09)"/>
      <path class="cls-4" d="M462.63,608.46c-25.47,28.45-18,33.44-68.88,43.92-51.5,10.62-21.25,29.51-1.5,34.45,23.95,6,79.36,14.48,116.79-37.94,11.4-16-.07-41.43-15.72-47.92-7.57-3.13-17.69-7.06-30.69,7.49Z" transform="translate(-114.21 -95.09)"/>
      <path class="cls-4" d="M461,608c-2.57-16.73,5.5-36.63,14.14-59.92,13-34.93,42.93-69.87,19-180.69-17.86-82.59-137.66-17.19-137.74-6s5.42,56.75-2,109.81C344.65,540.42,398.39,599,460.26,593" transform="translate(-114.21 -95.09)"/>
      <path class="cls-6" d="M432.45,359.69c-.54,3.82,7,14,16.84,15.39s18.22-6.6,18.75-10.43-7-8-16.83-9.4-18.23.62-18.75,4.44Z" transform="translate(-114.21 -95.09)"/>
      <path class="cls-7" d="M731.48,351.89c.53,3.83-7,14-16.84,15.39s-18.23-6.6-18.76-10.42,7-8,16.84-9.41,18.22.63,18.76,4.44Z" transform="translate(-114.21 -95.09)"/>
      <path class="cls-4" d="M766.62,325.42c1.62,30-6.46,50.44-7.48,82.37-1.51,46.42,22.13,99.55-13.49,152.74" transform="translate(-114.21 -95.09)"/>
      <path class="cls-8" d="M108.87,206.88" transform="translate(-114.21 -95.09)"/>
    </g>
  </g>
</svg>
