<svg height="496pt" viewBox="0 0 496 496" width="496pt" xmlns="http://www.w3.org/2000/svg"><path d="m488 112c4.414062 0 8-3.585938 8-8v-80c0-4.414062-3.585938-8-8-8h-84.6875l-13.65625-13.65625c-1.496094-1.503906-3.535156-2.34375-5.65625-2.34375h-56c-4.414062 0-8 3.585938-8 8v96c0 4.414062 3.585938 8 8 8h104v17.472656c-6.777344 2.414063-12.113281 7.75-14.527344 14.527344h-161.472656v-16c0-4.414062-3.585938-8-8-8h-240c-4.414062 0-8 3.585938-8 8v240c0 4.425781 3.585938 8 8 8h240c4.414062 0 8-3.574219 8-8v-16h161.472656c2.414063 6.777344 7.75 12.113281 14.527344 14.527344v33.472656h-28.6875l-13.65625-13.65625c-1.496094-1.503906-3.535156-2.34375-5.65625-2.34375h-56c-4.414062 0-8 3.574219-8 8v96c0 4.425781 3.585938 8 8 8h160c4.414062 0 8-3.574219 8-8v-80c0-4.425781-3.585938-8-8-8h-40v-33.472656c9.289062-3.3125 16-12.113282 16-22.527344s-6.710938-19.214844-16-22.527344v-17.472656h40c4.414062 0 8-3.574219 8-8v-80c0-4.414062-3.585938-8-8-8h-40v-33.472656c9.289062-3.3125 16-12.113282 16-22.527344s-6.710938-19.214844-16-22.527344v-17.472656zm-8 368h-144v-80h44.6875l13.65625 13.65625c1.496094 1.503906 3.535156 2.34375 5.65625 2.34375h80zm-240-200h-224v-64h224zm0-144v64h-224v-64zm-224 224v-64h224v64zm424-8c-4.40625 0-8-3.585938-8-8s3.59375-8 8-8 8 3.585938 8 8-3.59375 8-8 8zm40-64h-144v-80h44.6875l13.65625 13.65625c1.496094 1.503906 3.535156 2.34375 5.65625 2.34375h80zm-76.6875-80-13.65625-13.65625c-1.496094-1.503906-3.535156-2.34375-5.65625-2.34375h-56c-4.414062 0-8 3.585938-8 8v96c0 4.425781 3.585938 8 8 8h104v17.472656c-6.777344 2.414063-12.113281 7.75-14.527344 14.527344h-161.472656v-176h161.472656c2.414063 6.777344 7.75 12.113281 14.527344 14.527344v33.472656zm36.6875-48c-4.40625 0-8-3.59375-8-8s3.59375-8 8-8 8 3.59375 8 8-3.59375 8-8 8zm-104-144h44.6875l13.65625 13.65625c1.496094 1.503906 3.535156 2.34375 5.65625 2.34375h80v64h-144zm0 0"/><path d="m352 64h16v16h-16zm0 0"/><path d="m384 64h16v16h-16zm0 0"/><path d="m416 64h16v16h-16zm0 0"/><path d="m352 448h16v16h-16zm0 0"/><path d="m384 448h16v16h-16zm0 0"/><path d="m416 448h16v16h-16zm0 0"/><path d="m352 256h16v16h-16zm0 0"/><path d="m384 256h16v16h-16zm0 0"/><path d="m416 256h16v16h-16zm0 0"/><path d="m32 240h16v16h-16zm0 0"/><path d="m64 240h160v16h-160zm0 0"/><path d="m32 320h16v16h-16zm0 0"/><path d="m64 320h160v16h-160zm0 0"/><path d="m32 160h16v16h-16zm0 0"/><path d="m64 160h160v16h-160zm0 0"/></svg>