<svg xmlns="http://www.w3.org/2000/svg" version="1.1" xmlns:xlink="http://www.w3.org/1999/xlink" width="512" height="512" x="0" y="0" viewBox="0 0 64 64" style="enable-background:new 0 0 512 512" xml:space="preserve" class=""><g><path d="M52.77 9.37H48.9V5.51c0-2.99-2.44-5.43-5.43-5.43H13.22c-2.99 0-5.43 2.44-5.43 5.43v43.51c0 2.99 2.44 5.43 5.43 5.43h3.87v3.87c0 2.99 2.44 5.43 5.43 5.43h30.25c2.99 0 5.43-2.44 5.43-5.43V14.8c0-2.99-2.43-5.43-5.43-5.43zM10.66 49.01V5.51a2.57 2.57 0 0 1 2.57-2.57h30.25a2.57 2.57 0 0 1 2.57 2.57v43.51a2.57 2.57 0 0 1-2.57 2.57H13.22a2.582 2.582 0 0 1-2.56-2.58zm44.68 9.3a2.57 2.57 0 0 1-2.57 2.57H22.52a2.57 2.57 0 0 1-2.57-2.57v-3.87h23.52c2.99 0 5.43-2.44 5.43-5.43V12.23h3.87a2.57 2.57 0 0 1 2.57 2.57z" fill="#000000" opacity="1" data-original="#000000" class=""></path></g></svg>