<?xml version="1.0" standalone="no"?>
<!DOCTYPE svg PUBLIC "-//W3C//DTD SVG 20010904//EN"
 "http://www.w3.org/TR/2001/REC-SVG-20010904/DTD/svg10.dtd">
<svg version="1.0" xmlns="http://www.w3.org/2000/svg"
 width="512.000000pt" height="512.000000pt" viewBox="0 0 512.000000 512.000000"
 preserveAspectRatio="xMidYMid meet">

<g transform="translate(0.000000,512.000000) scale(0.100000,-0.100000)"
fill="#000000" stroke="none">
<path d="M1465 5110 c-289 -22 -566 -69 -793 -134 -342 -99 -560 -237 -641
-406 l-26 -55 -3 -1595 c-3 -1786 -8 -1649 72 -1758 201 -273 841 -459 1641
-478 l219 -5 19 -32 c32 -52 217 -228 261 -248 66 -30 105 -24 246 36 71 30
132 55 135 55 3 0 43 -18 88 -39 45 -22 119 -52 164 -67 l82 -29 52 -133 c42
-106 60 -140 90 -167 49 -44 82 -50 274 -50 233 0 247 10 333 224 l49 123 99
37 c54 21 129 53 166 71 l66 33 135 -56 c149 -63 187 -68 252 -37 52 25 260
235 280 283 25 61 19 101 -42 244 l-56 134 37 77 c20 42 52 117 69 166 l32 88
124 50 c147 58 174 76 203 131 20 38 22 58 22 202 1 201 -4 226 -57 278 -34
33 -69 52 -169 91 l-125 48 -28 82 c-15 44 -46 118 -68 163 l-40 82 21 53 c11
29 37 91 56 138 41 99 44 137 14 198 -26 54 -220 251 -270 275 -64 30 -118 22
-259 -37 l-129 -55 -93 44 c-50 24 -124 54 -164 67 l-72 23 -52 128 c-29 71
-63 142 -75 157 l-24 28 0 481 c0 463 -1 482 -21 536 -25 66 -114 167 -199
225 -230 156 -644 273 -1130 320 -155 15 -616 21 -765 10z m627 -170 c575 -39
1038 -170 1231 -349 66 -61 87 -100 87 -159 0 -177 -382 -366 -911 -452 -376
-60 -893 -68 -1279 -19 -407 52 -745 158 -923 290 -57 42 -112 112 -123 156
-25 96 76 208 271 303 368 178 1034 271 1647 230z m-1706 -936 c349 -159 835
-244 1394 -245 370 0 640 26 945 92 251 55 495 149 633 242 l52 36 0 -275 0
-274 -116 0 c-204 0 -231 -19 -314 -219 l-55 -133 -90 -33 c-49 -17 -123 -48
-163 -69 l-72 -36 -130 55 c-147 63 -209 71 -268 35 -45 -28 -194 -172 -239
-233 l-38 -50 -225 6 c-662 17 -1217 154 -1441 355 -90 81 -89 75 -89 500 l0
372 70 -46 c39 -25 105 -61 146 -80z m3146 -743 c31 -79 65 -152 74 -162 9
-10 60 -32 113 -48 53 -17 146 -55 206 -86 60 -30 117 -55 128 -55 10 0 81 27
159 60 77 33 144 60 150 60 15 0 111 -86 163 -147 l47 -54 -61 -142 c-34 -78
-61 -154 -61 -169 0 -15 22 -72 50 -126 27 -54 65 -144 83 -201 19 -56 42
-111 53 -121 10 -10 83 -44 160 -75 162 -64 154 -54 154 -199 0 -157 10 -143
-162 -211 -94 -37 -155 -67 -163 -80 -7 -11 -30 -69 -50 -130 -20 -60 -56
-148 -81 -194 -24 -46 -44 -97 -44 -113 0 -16 27 -92 60 -169 43 -102 57 -145
51 -157 -10 -19 -185 -192 -194 -192 -3 0 -68 27 -145 60 -78 33 -154 60 -170
60 -16 0 -71 -22 -123 -49 -52 -27 -143 -66 -203 -85 -60 -20 -114 -40 -121
-46 -6 -5 -38 -77 -71 -159 -67 -171 -54 -161 -204 -161 -152 0 -140 -9 -205
154 -31 77 -65 150 -75 160 -10 11 -64 34 -119 52 -55 18 -146 56 -201 83 -55
28 -113 51 -128 51 -15 0 -91 -27 -169 -61 l-142 -61 -54 47 c-61 52 -147 148
-147 163 0 6 27 73 60 150 33 78 60 149 60 159 0 11 -24 66 -53 124 -29 57
-68 150 -85 205 -18 56 -41 109 -51 118 -10 9 -83 43 -162 74 l-144 58 -3 141
c-2 104 1 143 10 150 7 5 72 33 144 62 72 28 140 58 152 66 13 10 31 49 51
113 16 53 55 148 86 210 30 62 55 121 55 131 0 9 -27 82 -61 161 -54 128 -59
146 -48 167 17 32 175 183 191 183 7 0 76 -27 153 -60 77 -33 148 -60 158 -60
9 0 63 23 118 51 56 28 149 66 208 85 58 20 113 44 122 54 9 11 40 79 69 152
29 73 58 139 63 146 7 9 46 12 150 10 l141 -3 58 -144z m-3232 -236 c188 -107
481 -195 810 -244 200 -30 350 -42 606 -49 l228 -7 43 -102 43 -103 -36 -72
c-21 -40 -52 -113 -69 -163 l-33 -90 -103 -42 c-57 -23 -123 -52 -147 -64 -52
-27 -89 -85 -99 -154 l-6 -48 -101 6 c-475 28 -988 176 -1170 339 -98 87 -96
74 -96 506 l0 373 33 -25 c17 -13 61 -41 97 -61z m69 -1059 c255 -128 640
-217 1056 -244 l110 -7 7 -57 c14 -115 46 -145 225 -217 l129 -51 22 -73 c12
-39 43 -114 67 -165 l44 -92 -42 -99 -42 -100 -58 -6 c-118 -14 -563 15 -787
51 -381 61 -675 166 -831 296 -101 83 -99 74 -99 511 l0 376 63 -43 c34 -24
95 -60 136 -80z"/>
<path d="M372 3630 c-30 -28 -38 -68 -21 -99 18 -33 112 -80 160 -81 58 0 97
55 77 111 -9 25 -24 37 -74 60 -75 34 -112 36 -142 9z"/>
<path d="M795 3485 c-25 -24 -32 -65 -19 -100 9 -22 48 -41 116 -54 48 -10 61
-10 86 3 33 17 42 34 42 80 0 44 -32 71 -98 85 -78 16 -100 14 -127 -14z"/>
<path d="M3142 2886 c-356 -68 -641 -279 -802 -592 -161 -315 -159 -701 7
-1015 282 -537 937 -748 1478 -477 275 137 485 392 569 690 169 595 -186 1213
-789 1373 -124 33 -345 43 -463 21z m328 -166 c78 -12 207 -53 275 -87 130
-66 274 -191 355 -307 256 -373 210 -877 -110 -1196 -319 -320 -823 -366
-1196 -110 -116 81 -242 226 -306 355 -229 458 -39 1024 422 1255 175 87 373
119 560 90z"/>
<path d="M3152 2450 c-120 -32 -206 -83 -302 -180 -98 -97 -146 -179 -181
-305 -18 -67 -21 -98 -17 -199 7 -194 61 -318 198 -457 203 -204 513 -256 775
-129 227 110 368 324 382 580 7 126 -13 218 -73 340 -78 157 -215 277 -386
337 -101 36 -288 43 -396 13z m298 -161 c136 -31 270 -139 334 -270 100 -204
63 -424 -98 -585 -133 -133 -297 -181 -475 -139 -181 43 -340 199 -380 375
-27 115 -8 256 47 365 31 62 142 174 202 205 109 56 255 76 370 49z"/>
</g>
</svg>