<?xml version="1.0" encoding="iso-8859-1"?>
<!-- Generator: Adobe Illustrator 19.0.0, SVG Export Plug-In . SVG Version: 6.00 Build 0)  -->
<svg version="1.1" id="Capa_1" xmlns="http://www.w3.org/2000/svg" xmlns:xlink="http://www.w3.org/1999/xlink" x="0px" y="0px"
	 viewBox="0 0 480 480" style="enable-background:new 0 0 480 480;" xml:space="preserve">
<g>
	<g>
		<path d="M472,0H136c-4.416,0-8,3.584-8,8v56H72c-4.416,0-8,3.584-8,8v64H8c-4.416,0-8,3.584-8,8v328c0,4.416,3.584,8,8,8h336
			c4.416,0,8-3.584,8-8v-56h56c4.416,0,8-3.584,8-8v-56h56c4.416,0,8-3.584,8-8V8C480,3.584,476.416,0,472,0z M336,408v56H16V152h56
			h264V408z M400,344v56h-48V144c0-4.416-3.584-8-8-8H80V80h56h264V344z M464,336h-48V72c0-4.416-3.584-8-8-8H144V16h320V336z"/>
	</g>
</g>
<g>
	<g>
		<path d="M104,168H40c-4.416,0-8,3.584-8,8v64c0,4.416,3.584,8,8,8h64c4.416,0,8-3.584,8-8v-64C112,171.584,108.416,168,104,168z
			 M96,232H48v-48h48V232z"/>
	</g>
</g>
<g>
	<g>
		<path d="M317.656,394.344l-40-40c-3.128-3.128-8.184-3.128-11.312,0l-40,40c-3.128,3.128-3.128,8.184,0,11.312l40,40
			c1.56,1.56,3.608,2.344,5.656,2.344c2.048,0,4.096-0.784,5.656-2.344l40-40C320.784,402.528,320.784,397.472,317.656,394.344z
			 M272,428.688L243.312,400L272,371.312L300.688,400L272,428.688z"/>
	</g>
</g>
<g>
	<g>
		<path d="M318.792,235.76l-40-64c-2.928-4.68-10.64-4.68-13.568,0l-40,64c-1.536,2.464-1.624,5.576-0.208,8.12
			c1.416,2.544,4.072,4.12,6.984,4.12h80c2.912,0,5.584-1.576,7-4.12C320.416,241.336,320.328,238.224,318.792,235.76z M246.432,232
			L272,191.096L297.568,232H246.432z"/>
	</g>
</g>
<g>
	<g>
		<path d="M72,360c-22.056,0-40,17.944-40,40c0,22.056,17.944,40,40,40c22.056,0,40-17.944,40-40C112,377.944,94.056,360,72,360z
			 M72,424c-13.232,0-24-10.768-24-24s10.768-24,24-24s24,10.768,24,24S85.232,424,72,424z"/>
	</g>
</g>
<g>
	<g>
		<path d="M205.64,202.336l-32-32l-11.312,11.312L180.688,200H128v16h52.688l-18.352,18.344l11.312,11.312l32-32l-0.056-0.056
			c0.728-0.728,1.376-1.552,1.784-2.544C208.616,208.064,207.928,204.624,205.64,202.336z"/>
	</g>
</g>
<g>
	<g>
		<path d="M205.648,394.336l-31.992-31.992l-11.312,11.312L180.688,392H128v16h52.688l-18.344,18.344l11.312,11.312l32-32
			L205.6,405.6c0.728-0.728,1.376-1.552,1.784-2.544C208.624,400.064,207.936,396.624,205.648,394.336z"/>
	</g>
</g>
<g>
	<g>
		<path d="M264,256c0,13.232-10.768,24-24,24H104c-22.056,0-40,17.944-40,40v4.688l-18.344-18.344l-11.312,11.312l32,32L66.4,349.6
			c0.728,0.728,1.552,1.376,2.544,1.784C69.928,351.8,70.968,352,72,352c2.08,0,4.128-0.816,5.656-2.344l32-32l-11.312-11.312
			L80,324.688V320c0-13.232,10.768-24,24-24h136c22.056,0,40-17.944,40-40H264z"/>
	</g>
</g>
<g>
</g>
<g>
</g>
<g>
</g>
<g>
</g>
<g>
</g>
<g>
</g>
<g>
</g>
<g>
</g>
<g>
</g>
<g>
</g>
<g>
</g>
<g>
</g>
<g>
</g>
<g>
</g>
<g>
</g>
</svg>
