<?xml version="1.0" standalone="no"?>
<!DOCTYPE svg PUBLIC "-//W3C//DTD SVG 20010904//EN"
 "http://www.w3.org/TR/2001/REC-SVG-20010904/DTD/svg10.dtd">
<svg version="1.0" xmlns="http://www.w3.org/2000/svg"
 width="487.000000pt" height="652.000000pt" viewBox="0 0 487.000000 652.000000"
 preserveAspectRatio="xMidYMid meet">
<metadata>
Created by potrace 1.16, written by Peter Selinger 2001-2019
</metadata>
<g transform="translate(0.000000,652.000000) scale(0.100000,-0.100000)"
fill="#000000" stroke="none">
<path d="M157 6272 c-16 -17 -17 -233 -17 -2909 0 -2787 1 -2890 18 -2906 17
-16 132 -17 1445 -17 l1427 0 0 70 0 70 -1380 0 -1380 0 0 2785 0 2785 1280 0
1280 0 0 -713 c0 -713 0 -714 21 -733 20 -18 48 -19 670 -22 l649 -2 0 -1085
0 -1085 70 0 70 0 0 1128 c0 941 -2 1131 -14 1154 -8 14 -319 357 -691 762
l-677 736 -1378 0 c-1321 0 -1378 -1 -1393 -18z m3397 -869 c284 -309 516
-564 516 -567 0 -4 -250 -6 -555 -6 l-555 0 0 607 0 608 39 -40 c21 -22 271
-293 555 -602z"/>
<path d="M510 5331 l0 -411 70 0 70 0 0 140 0 140 134 0 c127 0 136 1 187 28
93 48 146 152 136 263 -8 96 -62 178 -143 219 -47 24 -59 25 -251 28 l-203 4
0 -411z m389 261 c64 -32 89 -123 55 -195 -27 -57 -56 -67 -188 -67 l-116 0 0
133 c0 74 3 137 7 140 3 4 52 7 107 7 76 0 109 -4 135 -18z"/>
<path d="M1458 5725 c-173 -63 -287 -267 -257 -458 21 -135 110 -256 231 -316
63 -31 72 -33 155 -30 72 3 97 9 140 31 l52 28 3 -28 c3 -26 5 -27 68 -27 l65
0 3 195 c1 107 0 205 -3 218 -5 22 -8 22 -150 22 l-145 0 0 -65 0 -65 80 0 80
0 0 -44 c0 -38 -5 -48 -32 -72 -97 -82 -214 -85 -314 -9 -18 14 -46 53 -63 86
-73 147 -19 334 115 399 93 46 221 8 276 -80 l30 -49 54 36 c30 20 54 39 54
43 0 4 -15 29 -32 56 -42 62 -105 109 -170 129 -63 18 -190 18 -240 0z"/>
<path d="M2075 5727 c-3 -6 -4 -190 -3 -407 l3 -395 70 0 70 0 3 137 3 136
138 4 c133 3 139 4 187 33 192 120 155 426 -60 490 -66 20 -404 22 -411 2z
m380 -131 c46 -20 75 -69 75 -129 0 -109 -41 -137 -200 -137 l-110 0 0 140 0
140 100 0 c65 0 113 -5 135 -14z"/>
<path d="M1715 4400 l-1000 -5 -62 -29 c-73 -33 -147 -107 -184 -181 l-24 -50
-3 -1475 c-1 -897 1 -1502 7 -1544 20 -145 107 -257 235 -305 57 -21 59 -21
1351 -21 l1294 0 3 -278 c3 -261 4 -279 25 -317 24 -46 54 -75 103 -101 33
-18 67 -19 590 -19 l556 0 48 25 c28 15 61 43 80 68 l31 44 3 561 c2 363 -1
574 -7 597 -13 44 -63 105 -104 128 -29 15 -77 17 -465 20 l-434 3 4 252 c3
240 4 254 26 299 13 26 46 68 74 93 113 102 282 99 385 -7 58 -59 84 -123 90
-222 4 -63 10 -86 26 -103 26 -30 68 -29 95 0 19 20 22 35 22 98 -1 183 -79
321 -230 403 -86 47 -236 61 -332 30 -17 -5 -18 39 -18 838 0 485 -4 868 -10
901 -19 120 -93 216 -208 270 l-67 32 -450 0 c-247 1 -900 -2 -1450 -5z m1914
-160 c64 -32 108 -92 120 -164 7 -42 11 -349 11 -929 l0 -867 -43 -53 c-23
-29 -54 -77 -67 -107 -24 -53 -25 -62 -28 -327 l-3 -273 -34 0 c-19 0 -57 -5
-86 -11 -65 -14 -141 -83 -158 -144 -6 -22 -11 -124 -11 -231 l0 -192 -1162
-7 c-1400 -9 -1407 -9 -1468 25 -28 16 -55 43 -75 74 l-30 49 -9 1484 c-7
1166 -6 1492 4 1527 14 52 59 109 103 134 49 26 166 28 1590 30 1282 2 1309 2
1346 -18z m977 -2893 l24 -28 0 -523 c0 -514 0 -524 -21 -550 l-20 -26 -535 0
c-521 0 -534 0 -554 20 -20 20 -20 33 -20 558 0 508 1 540 18 555 16 15 62 17
393 20 206 2 445 3 532 2 l159 0 24 -28z"/>
<path d="M765 4098 c-31 -17 -35 -28 -35 -99 0 -76 18 -102 71 -102 46 0 62
24 67 97 4 59 2 67 -21 90 -28 28 -51 32 -82 14z"/>
<path d="M1257 4024 c-57 -18 -120 -77 -148 -137 -16 -37 -19 -68 -18 -277 0
-170 4 -245 13 -273 35 -97 133 -163 241 -161 72 1 125 24 176 76 62 64 69
101 69 353 0 142 -4 234 -12 256 -45 133 -188 206 -321 163z m142 -150 c44
-31 51 -69 51 -268 0 -205 -10 -254 -56 -275 -62 -28 -126 -6 -148 51 -13 30
-16 80 -16 229 0 206 8 245 53 267 33 16 90 14 116 -4z"/>
<path d="M1885 4016 c-60 -28 -97 -66 -124 -126 -19 -41 -21 -65 -21 -276 0
-261 7 -297 67 -359 101 -104 265 -103 365 0 61 63 68 98 68 350 0 258 -6 288
-76 358 -76 77 -184 98 -279 53z m155 -137 c49 -18 54 -39 58 -248 5 -223 -2
-262 -51 -291 -39 -24 -68 -25 -107 -5 -55 28 -60 53 -60 275 0 216 6 245 52
267 46 23 51 23 108 2z"/>
<path d="M2479 3951 c-78 -77 -89 -93 -89 -123 0 -43 28 -71 70 -71 16 0 39 8
50 18 20 18 20 18 20 -218 l0 -237 -48 0 c-38 0 -53 -5 -70 -23 -27 -29 -28
-67 -3 -98 19 -24 21 -24 188 -21 92 2 175 5 184 8 17 5 39 45 39 70 0 8 -11
26 -25 39 -19 20 -34 25 -75 25 l-50 0 0 340 c0 327 -1 341 -20 360 -11 11
-33 20 -51 20 -26 0 -47 -15 -120 -89z"/>
<path d="M3058 3953 c-97 -99 -110 -125 -78 -166 24 -31 79 -37 100 -12 7 8
16 15 21 15 5 0 9 -106 9 -235 l0 -235 -44 0 c-58 0 -74 -7 -91 -41 -16 -29
-12 -53 13 -81 13 -16 36 -18 186 -18 195 0 216 6 216 63 0 56 -23 77 -86 77
l-54 0 0 340 c0 327 -1 341 -20 360 -12 12 -33 20 -53 20 -28 0 -45 -13 -119
-87z"/>
<path d="M756 3729 l-26 -21 2 -1293 c3 -1255 4 -1294 22 -1314 19 -21 70 -28
92 -13 35 23 35 26 28 1334 l-7 1282 -23 23 c-29 29 -54 29 -88 2z"/>
<path d="M1305 3023 c-89 -20 -150 -65 -188 -137 -20 -38 -22 -57 -25 -271 -2
-142 0 -244 7 -265 44 -148 208 -229 341 -169 60 27 98 64 126 124 23 48 24
59 24 288 0 256 -3 273 -55 342 -43 56 -166 103 -230 88z m107 -172 l33 -29 3
-213 c3 -224 -1 -256 -42 -284 -11 -8 -39 -15 -63 -15 -53 0 -91 31 -103 85
-13 54 -13 361 0 405 22 79 111 105 172 51z"/>
<path d="M1995 3020 c-28 -11 -171 -160 -179 -186 -10 -31 10 -72 40 -86 22
-10 32 -9 65 9 l39 21 0 -234 0 -234 -34 0 c-77 0 -124 -41 -110 -96 11 -45
48 -54 214 -54 185 0 210 9 210 76 0 42 -29 66 -90 72 l-50 5 0 334 0 334 -25
24 c-25 26 -46 30 -80 15z"/>
<path d="M2484 2938 c-99 -97 -110 -120 -79 -165 23 -32 63 -38 97 -13 l28 21
0 -236 0 -235 -34 0 c-74 0 -116 -39 -102 -94 11 -45 50 -56 204 -56 145 0
196 10 212 40 31 57 -11 110 -86 110 l-44 0 0 313 c0 322 -6 379 -40 397 -41
22 -62 11 -156 -82z"/>
<path d="M3135 3018 c-42 -16 -91 -50 -115 -81 -46 -59 -50 -83 -50 -337 0
-268 2 -279 67 -350 51 -57 102 -80 181 -80 77 0 121 19 178 75 66 67 74 104
74 355 0 233 -4 256 -52 327 -42 62 -104 95 -186 99 -37 2 -80 -1 -97 -8z
m160 -169 l30 -29 0 -218 c0 -247 -4 -262 -76 -283 -49 -15 -94 2 -120 45 -17
28 -19 53 -19 234 0 227 6 252 63 277 42 19 85 10 122 -26z"/>
<path d="M1927 2006 c-59 -16 -92 -39 -134 -94 -47 -61 -55 -121 -51 -360 3
-192 5 -210 26 -254 80 -163 295 -195 412 -62 63 72 65 84 65 349 0 265 -2
277 -66 350 -59 67 -162 96 -252 71z m123 -153 c16 -9 33 -27 39 -40 7 -15 11
-105 11 -237 l0 -214 -29 -31 c-24 -26 -37 -31 -74 -31 -37 0 -51 5 -76 31
l-31 31 0 223 0 223 31 31 c35 36 84 41 129 14z"/>
<path d="M2575 2010 c-28 -11 -171 -160 -179 -186 -10 -33 9 -69 43 -84 27
-11 35 -10 66 9 l35 20 0 -234 0 -235 -34 0 c-77 0 -124 -41 -110 -96 11 -44
49 -54 208 -54 186 0 216 10 216 75 0 17 -4 35 -8 42 -11 17 -58 33 -98 33
l-34 0 0 334 c0 322 -1 334 -21 360 -21 26 -47 32 -84 16z"/>
<path d="M1265 2003 c-40 -8 -101 -60 -132 -112 -41 -68 -46 -111 -41 -352 3
-171 6 -199 24 -239 73 -156 278 -199 398 -83 75 73 80 92 84 329 3 138 0 231
-8 268 -24 117 -125 197 -244 195 -34 -1 -70 -4 -81 -6z m135 -150 c16 -9 33
-27 39 -40 7 -15 11 -105 11 -236 0 -205 -1 -213 -23 -240 -45 -55 -132 -52
-167 6 -18 29 -20 51 -20 239 0 127 4 216 11 231 24 52 96 72 149 40z"/>
<path d="M3962 1212 c-67 -24 -119 -66 -157 -127 -26 -41 -30 -60 -33 -130 -3
-68 0 -89 19 -130 29 -62 88 -121 145 -146 l44 -20 0 -114 c0 -131 7 -157 48
-174 31 -13 67 -3 84 23 4 6 8 68 8 138 l0 127 49 21 c57 25 110 77 143 140
19 36 23 60 23 126 0 74 -3 85 -35 138 -55 90 -122 132 -228 141 -41 4 -72 0
-110 -13z m188 -167 c119 -114 -15 -302 -163 -230 -94 46 -102 191 -13 247 48
30 136 21 176 -17z"/>
</g>
</svg>
