<svg xmlns="http://www.w3.org/2000/svg" version="1.1" xmlns:xlink="http://www.w3.org/1999/xlink" width="512" height="512" x="0" y="0" viewBox="0 0 512 512" style="enable-background:new 0 0 512 512" xml:space="preserve" class=""><g><path d="M453.29 79.081a39.33 39.33 0 0 0-49.1-53.58l-74.321 27.052-7.509-20.63a43.346 43.346 0 0 0-55.5-25.88L173.6 39.988a43.351 43.351 0 0 0-25.879 55.5l7.509 20.63-74.33 27.051a39.324 39.324 0 0 0 19.621 75.8l24.249 239.773a55.247 55.247 0 0 0 55.13 49.83h180.932a55.247 55.247 0 0 0 55.127-49.833l29.734-294.007a19.976 19.976 0 0 0-19.876-21.986H312.051L431.1 99.417a39.073 39.073 0 0 0 22.19-20.336zM157.116 92.067a33.339 33.339 0 0 1 19.9-42.682l93.263-33.946a33.34 33.34 0 0 1 42.681 19.9l7.509 20.63-15.852 5.77-7.509-20.631a16.45 16.45 0 0 0-21.06-9.82l-93.26 33.949a16.451 16.451 0 0 0-9.82 21.06l7.509 20.63-15.853 5.77zm32.757 11.44-7.508-20.63a6.438 6.438 0 0 1 3.843-8.243l93.263-33.946a6.442 6.442 0 0 1 8.244 3.844l7.509 20.631zm235.944 49.239a9.976 9.976 0 0 1 9.927 10.981L406.01 457.733a45.276 45.276 0 0 1-45.178 40.839H179.9a45.274 45.274 0 0 1-45.177-40.839L110.294 216.18l174.282-63.434zm-321.43 54.942a29.33 29.33 0 1 1-20.063-55.123L407.613 34.9a29.33 29.33 0 1 1 20.063 55.12zm165.185 241.706a19.057 19.057 0 0 0 19.035-19.036V231.072a19.036 19.036 0 0 0-38.071 0v199.286a19.058 19.058 0 0 0 19.036 19.036zm-9.036-218.322a9.036 9.036 0 0 1 18.071 0v199.286a9.036 9.036 0 1 1-18.071 0zm84.714 195.807a19.057 19.057 0 0 0 19.036-19.035V253.587a19.036 19.036 0 0 0-38.072 0v154.257a19.057 19.057 0 0 0 19.036 19.035zm-9.036-173.292a9.036 9.036 0 0 1 18.072 0v154.257a9.036 9.036 0 0 1-18.072 0zM196.036 426.879a19.056 19.056 0 0 0 19.035-19.035V253.587a19.036 19.036 0 0 0-38.071 0v154.257a19.057 19.057 0 0 0 19.036 19.035zM187 253.587a9.036 9.036 0 0 1 18.071 0v154.257a9.036 9.036 0 0 1-18.071 0z" fill="#000000" opacity="1" data-original="#000000" class=""></path></g></svg>