<?xml version="1.0" standalone="no"?>
<!DOCTYPE svg PUBLIC "-//W3C//DTD SVG 20010904//EN"
 "http://www.w3.org/TR/2001/REC-SVG-20010904/DTD/svg10.dtd">
<svg version="1.0" xmlns="http://www.w3.org/2000/svg"
 width="483.000000pt" height="652.000000pt" viewBox="0 0 483.000000 652.000000"
 preserveAspectRatio="xMidYMid meet">
<metadata>
Created by potrace 1.16, written by Peter Selinger 2001-2019
</metadata>
<g transform="translate(0.000000,652.000000) scale(0.100000,-0.100000)"
fill="#000000" stroke="none">
<path d="M124 6289 c-19 -21 -19 -83 -19 -2904 0 -2821 0 -2883 19 -2904 l19
-21 1429 0 1428 0 0 70 0 70 -1380 0 -1380 0 0 2785 0 2785 1278 -2 1277 -3 3
-712 2 -712 26 -20 c26 -21 35 -21 670 -21 l644 0 0 -1085 0 -1085 70 0 70 0
-2 1138 c-3 1131 -3 1138 -24 1164 -11 14 -204 225 -429 469 -224 244 -525
571 -668 727 l-260 282 -1377 0 -1377 0 -19 -21z m3162 -609 c159 -173 393
-428 521 -567 128 -138 233 -254 233 -257 0 -3 -250 -6 -555 -6 l-555 0 0 607
0 608 34 -35 c18 -19 163 -177 322 -350z"/>
<path d="M480 5351 l0 -411 70 0 70 0 0 140 0 140 134 0 c127 0 136 1 187 28
93 48 146 152 136 263 -8 96 -62 178 -143 219 -47 24 -59 25 -251 28 l-203 4
0 -411z m389 261 c64 -32 89 -123 55 -195 -27 -57 -56 -67 -188 -67 l-116 0 0
133 c0 74 3 137 7 140 3 4 52 7 107 7 76 0 109 -4 135 -18z"/>
<path d="M1428 5745 c-173 -63 -287 -267 -257 -458 21 -135 110 -256 231 -316
63 -31 72 -33 155 -30 72 3 97 9 140 31 l52 28 3 -28 c3 -26 5 -27 68 -27 l65
0 3 195 c1 107 0 205 -3 218 -5 22 -8 22 -150 22 l-145 0 0 -65 0 -65 80 0 80
0 0 -44 c0 -38 -5 -48 -32 -72 -97 -82 -214 -85 -314 -9 -18 14 -46 53 -63 86
-73 147 -19 334 115 399 93 46 221 8 276 -80 l30 -49 54 36 c30 20 54 39 54
43 0 4 -15 29 -32 56 -42 62 -105 109 -170 129 -63 18 -190 18 -240 0z"/>
<path d="M2045 5747 c-3 -6 -4 -190 -3 -407 l3 -395 70 0 70 0 3 137 3 136
138 4 c133 3 139 4 187 33 192 120 155 426 -60 490 -66 20 -404 22 -411 2z
m380 -131 c46 -20 75 -69 75 -129 0 -109 -41 -137 -200 -137 l-110 0 0 140 0
140 100 0 c65 0 113 -5 135 -14z"/>
<path d="M697 4420 c-106 -18 -211 -97 -262 -196 l-30 -59 0 -1545 0 -1545 29
-63 c40 -87 129 -163 222 -190 31 -9 363 -12 1342 -12 l1301 0 3 -293 3 -292
30 -45 c21 -31 47 -54 84 -72 l55 -28 540 0 c361 0 554 4 581 11 61 17 130 93
144 158 15 72 15 1041 0 1112 -22 100 -116 169 -231 169 l-48 0 0 229 c0 257
-7 309 -52 400 -79 164 -274 263 -452 232 -34 -6 -65 -11 -69 -11 -3 0 -8 397
-9 883 l-3 882 -31 65 c-54 114 -148 187 -269 209 -70 13 -2801 14 -2878 1z
m2901 -156 c49 -20 90 -60 113 -109 18 -38 19 -86 19 -956 l0 -916 -26 -24
c-37 -34 -73 -99 -95 -170 -16 -53 -19 -94 -19 -309 l0 -247 -69 -5 c-85 -6
-144 -37 -186 -96 l-30 -44 -3 -219 -3 -219 -1293 0 -1292 0 -52 26 c-60 30
-108 94 -117 158 -3 22 -5 705 -3 1516 l3 1475 28 48 c19 33 44 56 80 77 l52
30 1428 0 c1268 0 1432 -2 1465 -16z m528 -2031 c65 -22 143 -100 167 -168 14
-42 17 -87 17 -292 l0 -243 -291 0 -291 0 4 248 c3 233 4 250 26 297 66 144
218 209 368 158z m454 -873 c20 -20 20 -33 20 -555 0 -522 0 -535 -20 -555
-20 -20 -33 -20 -559 -20 l-540 0 -20 26 c-21 26 -21 36 -21 546 0 518 2 549
34 570 6 4 253 8 549 8 524 0 537 0 557 -20z"/>
<path d="M716 4116 c-22 -22 -26 -34 -26 -88 0 -69 4 -79 37 -97 33 -17 51
-14 78 14 21 20 25 34 25 83 0 67 -17 97 -62 108 -21 4 -33 0 -52 -20z"/>
<path d="M1225 4053 c-50 -13 -118 -71 -148 -128 -20 -37 -22 -57 -25 -273 -3
-198 -1 -240 14 -284 57 -173 284 -227 412 -98 71 71 76 92 80 327 2 131 -1
232 -7 264 -25 117 -128 200 -245 198 -34 -1 -70 -4 -81 -6z m133 -153 c18
-11 37 -32 42 -46 6 -14 10 -116 10 -227 0 -183 -2 -205 -20 -234 -27 -45 -84
-62 -132 -39 -59 28 -63 45 -63 276 0 229 5 252 60 276 42 18 65 17 103 -6z"/>
<path d="M1843 4036 c-65 -31 -118 -100 -133 -174 -7 -33 -10 -133 -8 -265 3
-208 4 -213 30 -264 103 -194 392 -172 463 36 20 59 21 466 1 522 -18 51 -63
107 -111 137 -60 38 -171 42 -242 8z m183 -147 c36 -34 44 -79 44 -259 0 -91
-5 -181 -10 -201 -15 -54 -53 -84 -107 -84 -38 0 -49 5 -74 33 l-29 32 0 219
c0 208 1 220 21 245 12 15 31 32 43 37 32 13 86 3 112 -22z"/>
<path d="M2448 3972 c-77 -78 -88 -92 -88 -124 0 -21 7 -41 18 -51 23 -21 71
-22 100 -1 l22 15 0 -235 0 -236 -50 0 c-65 0 -93 -25 -88 -78 5 -59 42 -72
210 -72 75 0 149 5 164 10 57 22 70 75 29 115 -19 20 -34 25 -75 25 l-50 0 0
343 c0 320 -1 345 -18 360 -10 10 -34 17 -52 17 -29 0 -46 -12 -122 -88z"/>
<path d="M3028 3972 c-77 -78 -88 -92 -88 -124 0 -21 7 -41 18 -51 23 -21 71
-22 100 -1 l22 15 0 -235 0 -236 -50 0 c-65 0 -93 -25 -88 -78 5 -59 42 -72
210 -72 75 0 149 5 164 10 57 22 70 75 29 115 -19 20 -34 25 -75 25 l-50 0 0
343 c0 320 -1 345 -18 360 -10 10 -34 17 -52 17 -29 0 -46 -12 -122 -88z"/>
<path d="M706 3748 c-14 -20 -16 -161 -16 -1314 0 -1216 1 -1293 18 -1312 27
-32 71 -33 102 -2 20 20 20 33 20 1315 0 1282 0 1295 -20 1315 -28 28 -84 27
-104 -2z"/>
<path d="M1240 3041 c-56 -18 -108 -52 -134 -86 -53 -69 -58 -101 -54 -357 l3
-233 29 -52 c90 -163 307 -176 422 -25 48 62 56 121 52 360 -3 171 -7 214 -21
247 -23 51 -71 101 -121 127 -43 22 -136 32 -176 19z m118 -154 c47 -22 52
-51 52 -272 0 -175 -3 -211 -17 -235 -34 -59 -118 -69 -163 -20 -37 39 -43 89
-39 303 4 186 13 211 80 233 35 12 47 11 87 -9z"/>
<path d="M1874 2958 c-80 -78 -94 -96 -94 -124 0 -35 37 -74 70 -74 10 0 29 9
44 21 l26 20 0 -234 0 -234 -51 -6 c-62 -8 -89 -29 -89 -71 0 -67 25 -76 215
-76 91 0 165 4 176 11 29 15 42 57 29 90 -13 30 -53 49 -106 49 l-34 0 0 340
c0 327 -1 341 -20 360 -39 39 -66 27 -166 -72z"/>
<path d="M2454 2958 c-80 -78 -94 -96 -94 -124 0 -35 37 -74 70 -74 10 0 29 9
44 21 l26 20 0 -234 0 -234 -51 -6 c-62 -8 -89 -29 -89 -71 0 -68 25 -76 220
-76 158 0 161 1 185 25 57 56 8 125 -91 125 l-34 0 0 340 c0 327 -1 341 -20
360 -39 39 -66 27 -166 -72z"/>
<path d="M3102 3032 c-62 -22 -114 -69 -142 -127 -18 -38 -20 -62 -20 -286 0
-237 1 -245 25 -296 37 -82 131 -141 225 -142 82 -1 184 63 228 143 14 26 17
67 20 278 3 226 2 251 -16 290 -56 127 -191 186 -320 140z m168 -167 c25 -25
25 -27 28 -223 2 -125 0 -211 -7 -234 -24 -79 -112 -104 -173 -49 l-33 29 0
226 0 225 29 30 c16 16 38 32 50 33 34 6 78 -10 106 -37z"/>
<path d="M1206 2015 c-47 -16 -100 -66 -129 -120 -20 -37 -22 -57 -25 -273 -4
-272 3 -307 73 -377 56 -56 116 -79 199 -73 109 7 194 80 223 191 16 63 18
403 3 474 -16 70 -70 139 -133 169 -60 28 -148 32 -211 9z m173 -159 l26 -26
3 -215 c3 -182 1 -219 -13 -245 -38 -74 -155 -72 -187 4 -14 34 -19 399 -6
447 19 67 124 88 177 35z"/>
<path d="M1840 2003 c-70 -36 -115 -94 -130 -169 -7 -35 -11 -131 -8 -262 3
-203 4 -208 31 -264 44 -90 123 -138 224 -138 97 1 184 56 229 146 17 34 19
65 22 266 3 248 -1 282 -48 346 -48 67 -102 95 -190 100 -67 3 -81 1 -130 -25z
m171 -130 c48 -29 54 -59 54 -278 0 -182 -2 -203 -20 -229 -43 -64 -132 -67
-175 -6 -19 26 -20 44 -20 239 0 129 4 219 11 234 24 52 96 72 150 40z"/>
<path d="M2447 1942 c-73 -74 -87 -92 -87 -120 0 -64 70 -94 117 -50 l23 21 0
-241 0 -242 -50 0 c-62 0 -90 -24 -90 -74 0 -60 19 -66 215 -66 166 0 172 1
193 23 50 53 12 114 -73 119 l-50 3 -3 339 c-3 380 -2 376 -71 376 -32 0 -46
-10 -124 -88z"/>
<path d="M3939 1227 c-247 -70 -276 -419 -43 -533 l54 -26 0 -125 c0 -118 1
-125 25 -148 29 -30 64 -32 93 -5 20 19 22 30 22 148 l0 127 48 22 c65 30 120
85 149 152 63 141 -8 316 -151 376 -51 22 -143 27 -197 12z m173 -168 c73 -59
74 -156 3 -218 -30 -26 -44 -31 -88 -31 -29 1 -62 6 -74 13 -61 34 -90 124
-59 188 40 83 148 107 218 48z"/>
</g>
</svg>
