<svg xmlns="http://www.w3.org/2000/svg" version="1.1" xmlns:xlink="http://www.w3.org/1999/xlink" width="512" height="512" x="0" y="0" viewBox="0 0 512 512" style="enable-background:new 0 0 512 512" xml:space="preserve" class=""><g><path d="M472.059 363.108a7.5 7.5 0 0 0 7.5-7.5V101.197a7.524 7.524 0 0 0-2.197-5.303L383.666 2.197A7.558 7.558 0 0 0 378.363 0h-227.68c-16.615 0-30.132 13.517-30.132 30.132v16.942H103.61c-16.615 0-30.132 13.517-30.132 30.132v51.282a7.5 7.5 0 0 0 15 0V77.206c0-8.344 6.788-15.132 15.132-15.132h16.941v138.712H88.477v-37.298a7.5 7.5 0 0 0-15 0v37.298H53.52c-11.623 0-21.079 9.456-21.079 21.079v108.538c0 11.624 9.456 21.08 21.079 21.08h19.958v130.386c0 16.615 13.517 30.132 30.132 30.132h298.744c16.615 0 30.132-13.517 30.132-30.132v-16.942h16.941c16.615 0 30.132-13.517 30.132-30.132v-44.186a7.5 7.5 0 0 0-15 0v44.186c0 8.344-6.788 15.132-15.132 15.132H150.683c-8.344 0-15.132-6.788-15.132-15.132v-83.312h30v44.376c0 9.649 7.851 17.5 17.5 17.5H417.059c9.649 0 17.5-7.851 17.5-17.5V108.697h30v246.911a7.5 7.5 0 0 0 7.5 7.5zM397.552 93.287c-6.688-1.565-11.689-7.564-11.689-14.722V25.607l68.09 68.09c-55.202 0-53.527.151-56.401-.41zM135.551 30.132c0-8.344 6.789-15.132 15.132-15.132h220.179v63.565c0 4.257.892 8.307 2.491 11.982H183.05c-9.649 0-17.5 7.851-17.5 17.5v92.739h-30l.001-170.654zm129.669 321.35h36.588c9.439 0 17.619-6.368 20.208-15.076h12.873v23.477H265.22zm36.589-150.696H265.22V182.5h69.669v23.477h-19.236c-3.62-3.171-8.617-5.191-13.844-5.191zm-121.258 0V182.5h69.669v18.286h-69.669zm84.669-95.239h69.669v23.477H265.22zm154.339 100.43H349.89V182.5h69.669zm0 38.476H349.89v-23.477h69.669zm0 38.476H349.89v-23.476h69.669zm0 38.477H349.89v-23.477h69.669zM180.551 144.023h69.669V167.5h-69.669zm84.669 0h69.669V167.5H265.22zm57.668 115.43h12.002v23.476h-12.002zm12.002-15h-12.002v-22.588c0-.296-.006-.592-.019-.888h12.021zm-12.002 53.476h12.002v23.477h-12.002zM250.22 129.023h-69.669v-20.977c0-1.378 1.122-2.5 2.5-2.5h67.169zm99.67 207.383h69.669v23.477H349.89zM419.559 167.5H349.89v-23.477h69.669zM47.441 330.402V221.865a6.086 6.086 0 0 1 6.079-6.079h248.289c3.301 0 6.079 2.705 6.079 6.08v108.537a6.087 6.087 0 0 1-6.079 6.08H53.52a6.088 6.088 0 0 1-6.079-6.081zm103.242 134.524h266.802v16.942c0 8.344-6.789 15.132-15.132 15.132H103.61c-8.344 0-15.132-6.788-15.132-15.132V351.482h32.074v83.312c-.001 16.615 13.516 30.132 30.131 30.132zm99.537-113.444v8.4h-69.669v-8.4zm-69.669 44.376v-20.976h69.669v23.476h-67.169a2.503 2.503 0 0 1-2.5-2.5zm84.669-20.976h69.669v23.476H265.22zm154.339 20.976c0 1.378-1.122 2.5-2.5 2.5H349.89v-23.476h69.669zm0-287.15v20.315H349.89v-23.477h37.654c7.487 3.858 13.624 3.245 32.015 3.162z" fill="#000000" opacity="1" data-original="#000000" class=""></path><path d="M165.713 315.646c1.589.272 15.94.151 23.838.107a7.5 7.5 0 0 0-.041-15h-.043c-5.181.029-10.741.05-14.99.054V243.96a7.5 7.5 0 0 0-15 0v64.293a7.5 7.5 0 0 0 6.236 7.393zM245.295 315.808c13.297 0 24.46-8.465 26.542-20.128 1.563-8.755-2.439-20.203-18.359-26.075-7.995-2.949-15.431-6.163-17.616-7.12-3.246-2.532-2.483-8.479 3.67-10.333 9.353-2.817 17.966 3.999 18.208 4.193a7.5 7.5 0 0 0 9.616-11.512c-.598-.503-14.854-12.256-32.151-7.044-8.679 2.614-14.817 9.446-16.021 17.83-1.386 9.652 4.47 17.849 9.922 20.28a349.73 349.73 0 0 0 19.18 7.778c2.949 1.088 9.709 4.178 8.783 9.366-.681 3.816-5.272 7.764-11.775 7.764-6.546 0-12.852-2.645-16.867-7.075a7.5 7.5 0 0 0-11.115 10.073c6.813 7.516 17.273 12.003 27.983 12.003zM81.751 312.627l18.139-25.749 18.111 25.745a7.5 7.5 0 0 0 12.269-8.631l-21.203-30.141 18.015-25.572a7.501 7.501 0 0 0-12.263-8.639l-14.92 21.179-14.896-21.175a7.5 7.5 0 0 0-12.269 8.631l17.988 25.57-21.234 30.143a7.5 7.5 0 0 0 12.263 8.639z" fill="#000000" opacity="1" data-original="#000000" class=""></path></g></svg>