<svg id="_x31__px" enable-background="new 0 0 24 24" height="512" viewBox="0 0 24 24" width="512" xmlns="http://www.w3.org/2000/svg"><g><path d="m8.5 15h-6c-1.379 0-2.5-1.122-2.5-2.5v-10c0-1.378 1.121-2.5 2.5-2.5h6c1.379 0 2.5 1.122 2.5 2.5v10c0 1.378-1.121 2.5-2.5 2.5zm-6-14c-.827 0-1.5.673-1.5 1.5v10c0 .827.673 1.5 1.5 1.5h6c.827 0 1.5-.673 1.5-1.5v-10c0-.827-.673-1.5-1.5-1.5z"/></g><g><path d="m7.5 4h-4c-.276 0-.5-.224-.5-.5s.224-.5.5-.5h4c.276 0 .5.224.5.5s-.224.5-.5.5z"/></g><g><path d="m7.5 8h-4c-.276 0-.5-.224-.5-.5s.224-.5.5-.5h4c.276 0 .5.224.5.5s-.224.5-.5.5z"/></g><g><path d="m7.5 12h-4c-.276 0-.5-.224-.5-.5s.224-.5.5-.5h4c.276 0 .5.224.5.5s-.224.5-.5.5z"/></g><g><path d="m21.5 15h-6c-1.379 0-2.5-1.122-2.5-2.5v-10c0-1.378 1.121-2.5 2.5-2.5h6c1.379 0 2.5 1.122 2.5 2.5v10c0 1.378-1.121 2.5-2.5 2.5zm-6-14c-.827 0-1.5.673-1.5 1.5v10c0 .827.673 1.5 1.5 1.5h6c.827 0 1.5-.673 1.5-1.5v-10c0-.827-.673-1.5-1.5-1.5z"/></g><g><path d="m20.5 4h-4c-.276 0-.5-.224-.5-.5s.224-.5.5-.5h4c.276 0 .5.224.5.5s-.224.5-.5.5z"/></g><g><path d="m20.5 8h-4c-.276 0-.5-.224-.5-.5s.224-.5.5-.5h4c.276 0 .5.224.5.5s-.224.5-.5.5z"/></g><g><path d="m20.5 12h-4c-.276 0-.5-.224-.5-.5s.224-.5.5-.5h4c.276 0 .5.224.5.5s-.224.5-.5.5z"/></g><g><path d="m9.5 21.5h-2c-1.379 0-2.5-1.122-2.5-2.5v-4.5h1v4.5c0 .827.673 1.5 1.5 1.5h2z"/></g><g><path d="m16.5 21.5h-2v-1h2c.827 0 1.5-.673 1.5-1.5v-4.5h1v4.5c0 1.378-1.121 2.5-2.5 2.5z"/></g><g><path d="m13.5 24h-3c-.827 0-1.5-.673-1.5-1.5v-3c0-.827.673-1.5 1.5-1.5h3c.827 0 1.5.673 1.5 1.5v3c0 .827-.673 1.5-1.5 1.5zm-3-5c-.275 0-.5.224-.5.5v3c0 .276.225.5.5.5h3c.275 0 .5-.224.5-.5v-3c0-.276-.225-.5-.5-.5z"/></g></svg>