<svg xmlns="http://www.w3.org/2000/svg" version="1.1" xmlns:xlink="http://www.w3.org/1999/xlink" width="512" height="512" x="0" y="0" viewBox="0 0 96 96" style="enable-background:new 0 0 512 512" xml:space="preserve" fill-rule="evenodd" class=""><g><path d="M49 6H10c-1.59 0-3.12.632-4.24 1.757A5.985 5.985 0 0 0 4 12v78c0 3.314 2.69 6 6 6h60c3.31 0 6-2.686 6-6V54c0-1.104-.9-2-2-2s-2 .896-2 2v36c0 1.105-.89 2-2 2H10c-1.11 0-2-.895-2-2V12c0-.53.21-1.039.59-1.414.37-.375.88-.586 1.41-.586h39c1.1 0 2-.896 2-2s-.9-2-2-2zM19.5 74h41c1.1 0 2-.896 2-2s-.9-2-2-2h-41c-1.1 0-2 .896-2 2s.9 2 2 2zm0-11h41c1.1 0 2-.896 2-2s-.9-2-2-2h-41c-1.1 0-2 .896-2 2s.9 2 2 2zM38 29H20c-1.1 0-2 .896-2 2s.9 2 2 2h7v20c0 1.104.9 2 2 2s2-.896 2-2V33h7c1.1 0 2-.896 2-2s-.9-2-2-2zm2.5 24h20c1.1 0 2-.896 2-2s-.9-2-2-2h-20c-1.1 0-2 .896-2 2s.9 2 2 2zm41.34-25.694a1.999 1.999 0 0 0-3.75 0l-2.38 6.437-6.44 2.381a2.002 2.002 0 0 0 0 3.752l6.44 2.381 2.38 6.437a1.999 1.999 0 0 0 3.75 0l2.38-6.437 6.44-2.381a1.997 1.997 0 0 0 0-3.752l-6.44-2.381-2.38-6.437zM46 43h8c1.1 0 2-.896 2-2s-.9-2-2-2h-8c-1.1 0-2 .896-2 2s.9 2 2 2zm33.97-9.237.82 2.23c.2.548.64.979 1.18 1.182L84.2 38l-2.23.825a2.01 2.01 0 0 0-1.18 1.182l-.82 2.23-.83-2.23c-.2-.548-.63-.979-1.18-1.182L75.73 38l2.23-.825c.55-.203.98-.634 1.18-1.182zM63.88 1.306C63.59.521 62.84 0 62 0s-1.59.521-1.88 1.306l-4.81 13.006-13 4.812a1.997 1.997 0 0 0 0 3.752l13 4.812 4.81 13.006C60.41 41.479 61.16 42 62 42s1.59-.521 1.88-1.306l4.81-13.006 13-4.812a1.997 1.997 0 0 0 0-3.752l-13-4.812-4.81-13.006zM62 7.763l3.26 8.799c.2.548.63.979 1.18 1.182L75.24 21l-8.8 3.256c-.55.203-.98.634-1.18 1.182L62 34.237l-3.26-8.799c-.2-.548-.63-.979-1.18-1.182L48.76 21l8.8-3.256c.55-.203.98-.634 1.18-1.182zM46 33h4c1.1 0 2-.896 2-2s-.9-2-2-2h-4c-1.1 0-2 .896-2 2s.9 2 2 2zM78 7h-2c-1.1 0-2 .896-2 2s.9 2 2 2h2v2c0 1.104.9 2 2 2s2-.896 2-2v-2h2c1.1 0 2-.896 2-2s-.9-2-2-2h-2V5c0-1.104-.9-2-2-2s-2 .896-2 2z" fill="#000000" opacity="1" data-original="#000000" class=""></path></g></svg>