<?xml version="1.0" standalone="no"?>
<!DOCTYPE svg PUBLIC "-//W3C//DTD SVG 20010904//EN"
 "http://www.w3.org/TR/2001/REC-SVG-20010904/DTD/svg10.dtd">
<svg version="1.0" xmlns="http://www.w3.org/2000/svg"
 width="512.000000pt" height="512.000000pt" viewBox="0 0 512.000000 512.000000"
 preserveAspectRatio="xMidYMid meet">

<g transform="translate(0.000000,512.000000) scale(0.100000,-0.100000)"
fill="#000000" stroke="none">
<path d="M985 5015 c-24 -23 -25 -29 -25 -160 l0 -135 -135 0 c-131 0 -137 -1
-160 -25 l-25 -24 0 -2271 0 -2271 25 -24 24 -25 1711 0 1711 0 24 25 c24 23
25 29 25 160 l0 135 135 0 c131 0 137 1 160 25 l25 24 0 2271 0 2271 -25 24
-24 25 -1711 0 -1711 0 -24 -25z m3335 -2295 l0 -2160 -1280 0 -1280 0 0 295
0 296 -25 24 -24 25 -296 0 -295 0 0 1840 0 1840 1600 0 1600 0 0 -2160z
m-3360 103 l0 -1738 343 -342 342 -343 1178 0 1177 0 0 -80 0 -80 -1600 0
-1600 0 0 2160 0 2160 80 0 80 0 0 -1737z m640 -1963 c0 -99 -1 -180 -3 -180
-1 0 -83 81 -182 180 l-180 180 183 0 182 0 0 -180z"/>
<path d="M1305 4695 c-24 -23 -25 -29 -25 -160 l0 -135 80 0 80 0 0 80 0 80
80 0 80 0 0 80 0 80 -135 0 c-131 0 -137 -1 -160 -25z"/>
<path d="M3840 4640 l0 -80 80 0 80 0 0 -80 0 -80 80 0 80 0 0 135 c0 131 -1
137 -25 160 -23 24 -29 25 -160 25 l-135 0 0 -80z"/>
<path d="M4000 4160 l0 -80 80 0 80 0 0 80 0 80 -80 0 -80 0 0 -80z"/>
<path d="M3485 3760 l-161 -160 -917 0 -918 0 -24 -25 -25 -24 0 -991 0 -991
25 -24 24 -25 1071 0 1071 0 24 25 25 24 0 838 0 837 160 161 c144 145 160
165 160 195 0 31 -15 49 -143 177 -128 128 -146 143 -177 143 -30 0 -50 -16
-195 -160z m260 -100 l60 -60 -503 -503 -502 -502 -62 63 -63 62 500 500 c275
275 502 500 505 500 3 0 32 -27 65 -60z m-660 -300 l-80 -80 -302 0 -303 0 0
-80 0 -80 222 0 223 0 -177 -177 -177 -178 -85 -215 c-47 -118 -86 -225 -86
-238 0 -30 42 -72 72 -72 13 0 120 39 238 86 l215 85 338 337 337 337 0 -543
0 -542 -240 0 -240 0 0 -80 0 -80 240 0 240 0 0 -80 0 -80 -960 0 -960 0 0
880 0 880 782 0 783 0 -80 -80z m-460 -820 c16 -16 27 -31 24 -33 -10 -9 -92
-37 -95 -34 -6 5 29 97 36 97 4 0 19 -13 35 -30z"/>
<path d="M1760 3200 l0 -80 80 0 80 0 0 80 0 80 -80 0 -80 0 0 -80z"/>
<path d="M2080 3200 l0 -80 80 0 80 0 0 80 0 80 -80 0 -80 0 0 -80z"/>
<path d="M1760 2880 l0 -80 80 0 80 0 0 80 0 80 -80 0 -80 0 0 -80z"/>
<path d="M1760 2560 l0 -80 80 0 80 0 0 80 0 80 -80 0 -80 0 0 -80z"/>
<path d="M1760 2240 l0 -80 80 0 80 0 0 80 0 80 -80 0 -80 0 0 -80z"/>
<path d="M1760 1920 l0 -80 80 0 80 0 0 80 0 80 -80 0 -80 0 0 -80z"/>
<path d="M2080 1920 l0 -80 80 0 80 0 0 80 0 80 -80 0 -80 0 0 -80z"/>
<path d="M2400 1920 l0 -80 80 0 80 0 0 80 0 80 -80 0 -80 0 0 -80z"/>
<path d="M2720 1920 l0 -80 80 0 80 0 0 80 0 80 -80 0 -80 0 0 -80z"/>
<path d="M4000 960 l0 -80 -80 0 -80 0 0 -80 0 -80 135 0 c131 0 137 1 160 25
24 23 25 29 25 160 l0 135 -80 0 -80 0 0 -80z"/>
</g>
</svg>
