<svg xmlns="http://www.w3.org/2000/svg" version="1.1" xmlns:xlink="http://www.w3.org/1999/xlink" width="512" height="512" x="0" y="0" viewBox="0 0 512 512" style="enable-background:new 0 0 512 512" xml:space="preserve" class=""><g><path d="M453.092 136.224a7.5 7.5 0 0 0 7.501-7.501V29.122C460.593 13.064 447.529 0 431.471 0h-166.12c-16.058 0-29.122 13.064-29.122 29.122v37.579c-.666-.194-66.023-.303-66.023-.303-1.788.089-3.613.508-5.307 2.2L53.604 179.893c-1.148 1.254-2.228 2.967-2.197 5.309v291.48c0 19.474 15.844 35.318 35.318 35.318h173.743c4.143 0 7.501-3.358 7.501-7.501s-3.358-7.501-7.501-7.501H86.725c-11.202 0-20.315-9.113-20.315-20.315V192.698h24.545c4.143 0 7.501-3.358 7.501-7.501s-3.358-7.501-7.501-7.501H77.019l85.686-85.686v68.83c0 9.295-7.561 16.856-16.855 16.856h-15.373c-4.143 0-7.501 3.358-7.501 7.501s3.358 7.501 7.501 7.501h15.373c17.566 0 31.858-14.291 31.858-31.858V81.401l58.522-.303v114.144c0 16.058 13.064 29.122 29.122 29.122h98.383v252.318c0 11.202-9.113 20.315-20.315 20.315h-44.152c-4.143 0-7.501 3.358-7.501 7.501s3.358 7.501 7.501 7.501h44.152c19.474 0 35.318-15.844 35.318-35.318V224.364h52.735c16.058 0 29.122-13.064 29.122-29.122v-26.18c0-4.143-3.358-7.501-7.501-7.501s-7.501 3.358-7.501 7.501v26.18c0 7.786-6.334 14.12-14.12 14.12h-166.12c-7.785 0-14.12-6.334-14.12-14.12V29.122c0-7.786 6.334-14.12 14.12-14.12h166.12c7.785 0 14.12 6.334 14.12 14.12v99.601a7.498 7.498 0 0 0 7.499 7.501z" fill="#000000" opacity="1" data-original="#000000" class=""></path><path d="M391.806 91.37c4.143 0 7.501-3.358 7.501-7.501s-3.358-7.501-7.501-7.501h-15.013l7.328-35.253a7.5 7.5 0 0 0-5.817-8.871 7.499 7.499 0 0 0-8.871 5.818l-7.963 38.306h-16.573l7.328-35.253a7.5 7.5 0 1 0-14.688-3.053l-7.963 38.306h-18.093c-4.143 0-7.501 3.358-7.501 7.501s3.358 7.501 7.501 7.501h14.975l-6.621 31.854h-18.044c-4.143 0-7.501 3.358-7.501 7.501s3.358 7.501 7.501 7.501h14.925l-7.484 36.006a7.5 7.5 0 1 0 14.687 3.053l8.119-39.059h16.573l-7.484 36.006a7.5 7.5 0 1 0 14.687 3.053l8.119-39.059h18.182c4.143 0 7.501-3.358 7.501-7.501s-3.358-7.501-7.501-7.501h-15.064l6.621-31.854zm-40.076 31.854h-16.573l6.621-31.854h16.573zM106.195 267.499h101.512c4.143 0 7.501-3.358 7.501-7.501s-3.358-7.501-7.501-7.501H106.195c-4.143 0-7.501 3.358-7.501 7.501s3.358 7.501 7.501 7.501zM106.195 307.944h193.072c4.143 0 7.501-3.358 7.501-7.501s-3.358-7.501-7.501-7.501H106.195c-4.143 0-7.501 3.358-7.501 7.501s3.358 7.501 7.501 7.501zM106.195 348.389h193.072c4.143 0 7.501-3.358 7.501-7.501s-3.358-7.501-7.501-7.501H106.195c-4.143 0-7.501 3.358-7.501 7.501s3.358 7.501 7.501 7.501zM106.195 388.835h193.072c4.143 0 7.501-3.358 7.501-7.501s-3.358-7.501-7.501-7.501H106.195c-4.143 0-7.501 3.358-7.501 7.501s3.358 7.501 7.501 7.501z" fill="#000000" opacity="1" data-original="#000000" class=""></path></g></svg>