<svg id="Capa_1" enable-background="new 0 0 502.208 502.208" height="512" viewBox="0 0 502.208 502.208" width="512" xmlns="http://www.w3.org/2000/svg"><g><path d="m433.248 220.514c-5.12-7.822-17.566-4.373-18.278 4.816-.718 9.276 11.091 14.291 17.34 7.487 3.051-3.321 3.503-8.56.938-12.303z"/><path d="m66.677 399.225c0 8.013 3.121 15.547 8.787 21.213l72.983 72.983c5.667 5.666 13.2 8.787 21.213 8.787h235.871c16.542 0 30-13.458 30-30v-206.092c0-12.84-20-12.859-20 0v206.092c0 5.514-4.486 10-10 10h-232.862v-56.421c0-16.542-13.458-30-30-30h-55.992v-220.992h328.854v10.525c0 5.523 4.477 10 10 10s10-4.477 10-10v-155.32c0-16.542-13.458-30-30-30h-308.854c-16.542 0-30 13.458-30 30zm85.992 26.562v43.572l-53.572-53.572h43.572c5.515 0 10 4.486 10 10zm-65.992-270.992v-124.795c0-5.514 4.486-10 10-10h308.854c5.514 0 10 4.486 10 10v124.795z"/><path d="m168.062 52.55c-3.908-2.038-15.453-2.62-15.453 4.066v28.465h-23.121v-28.464c0-7.607-18.125-7.607-18.125 0v73.894c0 7.735 18.125 7.735 18.125 0v-31.487h23.121v31.486c0 7.735 18.125 7.735 18.125 0v-73.893c0-1.781-.891-3.138-2.672-4.067z"/><path d="m239.398 51.156h-50.192c-7.51 0-7.437 15.801 0 15.801h16.034v63.516c0 7.782 18.125 7.781 18.125 0v-63.516h16.034c7.437 0 7.509-15.801-.001-15.801z"/><path d="m325.434 53.363c-3.675-3.099-10.381-2.954-14.407-.639-1.821 1.045-3.854 3.543-6.1 7.494l-11.967 20.914-11.967-20.914c-2.248-3.95-4.281-6.448-6.1-7.494-6.699-3.848-17.021-1.35-17.021 7.494v70.292c0 7.735 18.125 7.735 18.125 0v-44.731l11.038 20.216c2.403 4.648 9.197 4.327 11.735 0l11.154-19.054v43.569c0 7.735 18.125 7.735 18.125 0v-70.292c-.002-3.097-.873-5.382-2.615-6.855z"/><path d="m391.019 120.287h-26.491v-63.67c0-7.607-18.125-7.607-18.125 0v73.894c0 4.11 4.527 5.577 7.901 5.577h36.715c7.173 0 7.173-15.801 0-15.801z"/><path d="m216.925 264.413c-3.905-3.905-10.237-3.905-14.143 0l-33.69 33.69c-3.905 3.905-3.905 10.237 0 14.143l33.69 33.69c9.121 9.121 23.264-5.021 14.143-14.143l-26.62-26.619 26.62-26.619c3.906-3.905 3.906-10.237 0-14.142z"/><path d="m295.577 345.936c3.858 3.858 10.285 3.858 14.143 0l33.69-33.69c3.905-3.905 3.905-10.237 0-14.143l-33.69-33.69c-9.121-9.121-23.264 5.021-14.143 14.143l26.62 26.619-26.62 26.619c-3.905 3.905-3.905 10.237 0 14.142z"/><path d="m259.386 253.26-28.62 103.152c-3.433 12.369 15.823 17.778 19.271 5.347l28.62-103.152c3.435-12.372-15.832-17.738-19.271-5.347z"/></g></svg>