<svg xmlns="http://www.w3.org/2000/svg" xmlns:xlink="http://www.w3.org/1999/xlink" viewBox="0 0 795.62 832.32">
  <defs>
    <style>
      .cls-1 {
        fill: none;
      }

      .cls-2 {
        clip-path: url(#clip-path);
      }
    </style>
    <clipPath id="clip-path" transform="translate(-114.21 -95.09)">
      <rect class="cls-1" x="114.76" y="113.85" width="795.06" height="808.32"/>
    </clipPath>
  </defs>
  <title>IOT</title>
  <g id="Layer_1" data-name="Layer 1">
    <rect class="cls-1" width="795.62" height="832.32"/>
  </g>
  <g id="IOT">
    <g>
      <g class="cls-2">
        <path d="M128,272.87h79.51v13.25H167.76v26.5h106v-26.5H234V272.87h79.51a13.26,13.26,0,0,0,13.25-13.26V127.1a13.26,13.26,0,0,0-13.25-13.25H128a13.25,13.25,0,0,0-13.25,13.25V259.61A13.26,13.26,0,0,0,128,272.87Zm13.25-132.52h159v106h-159Zm0,0" transform="translate(-114.21 -95.09)"/>
        <path d="M896.57,842.66H883.32V723.4a13.25,13.25,0,0,0-13.25-13.25H631.55A13.25,13.25,0,0,0,618.3,723.4V842.66H605.05a13.25,13.25,0,0,0-13.25,13.25,66.33,66.33,0,0,0,66.25,66.26H843.57a66.33,66.33,0,0,0,66.25-66.26,13.25,13.25,0,0,0-13.25-13.25Zm-251.77-106h212v106h-212Zm198.77,159H658.05a39.81,39.81,0,0,1-37.48-26.51H881.06a39.84,39.84,0,0,1-37.49,26.51Zm0,0" transform="translate(-114.21 -95.09)"/>
      </g>
      <path d="M671.31,339.12h159a13.25,13.25,0,0,0,13.25-13.25V286.12a13.25,13.25,0,0,0-13.25-13.25h-159a13.26,13.26,0,0,0-13.26,13.25v39.75a13.26,13.26,0,0,0,13.26,13.25Zm13.25-39.75H817.07v13.25H684.56Zm0,0" transform="translate(-114.21 -95.09)"/>
      <path d="M671.31,259.61h159a13.25,13.25,0,0,0,13.25-13.25V206.61a13.25,13.25,0,0,0-13.25-13.25h-159a13.26,13.26,0,0,0-13.26,13.25v39.75a13.26,13.26,0,0,0,13.26,13.25Zm13.25-39.75H817.07v13.25H684.56Zm0,0" transform="translate(-114.21 -95.09)"/>
      <path d="M671.31,180.11h159a13.25,13.25,0,0,0,13.25-13.25V127.1a13.25,13.25,0,0,0-13.25-13.25h-159a13.26,13.26,0,0,0-13.26,13.25v39.76a13.26,13.26,0,0,0,13.26,13.25Zm13.25-39.76H817.07v13.26H684.56Zm0,0" transform="translate(-114.21 -95.09)"/>
      <path d="M326.78,710.15h-106a13.25,13.25,0,0,0-13.25,13.25V895.67a13.25,13.25,0,0,0,13.25,13.25h106A13.25,13.25,0,0,0,340,895.67V723.4a13.25,13.25,0,0,0-13.25-13.25ZM234,736.65h79.51V749.9H234Zm79.51,39.76v66.25H234V776.41Zm0,106H234V869.16h79.51Zm0,0" transform="translate(-114.21 -95.09)"/>
      <path d="M366.53,312.62H446a13.25,13.25,0,0,0,13.25-13.25V153.61A13.26,13.26,0,0,0,446,140.35H366.53a13.26,13.26,0,0,0-13.25,13.26V299.37a13.25,13.25,0,0,0,13.25,13.25Zm13.25-145.76h53V286.12h-53Zm0,0" transform="translate(-114.21 -95.09)"/>
      <rect x="278.83" y="138.02" width="26.5" height="26.5"/>
      <path d="M843.57,577.64H662a155.05,155.05,0,0,0,4-92.76h151a39.75,39.75,0,0,0,0-79.5H777.31a13.26,13.26,0,0,1-13.25-13.25V365.62h-26.5v26.51a39.75,39.75,0,0,0,39.75,39.75h39.76a13.25,13.25,0,0,1,0,26.5H656.66a158.71,158.71,0,0,0-288.72,0H154.51a13.25,13.25,0,0,1,0-26.5h106a39.76,39.76,0,0,0,39.76-39.75v-53H273.77v53a13.25,13.25,0,0,1-13.25,13.25h-106a39.75,39.75,0,1,0,0,79.5h204a153.78,153.78,0,0,0,0,79.51h-151a39.76,39.76,0,1,0,0,79.51h39.75a13.25,13.25,0,0,1,13.25,13.25v26.5H287v-26.5a39.76,39.76,0,0,0-39.75-39.76H207.52a13.25,13.25,0,1,1,0-26.5h160.4a158.69,158.69,0,0,0,281.87,13.25H843.57a13.25,13.25,0,0,1,0,26.5H777.31a39.76,39.76,0,0,0-39.75,39.76v13.25h26.5V670.4a13.25,13.25,0,0,1,13.25-13.25h66.26a39.76,39.76,0,0,0,0-79.51ZM644.13,511.39H601.41A189.94,189.94,0,0,0,555,399.33a132.76,132.76,0,0,1,89.1,112.06ZM499,406.7V511.39H449.61A160.4,160.4,0,0,1,499,406.7Zm0,131.19V642.57a160.4,160.4,0,0,1-49.43-104.68Zm26.5,104.68V537.89H575a160.35,160.35,0,0,1-49.43,104.68Zm0-131.18V406.7A160.35,160.35,0,0,1,575,511.39Zm-56-112.06a189.89,189.89,0,0,0-46.39,112.06H380.45a132.76,132.76,0,0,1,89.12-112.06ZM380.45,537.89h42.73a189.87,189.87,0,0,0,46.38,112.05,132.79,132.79,0,0,1-89.11-112.05ZM555,649.94a189.94,189.94,0,0,0,46.38-112.05h42.72A132.75,132.75,0,0,1,555,649.94Zm0,0" transform="translate(-114.21 -95.09)"/>
    </g>
  </g>
</svg>
