<?xml version="1.0" standalone="no"?>
<!DOCTYPE svg PUBLIC "-//W3C//DTD SVG 20010904//EN"
 "http://www.w3.org/TR/2001/REC-SVG-20010904/DTD/svg10.dtd">
<svg version="1.0" xmlns="http://www.w3.org/2000/svg"
 width="200.000000pt" height="200.000000pt" viewBox="0 0 200.000000 200.000000"
 preserveAspectRatio="xMidYMid meet">

<g transform="translate(0.000000,200.000000) scale(0.100000,-0.100000)"
fill="#000000" stroke="none">
<path d="M653 1990 c-109 -22 -179 -98 -171 -184 3 -22 8 -49 12 -58 7 -16 2
-18 -36 -18 -56 0 -104 -31 -131 -84 -21 -41 -28 -120 -14 -168 7 -25 4 -29
-36 -46 -62 -27 -92 -78 -94 -159 -1 -55 -5 -67 -31 -93 -65 -65 -58 -193 15
-271 l24 -26 -24 -16 c-14 -9 -36 -40 -51 -68 -29 -59 -34 -134 -14 -201 15
-52 83 -128 113 -128 22 0 23 -2 14 -36 -22 -76 29 -145 147 -201 65 -31 73
-38 89 -78 23 -63 100 -129 166 -145 96 -23 216 10 262 72 11 15 25 51 29 80
5 29 12 423 15 876 l5 823 -46 44 c-78 76 -155 102 -243 85z m133 -58 c42 -23
89 -64 103 -90 7 -14 11 -101 11 -257 l0 -236 -27 19 c-58 39 -179 70 -199 49
-16 -15 8 -35 50 -40 56 -8 112 -36 146 -72 24 -26 25 -32 28 -178 2 -83 1
-166 -3 -184 -5 -29 -10 -33 -39 -33 -18 0 -56 7 -86 16 -43 13 -54 13 -61 2
-5 -7 -3 -18 4 -25 14 -14 120 -43 159 -43 l27 0 -6 -137 c-3 -76 -8 -140 -10
-143 -3 -3 -41 -5 -86 -5 -58 1 -92 6 -115 18 -37 20 -86 82 -113 145 -17 40
-41 54 -54 32 -10 -17 48 -123 95 -171 53 -55 93 -69 203 -69 l77 0 -1 -112
c-1 -197 -12 -284 -40 -314 -23 -25 -76 -54 -99 -54 -8 0 -9 26 -5 89 10 117
2 150 -45 210 -41 52 -74 71 -93 52 -7 -7 5 -26 41 -65 l52 -55 0 -93 c0 -119
-5 -138 -37 -138 -29 0 -92 31 -115 57 -9 10 -29 45 -44 76 -14 32 -34 61 -43
64 -54 17 -143 68 -165 94 -46 54 -31 101 66 212 37 41 58 73 54 82 -9 24 -18
19 -83 -45 -64 -61 -104 -80 -132 -63 -9 5 -27 30 -41 54 -34 61 -34 147 -1
206 28 49 59 63 137 63 29 0 56 5 60 12 9 15 -24 38 -55 38 -14 0 -45 9 -69
20 -34 15 -47 29 -64 66 -25 59 -21 124 12 159 l23 24 39 -39 c45 -45 77 -59
89 -39 6 10 -7 27 -41 57 -83 72 -91 166 -19 226 55 46 77 37 139 -60 30 -47
77 -106 105 -133 l50 -47 -29 -60 c-31 -63 -39 -124 -19 -131 7 -3 16 4 19 14
4 10 20 50 36 89 l29 72 60 4 c63 5 103 28 82 49 -7 7 -22 7 -52 -1 -85 -22
-144 16 -237 155 -81 120 -104 169 -104 221 0 132 93 180 199 104 22 -17 45
-30 50 -30 26 0 19 26 -19 75 -65 85 -73 141 -26 194 51 57 168 78 232 43z"/>
<path d="M1200 1961 c-74 -26 -116 -36 -142 -33 -31 3 -39 0 -54 -23 -17 -26
-17 -29 -1 -57 15 -26 17 -71 17 -414 l0 -384 108 0 c96 0 111 -2 127 -20 23
-26 59 -26 85 0 24 24 25 38 4 68 -18 26 -65 30 -84 7 -9 -11 -35 -15 -101
-15 l-89 0 0 140 0 140 60 0 c46 0 68 -5 89 -20 35 -27 77 -14 87 26 8 33 -5
56 -39 68 -22 8 -31 6 -50 -12 -19 -18 -35 -22 -85 -22 l-62 0 0 210 c0 130 4
210 10 210 5 0 16 12 24 28 11 21 32 33 96 55 44 16 87 26 95 24 17 -7 95
-121 95 -139 0 -25 -97 -111 -126 -113 -25 -1 -64 -36 -64 -57 0 -15 48 -58
65 -58 21 0 55 36 55 59 0 24 103 121 129 121 19 0 61 43 61 62 0 5 -11 20
-25 34 -18 18 -31 23 -49 18 -21 -5 -30 3 -72 65 -27 39 -51 71 -54 70 -3 0
-52 -17 -110 -38z"/>
<path d="M1564 1715 c-8 -13 -13 -28 -10 -34 11 -17 -102 -106 -129 -103 -27
4 -65 -29 -65 -56 0 -10 7 -27 15 -38 21 -28 21 -216 0 -234 -8 -7 -15 -21
-15 -31 0 -25 35 -59 60 -59 26 0 60 34 60 60 0 11 -9 28 -20 37 -17 15 -20
30 -20 110 0 80 3 96 20 113 11 11 20 30 21 43 1 28 91 107 122 107 31 0 136
-125 137 -161 0 -53 56 -82 95 -49 35 29 6 100 -41 100 -29 0 -130 126 -126
157 8 57 -72 87 -104 38z"/>
<path d="M1555 1385 c-31 -30 -31 -49 -4 -76 15 -15 30 -20 52 -16 24 3 61 -9
150 -51 l117 -55 0 -38 0 -39 -93 0 -93 0 -48 -49 c-27 -27 -61 -51 -77 -55
-55 -11 -64 -87 -12 -107 36 -13 73 11 73 50 0 19 14 44 41 75 l41 46 84 0 84
0 0 -83 c0 -80 -1 -85 -30 -112 -17 -16 -42 -29 -57 -30 -16 0 -33 -10 -45
-26 -16 -22 -17 -29 -7 -52 25 -55 109 -38 109 21 0 19 12 39 35 62 l35 34 -2
169 -3 169 -125 57 c-98 46 -126 63 -132 83 -7 21 -43 48 -64 48 -3 0 -16 -11
-29 -25z"/>
<path d="M1011 941 c-27 -27 -27 -55 0 -82 22 -22 22 -25 17 -341 l-6 -320 90
-94 90 -94 157 0 157 0 53 75 c35 48 67 81 90 92 31 16 36 23 36 53 0 27 -6
37 -26 49 -24 13 -29 13 -53 -2 -20 -13 -26 -26 -26 -52 0 -27 -13 -53 -51
-105 l-51 -70 -79 0 -79 0 0 101 c0 82 3 104 16 114 20 14 22 59 4 80 -17 21
-63 19 -83 -3 -23 -25 -21 -55 3 -77 17 -16 20 -31 20 -117 l0 -98 -34 0 c-30
0 -43 10 -110 84 l-76 83 0 157 0 156 50 0 c37 0 59 -6 81 -22 28 -21 32 -21
57 -7 21 11 27 22 27 49 0 27 -6 38 -27 49 -25 14 -29 14 -57 -7 -22 -16 -44
-22 -81 -22 l-50 0 0 135 c0 124 2 138 22 165 l22 30 -21 28 c-25 34 -56 39
-82 13z"/>
<path d="M1250 890 c-11 -11 -20 -29 -20 -40 0 -25 34 -60 58 -60 10 0 33 -20
52 -45 l34 -45 68 0 68 0 0 -37 c0 -21 -7 -47 -15 -57 -44 -58 30 -131 78 -78
21 23 22 65 2 82 -9 7 -15 29 -15 51 l0 39 45 0 c39 0 55 -8 136 -66 101 -75
99 -68 54 -169 l-24 -55 -110 0 c-69 0 -111 4 -111 10 0 6 -11 15 -25 22 -55
25 -102 -54 -57 -95 23 -21 41 -21 69 -2 15 10 55 15 143 17 l123 3 43 105
c34 83 41 107 31 117 -6 6 -59 46 -117 87 l-104 76 -132 0 -132 0 -25 33 c-17
23 -23 41 -20 59 3 18 -2 33 -16 47 -26 26 -55 27 -81 1z"/>
</g>
</svg>
