<svg height="657pt" viewBox="-20 -78 657.33212 657" width="657pt" xmlns="http://www.w3.org/2000/svg"><path d="m508.007812 163.917969-41.457031 38.582031v-115.683594c0-4.824218-3.90625-8.730468-8.730469-8.730468-4.820312 0-8.734374 3.90625-8.734374 8.730468v115.683594l-41.453126-38.582031c-2.28125-2.144531-5.535156-2.90625-8.527343-1.996094-2.996094.917969-5.273438 3.363281-5.96875 6.414063-.691407 3.050781.296875 6.242187 2.597656 8.367187l62.085937 57.785156 62.085938-57.78125c3.503906-3.292969 3.683594-8.792969.410156-12.3125-3.277344-3.519531-8.773437-3.726562-12.308594-.472656zm0 0"/><path d="m457.820312-3.742188c-83.902343-.023437-153.261718 65.398438-158.132812 149.160157h-241.0625c-29.460938.042969-54.332031 21.917969-58.128906 51.136719-.4687502 1.332031-.597656 2.753906-.394532 4.148437-.0624995 1.109375-.101562 2.226563-.101562 3.347656v233.8125c-.015625 13.675781 4.777344 26.917969 13.53125 37.425781.679688 1.300782 1.671875 2.410157 2.902344 3.21875 11.027344 11.496094 26.261718 17.992188 42.191406 17.988282h349.296875c15.910156.003906 31.132813-6.476563 42.152344-17.941406 1.238281-.816407 2.242187-1.9375 2.925781-3.246094 8.765625-10.507813 13.566406-23.761719 13.550781-37.445313v-124.984375c83.3125-4.550781 149.699219-73.761718 149.699219-158.191406-.097656-87.460938-70.972656-158.332031-158.429688-158.429688zm-399.195312 166.625h240.980469c1.882812 37.601563 17.152343 73.28125 43.046875 100.601563 3.867187 4.09375 7.945312 7.976563 12.214844 11.648437l-98.128907 83.230469c-13.476562 11.488281-33.296875 11.5-46.78125.019531l-191.707031-162.328124c3.839844-19.265626 20.734375-33.140626 40.375-33.171876zm0 316.148438c-8.910156.007812-17.578125-2.890625-24.699219-8.253906l105.347657-107.75c2.214843-2.230469 3.0625-5.46875 2.226562-8.492188-.835938-3.023437-3.234375-5.367187-6.273438-6.132812-3.042968-.769532-6.265624.152344-8.4375 2.410156l-104.324218 106.703125c-3.289063-6.027344-5.011719-12.785156-5.003906-19.652344v-219.59375l181.210937 153.441407c19.988281 17.019531 49.382813 17.007812 69.359375-.03125l101.027344-85.679688c23.707031 16.125 51.394531 25.425781 80.027344 26.882812v124.980469c.011718 6.890625-1.722657 13.675781-5.039063 19.71875l-104.953125-106.78125c-3.390625-3.378906-8.867188-3.394531-12.277344-.039062-3.414062 3.351562-3.492187 8.828125-.175781 12.277343l105.925781 107.777344c-7.105468 5.339844-15.757812 8.222656-24.644531 8.214844zm399.195312-183.378906c-30.011718.121094-59.269531-9.445313-83.417968-27.269532-.363282-.320312-.75-.613281-1.15625-.871093-6.40625-4.835938-12.390625-10.191407-17.898438-16.023438-45.925781-48.613281-51.371094-122.796875-13.042968-177.601562 38.332031-54.792969 109.886718-75.125 171.300781-48.65625 61.414062 26.464843 95.78125 92.441406 82.269531 157.933593-13.511719 65.496094-71.179688 112.484376-138.054688 112.488282zm0 0"/></svg>