<svg xmlns="http://www.w3.org/2000/svg" version="1.1" xmlns:xlink="http://www.w3.org/1999/xlink" width="512" height="512" x="0" y="0" viewBox="0 0 512.001 512.001" style="enable-background:new 0 0 512 512" xml:space="preserve" class=""><g><path d="M467.853 40.681C441.619 14.448 406.74 0 369.641 0c-37.099 0-71.978 14.448-98.212 40.681-23.367 23.368-37.66 54.357-40.245 87.259-2.375 30.206 5.19 60.365 21.363 85.684L12.229 453.937c-11.68 11.681-11.68 30.686 0 42.367 5.658 5.657 13.182 8.775 21.184 8.775s15.524-3.117 21.184-8.775l25.816-25.817 32.737 32.739c5.658 5.657 13.182 8.775 21.184 8.775s15.524-3.117 21.183-8.776c11.68-11.681 11.679-30.686 0-42.366l-17.333-17.332 19.258-19.258 17.332 17.331c5.658 5.659 13.182 8.776 21.184 8.776s15.524-3.116 21.181-8.775c5.658-5.657 8.776-13.181 8.776-21.183s-3.117-15.526-8.775-21.184l-32.74-32.737 110.506-110.505c22.292 14.275 47.985 21.787 74.743 21.789 37.098-.001 71.971-14.446 98.201-40.676 26.233-26.234 40.681-61.113 40.681-98.212.003-37.099-14.445-71.978-40.678-98.212zm-11.556 184.87c-23.145 23.146-53.91 35.89-86.636 35.89-25.681-.002-50.237-7.831-71.023-22.645a8.171 8.171 0 0 0-10.519.876L167.07 360.72a8.171 8.171 0 0 0 0 11.556l38.514 38.514a13.526 13.526 0 0 1 3.989 9.629 13.53 13.53 0 0 1-3.989 9.629 13.526 13.526 0 0 1-9.628 3.988 13.528 13.528 0 0 1-9.63-3.989l-23.11-23.109a8.17 8.17 0 0 0-11.554 0l-30.811 30.811a8.17 8.17 0 0 0 0 11.555l23.11 23.11c5.31 5.308 5.31 13.948 0 19.257a13.527 13.527 0 0 1-9.628 3.989 13.528 13.528 0 0 1-9.629-3.989L86.19 453.156a8.146 8.146 0 0 0-5.778-2.392 8.15 8.15 0 0 0-5.778 2.392L43.042 484.75c-2.572 2.572-5.993 3.989-9.63 3.989s-7.058-1.417-9.629-3.989c-5.31-5.308-5.31-13.948 0-19.257l245.079-245.078a8.171 8.171 0 0 0 .876-10.519c-34.82-48.861-29.25-115.167 13.244-157.662 23.148-23.147 53.923-35.894 86.659-35.894 32.735 0 63.511 12.748 86.657 35.896 23.148 23.147 35.896 53.922 35.896 86.657 0 32.736-12.749 63.511-35.897 86.658z" fill="#000000" opacity="1" data-original="#000000"></path><path d="M457.037 134.307c-4.507-.194-8.313 3.323-8.497 7.83-.81 19.864-8.999 38.546-23.054 52.601-14.916 14.919-34.748 23.134-55.845 23.134-21.095 0-40.928-8.215-55.846-23.133-30.794-30.794-30.794-80.898 0-111.691 14.917-14.919 34.75-23.134 55.846-23.134 21.097 0 40.929 8.215 55.846 23.133 8.413 8.412 14.675 18.325 18.612 29.465a8.17 8.17 0 0 0 15.406-5.444c-4.756-13.458-12.314-25.426-22.463-35.575-18.004-18.003-41.94-27.918-67.401-27.918s-49.397 9.915-67.401 27.918c-37.165 37.165-37.165 97.637 0 134.802 18.004 18.003 41.94 27.918 67.401 27.918s49.398-9.915 67.401-27.918c16.965-16.965 26.847-39.512 27.827-63.49a8.173 8.173 0 0 0-7.832-8.498z" fill="#000000" opacity="1" data-original="#000000"></path></g></svg>