<svg xmlns="http://www.w3.org/2000/svg" version="1.1" xmlns:xlink="http://www.w3.org/1999/xlink" width="512" height="512" x="0" y="0" viewBox="0 0 64 64" style="enable-background:new 0 0 512 512" xml:space="preserve" class=""><g><path d="M18 7C11.935 7 7 11.935 7 18s4.935 11 11 11 11-4.935 11-11S24.065 7 18 7zm0 20c-4.962 0-9-4.038-9-9s4.038-9 9-9 9 4.038 9 9-4.038 9-9 9zM18 35c-6.065 0-11 4.935-11 11s4.935 11 11 11 11-4.935 11-11-4.935-11-11-11zm0 20c-4.962 0-9-4.037-9-9s4.038-9 9-9 9 4.037 9 9-4.038 9-9 9zM46 35c-6.065 0-11 4.935-11 11s4.935 11 11 11 11-4.935 11-11-4.935-11-11-11zm0 20c-4.963 0-9-4.037-9-9s4.037-9 9-9 9 4.037 9 9-4.037 9-9 9zM46 29c2.938 0 5.7-1.144 7.778-3.222 4.289-4.289 4.289-11.268 0-15.557C51.7 8.144 48.938 7 46 7s-5.7 1.144-7.778 3.222c-4.289 4.289-4.289 11.268 0 15.557A10.93 10.93 0 0 0 46 29zm2.857-19.53a8.917 8.917 0 0 1 2.758 1.5L38.971 23.615a8.907 8.907 0 0 1-1.495-2.761c.012-.011.027-.014.039-.026L48.828 9.515c.013-.014.018-.031.029-.045zm5.667 5.676c-.012.011-.027.014-.039.026L43.172 26.485c-.013.013-.018.031-.029.044a8.917 8.917 0 0 1-2.758-1.5L53.03 12.384a8.941 8.941 0 0 1 1.494 2.762zm-2.16 9.218A8.943 8.943 0 0 1 46 27c-.165 0-.327-.015-.49-.024l9.463-9.463c.132 2.464-.731 4.973-2.609 6.851zM39.636 11.636A8.943 8.943 0 0 1 46 9c.165 0 .327.015.49.024l-9.463 9.463c-.132-2.464.731-4.973 2.609-6.851z" fill="#000000" opacity="1" data-original="#000000" class=""></path></g></svg>