<svg height="682pt" viewBox="-63 -21 682 682.66669" width="682pt" xmlns="http://www.w3.org/2000/svg"><path d="m217.726562 49.65625h-63.664062c-16.351562 0-16.371094 25.46875 0 25.46875h63.664062c16.351563 0 16.371094-25.46875 0-25.46875zm0 0"/><path d="m188.402344 598.078125c6.921875 0 12.730468-5.816406 12.734375-12.734375 0-6.925781-5.8125-12.730469-12.734375-12.730469-6.722656 0-12.410156 5.46875-12.707032 12.171875-.3125 7.125 5.566407 13.292969 12.707032 13.292969zm0 0"/><path d="m10.316406 389.625c6.929688 0 12.734375-5.804688 12.734375-12.734375 0-6.921875-5.8125-12.730469-12.734375-12.730469-6.722656 0-12.40625 5.472656-12.703125 12.171875-.316406 7.136719 5.554688 13.292969 12.703125 13.292969zm0 0"/><path d="m-2.417969 614.535156c0 14.039063 11.425781 25.464844 25.464844 25.464844h330.707031c14.042969 0 25.46875-11.425781 25.46875-25.464844v-159.886718h162.019532c7.03125 0 12.726562-5.699219 12.726562-12.730469v-231.289063c0-7.03125-5.695312-12.730468-12.726562-12.730468h-162.019532v-172.433594c0-14.039063-11.425781-25.464844-25.46875-25.464844h-330.707031c-14.039063 0-25.464844 11.425781-25.464844 25.464844v300.503906c0 16.34375 25.464844 16.371094 25.464844 0v-210.496094h86.792969v21.222656c0 7.03125 5.703125 12.734376 12.734375 12.734376h130.886719c7.03125 0 12.730468-5.703126 12.730468-12.734376v-21.222656h87.570313v82.425782h-175.558594c-7.03125 0-12.734375 5.699218-12.734375 12.730468v231.289063c0 7.03125 5.703125 12.730469 12.734375 12.730469h37.777344l30.558593 45.160156c4.804688 7.101562 15.347657 7.433594 20.59375.679687l35.636719-45.839843h50.984375v76.03125h-330.707031v-103.222657c0-16.355469-25.464844-16.378906-25.464844 0zm356.171875 0h-330.707031v-58.394531h330.707031zm-100.292968-524.53125c-7.035157 0-12.734376 5.703125-12.734376 12.734375v21.222657h-105.417968v-21.222657c0-7.03125-5.703125-12.734375-12.734375-12.734375h-99.527344v-64.539062h330.707031v64.539062zm275.046874 339.179688h-231.964843c-3.929688 0-7.640625 1.816406-10.054688 4.917968l-28.691406 36.90625-24.511719-36.226562c-2.367187-3.5-6.316406-5.597656-10.539062-5.597656h-31.808594v-205.820313h337.570312zm0 0"/><path d="m120.902344 247.773438h-56.875c-16.347656 0-16.371094 25.46875 0 25.46875h56.875c16.355468 0 16.375-25.46875 0-25.46875zm0 0"/><path d="m120.902344 292.554688h-28.4375c-16.347656 0-16.371094 25.46875 0 25.46875h28.4375c16.355468 0 16.375-25.46875 0-25.46875zm0 0"/><path d="m64.027344 362.804688h56.875c16.355468 0 16.378906-25.464844 0-25.464844h-56.875c-16.347656 0-16.371094 25.464844 0 25.464844zm0 0"/><path d="m120.902344 382.117188h-39.863282c-16.347656 0-16.371093 25.464843 0 25.464843h39.863282c16.355468 0 16.375-25.464843 0-25.464843zm0 0"/><path d="m353.753906 274.5v55.191406c0 16.347656 25.46875 16.371094 25.46875 0v-55.191406c0-16.34375-25.46875-16.371094-25.46875 0zm0 0"/><path d="m366.089844 367.886719c-6.917969 0-12.730469 5.816406-12.730469 12.734375 0 6.921875 5.8125 12.734375 12.730469 12.734375 6.722656 0 12.410156-5.472657 12.710937-12.179688.316407-7.117187-5.566406-13.289062-12.710937-13.289062zm0 0"/></svg>