<svg xmlns="http://www.w3.org/2000/svg" version="1.1" xmlns:xlink="http://www.w3.org/1999/xlink" width="512" height="512" x="0" y="0" viewBox="0 0 512 512" style="enable-background:new 0 0 512 512" xml:space="preserve" class=""><g><path d="M143 431.5a62.5 62.5 0 1 1 35.54-113.89 7.5 7.5 0 1 1-8.549 12.326 47.512 47.512 0 1 0 13.452 14.177 7.5 7.5 0 0 1 12.76-7.886A62.481 62.481 0 0 1 143 431.5zm0-30a32.5 32.5 0 1 1 32.5-32.5 32.537 32.537 0 0 1-32.5 32.5zm0-50a17.5 17.5 0 1 0 17.5 17.5 17.52 17.52 0 0 0-17.5-17.5z" fill="#000000" opacity="1" data-original="#000000" class=""></path><path d="M461.5 370a7.5 7.5 0 0 0-7.5 7.5v37.666a12.514 12.514 0 0 1-12.5 12.5H245.573a17.7 17.7 0 0 0-2.655-4.318l-11.074-13.287q1.661-3.577 3.026-7.275l17.214-1.565A17.417 17.417 0 0 0 268 383.793v-29.587a17.417 17.417 0 0 0-15.915-17.428l-17.215-1.565q-1.362-3.69-3.026-7.275l11.074-13.289a17.415 17.415 0 0 0-1.069-23.576l-20.921-20.921a17.415 17.415 0 0 0-23.578-1.07l-13.288 11.075q-3.579-1.662-7.275-3.027l-1.565-17.214A17.416 17.416 0 0 0 157.794 244h-29.588a17.414 17.414 0 0 0-17.427 15.915l-1.566 17.215q-3.688 1.362-7.275 3.027L88.65 269.082a17.417 17.417 0 0 0-23.578 1.07l-20.921 20.921a17.416 17.416 0 0 0-1.069 23.577l11.074 13.288q-1.66 3.579-3.026 7.275l-17.215 1.565A17.417 17.417 0 0 0 18 354.206v29.587a17.417 17.417 0 0 0 15.915 17.429l17.215 1.565q1.362 3.69 3.026 7.275L43.082 423.35a17.418 17.418 0 0 0 1.069 23.578l20.921 20.92a17.418 17.418 0 0 0 23.578 1.07l13.288-11.075q3.579 1.662 7.275 3.027l1.565 17.214A17.415 17.415 0 0 0 128.206 494h29.588a17.413 17.413 0 0 0 17.427-15.915l1.566-17.215q3.689-1.362 7.275-3.027l13.289 11.075a17.414 17.414 0 0 0 23.577-1.07l20.921-20.92a17.657 17.657 0 0 0 3.134-4.261H441.5a27.532 27.532 0 0 0 27.5-27.5V377.5a7.5 7.5 0 0 0-7.5-7.5zm-230.258 66.32-20.922 20.922a2.488 2.488 0 0 1-3.367.152l-17.043-14.2a7.5 7.5 0 0 0-8.311-.866 82.207 82.207 0 0 1-14.062 5.851 7.5 7.5 0 0 0-5.247 6.484l-2.008 22.067a2.486 2.486 0 0 1-2.488 2.27h-29.588a2.487 2.487 0 0 1-2.489-2.274l-2.007-22.066a7.5 7.5 0 0 0-5.247-6.484 82.207 82.207 0 0 1-14.062-5.851 7.5 7.5 0 0 0-8.311.866l-17.042 14.2a2.487 2.487 0 0 1-3.368-.152l-20.921-20.918a2.487 2.487 0 0 1-.154-3.368l14.2-17.043a7.5 7.5 0 0 0 .866-8.312 82.077 82.077 0 0 1-5.851-14.061 7.5 7.5 0 0 0-6.483-5.247l-22.068-2.007a2.488 2.488 0 0 1-2.269-2.49v-29.587a2.487 2.487 0 0 1 2.274-2.489l22.067-2.007a7.5 7.5 0 0 0 6.483-5.247 82.107 82.107 0 0 1 5.851-14.063 7.5 7.5 0 0 0-.866-8.311l-14.2-17.043a2.487 2.487 0 0 1 .154-3.368l20.917-20.92a2.488 2.488 0 0 1 3.367-.152l17.043 14.2a7.5 7.5 0 0 0 8.311.867 82.075 82.075 0 0 1 14.062-5.85 7.5 7.5 0 0 0 5.247-6.484l2.008-22.068a2.486 2.486 0 0 1 2.488-2.271h29.588a2.487 2.487 0 0 1 2.489 2.274l2.007 22.067a7.5 7.5 0 0 0 5.247 6.484 82.075 82.075 0 0 1 14.062 5.85 7.5 7.5 0 0 0 8.311-.867l17.043-14.2a2.486 2.486 0 0 1 3.367.152l20.921 20.921a2.487 2.487 0 0 1 .154 3.368l-14.2 17.043a7.5 7.5 0 0 0-.866 8.311 82.107 82.107 0 0 1 5.851 14.062 7.5 7.5 0 0 0 6.483 5.247l22.067 2.007a2.487 2.487 0 0 1 2.27 2.487v29.587a2.488 2.488 0 0 1-2.274 2.49l-22.067 2.007a7.5 7.5 0 0 0-6.483 5.247 82.077 82.077 0 0 1-5.851 14.061 7.5 7.5 0 0 0 .866 8.312l14.2 17.042a2.489 2.489 0 0 1-.149 3.369zM294.41 186.88v13.5h-22.5a12.514 12.514 0 0 0-12.5 12.5v42a12.515 12.515 0 0 0 12.5 12.5h130a12.514 12.514 0 0 0 12.5-12.5v-121a12.514 12.514 0 0 0-12.5-12.5h-25a12.514 12.514 0 0 0-12.5 12.5v13.5h-22.5a12.514 12.514 0 0 0-12.5 12.5v14.5h-22.5a12.514 12.514 0 0 0-12.5 12.5zm0 65.5h-20v-37h20zm85-97.5v-18.5h20v116h-20zm-35 27v-19.5h20v90h-20zm-35 26v-18.5h20v63h-20z" fill="#000000" opacity="1" data-original="#000000" class=""></path><circle cx="411.264" cy="74.169" r="7.5" fill="#000000" opacity="1" data-original="#000000" class=""></circle><circle cx="332.264" cy="74.169" r="7.5" fill="#000000" opacity="1" data-original="#000000" class=""></circle><circle cx="253.264" cy="74.169" r="7.5" fill="#000000" opacity="1" data-original="#000000" class=""></circle><circle cx="174.264" cy="74.169" r="7.5" fill="#000000" opacity="1" data-original="#000000" class=""></circle><path d="M115.534 187.668a7.5 7.5 0 0 0 7.5 7.5h110a7.5 7.5 0 0 0 0-15h-110a7.5 7.5 0 0 0-7.5 7.5zM163.755 214.169a7.5 7.5 0 0 0 0 15h39.134a7.5 7.5 0 0 0 0-15zM123.034 229.169h17.5a7.5 7.5 0 0 0 0-15h-17.5a7.5 7.5 0 0 0 0 15zM143.534 153.664a7.5 7.5 0 0 0 7.5 7.5h82a7.5 7.5 0 0 0 0-15h-82a7.5 7.5 0 0 0-7.5 7.5z" fill="#000000" opacity="1" data-original="#000000" class=""></path><circle cx="130.534" cy="153.669" r="7.5" fill="#000000" opacity="1" data-original="#000000" class=""></circle><circle cx="225.534" cy="221.669" r="7.5" fill="#000000" opacity="1" data-original="#000000" class=""></circle><path d="M404.41 347.5a7.5 7.5 0 0 0-7.5-7.5h-110a7.5 7.5 0 0 0 0 15h110a7.5 7.5 0 0 0 7.5-7.5zM327.632 374a7.5 7.5 0 0 0 0 15h39.133a7.5 7.5 0 0 0 0-15zM286.91 374a7.5 7.5 0 0 0 0 15h17.5a7.5 7.5 0 0 0 0-15zM396.91 306h-82a7.5 7.5 0 0 0 0 15h82a7.5 7.5 0 0 0 0-15zM294.41 321a7.5 7.5 0 1 0-7.5-7.5 7.5 7.5 0 0 0 7.5 7.5zM381.91 381.5a7.5 7.5 0 1 0 7.5-7.5 7.5 7.5 0 0 0-7.5 7.5z" fill="#000000" opacity="1" data-original="#000000" class=""></path><path d="M461.5 18a32.55 32.55 0 0 0-30.637 21.668h-284.03a7.5 7.5 0 0 0-5.3 2.2l-70 70a7.5 7.5 0 0 0-2.2 5.3v133.381a7.5 7.5 0 0 0 15 0V124.668h42.5a27.531 27.531 0 0 0 27.5-27.5v-42.5H429v252.118a7.51 7.51 0 0 0 .7 3.165l20.468 43.975a12.5 12.5 0 0 0 22.665 0l20.467-43.975a7.51 7.51 0 0 0 .7-3.165V50.5A32.536 32.536 0 0 0 461.5 18zm-334.667 91.668H94.939l44.394-44.393v31.893a12.514 12.514 0 0 1-12.5 12.5zM479 305.126l-17.5 37.6-17.5-37.6V108h35zM479 93h-35V78h35zm0-30h-35V50.5a17.5 17.5 0 0 1 35 0z" fill="#000000" opacity="1" data-original="#000000" class=""></path></g></svg>