<?xml version="1.0"?>
<svg xmlns="http://www.w3.org/2000/svg" viewBox="0 0 64 64" width="512" height="512"><g id="Outlines"><g><circle cx="57" cy="7" r="1"/><path d="M48,7a1,1,0,0,0,1,1h4a1,1,0,0,0,0-2H49A1,1,0,0,0,48,7Z"/><path d="M61,2H52a1,1,0,0,0,0,2h8v6H46V4h2a1,1,0,0,0,0-2H45a1,1,0,0,0-1,1V19a1,1,0,0,0,1,1h9v2H33V20h7a1,1,0,0,0,1-1V3a1,1,0,0,0-1-1H31a1,1,0,0,0,0,2h8v6H25V4h2a1,1,0,0,0,0-2H24a1,1,0,0,0-1,1V19a1,1,0,0,0,1,1h7v2H10V20h9a1,1,0,0,0,1-1V3a1,1,0,0,0-1-1H10a1,1,0,0,0,0,2h8v6H4V4H6A1,1,0,0,0,6,2H3A1,1,0,0,0,2,3V19a1,1,0,0,0,1,1H8v3a1,1,0,0,0,1,1H31v2H23a1,1,0,0,0-.8,1.6l5.841,7.788.967,7.736A1,1,0,0,0,30,44h4a1,1,0,0,0,.992-.876l.967-7.736L41.8,27.6A1,1,0,0,0,41,26H38a1,1,0,0,0,0,2h1l-4.8,6.4a1,1,0,0,0-.192.476L33.117,42H30.883l-.891-7.124A1,1,0,0,0,29.8,34.4L25,28h9a1,1,0,0,0,0-2H33V24H55a1,1,0,0,0,1-1V20h5a1,1,0,0,0,1-1V3A1,1,0,0,0,61,2ZM25,12H39v6H25ZM4,12H18v6H4Zm56,6H46V12H60Z"/><circle cx="57" cy="15" r="1"/><path d="M49,16h4a1,1,0,0,0,0-2H49a1,1,0,0,0,0,2Z"/><circle cx="36" cy="15" r="1"/><path d="M33,15a1,1,0,0,0-1-1H28a1,1,0,0,0,0,2h4A1,1,0,0,0,33,15Z"/><circle cx="15" cy="15" r="1"/><path d="M12,15a1,1,0,0,0-1-1H7a1,1,0,0,0,0,2h4A1,1,0,0,0,12,15Z"/><circle cx="36" cy="7" r="1"/><path d="M27,7a1,1,0,0,0,1,1h4a1,1,0,0,0,0-2H28A1,1,0,0,0,27,7Z"/><circle cx="15" cy="7" r="1"/><path d="M6,7A1,1,0,0,0,7,8h4a1,1,0,0,0,0-2H7A1,1,0,0,0,6,7Z"/><path d="M35,46H31a1,1,0,0,0,0,2h4a1,1,0,0,0,0-2Z"/><path d="M39,52h4a1,1,0,0,0,0-2H39a1,1,0,0,0,0,2Z"/><circle cx="39" cy="47" r="1"/><circle cx="43" cy="47" r="1"/><circle cx="31" cy="51" r="1"/><circle cx="35" cy="51" r="1"/><path d="M25,52h2a1,1,0,0,0,0-2H25a1,1,0,0,0,0,2Z"/><circle cx="21" cy="51" r="1"/><path d="M24,47a1,1,0,0,0-1-1H21a1,1,0,0,0,0,2h2A1,1,0,0,0,24,47Z"/><circle cx="27" cy="47" r="1"/><path d="M51,56H48V39a1,1,0,0,0-1-1H38.5a1,1,0,0,0,0,2H46V56H18V40h7.5a1,1,0,0,0,0-2H17a1,1,0,0,0-1,1V56H13a1,1,0,0,0-1,1v2a3,3,0,0,0,3,3H49a3,3,0,0,0,3-3V57A1,1,0,0,0,51,56Zm-1,3a1,1,0,0,1-1,1H15a1,1,0,0,1-1-1V58H50Z"/></g></g></svg>
