<svg id="Capa_1" enable-background="new 0 0 512 512" height="512" viewBox="0 0 512 512" width="512" xmlns="http://www.w3.org/2000/svg"><g><path d="m409.094 100.96c-9.695-30.413-37.934-51.26-70.26-51.26-6.966 0-13.818.97-20.451 2.889-16.984-32.16-50.51-52.589-87.233-52.589-49.099 0-90.292 36.112-97.496 83.742-3.348-.604-6.752-.909-10.187-.909-31.541 0-57.2 25.66-57.2 57.2s25.66 57.2 57.2 57.2h42.513c3.825 46.314 42.735 82.833 90.02 82.833s86.195-36.519 90.02-82.833h50.797c26.973 0 48.917-21.944 48.917-48.917 0-22.289-15.442-41.838-36.64-47.356zm-153.094 164.107c-41.539 0-75.334-33.794-75.334-75.333s33.795-75.334 75.334-75.334 75.333 33.794 75.333 75.334-33.794 75.333-75.333 75.333zm140.817-82.834h-50.797c-3.825-46.314-42.735-82.833-90.02-82.833s-86.195 36.519-90.02 82.834h-42.513c-23.27 0-42.2-18.931-42.2-42.2s18.931-42.2 42.2-42.2c4.963 0 9.816.883 14.361 2.535 9.209 3.348 17.155 9.853 22.197 18.568 1.39 2.403 3.909 3.746 6.499 3.746 1.275 0 2.566-.326 3.749-1.01 3.585-2.074 4.81-6.662 2.736-10.248-5.855-10.12-14.604-18.035-24.841-22.948 5.024-41.599 40.504-73.477 82.982-73.477 33.096 0 63.13 19.569 76.516 49.854 1.628 3.682 5.869 5.422 9.614 3.944 6.888-2.719 14.14-4.098 21.554-4.098 27.032 0 50.477 18.296 57.012 44.492.732 2.935 3.155 5.142 6.145 5.599 16.386 2.503 28.743 16.916 28.743 33.526 0 18.702-15.215 33.916-33.917 33.916z"/><path d="m371.967 364.467h-9.067v-9.067c0-13.27-10.796-24.066-24.066-24.066h-42.838c-2.421 0-4.698-.943-6.411-2.656l-23.428-23.429c-4.545-4.545-10.589-7.049-17.018-7.049h-109.106c-13.27 0-24.066 10.796-24.066 24.066v165.199c0 13.138 10.064 23.902 22.913 24.507.393.018.784.028 1.174.028h240.196c8.703 0 15.783-7.08 15.783-15.783v-107.684c0-13.27-10.796-24.066-24.066-24.066zm9.066 24.066v9.067h-216.933v-42.2c0-4.999 4.067-9.066 9.066-9.066h75.972c2.422 0 4.699.943 6.411 2.655l23.428 23.429c4.546 4.546 10.589 7.049 17.018 7.049h75.971c5 0 9.067 4.067 9.067 9.066zm-250.066-66.266c0-4.999 4.067-9.066 9.066-9.066h109.105c2.422 0 4.699.943 6.411 2.655l23.428 23.429c4.546 4.546 10.589 7.049 17.018 7.049h42.838c4.999 0 9.066 4.067 9.066 9.066v9.067h-51.904c-2.422 0-4.699-.943-6.412-2.656l-23.428-23.429c-4.545-4.545-10.589-7.049-17.018-7.049h-75.972c-13.27 0-24.066 10.796-24.066 24.066v132.533c0 2.503-.998 4.833-2.81 6.562-1.811 1.728-4.203 2.608-6.705 2.494-4.752-.224-8.618-4.496-8.618-9.524v-165.197zm249.283 174.733h-217.941c1.165-2.859 1.791-5.939 1.791-9.067v-75.333h216.933v83.617c0 .431-.351.783-.783.783z"/><path d="m222.867 364.467h-33.133c-4.142 0-7.5 3.358-7.5 7.5s3.358 7.5 7.5 7.5h33.133c4.142 0 7.5-3.358 7.5-7.5s-3.358-7.5-7.5-7.5z"/><path d="m347.4 430.733h-33.7c-8.547 0-15.5 6.953-15.5 15.5v17.133c0 8.547 6.953 15.5 15.5 15.5h33.7c8.547 0 15.5-6.953 15.5-15.5v-17.133c0-8.546-6.953-15.5-15.5-15.5zm.5 32.634c0 .276-.224.5-.5.5h-33.7c-.276 0-.5-.224-.5-.5v-17.133c0-.276.224-.5.5-.5h33.7c.276 0 .5.224.5.5z"/><path d="m288.574 184.561h-8.507v-36.244c0-8.703-7.081-15.784-15.784-15.784h-16.566c-8.703 0-15.784 7.081-15.784 15.784v36.244h-8.507c-4.566 0-8.605 2.569-10.542 6.704s-1.324 8.883 1.599 12.391l32.574 39.089c2.219 2.662 5.478 4.189 8.943 4.189s6.725-1.527 8.943-4.189l32.574-39.089c2.923-3.508 3.536-8.256 1.599-12.391-1.936-4.135-5.976-6.704-10.542-6.704zm-32.574 45.485-25.404-30.485h4.696c6.419 0 11.642-5.222 11.642-11.642v-39.602c0-.432.352-.784.784-.784h16.566c.432 0 .784.352.784.784v39.602c0 6.42 5.222 11.642 11.642 11.642h4.696z"/></g></svg>