<svg id="_x33_0" enable-background="new 0 0 62 62" height="512" viewBox="0 0 62 62" width="512" xmlns="http://www.w3.org/2000/svg"><g><path d="m19 52c1.654 0 3-1.346 3-3s-1.346-3-3-3-3 1.346-3 3 1.346 3 3 3zm0-4c.552 0 1 .449 1 1s-.448 1-1 1-1-.449-1-1 .448-1 1-1z"/><path d="m55.852 18.038-.236-3.071c-.387-5.029-4.64-8.967-9.683-8.967-1.969 0-3.861.624-5.452 1.705l-.48-.617c-3.502-4.505-8.784-7.088-14.49-7.088-7.914 0-14.913 5.044-17.415 12.552l-1.826 5.478c-3.507.302-6.27 3.249-6.27 6.832v.138c0 3.86 3.141 7 7 7h11v4.051c-6.701.514-12 6.118-12 12.949 0 7.168 5.832 13 13 13 2.535 0 4.895-.74 6.896-2h14.469 5.635c1.103 0 2-.897 2-2v-26h7c3.859 0 7-3.14 7-7v-.138c0-3.542-2.698-6.466-6.148-6.824zm-30.515 39.938-2.011-3.483c.433-.342.825-.733 1.167-1.167l3.483 2.011c-.724 1.022-1.616 1.915-2.639 2.639zm-13.257-9.976h-4.029c.116-1.278.456-2.49.973-3.605l3.481 2.01c-.203.505-.345 1.04-.425 1.595zm0 2c.08.555.222 1.09.425 1.595l-3.481 2.01c-.517-1.115-.857-2.327-.973-3.605zm1.92-1c0-2.757 2.243-5 5-5s5 2.243 5 5-2.243 5-5 5-5-2.243-5-5zm14.976 4.605-3.481-2.01c.203-.505.345-1.04.425-1.595h4.029c-.116 1.278-.456 2.49-.973 3.605zm-3.056-5.605c-.08-.555-.222-1.09-.425-1.595l3.481-2.01c.517 1.115.857 2.327.973 3.605zm-1.428-3.326c-1.283-1.625-3.265-2.674-5.492-2.674-.917 0-1.792.182-2.595.505l-2.01-3.481c1.403-.651 2.96-1.024 4.605-1.024 3.705 0 6.982 1.847 8.976 4.663zm-11.829-4.65 2.011 3.483c-.433.342-.825.733-1.167 1.167l-3.483-2.011c.724-1.022 1.616-1.915 2.639-2.639zm-2.639 15.313 3.483-2.011c1.284 1.625 3.266 2.674 5.493 2.674.917 0 1.792-.182 2.595-.505l2.01 3.481c-1.403.651-2.96 1.024-4.605 1.024-3.705 0-6.982-1.847-8.976-4.663zm35.976 2.663h-5.635-12.006c2.249-2.338 3.641-5.507 3.641-9 0-2.535-.74-4.895-2-6.896v-10.104h-1.955l4.955-6.371 4.955 6.371h-1.955v24h2v-22h4.045l-9.045-11.629-9.045 11.629h4.045v5.641c-2.112-2.032-4.904-3.353-8-3.59v-10.051h6v-6h20zm-24.586-34 2.586-2.586v2.586zm38.586 1c0 2.757-2.243 5-5 5h-7v-10c0-1.103-.897-2-2-2h-20.586c-.526 0-1.042.213-1.414.586l-5.414 5.414c-.378.378-.586.88-.586 1.414v4.586h-11c-2.757 0-5-2.243-5-5v-.138c0-2.681 2.182-4.862 4.862-4.862 1.63 0 3.143.809 4.046 2.165l.26.39 1.664-1.109-.26-.39c-.998-1.497-2.524-2.512-4.241-2.887l1.661-4.983c2.231-6.691 8.467-11.186 15.519-11.186 5.085 0 9.791 2.302 12.912 6.315l.525.676c-.504.521-.964 1.091-1.344 1.725l-.462.771 1.715 1.028.462-.77c1.387-2.31 3.921-3.745 6.614-3.745 4.004 0 7.382 3.127 7.689 7.12l.232 3.013c-1.792.341-3.393 1.372-4.426 2.922l-.26.39 1.664 1.109.26-.39c.903-1.355 2.416-2.164 4.046-2.164 2.68 0 4.862 2.181 4.862 4.862z"/><path d="m2 34h2v2h-2z"/><path d="m6 34h2v2h-2z"/><path d="m10 34h2v2h-2z"/><path d="m53 36c-1.654 0-3 1.346-3 3s1.346 3 3 3 3-1.346 3-3-1.346-3-3-3zm0 4c-.552 0-1-.449-1-1s.448-1 1-1 1 .449 1 1-.448 1-1 1z"/><path d="m52 44h2v2h-2z"/><path d="m52 48h2v2h-2z"/><path d="m52 52h2v2h-2z"/></g></svg>