<svg id="Outline" height="512" viewBox="0 0 512 512" width="512" xmlns="http://www.w3.org/2000/svg"><path d="m424 496a40.045 40.045 0 0 0 40-40v-400a40.045 40.045 0 0 0 -40-40h-336a40.045 40.045 0 0 0 -40 40v400a40.045 40.045 0 0 0 40 40zm-360-40v-400a24.028 24.028 0 0 1 24-24h336a24.028 24.028 0 0 1 24 24v400a24.028 24.028 0 0 1 -24 24h-336a24.028 24.028 0 0 1 -24-24z"/><path d="m424 448a8 8 0 0 0 8-8v-384a8 8 0 0 0 -8-8h-336a8 8 0 0 0 -8 8v384a8 8 0 0 0 8 8zm-48-384v41.052l-11.562-7.708a8 8 0 0 0 -8.876 0l-11.562 7.708v-41.052zm-48 0v40h-40a8 8 0 0 0 0 16h40a8 8 0 0 0 12.438 6.656l19.562-13.041 19.562 13.041a8 8 0 0 0 12.438-6.656v-56h24v368h-320v-368z"/><path d="m256 408a8 8 0 0 0 8-8v-304a8 8 0 0 0 -16 0v304a8 8 0 0 0 8 8z"/><path d="m152 144a8 8 0 0 0 8 8h64a8 8 0 0 0 0-16h-64a8 8 0 0 0 -8 8z"/><path d="m224 168h-96a8 8 0 0 0 0 16h96a8 8 0 0 0 0-16z"/><path d="m224 200h-96a8 8 0 0 0 0 16h96a8 8 0 0 0 0-16z"/><path d="m224 232h-96a8 8 0 0 0 0 16h96a8 8 0 0 0 0-16z"/><path d="m224 264h-96a8 8 0 0 0 0 16h96a8 8 0 0 0 0-16z"/><path d="m224 296h-96a8 8 0 0 0 0 16h96a8 8 0 0 0 0-16z"/><path d="m224 328h-96a8 8 0 0 0 0 16h96a8 8 0 0 0 0-16z"/><path d="m224 360h-96a8 8 0 0 0 0 16h96a8 8 0 0 0 0-16z"/><path d="m224 392h-96a8 8 0 0 0 0 16h96a8 8 0 0 0 0-16z"/><path d="m288 152h96a8 8 0 0 0 0-16h-96a8 8 0 0 0 0 16z"/><path d="m288 184h96a8 8 0 0 0 0-16h-96a8 8 0 0 0 0 16z"/><path d="m288 216h96a8 8 0 0 0 0-16h-96a8 8 0 0 0 0 16z"/><path d="m288 248h96a8 8 0 0 0 0-16h-96a8 8 0 0 0 0 16z"/><path d="m288 280h96a8 8 0 0 0 0-16h-96a8 8 0 0 0 0 16z"/><path d="m288 312h96a8 8 0 0 0 0-16h-96a8 8 0 0 0 0 16z"/><path d="m288 344h96a8 8 0 0 0 0-16h-96a8 8 0 0 0 0 16z"/><path d="m288 376h96a8 8 0 0 0 0-16h-96a8 8 0 0 0 0 16z"/><path d="m288 408h96a8 8 0 0 0 0-16h-96a8 8 0 0 0 0 16z"/><path d="m120 104h48a8 8 0 0 0 0-16h-48a8 8 0 0 0 0 16z"/></svg>