<?xml version="1.0" encoding="UTF-8" standalone="no"?>
<!DOCTYPE svg PUBLIC "-//W3C//DTD SVG 1.1//EN" "http://www.w3.org/Graphics/SVG/1.1/DTD/svg11.dtd">
<svg width="100%" height="100%" viewBox="0 0 50 50" version="1.1" xmlns="http://www.w3.org/2000/svg" xmlns:xlink="http://www.w3.org/1999/xlink" xml:space="preserve" xmlns:serif="http://www.serif.com/" style="fill-rule:evenodd;clip-rule:evenodd;stroke-linejoin:round;stroke-miterlimit:2;">
    <path d="M28.875,0C28.855,0.008 28.832,0.02 28.813,0.031L0.813,5.313C0.336,5.402 -0.008,5.824 0,6.313L0,43.594C-0.008,44.082 0.336,44.504 0.813,44.594L28.813,49.969C29.102,50.023 29.402,49.949 29.633,49.762C29.859,49.574 29.996,49.297 30,49L30,41.906C30.352,41.965 30.684,42 31,42C34.242,42 36.871,39.457 37,36.25C39.668,35.27 41.895,33.418 43.344,30.969C43.555,30.992 43.781,31 44,31C47.301,31 50,28.301 50,25C50,21.699 47.301,19 44,19C43.805,19 43.598,19.012 43.406,19.031C41.957,16.523 39.684,14.645 36.969,13.656C36.793,10.492 34.211,8 31,8C30.664,8 30.332,8.008 30,8.063L30,1C30.004,0.711 29.879,0.438 29.664,0.246C29.449,0.055 29.16,-0.035 28.875,0ZM28,2.188L28,47.813L2,42.781L2,7.125L28,2.188ZM31,10C33.277,10 35,11.723 35,14C35,16.277 33.277,18 31,18C30.676,18 30.316,17.957 30,17.875L30,10.125C30.289,10.043 30.602,10 31,10ZM14.594,15.406C13.594,15.406 12.711,15.488 11.813,15.688C10.914,15.887 10.199,16.289 9.5,16.688C8.801,17.188 8.305,17.707 7.906,18.406C7.508,19.105 7.313,19.906 7.313,20.906C7.313,22.105 7.707,23.102 8.406,24C9.105,24.898 10.195,25.586 11.594,26.188C12.195,26.488 12.688,26.707 13.188,26.906C13.688,27.105 14.102,27.395 14.5,27.594C14.801,27.895 15.113,28.105 15.313,28.406C15.512,28.707 15.594,29.008 15.594,29.406C15.594,29.605 15.508,29.895 15.406,30.094C15.305,30.293 15.113,30.488 14.813,30.688C14.512,30.887 14.211,30.992 13.813,31.094C13.414,31.195 12.906,31.188 12.406,31.188C11.508,31.188 10.711,30.988 9.813,30.688C8.914,30.387 8.105,29.914 7.406,29.313L7.406,33.406C8.008,33.707 8.789,33.992 9.688,34.094C10.586,34.293 11.594,34.406 12.594,34.406C13.594,34.406 14.508,34.293 15.406,34.094C16.305,33.895 16.988,33.586 17.688,33.188C18.387,32.789 18.914,32.199 19.313,31.5C19.613,30.801 19.805,30.008 19.906,28.906C19.906,28.207 19.793,27.602 19.594,27C19.293,26.398 18.992,25.898 18.594,25.5C18.195,25 17.695,24.613 17.094,24.313C16.492,23.914 15.793,23.613 15.094,23.313C14.594,23.113 14.086,22.887 13.688,22.688C13.289,22.488 12.895,22.293 12.594,22.094C12.293,21.895 12.105,21.605 11.906,21.406C11.805,21.207 11.688,20.895 11.688,20.594C11.688,20.293 11.805,20.012 11.906,19.813C12.008,19.613 12.199,19.387 12.5,19.188C12.801,18.988 13.102,18.914 13.5,18.813C13.898,18.711 14.313,18.688 14.813,18.688C15.211,18.688 15.508,18.711 15.906,18.813C16.207,18.813 16.602,18.898 17,19C17.398,19.102 17.695,19.207 18.094,19.406C18.492,19.605 18.793,19.801 19.094,20L19.094,16.094C18.492,15.895 17.793,15.695 17.094,15.594C16.395,15.492 15.594,15.406 14.594,15.406ZM36.75,15.688C38.668,16.492 40.281,17.844 41.406,19.594C39.395,20.566 38,22.625 38,25C38,27.348 39.367,29.391 41.344,30.375C40.211,32.098 38.625,33.43 36.719,34.219C35.961,31.773 33.699,30 31,30C30.664,30 30.332,30.008 30,30.063L30,19.906C30.352,19.965 30.684,20 31,20C33.734,20 36.023,18.184 36.75,15.688ZM44,21C46.223,21 48,22.777 48,25C48,27.223 46.223,29 44,29C41.777,29 40,27.223 40,25C40,22.777 41.777,21 44,21ZM31,32C33.277,32 35,33.723 35,36C35,38.277 33.277,40 31,40C30.676,40 30.316,39.957 30,39.875L30,32.125C30.289,32.043 30.602,32 31,32Z" style="fill-rule:nonzero;"/>
</svg>
