<?xml version="1.0" encoding="iso-8859-1"?>
<!-- Generator: Adobe Illustrator 19.0.0, SVG Export Plug-In . SVG Version: 6.00 Build 0)  -->
<svg version="1.1" id="Capa_1" xmlns="http://www.w3.org/2000/svg" xmlns:xlink="http://www.w3.org/1999/xlink" x="0px" y="0px"
	 viewBox="0 0 512 512" style="enable-background:new 0 0 512 512;" xml:space="preserve">
<g>
	<g>
		<path d="M256,334.276c-10.631,0-19.248,8.617-19.248,19.248v125.113c0,10.631,8.617,19.248,19.248,19.248
			c10.631,0,19.248-8.617,19.248-19.248V353.524C275.248,342.892,266.631,334.276,256,334.276z"/>
	</g>
</g>
<g>
	<g>
		<path d="M304.762,236.752h-97.524c-10.631,0-19.248,8.617-19.248,19.248v97.524c0,10.631,8.617,19.248,19.248,19.248h97.524
			c10.631,0,19.248-8.617,19.248-19.248V256C324.01,245.369,315.393,236.752,304.762,236.752z M285.514,334.276h-59.028v-59.028
			h59.028V334.276z"/>
	</g>
</g>
<g>
	<g>
		<path d="M256,14.115c-10.631,0-19.248,8.617-19.248,19.248V256c0,10.631,8.617,19.248,19.248,19.248
			c10.631,0,19.248-8.617,19.248-19.248V33.363C275.248,22.732,266.631,14.115,256,14.115z"/>
	</g>
</g>
<g>
	<g>
		<path d="M68.01,229.694c-10.631,0-19.248,8.617-19.248,19.248v229.694c0,10.631,8.617,19.248,19.248,19.248
			c10.631,0,19.248-8.617,19.248-19.248V248.942C87.258,238.311,78.641,229.694,68.01,229.694z"/>
	</g>
</g>
<g>
	<g>
		<path d="M116.772,132.17H19.248C8.617,132.17,0,140.787,0,151.418v97.524c0,10.625,8.617,19.248,19.248,19.248h97.524
			c10.631,0,19.248-8.617,19.248-19.248v-97.524C136.02,140.787,127.403,132.17,116.772,132.17z M97.524,229.694H38.496v-59.028
			h59.028V229.694z"/>
	</g>
</g>
<g>
	<g>
		<path d="M68.01,14.115c-10.631,0-19.248,8.617-19.248,19.248v118.055c0,10.631,8.617,19.248,19.248,19.248
			c10.631,0,19.248-8.623,19.248-19.248V33.363C87.258,22.732,78.641,14.115,68.01,14.115z"/>
	</g>
</g>
<g>
	<g>
		<path d="M443.99,229.694c-10.631,0-19.248,8.617-19.248,19.248v229.694c0,10.631,8.617,19.248,19.248,19.248
			c10.631,0,19.248-8.617,19.248-19.248V248.942C463.238,238.311,454.621,229.694,443.99,229.694z"/>
	</g>
</g>
<g>
	<g>
		<path d="M492.752,132.17h-97.524c-10.631,0-19.248,8.617-19.248,19.248v97.524c0,10.625,8.617,19.248,19.248,19.248h97.524
			c10.631,0,19.248-8.617,19.248-19.248v-97.524C512,140.787,503.383,132.17,492.752,132.17z M473.504,229.694h-59.028v-59.028
			h59.028V229.694z"/>
	</g>
</g>
<g>
	<g>
		<path d="M443.99,14.115c-10.631,0-19.248,8.617-19.248,19.248v118.055c0,10.631,8.617,19.248,19.248,19.248
			c10.631,0,19.248-8.623,19.248-19.248V33.363C463.238,22.732,454.621,14.115,443.99,14.115z"/>
	</g>
</g>
<g>
</g>
<g>
</g>
<g>
</g>
<g>
</g>
<g>
</g>
<g>
</g>
<g>
</g>
<g>
</g>
<g>
</g>
<g>
</g>
<g>
</g>
<g>
</g>
<g>
</g>
<g>
</g>
<g>
</g>
</svg>
