<?xml version="1.0" standalone="no"?>
<!DOCTYPE svg PUBLIC "-//W3C//DTD SVG 20010904//EN"
 "http://www.w3.org/TR/2001/REC-SVG-20010904/DTD/svg10.dtd">
<svg version="1.0" xmlns="http://www.w3.org/2000/svg"
 width="512.000000pt" height="512.000000pt" viewBox="0 0 512.000000 512.000000"
 preserveAspectRatio="xMidYMid meet">

<g transform="translate(0.000000,512.000000) scale(0.100000,-0.100000)"
fill="#000000" stroke="none">
<path d="M825 5101 c-46 -21 -101 -79 -112 -119 -10 -35 -10 -4809 0 -4844 11
-40 66 -98 112 -119 38 -18 117 -19 1733 -19 1508 0 1697 2 1730 16 44 18 87
57 110 99 16 28 17 179 20 1898 1 1028 -1 1882 -6 1900 -9 35 -988 1163 -1034
1191 -24 15 -140 16 -1270 16 -1181 0 -1245 -1 -1283 -19z m2405 -711 l0 -530
29 -32 29 -33 466 -3 466 -3 0 -1039 0 -1040 -1660 0 -1660 0 0 1605 0 1605
1165 0 1165 0 0 -530z m-1270 -3045 l0 -115 -167 -2 -168 -3 -3 -492 -2 -493
-135 0 -135 0 0 495 0 495 -165 0 -165 0 0 115 0 115 470 0 470 0 0 -115z
m448 48 c116 -252 163 -348 169 -346 3 1 21 38 39 82 18 44 58 137 90 206 l57
125 154 0 c132 0 154 -2 150 -15 -4 -8 -74 -131 -157 -274 -83 -144 -155 -272
-162 -286 -10 -22 5 -52 166 -329 97 -167 176 -307 176 -310 0 -3 -70 -6 -155
-6 l-155 0 -111 223 c-90 178 -113 218 -120 202 -15 -38 -127 -290 -158 -357
l-31 -68 -155 0 c-85 0 -155 2 -155 5 0 3 78 142 174 309 l174 304 -135 239
c-73 131 -150 266 -169 301 l-35 62 159 0 159 0 31 -67z m1692 -48 l0 -115
-165 0 -165 0 -2 -492 -3 -493 -137 -3 -138 -3 0 496 0 495 -165 0 -165 0 0
115 0 115 470 0 470 0 0 -115z"/>
<path d="M1598 3869 c-49 -18 -55 -94 -9 -118 13 -8 205 -11 589 -11 561 0
570 0 596 21 32 25 35 68 5 95 -20 18 -46 19 -588 21 -354 1 -576 -2 -593 -8z"/>
<path d="M1571 3314 c-12 -15 -21 -31 -21 -36 0 -14 21 -52 34 -60 6 -4 434
-8 952 -8 899 0 942 1 957 18 23 25 21 68 -3 92 -20 20 -33 20 -959 20 l-940
0 -20 -26z"/>
<path d="M1574 2784 c-20 -19 -24 -31 -19 -52 3 -15 13 -33 22 -39 13 -10 221
-13 958 -13 900 0 943 1 958 18 23 25 21 68 -3 92 -20 20 -33 20 -955 20
l-936 0 -25 -26z"/>
<path d="M1594 2256 c-52 -23 -54 -89 -4 -116 12 -7 331 -10 940 -10 927 0
950 1 972 34 15 21 8 63 -13 82 -20 18 -52 19 -943 21 -760 2 -926 0 -952 -11z"/>
</g>
</svg>
