<svg id="_x33_0" enable-background="new 0 0 64 64" height="512" viewBox="0 0 64 64" width="512" xmlns="http://www.w3.org/2000/svg"><path d="m59 1c-2.206 0-4 1.794-4 4v2h-46v-2c0-2.206-1.794-4-4-4s-4 1.794-4 4v54c0 2.206 1.794 4 4 4s4-1.794 4-4v-2h46v2c0 2.206 1.794 4 4 4s4-1.794 4-4v-54c0-2.206-1.794-4-4-4zm-52 58c0 1.103-.897 2-2 2s-2-.897-2-2v-54c0-1.103.897-2 2-2s2 .897 2 2zm48-50v4h-16v4h-8v-4h-6v4h-4v-4h-12v-4zm-14 40v-6h2v6zm4-6h2v6h-2zm4 0h2v6h-2zm4 0h2v6h-2zm-14-2v4h-6v-4h-6v4h-10v-4h-8v-4h16v-4h8v4h6v-4h4v4h12v4zm-8 2v6h-2v-6zm-22 6v-6h2v6zm4-6h2v6h-2zm10-14v6h-2v-6zm-4 6h-2v-6h2zm-4 0h-2v-6h2zm-4 0h-2v-6h2zm24 0v-6h2v6zm14 0v-6h2v6zm-2 0h-2v-6h2zm6 0v-6h2v6zm-10-8v4h-4v-4h-6v4h-8v-4h-16v-4h12v-4h4v4h6v-4h8v4h16v4zm-24-12v6h-2v-6zm-4 6h-2v-6h2zm-4 0h-2v-6h2zm16 0v-6h2v6zm22 0v-6h2v6zm-2 0h-2v-6h2zm-4 0h-2v-6h2zm10 0v-6h2v6zm-44 34v-4h8v-4h10v4h6v-4h6v4h16v4zm52 4c0 1.103-.897 2-2 2s-2-.897-2-2v-54c0-1.103.897-2 2-2s2 .897 2 2z"/></svg>