<svg id="Layer_5" enable-background="new 0 0 64 64" height="512" viewBox="0 0 64 64" width="512" xmlns="http://www.w3.org/2000/svg"><g><path d="m60 27h-3.184c-.414-1.161-1.514-2-2.816-2h-3v-5c0-1.654-1.346-3-3-3h-25v-2h5.382c.703.615 1.612 1 2.618 1 2.206 0 4-1.794 4-4s-1.794-4-4-4c-1.006 0-1.915.385-2.618 1h-5.382v-1c0-1.302-.839-2.402-2-2.816v-1.184c0-1.654-1.346-3-3-3s-3 1.346-3 3v1.184c-1.161.414-2 1.514-2 2.816v1h-5.382c-.703-.615-1.612-1-2.618-1-2.206 0-4 1.794-4 4s1.794 4 4 4c1.006 0 1.915-.385 2.618-1h5.382v2h-1c-1.654 0-3 1.346-3 3v4c0 1.383.945 2.539 2.22 2.884-.139.346-.22.721-.22 1.116 0 .771.301 1.468.78 2-.48.532-.78 1.229-.78 2s.301 1.468.78 2c-.48.532-.78 1.229-.78 2s.301 1.468.78 2c-.48.532-.78 1.229-.78 2s.301 1.468.78 2c-.48.532-.78 1.229-.78 2s.301 1.468.78 2c-.48.532-.78 1.229-.78 2s.301 1.468.78 2c-.48.532-.78 1.229-.78 2 0 .395.081.77.22 1.116-1.275.345-2.22 1.501-2.22 2.884v4c0 1.654 1.346 3 3 3h36c1.654 0 3-1.346 3-3v-7h9c1.654 0 3-1.346 3-3v-20c0-1.654-1.346-3-3-3zm1 3v11h-2v2h2v4h-28v-4h2v-2h-2v-11c0-.552.448-1 1-1h3v3c0 1.654 1.346 3 3 3h14c1.654 0 3-1.346 3-3v-3h3c.552 0 1 .448 1 1zm-48 22c0-.552.448-1 1-1h4c.552 0 1 .448 1 1s-.448 1-1 1h-4c-.552 0-1-.448-1-1zm0-4c0-.552.448-1 1-1h4c.552 0 1 .448 1 1s-.448 1-1 1h-4c-.552 0-1-.448-1-1zm0-4c0-.552.448-1 1-1h4c.552 0 1 .448 1 1s-.448 1-1 1h-4c-.552 0-1-.448-1-1zm0-4c0-.552.448-1 1-1h4c.552 0 1 .448 1 1s-.448 1-1 1h-4c-.552 0-1-.448-1-1zm0-4c0-.552.448-1 1-1h4c.552 0 1 .448 1 1s-.448 1-1 1h-4c-.552 0-1-.448-1-1zm0-4c0-.552.448-1 1-1h4c.552 0 1 .448 1 1s-.448 1-1 1h-4c-.552 0-1-.448-1-1zm0-4c0-.552.448-1 1-1h4c.552 0 1 .448 1 1s-.448 1-1 1h-4c-.552 0-1-.448-1-1zm7.22 22c.48-.532.78-1.229.78-2s-.301-1.468-.78-2c.48-.532.78-1.229.78-2s-.301-1.468-.78-2c.48-.532.78-1.229.78-2s-.301-1.468-.78-2c.48-.532.78-1.229.78-2s-.301-1.468-.78-2c.48-.532.78-1.229.78-2s-.301-1.468-.78-2c.48-.532.78-1.229.78-2 0-.354-.073-.688-.185-1.004 1.123-.019 2.129-.648 2.633-1.655l1.17-2.341h18.382v2h-3c-1.302 0-2.402.839-2.816 2h-3.184c-1.654 0-3 1.346-3 3v22c0 1.654 1.346 3 3 3h7.172c.673 0 1.305-.232 1.828-.638v2.638h-18.382l-1.171-2.342c-.504-1.007-1.51-1.636-2.633-1.655.113-.315.186-.649.186-1.003 0-.771-.301-1.468-.78-2zm33.78-23c.552 0 1 .448 1 1v4c0 .552-.448 1-1 1h-14c-.552 0-1-.448-1-1v-4c0-.552.448-1 1-1h3v4h8v-4zm-23-17c1.103 0 2 .897 2 2s-.897 2-2 2-2-.897-2-2 .897-2 2-2zm-3.858 1c-.084.322-.142.653-.142 1s.058.678.142 1h-4.142v-2zm-9.142-8c.552 0 1 .448 1 1v1h-2v-1c0-.552.448-1 1-1zm-13 11c-1.103 0-2-.897-2-2s.897-2 2-2 2 .897 2 2-.897 2-2 2zm3.858-1c.084-.322.142-.653.142-1s-.058-.678-.142-1h4.142v2zm6.142-5c0-.552.448-1 1-1h4c.552 0 1 .448 1 1v9h-6zm-4 12c0-.552.448-1 1-1h36c.552 0 1 .448 1 1v9h-4v-8h-21.618l-1.724 3.447c-.17.341-.512.553-.894.553h-2.764-4-2c-.552 0-1-.448-1-1zm38 40c0 .552-.448 1-1 1h-36c-.552 0-1-.448-1-1v-4c0-.552.448-1 1-1h2 4 2.764c.382 0 .725.212.895.553l1.723 3.447h21.618v-6h4zm11-9h-16.414l-1.707 1.707c-.187.187-.444.293-.707.293h-7.172c-.552 0-1-.448-1-1v-3h28v1c0 .552-.448 1-1 1z"/><path d="m46 39c-1.302 0-2.402.839-2.816 2h-2.184v2h2.184c.414 1.161 1.514 2 2.816 2 .956 0 3.708-.632 4.665-2h2.335v-2h-2.335c-.957-1.368-3.709-2-4.665-2zm0 4c-.552 0-1-.448-1-1s.448-1 1-1c.826 0 2.436.571 2.915 1-.479.429-2.089 1-2.915 1z"/><path d="m55 41h2v2h-2z"/><path d="m37 41h2v2h-2z"/></g></svg>