<svg xmlns="http://www.w3.org/2000/svg" version="1.1" xmlns:xlink="http://www.w3.org/1999/xlink" width="512" height="512" x="0" y="0" viewBox="0 0 64 64" style="enable-background:new 0 0 512 512" xml:space="preserve" class=""><g transform="matrix(0.6999999999999997,0,0,0.6999999999999997,9.600000000000009,9.600881195068371)"><path d="M56 6H8c-2.206 0-4 1.794-4 4v34c0 2.206 1.794 4 4 4h6.35c1.326-.032 1.307-1.975 0-2H8c-1.103 0-2-.897-2-2V15.999h13.586a4.393 4.393 0 0 0 3.121-1.291 2.399 2.399 0 0 1 1.707-.707H54c1.294-.01 1.329-1.981 0-2H24.414a4.393 4.393 0 0 0-3.121 1.291 2.399 2.399 0 0 1-1.707.707H6V10c0-1.103.897-2 2-2h48c1.103 0 2 .897 2 2v34c0 1.103-.897 2-2 2h-6.35c-1.32.017-1.307 1.984 0 2H56c2.206 0 4-1.794 4-4V10c0-2.206-1.794-4-4-4z" fill="#ffffff" opacity="1" data-original="#000000" class=""></path><path d="M16.5 11c.022 1.314 1.978 1.314 2 0-.022-1.315-1.978-1.315-2 0zM12.5 11c.022 1.314 1.978 1.314 2 0-.022-1.315-1.978-1.315-2 0zM8.5 11c.022 1.314 1.978 1.314 2 0-.022-1.315-1.978-1.315-2 0zM21.72 58a1 1 0 0 0 .824-.434l3.327-4.844h1.352l.699 2.739a2.997 2.997 0 0 0 2.907 2.26h2.342c1.373 0 2.57-.929 2.907-2.26l.699-2.74h1.352l3.327 4.845a1 1 0 0 0 .824.434c1.178.233 4.887-6.506 2.965-12.396-1.001-3.222-3.075-5.289-4.433-6.361-.396-3.439-1.48-7.081-3.81-10.448C35.772 27.019 33.949 26 32 26c-5.903.078-8.254 8.877-8.812 13.243-7.002 5.47-5.416 14.222-2.274 18.35a1 1 0 0 0 .806.407zm12.42-3.031a1 1 0 0 1-.97.753h-2.34a1 1 0 0 1-.97-.754l-.573-2.246h5.426zm9.195-8.77c1.188 3.81-.14 7.211-1.095 8.976l-2.497-3.636c.584-2.1 1.302-5.487 1.258-9.382.888.982 1.797 2.313 2.334 4.041zM28.643 29.933c5.751-6.739 10.02 5.37 10.23 9.943.44 4.361-.328 8.435-.977 10.845H26.104c-1.657-5.472-1.813-15.011 2.539-20.788zm-7.978 16.263c.537-1.727 1.446-3.058 2.334-4.04-.044 3.895.674 7.283 1.258 9.382l-2.497 3.636c-.955-1.765-2.283-5.166-1.095-8.978z" fill="#ffffff" opacity="1" data-original="#000000" class=""></path><path d="M32 41.96c4.625-.147 4.624-6.853 0-7-4.625.147-4.624 6.853 0 7zm0-5c1.971.035 1.971 2.965 0 3-1.971-.035-1.971-2.965 0-3z" fill="#ffffff" opacity="1" data-original="#000000" class=""></path></g></svg>