<svg xmlns="http://www.w3.org/2000/svg" version="1.1" xmlns:xlink="http://www.w3.org/1999/xlink" width="512" height="512" x="0" y="0" viewBox="0 0 512 512" style="enable-background:new 0 0 512 512" xml:space="preserve" class=""><g transform="matrix(0.7000000000000002,0,0,0.7000000000000002,86.79999999999995,61.80044717788684)"><path d="M132.268 196.746a7 7 0 0 1 7-7h111.299a7 7 0 1 1 0 14H139.268a7 7 0 0 1-7-7zm7 132.831h191.029a7 7 0 1 0 0-14H139.268a7 7 0 1 0 0 14zm0-83.887h111.299a7 7 0 1 0 0-14H139.268a7 7 0 1 0 0 14zm191.029 195.717H139.268a7 7 0 1 0 0 14h191.029a7 7 0 1 0 0-14zM139.268 287.633h191.029a7 7 0 1 0 0-14H139.268a7 7 0 1 0 0 14zM508 386.75c0 49.846-40.553 90.399-90.398 90.399a89.88 89.88 0 0 1-36.23-7.587v31.24a7 7 0 0 1-7 7H95.194a7 7 0 0 1-7-7V208.133l-17.437-7.224-9.165 6.146c-4.747 3.185-11.127 2.562-15.17-1.48L27.42 186.573c-4.042-4.042-4.665-10.423-1.481-15.171l6.146-9.165-7.58-18.294-10.825-2.134C8.072 140.705 4 135.752 4 130.034V103.16c0-5.717 4.071-10.669 9.681-11.774l10.824-2.134 7.58-18.294-6.146-9.166c-3.185-4.747-2.562-11.127 1.481-15.17L46.422 27.62c4.042-4.042 10.421-4.665 15.169-1.481l9.166 6.146 18.294-7.58 2.134-10.824c1.105-5.609 6.058-9.68 11.775-9.68h26.874c5.717 0 10.669 4.071 11.775 9.681l2.134 10.824 18.294 7.58 9.165-6.146c4.747-3.184 11.127-2.561 15.17 1.481l19.002 19.002c4.042 4.042 4.666 10.422 1.482 15.17l-6.146 9.166 7.224 17.437h119.905c7.725 0 14.809 3.098 20.491 8.96l73.038 73.038c5.862 5.68 8.961 12.766 8.961 20.494v106.368c43.84 6.206 77.67 43.973 77.67 89.498zM357.831 160.893h34.243l-34.243-34.243zm-29.99-58.5H151.154v34.959h127.727c7.724 0 14.808 3.098 20.49 8.959l73.041 73.041c5.861 5.68 8.958 12.764 8.959 20.491v64.096c10.732-4.714 22.546-7.399 34.959-7.571V190.884c0-3.97-1.547-7.394-4.73-10.466l-.088-.087-.54-.541c-3.277-3.158-7.569-4.897-12.09-4.897h-48.05a7 7 0 0 1-7-7v-48.05c0-4.522-1.741-8.817-4.901-12.094l-.536-.536-.085-.087c-3.075-3.184-6.499-4.732-10.467-4.732zm-18.969 107.46h34.244l-34.244-34.244zM95.195 137.352h41.959V95.393a7.003 7.003 0 0 1 7-7h9.915a47 47 0 0 0-37.671-18.847c-25.944 0-47.051 21.106-47.051 47.05a47 47 0 0 0 18.848 37.671v-9.915a7.003 7.003 0 0 1 7-7zm-7 55.627v-22.225a60.986 60.986 0 0 1-32.848-54.159c0-33.663 27.387-61.05 61.051-61.05a60.986 60.986 0 0 1 54.159 32.847h22.225l-6.439-15.542a7.003 7.003 0 0 1 .653-6.578l7.319-10.915-16.679-16.679-10.915 7.319a7.003 7.003 0 0 1-6.578.653l-25.222-10.449a6.997 6.997 0 0 1-4.188-5.113l-2.542-12.891h-23.588l-2.542 12.891a7.001 7.001 0 0 1-4.188 5.113L72.651 46.65a7.003 7.003 0 0 1-6.578-.653l-10.915-7.319-16.679 16.679 7.319 10.915a6.997 6.997 0 0 1 .653 6.578l-10.45 25.221a6.997 6.997 0 0 1-5.112 4.188l-12.891 2.542v23.588l12.891 2.542a7.003 7.003 0 0 1 5.113 4.188l10.45 25.222a7.003 7.003 0 0 1-.653 6.578l-7.319 10.914 16.679 16.679 10.915-7.319a7.002 7.002 0 0 1 6.578-.653l15.542 6.439zm279.177 268.892c-17.028-11.424-29.977-28.477-36.158-48.475a7.103 7.103 0 0 1-.916.067H139.269a7 7 0 1 1 0-14h188.833a90.58 90.58 0 0 1 .392-27.943H139.269a7 7 0 1 1 0-14h191.029c.581 0 1.143.079 1.683.212 6.448-18.975 19.039-35.134 35.391-46.104v-71.786c0-3.97-1.548-7.394-4.731-10.467l-.088-.086-.533-.533c-3.276-3.162-7.572-4.904-12.097-4.904h-48.05a7 7 0 0 1-7-7v-48.051c0-4.522-1.741-8.817-4.901-12.094l-.536-.536-.085-.087c-3.075-3.184-6.499-4.732-10.468-4.732H102.194v342.449h265.177v-31.93zm126.629-75.122c0-42.126-34.272-76.398-76.398-76.398s-76.398 34.272-76.398 76.398 34.272 76.399 76.398 76.399 76.398-34.272 76.398-76.399zm-27.003-18.072-61.085 61.084c-3.156 3.156-7.182 4.83-11.517 4.83-.748 0-1.504-.05-2.267-.15-5.188-.683-9.487-3.555-12.104-8.088l-21.715-37.611c-4.809-8.331-1.945-19.021 6.385-23.83 4.026-2.324 8.726-2.938 13.234-1.731 4.509 1.208 8.272 4.09 10.596 8.116l9.704 16.808 44.098-44.097c3.286-3.287 7.666-5.097 12.335-5.097s9.048 1.81 12.335 5.097c6.802 6.803 6.801 17.87 0 24.671zm-9.9-14.772c-.866-.866-1.898-.996-2.436-.996s-1.569.129-2.436.996l-50.548 50.548a6.998 6.998 0 0 1-11.011-1.45l-14.265-24.708c-.613-1.062-1.576-1.454-2.095-1.593a3.595 3.595 0 0 0-.921-.121c-.495 0-1.087.105-1.69.453-1.617.934-2.195 3.089-1.261 4.707l21.715 37.611c.43.746.954 1.095 1.807 1.208.853.112 1.449-.09 2.058-.699l61.085-61.083c1.32-1.32 1.319-3.552 0-4.873z" fill="#ffffff" opacity="1" data-original="#000000" class=""></path></g></svg>