<svg xmlns="http://www.w3.org/2000/svg" version="1.1" xmlns:xlink="http://www.w3.org/1999/xlink" width="512" height="512" x="0" y="0" viewBox="0 0 512 512" style="enable-background:new 0 0 512 512" xml:space="preserve" class=""><g transform="matrix(0.6799999999999996,0,0,0.6799999999999996,91.9200000000001,86.9200000000001)"><path d="M186 444h140M184 414h144M176 384h160M301 474v10c0 11.046-8.954 20-20 20h-50c-11.046 0-20-8.954-20-20v-10" style="stroke-width:15;stroke-miterlimit:10;" fill="none" stroke="#ffffff" stroke-width="15" stroke-miterlimit="10" data-original="#000000" opacity="1" class=""></path><path d="M66 198C66 93.066 151.066 8 256 8s190 85.066 190 190c0 65.928-33.58 124.011-84.569 158.084C339.262 370.898 326 395.845 326 422.51V454c0 11.046-8.954 20-20 20H206c-11.046 0-20-8.954-20-20v-31.49c0-26.664-13.262-51.611-35.431-66.426C99.58 322.011 66 263.928 66 198z" style="stroke-width:15;stroke-miterlimit:10;stroke-dasharray:316,15;" fill="none" stroke="#ffffff" stroke-width="15" stroke-miterlimit="10" stroke-dasharray="316,15" data-original="#000000" opacity="1" class=""></path><path d="M0 201h38M474 201h38M15.439 288.557l35.708-12.997M460.853 126.44l35.708-12.997M59.893 365.554l29.109-24.426M422.998 60.872l29.109-24.426M496.561 288.557l-35.708-12.997M51.147 126.44l-35.708-12.997M452.107 365.554l-29.109-24.426M89.002 60.872 59.893 36.446M357.794 201.753C368.697 195.115 376 183.174 376 169.5c0-19.079-14.185-34.813-32.6-37.389.598-2.15 1.021-4.371 1.021-6.711 0-13.918-11.311-25.2-25.263-25.2-.728 0-1.412.153-2.124.213C311.888 85.63 297.836 75 281.263 75c-9.719 0-18.555 3.681-25.263 9.682-6.708-6-15.544-9.682-25.263-9.682-16.573 0-30.624 10.63-35.771 25.413-.712-.06-1.396-.213-2.124-.213-13.953 0-25.263 11.282-25.263 25.2 0 2.34.423 4.561 1.021 6.711-18.415 2.575-32.6 18.309-32.6 37.389 0 13.674 7.303 25.615 18.206 32.253-7.194 5.774-11.89 14.52-11.89 24.447 0 12.22 7.05 22.696 17.246 27.919-2.867 4.743-4.615 10.239-4.615 16.181 0 16.677 13.034 30.188 29.473 31.288 7.057 15 22.291 25.412 40.001 25.412 12.378 0 23.554-5.088 31.579-13.265 8.025 8.177 19.201 13.265 31.579 13.265 17.71 0 32.944-10.412 40.001-25.412 16.439-1.1 29.473-14.611 29.473-31.288 0-5.942-1.747-11.438-4.615-16.181 10.196-5.223 17.246-15.699 17.246-27.919 0-9.927-4.696-18.674-11.89-24.447zM256 84.682v229.053" style="stroke-width:15;stroke-miterlimit:10;" fill="none" stroke="#ffffff" stroke-width="15" stroke-miterlimit="10" data-original="#000000" opacity="1" class=""></path><path d="M168.6 132.111S188.5 129 200.5 150M343.4 132.111S323.5 129 311.5 150M184.42 301.588S212.5 303 209.5 271.5M154.206 201.753S179.5 184.5 197.5 219M327.58 301.588S299.5 303 302.5 271.5M357.794 201.753S332.5 184.5 314.5 219M416 224v-15M416 193v-15" style="stroke-width:15;stroke-miterlimit:10;" fill="none" stroke="#ffffff" stroke-width="15" stroke-miterlimit="10" data-original="#000000" opacity="1" class=""></path></g></svg>