<svg xmlns="http://www.w3.org/2000/svg" version="1.1" xmlns:xlink="http://www.w3.org/1999/xlink" width="512" height="512" x="0" y="0" viewBox="0 0 512 512" style="enable-background:new 0 0 512 512" xml:space="preserve" class=""><g transform="matrix(0.6900000000000001,0,0,0.6900000000000001,89.36015373229986,69.35999999999999)"><path d="m211.625 330.699-7.85 34.085-91.788 27.827c-27.307 8.278-40.737 25.124-40.737 50.916V504.5h317m15 0h37.5l.001-60.973c0-25.792-13.43-42.637-40.737-50.916l-91.788-27.827-7.851-34.085M285.099 82.499v-15m30 30.001v-15M271 297.044h29.998c24.75 0 43.575-20.325 45-45" style="fill-rule:evenodd;clip-rule:evenodd;stroke-width:15;stroke-miterlimit:22.9256;" fill-rule="evenodd" clip-rule="evenodd" fill="none" stroke="#000000" stroke-width="15" stroke-miterlimit="22.9256" data-original="#000000" class=""></path><circle cx="256" cy="297.044" r="15" style="fill-rule:evenodd;clip-rule:evenodd;stroke-width:15;stroke-miterlimit:22.9256;" fill-rule="evenodd" clip-rule="evenodd" fill="none" stroke="#000000" stroke-width="15" stroke-miterlimit="22.9256" data-original="#000000" class=""></circle><path d="M344.742 267.044h46.256c8.249 0 15-6.75 15-15l.001-94.545C405.999 74.888 338.61 7.5 256 7.5S106 74.889 106.001 157.498l.001 94.545c0 8.25 6.75 15 15 15h46.256m238.741-60.847c0-8.25-6.753-15-15-15H121c-8.247 0-15 6.75-15 15m60.001-15.001v60.849c0 49.49 40.499 90.581 89.999 90.581s89.999-41.09 89.999-90.581v-60.849" style="fill-rule:evenodd;clip-rule:evenodd;stroke-width:15;stroke-miterlimit:22.9256;" fill-rule="evenodd" clip-rule="evenodd" fill="none" stroke="#000000" stroke-width="15" stroke-miterlimit="22.9256" data-original="#000000" class=""></path><path d="M375.999 191.195v-33.697C375.999 91.446 322.053 37.5 256 37.5c-30.252 0-57.96 11.32-79.112 29.933m-10.954 10.953c-18.612 21.154-29.933 48.861-29.933 79.112v33.697M308.225 364.784 256 413.25l-52.226-48.466M256 413.25l-43.322 41.115-44.432-78.81M256 413.25l43.322 41.115 44.431-78.81" style="fill-rule:evenodd;clip-rule:evenodd;stroke-width:15;stroke-miterlimit:22.9256;" fill-rule="evenodd" clip-rule="evenodd" fill="none" stroke="#000000" stroke-width="15" stroke-miterlimit="22.9256" data-original="#000000" class=""></path></g></svg>