<svg xmlns="http://www.w3.org/2000/svg" version="1.1" xmlns:xlink="http://www.w3.org/1999/xlink" width="512" height="512" x="0" y="0" viewBox="0 0 682.667 682.667" style="enable-background:new 0 0 512 512" xml:space="preserve" class=""><g transform="matrix(0.7,0,0,0.7,102.39873390197747,102.40095405578617)"><defs><clipPath id="a" clipPathUnits="userSpaceOnUse"><path d="M0 512h512V0H0Z" fill="#000000" opacity="1" data-original="#000000"></path></clipPath></defs><g clip-path="url(#a)" transform="matrix(1.33333 0 0 -1.33333 0 682.667)"><path d="M0 0c39.89-40.649 62.02-94.149 62.52-151.109h23.87L30.05-231.3l-56.351 80.191H-2.48C-3.551-67.29-72.051.561-156.11.561c-20.76 0-40.88-4.05-59.81-12.061l-25.32 59.87c26.979 11.41 55.62 17.191 85.13 17.191 54.089 0 105.2-19.51 145.259-55.21" style="stroke-width:15;stroke-linecap:butt;stroke-linejoin:miter;stroke-miterlimit:10;stroke-dasharray:none;stroke-opacity:1" transform="translate(411.61 408.6)" fill="none" stroke="#000000" stroke-width="15" stroke-linecap="butt" stroke-linejoin="miter" stroke-miterlimit="10" stroke-dasharray="none" stroke-opacity="" data-original="#000000" class=""></path><path d="M0 0c36.01-.662 72.01-10.662 101.78-29.639" style="stroke-width:15;stroke-linecap:butt;stroke-linejoin:miter;stroke-miterlimit:10;stroke-dasharray:15, 30, 15, 30, 15, 30;stroke-dashoffset:0;stroke-opacity:1" transform="translate(255.495 444.164)" fill="none" stroke="#000000" stroke-width="15" stroke-linecap="butt" stroke-linejoin="miter" stroke-miterlimit="10" stroke-dasharray="15, 30, 15, 30, 15, 30" stroke-dashoffset="0" stroke-opacity="" data-original="#000000" class=""></path><path d="M0 0c.511-57.662 23.19-111.797 64.021-152.627 41.298-41.3 96.209-64.044 154.617-64.044 29.504 0 58.143 5.786 85.123 17.197l-25.322 59.866c-18.923-8.004-39.043-12.063-59.801-12.063C134.574-151.671 66.072-83.814 65.001 0h23.821L32.476 80.195-23.872 0Z" style="stroke-width:15;stroke-linecap:butt;stroke-linejoin:miter;stroke-miterlimit:10;stroke-dasharray:none;stroke-opacity:1" transform="translate(37.867 254.507)" fill="none" stroke="#000000" stroke-width="15" stroke-linecap="butt" stroke-linejoin="miter" stroke-miterlimit="10" stroke-dasharray="none" stroke-opacity="" data-original="#000000" class=""></path><path d="M0 0c15.77-11.02 34.939-17.479 55.59-17.479 53.66 0 97.32 43.649 97.32 97.309s-43.66 97.32-97.32 97.32-97.31-43.66-97.31-97.32c0-27.6 11.55-52.559 30.07-70.28" style="stroke-width:15;stroke-linecap:butt;stroke-linejoin:miter;stroke-miterlimit:10;stroke-dasharray:none;stroke-opacity:1" transform="translate(200.91 175.67)" fill="none" stroke="#000000" stroke-width="15" stroke-linecap="butt" stroke-linejoin="miter" stroke-miterlimit="10" stroke-dasharray="none" stroke-opacity="" data-original="#000000" class=""></path><path d="M0 0h-15.135" style="stroke-width:15;stroke-linecap:butt;stroke-linejoin:miter;stroke-miterlimit:10;stroke-dasharray:15, 30, 15, 30, 15, 30;stroke-dashoffset:0;stroke-opacity:1" transform="translate(207.072 255.502)" fill="none" stroke="#000000" stroke-width="15" stroke-linecap="butt" stroke-linejoin="miter" stroke-miterlimit="10" stroke-dasharray="15, 30, 15, 30, 15, 30" stroke-dashoffset="0" stroke-opacity="" data-original="#000000" class=""></path><path d="M0 0h-15.135" style="stroke-width:15;stroke-linecap:butt;stroke-linejoin:miter;stroke-miterlimit:10;stroke-dasharray:15, 30, 15, 30, 15, 30;stroke-dashoffset:0;stroke-opacity:1" transform="translate(321.072 255.502)" fill="none" stroke="#000000" stroke-width="15" stroke-linecap="butt" stroke-linejoin="miter" stroke-miterlimit="10" stroke-dasharray="15, 30, 15, 30, 15, 30" stroke-dashoffset="0" stroke-opacity="" data-original="#000000" class=""></path><path d="M0 0h39.357v39.357H0v39.358h39.357" style="stroke-width:15;stroke-linecap:square;stroke-linejoin:miter;stroke-miterlimit:10;stroke-dasharray:none;stroke-opacity:1" transform="translate(236.826 216.144)" fill="none" stroke="#000000" stroke-width="15" stroke-linecap="square" stroke-linejoin="miter" stroke-miterlimit="10" stroke-dasharray="none" stroke-opacity="" data-original="#000000" class=""></path><path d="M0 0v23.73" style="stroke-width:15;stroke-linecap:butt;stroke-linejoin:miter;stroke-miterlimit:10;stroke-dasharray:none;stroke-opacity:1" transform="translate(256.505 294.86)" fill="none" stroke="#000000" stroke-width="15" stroke-linecap="butt" stroke-linejoin="miter" stroke-miterlimit="10" stroke-dasharray="none" stroke-opacity="" data-original="#000000" class=""></path><path d="M0 0v23.729" style="stroke-width:15;stroke-linecap:butt;stroke-linejoin:miter;stroke-miterlimit:10;stroke-dasharray:none;stroke-opacity:1" transform="translate(256.505 192.415)" fill="none" stroke="#000000" stroke-width="15" stroke-linecap="butt" stroke-linejoin="miter" stroke-miterlimit="10" stroke-dasharray="none" stroke-opacity="" data-original="#000000" class=""></path><path d="M0 0h-15.204" style="stroke-width:15;stroke-linecap:butt;stroke-linejoin:miter;stroke-miterlimit:10;stroke-dasharray:15, 30, 15, 30, 15, 30;stroke-dashoffset:0;stroke-opacity:1" transform="translate(283.785 72)" fill="none" stroke="#000000" stroke-width="15" stroke-linecap="butt" stroke-linejoin="miter" stroke-miterlimit="10" stroke-dasharray="15, 30, 15, 30, 15, 30" stroke-dashoffset="0" stroke-opacity="" data-original="#000000" class=""></path></g></g></svg>