<svg xmlns="http://www.w3.org/2000/svg" version="1.1" xmlns:xlink="http://www.w3.org/1999/xlink" width="512" height="512" x="0" y="0" viewBox="0 0 512.004 512.004" style="enable-background:new 0 0 512 512" xml:space="preserve" class=""><g transform="matrix(0.6999999999999997,0,0,0.6999999999999997,82.34431877136248,76.800656604767)"><path d="m66.361 249.964-36.48 67.18 39.64 10.67 16.63 93.37c2.72 15.27 16 26.39 31.51 26.39h57.21v56.93h125.44M73.521 236.784l17.33-31.91c0-109 88.36-197.36 197.36-197.36 156.35-1.78 251.42 170.9 164.56 298.9-56.05 84.42-87.21 138.42-87.21 198.09h-50.25" style="stroke-width:15;stroke-miterlimit:10;" fill="none" stroke="#000000" stroke-width="15" stroke-miterlimit="10" data-original="#000000" class=""></path><path d="m305.736 73.086 17.508-19.392 42.043 17.415-1.333 26.092 25.35 25.35 26.092-1.333 17.415 42.043-19.392 17.508v35.85l19.392 17.508-17.415 42.043-26.092-1.333-25.35 25.35 1.333 26.092-42.043 17.415-17.508-19.392h-35.85l-17.508 19.392-42.043-17.415 1.333-26.092-25.35-25.35-26.092 1.333-17.415-42.043 19.392-17.508v-35.85l-19.392-17.508 17.415-42.043 26.092 1.333 25.35-25.35-1.333-26.092 42.043-17.415 17.508 19.392h35.85z" style="stroke-width:15;stroke-miterlimit:10;" fill="none" stroke="#000000" stroke-width="15" stroke-miterlimit="10" data-original="#000000" class=""></path><path d="M307.751 256.714h38.08c32.05-32.04 32.05-84 0-116.04-32.04-32.05-84-32.05-116.04 0-32.05 32.04-32.05 84 0 116.04h38.08" style="stroke-width:15;stroke-miterlimit:10;" fill="none" stroke="#000000" stroke-width="15" stroke-miterlimit="10" data-original="#000000" class=""></path><circle cx="287.811" cy="258.18" r="20" style="stroke-width:15;stroke-miterlimit:10;" fill="none" stroke="#000000" stroke-width="15" stroke-miterlimit="10" data-original="#000000" class=""></circle><path d="m299.303 239.474 36.802-65.294M245.311 186.676h15M275.311 186.676h15" style="stroke-width:15;stroke-miterlimit:10;" fill="none" stroke="#000000" stroke-width="15" stroke-miterlimit="10" data-original="#000000" class=""></path></g></svg>