<svg xmlns="http://www.w3.org/2000/svg" version="1.1" xmlns:xlink="http://www.w3.org/1999/xlink" width="512" height="512" x="0" y="0" viewBox="0 0 512.86 512.86" style="enable-background:new 0 0 512 512" xml:space="preserve" class=""><g transform="matrix(0.7000000000000001,0,0,0.7000000000000001,92.62501058578485,56.233151102066046)"><path d="M287.619 407.82c7.04-4.33 13.95-9.82 20.7-16.57 7.56-7.56 15.51-21.06 23.16-36.97 12.03-25.05 23.32-56.11 31.17-79.44 6.99-20.77 1.59-43.71-13.91-59.2l-2.75-2.76-23.65-23.64-23.65-23.65a3.32 3.32 0 0 1-.18-.19l-2.57-2.57c-14.41-14.4-35.24-20.08-54.8-15.19-1.48.37-2.95.8-4.41 1.29-11.65 3.92-25.22 8.7-39.02 14h-.01c-13.82 5.31-27.86 11.14-40.4 17.17-15.91 7.64-29.41 15.59-36.97 23.15-33.39 33.39-36.05 70.85-19.89 107.15M340.729 105.351c16.92-.55 34.01 5.64 46.93 18.56 13.05 13.06 19.23 30.38 18.55 47.47" style="stroke-width:15;stroke-miterlimit:10;" fill="none" stroke="#000000" stroke-width="15" stroke-miterlimit="10" data-original="#000000" class=""></path><path d="M298.739 123.05c-.3.27-.6.57-.89.86-5.33 5.77-7.97 13.09-7.97 20.39 0 7.72 2.95 15.42 8.81 21.29l47.3 47.29c11.41 11.42 29.8 11.79 41.67.85.25-.25.49-.5.74-.75" style="stroke-width:15;stroke-miterlimit:10;" fill="none" stroke="#000000" stroke-width="15" stroke-miterlimit="10" data-original="#000000" class=""></path><circle cx="318.256" cy="110.706" r="23.095" style="stroke-width:15;stroke-miterlimit:10;" fill="none" stroke="#000000" stroke-width="15" stroke-miterlimit="10" data-original="#000000" class=""></circle><circle cx="401.541" cy="193.991" r="23.095" style="stroke-width:15;stroke-miterlimit:10;" fill="none" stroke="#000000" stroke-width="15" stroke-miterlimit="10" data-original="#000000" class=""></circle><path d="m241.201 147.81-20.935-59.359 44.38-44.38L247.644 2.86M158.468 181.272l-36.453-36.453-65.629 65.629H19.499M198.049 163.639l-36.284-74.9-48.991 6.34M364.55 271.159l59.359 20.934 44.38-44.38 41.21 17.003M331.089 353.891l36.45 36.449-56.37 56.371M348.72 314.311l74.901 36.283-6.341 48.991M322.339 189.24l-104.06 104.061M366.854 110.91c13.691-13.691 22.774-43.817-7.197-73.788M400.665 144.72c13.691-13.691 43.816-22.774 73.788 7.197M66.669 366.181l-53.83 88.91c-13.36 22.07 2.53 50.27 28.33 50.27h193.79M74.469 353.301l61.74-101.98c12.89-21.28 43.77-21.28 56.66 0l123.37 203.77c13.36 22.07-2.53 50.27-28.33 50.27h-37.95" style="stroke-width:15;stroke-miterlimit:10;" fill="none" stroke="#000000" stroke-width="15" stroke-miterlimit="10" data-original="#000000" class=""></path><path d="M164.539 405.361c-8.284 0-15-6.716-15-15v-90c0-8.284 6.716-15 15-15 8.284 0 15 6.716 15 15v90c0 8.284-6.716 15-15 15z" style="stroke-width:15;stroke-miterlimit:10;" fill="none" stroke="#000000" stroke-width="15" stroke-miterlimit="10" data-original="#000000" class=""></path><circle cx="164.539" cy="455.361" r="20" style="stroke-width:15;stroke-miterlimit:10;" fill="none" stroke="#000000" stroke-width="15" stroke-miterlimit="10" data-original="#000000" class=""></circle><path d="m254.399 183.127 10.607 10.607M317.036 235.967l10.606 10.607" style="stroke-width:15;stroke-miterlimit:10;" fill="none" stroke="#000000" stroke-width="15" stroke-miterlimit="10" data-original="#000000" class=""></path></g></svg>