<svg xmlns="http://www.w3.org/2000/svg" version="1.1" xmlns:xlink="http://www.w3.org/1999/xlink" width="512" height="512" x="0" y="0" viewBox="0 0 511 511" style="enable-background:new 0 0 512 512" xml:space="preserve" class=""><g transform="matrix(0.6400000000000003,0,0,0.6400000000000003,101.98000000000002,81.98000000000002)"><path d="M173 309.5V295h1.5c12.958 0 23.5-10.542 23.5-23.5S187.458 248 174.5 248h-18c-4.687 0-8.5-3.813-8.5-8.5s3.813-8.5 8.5-8.5h34v-15H173v-14.5h-15V216h-1.5c-12.958 0-23.5 10.542-23.5 23.5s10.542 23.5 23.5 23.5h18c4.687 0 8.5 3.813 8.5 8.5s-3.813 8.5-8.5 8.5h-34v15H158v14.5zM263 368.5V354h1.5c12.958 0 23.5-10.542 23.5-23.5S277.458 307 264.5 307h-18c-4.687 0-8.5-3.813-8.5-8.5s3.813-8.5 8.5-8.5h34v-15H263v-14.5h-15V275h-1.5c-12.958 0-23.5 10.542-23.5 23.5s10.542 23.5 23.5 23.5h18c4.687 0 8.5 3.813 8.5 8.5s-3.813 8.5-8.5 8.5h-34v15H248v14.5zM357 342.5V328h1.5c12.958 0 23.5-10.542 23.5-23.5S371.458 281 358.5 281h-18c-4.687 0-8.5-3.813-8.5-8.5s3.813-8.5 8.5-8.5h34v-15H357v-14.5h-15V249h-1.5c-12.958 0-23.5 10.542-23.5 23.5s10.542 23.5 23.5 23.5h18c4.687 0 8.5 3.813 8.5 8.5s-3.813 8.5-8.5 8.5h-34v15H342v14.5zM498 466v-49.104l-146.926-18.755-1.9 14.879L483 430.104V466H341.5v15H496v15H73.5v15H511v-45z" fill="#000000" opacity="1" data-original="#000000" class=""></path><path d="M15 481h311.5v-15H263v-15.711c0-23.439 19.024-42.509 42.408-42.509 1.818 0 3.658.118 5.474.351l23.414 2.989 1.899-14.879-23.409-2.989a58.43 58.43 0 0 0-7.378-.472c-21.351 0-40.019 11.739-49.908 29.11-9.89-17.371-28.557-29.109-49.908-29.109-2.45 0-4.931.158-7.373.471L13 416.896V466H0v45h58.5v-15H15zm13-50.896 172.119-21.973a43.32 43.32 0 0 1 5.473-.35c23.384 0 42.408 19.069 42.408 42.508V466H28zM69.936 388.134c-1.47-6.091-2.596-12.491-3.411-19.134H100.5v-15H65.259c-.164-3.47-.259-6.988-.259-10.566 0-1.484.039-2.957.066-4.434H86.5v-15H65.826c5.599-66.91 40.044-124.536 94.628-157.001l.047.001h35.714v-15H160.5c-6.893 0-12.5-5.607-12.5-12.5s5.607-12.5 12.5-12.5h190c6.893 0 12.5 5.607 12.5 12.5s-5.607 12.5-12.5 12.5H211.214v15H350.5l.047-.001A188.338 188.338 0 0 1 372.175 182H350.5v15h38.252a190.213 190.213 0 0 1 13.242 15H370.5v15h42.247C434.176 260.072 446 300.206 446 343.434c0 16.086-1.661 31.125-4.936 44.7l14.582 3.518c3.553-14.726 5.354-30.948 5.354-48.218 0-76.175-34.403-143.516-92.728-182.972 5.945-5.048 9.728-12.57 9.728-20.962 0-14.732-11.646-26.793-26.215-27.467l14.808-49.065-14.36-4.334L336.127 112h-50.188l15.439-35.51-13.756-5.98L269.583 112H243.48l-14.067-33.41-13.824 5.82L227.205 112h-52.401l-28.238-89.663 87.364 19.606L314.19 15h51.212l-8.835 29.273 14.36 4.334L385.598 0H311.74l-78.613 26.391L124.434 1.997l34.655 110.039C144.578 112.773 133 124.81 133 139.5c0 8.392 3.783 15.913 9.728 20.962C84.403 199.917 50 267.259 50 343.434c0 17.27 1.801 33.492 5.354 48.218z" fill="#000000" opacity="1" data-original="#000000" class=""></path><path d="M320.5 182h15v15h-15zM115.5 354h15v15h-15z" fill="#000000" opacity="1" data-original="#000000" class=""></path></g></svg>