<svg xmlns="http://www.w3.org/2000/svg" version="1.1" xmlns:xlink="http://www.w3.org/1999/xlink" width="512" height="512" x="0" y="0" viewBox="0 0 511 511" style="enable-background:new 0 0 512 512" xml:space="preserve" class=""><g transform="matrix(0.7000000000000001,0,0,0.7000000000000001,76.64999771118167,56.650000000000006)"><path d="M405.303 143.5h15c0-35.014-28.486-63.5-63.5-63.5v15c26.743 0 48.5 21.757 48.5 48.5zM164.803 215c21.78 0 39.5-17.72 39.5-39.5s-17.72-39.5-39.5-39.5-39.5 17.72-39.5 39.5 17.72 39.5 39.5 39.5zm0-64c13.509 0 24.5 10.99 24.5 24.5s-10.991 24.5-24.5 24.5-24.5-10.99-24.5-24.5 10.991-24.5 24.5-24.5z" fill="#ffffff" opacity="1" data-original="#000000" class=""></path><path d="M448.895 168.802a95.256 95.256 0 0 0 3.409-25.302c0-52.659-42.841-95.5-95.5-95.5s-95.5 42.841-95.5 95.5c0 6.396.636 12.772 1.892 18.997L233.693 192h-24.89v15h31.103l24.401-24.4 13.393 13.393-28.006 28.006-52.395.001v56h-48.996v-60.5h-15V280h-.004v23.5c0 .052.004.103.004.154V439h70.996v-23.5c0-6.425-2.594-12.253-6.787-16.5h42.397l205.394-205.394V496H86.91l43.197-43.196-10.607-10.608L50.697 511h409.606V157.394zM356.803 63c44.388 0 80.5 36.112 80.5 80.5s-36.112 80.5-80.5 80.5c-22.812 0-44.292-9.554-59.555-26.343l3.884-3.884a24.31 24.31 0 0 0 7.167-17.303c0-6.537-2.545-12.682-7.167-17.303-4.622-4.623-10.767-7.168-17.304-7.168-2.394 0-4.733.345-6.966 1.004a81.389 81.389 0 0 1-.559-9.504c0-44.387 36.113-80.499 80.5-80.499zm-66.278 120.167-2.215 2.215-13.394-13.394 2.215-2.215c1.789-1.788 4.167-2.773 6.696-2.773s4.908.985 6.697 2.774a9.404 9.404 0 0 1 2.774 6.696 9.401 9.401 0 0 1-2.773 6.697zm-34.619 55.832 30.723-30.723C304.702 227.868 329.976 239 356.803 239c8.757 0 17.24-1.191 25.302-3.409L244.207 373.489c-.805-9.453-7.227-17.323-15.908-20.255V303.5c0-10.335-6.71-19.127-16-22.266V239zm-107.603 91.322A31.303 31.303 0 0 0 164.799 335h8.5v57h-24.996zM188.299 367h32.5c4.687 0 8.5 3.813 8.5 8.5v8.5h-41zm16.5-72c4.687 0 8.5 3.813 8.5 8.5V352h-25v-32h-23.5c-9.072 0-16.454-7.361-16.496-16.423V295zm-15.5 129h-40.996v-17h32.496c4.687 0 8.5 3.813 8.5 8.5zM186.106 116.804l91.197-91.197V55.5h15V0h-55.5v15h29.893L175.5 106.196z" fill="#ffffff" opacity="1" data-original="#000000" class=""></path><path d="M300.803 392h16v15h-16zM332.803 392h16v15h-16zM364.803 392h16v15h-16z" fill="#ffffff" opacity="1" data-original="#000000" class=""></path></g></svg>