<svg xmlns="http://www.w3.org/2000/svg" version="1.1" xmlns:xlink="http://www.w3.org/1999/xlink" width="512" height="512" x="0" y="0" viewBox="0 0 682.667 682.667" style="enable-background:new 0 0 512 512" xml:space="preserve" class=""><g transform="matrix(0.7000000000000006,0,0,0.7000000000000006,117.39955015182485,102.40015525817867)"><defs><clipPath id="a" clipPathUnits="userSpaceOnUse"><path d="M0 512h512V0H0Z" fill="#000000" opacity="1" data-original="#000000"></path></clipPath></defs><g clip-path="url(#a)" transform="matrix(1.33333 0 0 -1.33333 0 682.667)"><path d="m0 0-46.481 50.315v56.414c0 39.928 32.542 72.619 72.412 72.872 39.869-.253 72.411-32.944 72.411-72.872V50.315L51.861 0Z" style="stroke-width:15;stroke-linecap:butt;stroke-linejoin:miter;stroke-miterlimit:22.926;stroke-dasharray:none;stroke-opacity:1" transform="translate(115.489 304.137)" fill="none" stroke="#000000" stroke-width="15" stroke-linecap="butt" stroke-linejoin="miter" stroke-miterlimit="22.926" stroke-dasharray="none" stroke-opacity="" data-original="#000000" class=""></path><path d="M0 0v105.603" style="stroke-width:15;stroke-linecap:butt;stroke-linejoin:miter;stroke-miterlimit:22.926;stroke-dasharray:none;stroke-opacity:1" transform="translate(60 104.541)" fill="none" stroke="#000000" stroke-width="15" stroke-linecap="butt" stroke-linejoin="miter" stroke-miterlimit="22.926" stroke-dasharray="none" stroke-opacity="" data-original="#000000" class=""></path><path d="M0 0v-48.894l-40.895-30-39.894 30h-69.956l-24.536-31.393v-137.937h70.521m14.999 0H-.925M-81.798-48.895v48.22" style="stroke-width:15;stroke-linecap:butt;stroke-linejoin:miter;stroke-miterlimit:22.926;stroke-dasharray:none;stroke-opacity:1" transform="translate(182.78 322.765)" fill="none" stroke="#000000" stroke-width="15" stroke-linecap="butt" stroke-linejoin="miter" stroke-miterlimit="22.926" stroke-dasharray="none" stroke-opacity="" data-original="#000000" class=""></path><path d="M0 0h-88.177m-16.7 0h-15.675l-25.204-28.207" style="stroke-width:15;stroke-linecap:butt;stroke-linejoin:miter;stroke-miterlimit:22.926;stroke-dasharray:none;stroke-opacity:1" transform="translate(214.764 410.866)" fill="none" stroke="#000000" stroke-width="15" stroke-linecap="butt" stroke-linejoin="miter" stroke-miterlimit="22.926" stroke-dasharray="none" stroke-opacity="" data-original="#000000" class=""></path><path d="M0 0c-27.562-25.034-64.165-40.291-104.332-40.291-85.73 0-155.229 69.498-155.229 155.228s69.499 155.228 155.229 155.228c85.729 0 155.228-69.498 155.228-155.228 0-40.167-15.257-76.771-40.292-104.333" style="stroke-width:15;stroke-linecap:butt;stroke-linejoin:miter;stroke-miterlimit:2.613;stroke-dasharray:none;stroke-opacity:1" transform="translate(453.604 68.554)" fill="none" stroke="#000000" stroke-width="15" stroke-linecap="butt" stroke-linejoin="miter" stroke-miterlimit="2.613" stroke-dasharray="none" stroke-opacity="" data-original="#000000" class=""></path><path d="M0 0c16.729-21.289 26.706-48.134 26.706-77.31 0-69.161-56.066-125.227-125.227-125.227-29.176 0-56.021 9.977-77.31 26.706zm-165.002-122.576-32.042-32.042c-16.728 21.289-26.706 48.134-26.706 77.308 0 69.163 56.066 125.229 125.229 125.229 29.174 0 56.019-9.978 77.308-26.706L-154.396-111.97" style="stroke-width:15;stroke-linecap:butt;stroke-linejoin:miter;stroke-miterlimit:2.613;stroke-dasharray:none;stroke-opacity:1" transform="translate(447.794 260.8)" fill="none" stroke="#000000" stroke-width="15" stroke-linecap="butt" stroke-linejoin="miter" stroke-miterlimit="2.613" stroke-dasharray="none" stroke-opacity="" data-original="#000000" class=""></path><path d="M0 0v-15" style="stroke-width:15;stroke-linecap:butt;stroke-linejoin:miter;stroke-miterlimit:2.613;stroke-dasharray:none;stroke-opacity:1" transform="translate(141.886 213.872)" fill="none" stroke="#000000" stroke-width="15" stroke-linecap="butt" stroke-linejoin="miter" stroke-miterlimit="2.613" stroke-dasharray="none" stroke-opacity="" data-original="#000000" class=""></path><path d="M0 0v-15.001" style="stroke-width:15;stroke-linecap:butt;stroke-linejoin:miter;stroke-miterlimit:2.613;stroke-dasharray:none;stroke-opacity:1" transform="translate(141.886 183.873)" fill="none" stroke="#000000" stroke-width="15" stroke-linecap="butt" stroke-linejoin="miter" stroke-miterlimit="2.613" stroke-dasharray="none" stroke-opacity="" data-original="#000000" class=""></path><path d="M0 0v-15" style="stroke-width:15;stroke-linecap:butt;stroke-linejoin:miter;stroke-miterlimit:2.613;stroke-dasharray:none;stroke-opacity:1" transform="translate(141.886 153.873)" fill="none" stroke="#000000" stroke-width="15" stroke-linecap="butt" stroke-linejoin="miter" stroke-miterlimit="2.613" stroke-dasharray="none" stroke-opacity="" data-original="#000000" class=""></path><path d="M0 0v-19.332" style="stroke-width:15;stroke-linecap:butt;stroke-linejoin:miter;stroke-miterlimit:2.613;stroke-dasharray:none;stroke-opacity:1" transform="translate(141.886 123.873)" fill="none" stroke="#000000" stroke-width="15" stroke-linecap="butt" stroke-linejoin="miter" stroke-miterlimit="2.613" stroke-dasharray="none" stroke-opacity="" data-original="#000000" class=""></path><path d="M0 0c21.759 7.154 40.053 21.935 51.719 41.183M-29.777-4.749a95.94 95.94 0 0 1 15.21 1.211" style="stroke-width:15;stroke-linecap:butt;stroke-linejoin:miter;stroke-miterlimit:2.613;stroke-dasharray:none;stroke-opacity:1" transform="translate(379.05 93.012)" fill="none" stroke="#000000" stroke-width="15" stroke-linecap="butt" stroke-linejoin="miter" stroke-miterlimit="2.613" stroke-dasharray="none" stroke-opacity="" data-original="#000000" class=""></path><path d="M0 0c-21.758-7.154-40.053-21.935-51.719-41.183M29.778 4.749a95.943 95.943 0 0 1-15.211-1.211" style="stroke-width:15;stroke-linecap:butt;stroke-linejoin:miter;stroke-miterlimit:2.613;stroke-dasharray:none;stroke-opacity:1" transform="translate(319.494 273.97)" fill="none" stroke="#000000" stroke-width="15" stroke-linecap="butt" stroke-linejoin="miter" stroke-miterlimit="2.613" stroke-dasharray="none" stroke-opacity="" data-original="#000000" class=""></path></g></g></svg>