<svg xmlns="http://www.w3.org/2000/svg" version="1.1" xmlns:xlink="http://www.w3.org/1999/xlink" width="512" height="512" x="0" y="0" viewBox="0 0 511 511" style="enable-background:new 0 0 512 512" xml:space="preserve" class=""><g transform="matrix(0.6500000000000001,0,0,0.6500000000000001,104.42499999999993,79.42499999999993)"><path d="M493 440V207.5h-15V440H319v7.5c0 3.584-2.916 6.5-6.5 6.5h-114a6.508 6.508 0 0 1-6.5-6.5V440H83.215v15h95.135c3.05 8.168 10.932 14 20.15 14h114c9.219 0 17.101-5.832 20.15-14H496v18.5c0 12.407-10.094 22.5-22.5 22.5h-436C25.093 496 15 485.907 15 473.5V455h53.215v-15H33V157.5c0-12.407 10.093-22.5 22.5-22.5h34v-15h-34C34.822 120 18 136.822 18 157.5V440H0v33.5C0 494.178 16.822 511 37.5 511h436c20.678 0 37.5-16.822 37.5-37.5V440zM478 157.5v35h15v-35c0-20.678-16.822-37.5-37.5-37.5h-34v15h34c12.406 0 22.5 10.093 22.5 22.5z" fill="#ffffff" opacity="1" data-original="#000000" class=""></path><path d="M438 400H73v-78.5H58V415h395V160h-31.5v15H438zM73 175h16.5v-15H58v146.5h15z" fill="#ffffff" opacity="1" data-original="#000000" class=""></path><path d="M388 37.5v220c0 12.407-10.094 22.5-22.5 22.5h-76.428v15H365.5c20.678 0 37.5-16.822 37.5-37.5v-220C403 16.822 386.178 0 365.5 0h-32.857v15H365.5c12.406 0 22.5 10.093 22.5 22.5zM145.5 295h128.572v-15H145.5c-12.407 0-22.5-10.093-22.5-22.5V133.215h-15V257.5c0 20.678 16.822 37.5 37.5 37.5zM123 37.5c0-12.407 10.093-22.5 22.5-22.5h172.143V0H145.5C124.822 0 108 16.822 108 37.5v80.715h15z" fill="#ffffff" opacity="1" data-original="#000000" class=""></path><path d="M288 77.5c0 3.361.451 6.617 1.284 9.718l-74.296 37.157C208.117 115.632 197.457 110 185.5 110c-20.678 0-37.5 16.822-37.5 37.5s16.822 37.5 37.5 37.5c11.957 0 22.617-5.632 29.488-14.375l74.296 37.157A37.405 37.405 0 0 0 288 217.5c0 20.678 16.822 37.5 37.5 37.5s37.5-16.822 37.5-37.5-16.822-37.5-37.5-37.5c-11.957 0-22.617 5.632-29.488 14.375l-74.296-37.157a37.405 37.405 0 0 0 0-19.436l74.296-37.157C302.883 109.368 313.543 115 325.5 115c20.678 0 37.5-16.822 37.5-37.5S346.178 40 325.5 40 288 56.822 288 77.5zM185.5 170c-12.407 0-22.5-10.093-22.5-22.5s10.093-22.5 22.5-22.5 22.5 10.093 22.5 22.5-10.093 22.5-22.5 22.5zm140 25c12.406 0 22.5 10.093 22.5 22.5S337.906 240 325.5 240 303 229.907 303 217.5s10.094-22.5 22.5-22.5zm0-140c12.406 0 22.5 10.093 22.5 22.5S337.906 100 325.5 100 303 89.907 303 77.5 313.094 55 325.5 55zM92.5 468h15v15h-15zM37.5 468h40v15h-40zM248 355.5h15v15h-15zM248 310.5h15v30h-15zM203 371.5h15v15h-15zM203 326.5h15v30h-15zM293 326.5h15v30h-15zM293 371.5h15v15h-15zM175.5 45V30H138v37.5h15V45z" fill="#ffffff" opacity="1" data-original="#000000" class=""></path></g></svg>