<svg xmlns="http://www.w3.org/2000/svg" version="1.1" xmlns:xlink="http://www.w3.org/1999/xlink" width="512" height="512" x="0" y="0" viewBox="0 0 512 512" style="enable-background:new 0 0 512 512" xml:space="preserve" class=""><g transform="matrix(0.7000000000000003,0,0,0.7000000000000003,81.79996166229245,86.79998168945315)"><path d="M294.5 247.5v-21.072m45 0V247.5M317 119.999c24.75 0 45 20.25 45 45v22.5c0 24.75-20.25 45-45 45s-45-20.25-45-45v-22.5c0-24.75 20.249-45 45-45zM339.5 247.5c0 12.426-10.074 22.5-22.5 22.5-12.427 0-22.5-10.074-22.5-22.5" style="fill-rule:evenodd;clip-rule:evenodd;stroke-width:15.0001;stroke-miterlimit:22.9256;" fill-rule="evenodd" clip-rule="evenodd" fill="none" stroke="#ffffff" stroke-width="15.0001" stroke-miterlimit="22.9256" data-original="#000000" opacity="1" class=""></path><path d="M362 187.499c0-12.375-10.125-22.5-22.5-22.5h-45c-12.375 0-22.5 10.125-22.5 22.5M272 187.499c0 8.25-6.75 15-15 15h-15v-37.5c0-8.25 6.75-15 15-15s15 6.75 15 15M324.5 300h15m-45 0h15" style="fill-rule:evenodd;clip-rule:evenodd;stroke-width:15.0001;stroke-miterlimit:22.9256;" fill-rule="evenodd" clip-rule="evenodd" fill="none" stroke="#ffffff" stroke-width="15.0001" stroke-miterlimit="22.9256" data-original="#000000" opacity="1" class=""></path><path d="M190.03 57.073C223.433 26.303 268.027 7.5 317 7.5c103.517 0 187.5 83.983 187.5 187.5S420.516 382.5 317 382.5 129.5 298.517 129.5 195c0-48.972 18.804-93.565 49.573-126.97M317 37.5c86.958 0 157.5 70.542 157.5 157.5S403.958 352.5 317 352.5 159.5 281.958 159.5 195 230.041 37.5 317 37.5z" style="fill-rule:evenodd;clip-rule:evenodd;stroke-width:15.0001;stroke-miterlimit:22.9256;" fill-rule="evenodd" clip-rule="evenodd" fill="none" stroke="#ffffff" stroke-width="15.0001" stroke-miterlimit="22.9256" data-original="#000000" opacity="1" class=""></path><path d="m339.5 247.5 30 11.728c15.364 6.006 30 13.504 30 30v39.948m-165 0v-39.948c0-16.5 14.635-23.994 30-30l30-11.728M106.407 448.02l-47.73 47.73c-11.665 11.665-30.759 11.668-42.427 0-11.667-11.667-11.667-30.759 0-42.427l106.066-106.066c5.833-5.833 15.379-5.833 21.213 0l21.214 21.214c5.834 5.833 5.831 15.382 0 21.213l-47.73 47.73M195.469 337.745l-30.726 30.726m-21.213-21.214 30.725-30.726" style="fill-rule:evenodd;clip-rule:evenodd;stroke-width:15.0001;stroke-miterlimit:22.9256;" fill-rule="evenodd" clip-rule="evenodd" fill="none" stroke="#ffffff" stroke-width="15.0001" stroke-miterlimit="22.9256" data-original="#000000" opacity="1" class=""></path></g></svg>