<svg xmlns="http://www.w3.org/2000/svg" version="1.1" xmlns:xlink="http://www.w3.org/1999/xlink" width="512" height="512" x="0" y="0" viewBox="0 0 509.875 509.875" style="enable-background:new 0 0 512 512" xml:space="preserve" class=""><g transform="matrix(0.7000000000000001,0,0,0.7000000000000001,81.48125000000002,66.48124942779535)"><path d="m509.869 439.628.006-13.704c.002-10.018-3.898-19.437-10.981-26.521s-16.501-10.986-26.519-10.986h-3.645c11.679-10.131 19.497-24.587 20.935-40.858l.134-1.75c.06-1.015.094-2.036.105-3.063l.016-.621c0-33.797-27.495-61.292-61.292-61.292s-61.293 27.496-61.293 61.292c0 18.47 8.224 35.046 21.189 46.292h-3.164c-20.678 0-37.5 16.822-37.5 37.5v74.208h161.983l.02-45.56-15-.007-.014 30.566h-131.99v-59.208c0-12.407 10.094-22.5 22.5-22.5h4.317l41.048 57.393 37.533-57.393h4.118a22.354 22.354 0 0 1 15.911 6.591 22.353 22.353 0 0 1 6.589 15.911l-.006 13.702zm-81.242-143.795c23.676 0 43.245 17.87 45.958 40.828a38.002 38.002 0 0 1-7.582.768c-12.23 0-25.031-5.854-31.854-14.568l-5.905-7.542-5.905 7.542c-7.675 9.803-16.786 14.568-27.854 14.568-4.368 0-8.6-.737-12.639-2.175 3.331-22.279 22.59-39.421 45.781-39.421zm1.543 138.417-22.052-30.833h42.215zm-1.543-45.833c-22.493 0-41.282-16.128-45.431-37.425a52.796 52.796 0 0 0 12.291 1.435c13.04 0 24.426-4.679 33.947-13.931 9.914 8.637 23.835 13.931 37.57 13.931 2.301 0 4.586-.148 6.847-.441-4.533 20.803-23.083 36.431-45.224 36.431zM124.516 388.417h-3.645c11.669-10.123 19.486-24.564 20.932-40.819l.257-5.474c0-33.797-27.496-61.292-61.293-61.292s-61.292 27.496-61.292 61.292c0 18.47 8.224 35.046 21.189 46.292H37.5c-20.678 0-37.5 16.822-37.5 37.5v14.208h15v-14.208c0-12.407 10.093-22.5 22.5-22.5h4.318l41.047 57.393 37.533-57.393h4.118a22.356 22.356 0 0 1 15.912 6.591 22.352 22.352 0 0 1 6.588 15.911l-.026 59.206H15v-30.562H0v45.562h161.983l.033-74.201c.002-10.018-3.898-19.437-10.981-26.521s-16.501-10.985-26.519-10.985zm-43.748-92.584c23.676 0 43.245 17.869 45.959 40.827a38.02 38.02 0 0 1-7.583.768c-12.23 0-25.031-5.854-31.854-14.568l-5.905-7.542-5.905 7.542c-7.675 9.803-16.786 14.568-27.853 14.568-4.368 0-8.6-.737-12.639-2.175 3.33-22.278 22.589-39.42 45.78-39.42zm1.543 138.417L60.26 403.417h42.216zm-1.543-45.833c-22.493 0-41.281-16.128-45.431-37.425a52.796 52.796 0 0 0 12.291 1.435c13.041 0 24.426-4.679 33.947-13.931 9.914 8.637 23.835 13.931 37.57 13.931 2.302 0 4.587-.148 6.848-.441-4.533 20.803-23.084 36.431-45.225 36.431zM298.445 117.335h-3.644c11.669-10.123 19.486-24.564 20.932-40.819l.257-5.474c0-33.797-27.496-61.292-61.293-61.292a61.249 61.249 0 0 0-40.37 15.171l9.884 11.283a46.247 46.247 0 0 1 30.486-11.455c23.676 0 43.245 17.869 45.959 40.827a38.02 38.02 0 0 1-7.583.768c-12.23 0-25.031-5.854-31.854-14.568l-5.905-7.542-5.905 7.542c-7.675 9.803-16.786 14.568-27.854 14.568-4.368 0-8.6-.737-12.64-2.175a46.009 46.009 0 0 1 6.827-18.152l-12.61-8.122c-6.365 9.882-9.729 21.344-9.729 33.147 0 18.47 8.224 35.046 21.189 46.292h-3.164c-20.678 0-37.5 16.822-37.5 37.5v74.208h161.983l.032-74.201c.002-10.018-3.898-19.437-10.98-26.521-7.081-7.084-16.499-10.985-26.518-10.985zM209.266 79.91a52.787 52.787 0 0 0 12.29 1.435c13.04 0 24.426-4.679 33.947-13.931 9.914 8.637 23.835 13.931 37.57 13.931a53.27 53.27 0 0 0 6.848-.441c-4.533 20.802-23.083 36.431-45.225 36.431-22.491 0-41.28-16.128-45.43-37.425zm67.138 52.425-20.164 30.833-22.052-30.833zm44.515 81.707H188.93v-59.208c0-12.407 10.093-22.5 22.5-22.5h4.318l41.048 57.393 37.533-57.393h4.118a22.349 22.349 0 0 1 15.911 6.592 22.349 22.349 0 0 1 6.589 15.91zM314.75 359.938c0-30.485-22.846-55.716-52.312-59.518v-45.544h-15v45.489c-29.678 3.607-52.75 28.938-52.75 59.574a59.678 59.678 0 0 0 10.104 33.288l-29.271 25.331 9.815 11.343 29.278-25.337c10.639 9.571 24.701 15.407 40.104 15.407 15.356 0 29.377-5.802 40.004-15.32l29.036 25.24 9.84-11.321-29.025-25.229a59.698 59.698 0 0 0 10.177-33.403zm-60.032 45.031c-24.831 0-45.031-20.201-45.031-45.031s20.201-45.031 45.031-45.031 45.032 20.201 45.032 45.031-20.201 45.031-45.032 45.031z" fill="#000000" opacity="1" data-original="#000000" class=""></path><path d="m248.981 362.687-6.693-9.269-12.161 8.783 17.937 24.833 31.273-37.064-11.465-9.673z" fill="#000000" opacity="1" data-original="#000000" class=""></path></g></svg>