<svg xmlns="http://www.w3.org/2000/svg" version="1.1" xmlns:xlink="http://www.w3.org/1999/xlink" width="512" height="512" x="0" y="0" viewBox="0 0 512 512" style="enable-background:new 0 0 512 512" xml:space="preserve" class=""><g transform="matrix(0.6399999999999999,0,0,0.6399999999999999,108.51000000000002,81.98000000000013)"><path d="M273.765 122.696 297.866 96l41.667 17.259-1.835 35.919 25.123 25.123 35.919-1.835 17.259 41.667-26.696 24.101v35.53L416 297.866l-17.259 41.667-35.919-1.835-25.123 25.123 1.835 35.919-41.667 17.259-24.101-26.696h-35.53L214.134 416l-41.667-17.259 1.835-35.919-25.123-25.123-35.919 1.835-17.259-41.667 26.696-24.101v-35.53L96 214.134l17.259-41.667 35.919 1.835 25.123-25.123-1.835-35.919 41.667-17.259 24.101 26.696 35.531-.001z" style="stroke-width:15;stroke-miterlimit:10;" fill="none" stroke="#000000" stroke-width="15" stroke-miterlimit="10" data-original="#000000" class=""></path><circle cx="256" cy="256" r="100" style="stroke-width:15;stroke-miterlimit:10;" fill="none" stroke="#000000" stroke-width="15" stroke-miterlimit="10" data-original="#000000" class=""></circle><path d="M229.777 283.989 256 257.766V186M102.89 314.5H7.5v190h128.73M197.5 409.11v95.39h-46.27M413.26 295.39c51.49 6.74 91.24 50.78 91.24 104.11 0 57.99-47.01 105-105 105-53.33 0-97.37-39.75-104.11-91.24" style="stroke-width:15;stroke-miterlimit:10;" fill="none" stroke="#000000" stroke-width="15" stroke-miterlimit="10" data-original="#000000" class=""></path><path d="M66.232 459.5v-100l70 50z" style="stroke-width:15;stroke-miterlimit:10;" fill="none" stroke="#000000" stroke-width="15" stroke-miterlimit="10" data-original="#000000" class=""></path><path d="M460.099 7.5h30v135.967h-30z" style="stroke-width:15;stroke-miterlimit:10;" transform="rotate(-180 475.1 75.483)" fill="none" stroke="#000000" stroke-width="15" stroke-miterlimit="10" data-original="#000000" class=""></path><path d="M430.099 53.15h30v90.317h-30z" style="stroke-width:15;stroke-miterlimit:10;" transform="rotate(-180 445.1 98.308)" fill="none" stroke="#000000" stroke-width="15" stroke-miterlimit="10" data-original="#000000" class=""></path><path d="M400.099 98.8h30v44.667h-30z" style="stroke-width:15;stroke-miterlimit:10;" transform="rotate(-180 415.1 121.133)" fill="none" stroke="#000000" stroke-width="15" stroke-miterlimit="10" data-original="#000000" class=""></path><path d="M7.5 133.05v62.05h96.39M7.5 118.05V57.5l50-50h114.97v105.76" style="stroke-width:15;stroke-miterlimit:10;" fill="none" stroke="#000000" stroke-width="15" stroke-miterlimit="10" data-original="#000000" class=""></path><path d="M57.5 7.5v50h-50M471.354 322.945 399.5 399.5v105M399.5 399.5l71.854 76.555M337.699 143.467H512M345.936 79.213l26.043-39.064L388.83 53.15 421 6.5M248.5 318.945h15M314 256h15M183 256h15" style="stroke-width:15;stroke-miterlimit:10;" fill="none" stroke="#000000" stroke-width="15" stroke-miterlimit="10" data-original="#000000" class=""></path></g></svg>