<svg xmlns="http://www.w3.org/2000/svg" version="1.1" xmlns:xlink="http://www.w3.org/1999/xlink" width="512" height="512" x="0" y="0" viewBox="0 0 349.046 349.046" style="enable-background:new 0 0 512 512" xml:space="preserve" class=""><g><path d="M344.046 298.535h-4.338c-2.375 0-2.375-2.811-2.375-2.811V99.094c0-4.95-4.051-9-9-9h-69.625c-2.5 0-2.367-2.37-2.367-2.37V49.818c0-.375.211-.796 1.455-.796 2.75 0 5-2.25 5-5v-8.881c0-2.75-2.25-5-5-5H96.13c-2.75 0-5 2.25-5 5v8.881c0 2.75 2.25 5 5 5 1.453 0 1.456 1.302 1.456 1.453V86.85s.247 3.245-1.878 3.245H20.515c-4.95 0-9 4.05-9 9V296.35c0 1.875-1.016 2.186-3.068 2.186H5c-2.75 0-5 2.25-5 5v10.369c0 2.75 2.25 5 5 5h339.046c2.75 0 5-2.25 5-5v-10.369c0-2.751-2.25-5.001-5-5.001zM196.075 133.209h29.924c2.201 0 4 1.8 4 4v29.925c0 2.2-1.799 4-4 4h-29.924c-2.201 0-4-1.8-4-4v-29.925c0-2.2 1.799-4 4-4zm-4-18.562V84.722c0-2.2 1.799-4 4-4h29.924c2.201 0 4 1.8 4 4v29.925c0 2.2-1.799 4-4 4h-29.924c-2.201 0-4-1.8-4-4zm4 69.199h29.924c2.201 0 4 1.8 4 4v29.925c0 2.2-1.799 4-4 4h-29.924c-2.201 0-4-1.8-4-4v-29.925c0-2.199 1.799-4 4-4zm4.441 60.162c2.199 0 4 1.8 4 4v46.335c0 2.2-1.801 4-4 4h-46.335c-2.199 0-4-1.8-4-4v-46.335c0-2.2 1.801-4 4-4h46.335zm-38.613-129.361c0 2.2-1.8 4-4 4h-29.925c-2.2 0-4-1.8-4-4V84.722c0-2.2 1.8-4 4-4h29.925c2.2 0 4 1.8 4 4v29.925zm-33.925 18.562h29.925c2.2 0 4 1.8 4 4v29.925c0 2.2-1.8 4-4 4h-29.925c-2.2 0-4-1.8-4-4v-29.925c0-2.2 1.8-4 4-4zm0 50.637h29.925c2.2 0 4 1.8 4 4v29.925c0 2.2-1.8 4-4 4h-29.925c-2.2 0-4-1.8-4-4v-29.925c0-2.199 1.8-4 4-4zm140.144-47.562c0-2.2 1.801-4 4-4h29.926c2.199 0 4 1.8 4 4v29.925c0 2.2-1.801 4-4 4h-29.926c-2.199 0-4-1.8-4-4v-29.925zm0 52.488c0-2.2 1.801-4 4-4h29.926c2.199 0 4 1.8 4 4v29.925c0 2.2-1.801 4-4 4h-29.926c-2.199 0-4-1.8-4-4v-29.925zm0 50.636c0-2.2 1.801-4 4-4h29.926c2.199 0 4 1.8 4 4v29.925c0 2.2-1.801 4-4 4h-29.926c-2.199 0-4-1.8-4-4v-29.925zM42.8 136.284c0-2.2 1.8-4 4-4h29.925c2.2 0 4 1.8 4 4v29.925c0 2.2-1.8 4-4 4H46.8c-2.2 0-4-1.8-4-4v-29.925zm0 52.488c0-2.2 1.8-4 4-4h29.925c2.2 0 4 1.8 4 4v29.925c0 2.2-1.8 4-4 4H46.8c-2.2 0-4-1.8-4-4v-29.925zm0 50.636c0-2.2 1.8-4 4-4h29.925c2.2 0 4 1.8 4 4v29.925c0 2.2-1.8 4-4 4H46.8c-2.2 0-4-1.8-4-4v-29.925z" fill="#000000" opacity="1" data-original="#000000" class=""></path></g></svg>