<svg xmlns="http://www.w3.org/2000/svg" version="1.1" xmlns:xlink="http://www.w3.org/1999/xlink" width="512" height="512" x="0" y="0" viewBox="0 0 32 32" style="enable-background:new 0 0 512 512" xml:space="preserve" class=""><g><path d="M11 27a3 3 0 1 1-6 0 3 3 0 0 1 6 0zm14-3a3 3 0 1 0 0 6 3 3 0 0 0 0-6zm6-3v6h-1c0-2.76-2.24-5-5-5s-5 2.24-5 5h-7c0-2.76-2.24-5-5-5s-5 2.24-5 5H1v-6c0-1.2.26-3.04.59-4.2l.9-3.15C2.91 12.16 4.46 11 6 11h10c1.32 0 3.16.66 4.18 1.51l4.32 3.6 3.92 1.31C29.87 17.9 31 19.47 31 21zm-11.632-3h-3v-3.387L12.632 20h3v3.387zM25 5V3h-2V2h-3c-1.858 0-3.411 1.28-3.858 3H10C8.346 5 7 6.346 7 8v1h2V8a1 1 0 0 1 1-1h6.142c.447 1.72 2 3 3.858 3h3V9h2V7h-2V5z" fill="#000000" opacity="1" data-original="#000000" class=""></path></g></svg>