<svg xmlns="http://www.w3.org/2000/svg" version="1.1" xmlns:xlink="http://www.w3.org/1999/xlink" width="512" height="512" x="0" y="0" viewBox="0 0 511.999 511.999" style="enable-background:new 0 0 512 512" xml:space="preserve" class=""><g><path d="M389.053 7.603A14.995 14.995 0 0 0 376.001 0h-180a14.995 14.995 0 0 0-14.546 11.367l-60 241a14.951 14.951 0 0 0 2.725 12.861 14.986 14.986 0 0 0 11.821 5.771h68.35l-82.397 220.727c-2.637 7.031.337 14.927 6.943 18.486 6.636 3.556 14.846 1.653 19.233-4.395l240-331c3.325-4.556 3.794-10.591 1.245-15.63a15.018 15.018 0 0 0-13.374-8.188H312.5l76.362-128.28a14.999 14.999 0 0 0 .191-15.116z" fill="#000000" opacity="1" data-original="#000000" class=""></path></g></svg>