<svg xmlns="http://www.w3.org/2000/svg" version="1.1" xmlns:xlink="http://www.w3.org/1999/xlink" width="512" height="512" x="0" y="0" viewBox="0 0 512 512" style="enable-background:new 0 0 512 512" xml:space="preserve" class=""><g><path d="M511.02 320.59c-1.73 5.81-5.61 10.97-11.31 14.06l-187.63 102.1c-8.87 4.82-17.94 7.68-27.16 8.53-9.24.88-18.71-.26-28.32-3.34l-40.54-13.04c-11.82-3.83-23.58-5.19-35.18-4.11-10.57.99-20.95 4.03-31.01 9.07L90.19 330.2l71.06-38.66c12.61-6.86 25.6-10.94 38.75-12.16 13.21-1.25 26.73.34 40.42 4.76l110.95 35.74c4.37 1.39 8.08 4.03 10.83 7.37 5.02 6.07 6.8 14.15 4.56 21.74-.14.37-.28.74-.37 1.13-4.14 11.79-16.95 18.34-28.91 14.83-.43-.17-.82-.28-1.25-.4l-93.51-30.1c-4.56-1.47-9.44 1.05-10.89 5.58-1.47 4.56 1.05 9.44 5.58 10.91l94.2 30.33c10.69 3.43 21.83 2.18 31.15-2.58 9.5-4.88 17.15-13.61 20.3-23.84 1.22-3.77 1.87-7.6 1.96-11.54l92.13-50.14c5.7-3.09 12.13-3.57 17.97-1.84 5.78 1.7 10.94 5.61 14.03 11.31 3.12 5.68 3.57 12.14 1.87 17.95zm-135.41-4.42c2.38 2.86 4.31 6.01 5.81 9.33l53.32-29c-.4-.94-.85-1.84-1.33-2.75-8.48-15.59-28.18-21.4-43.77-12.93l-38.21 20.81 5.27 1.7c7.4 2.38 13.95 6.83 18.91 12.84zm-318.02-7.74c-2.32-4.03-7.48-5.41-11.51-3.09L4.22 329.46c-4.03 2.3-5.41 7.48-3.09 11.48l94.2 163.56c2.32 4.02 7.48 5.41 11.51 3.09l41.87-24.12c4.03-2.3 5.41-7.48 3.09-11.48zM388.2 117.26v-5.3c-6.21-2.1-12.05-6.24-16.38-12.87-1.22-1.81-2.3-3.85-3.23-6.12a8.246 8.246 0 0 1 4.45-10.8c4.2-1.73 9.01.26 10.77 4.45.51 1.28 1.13 2.41 1.81 3.46 2.32 3.57 5.47 5.64 8.7 6.52 3.29.88 6.63.62 9.38-.54.6-.25 1.19-.57 1.76-.94.48-.31.88-.62 1.19-.96.99-.99 1.62-2.21 1.79-3.49.14-1.11-.09-2.27-.79-3.34-.28-.43-.6-.79-.94-1.13-1.36-1.33-5.19-2.24-9.24-3.2-7.11-1.67-14.71-3.46-20.75-9.67-2.27-2.32-3.91-5.1-4.93-8.08a23.259 23.259 0 0 1-.68-12.3c.91-4.17 3-8.14 6.29-11.37 2.41-2.32 5.39-4.22 8.99-5.44.57-.2 1.19-.37 1.81-.54v-6.55c0-4.56 3.69-8.25 8.25-8.25s8.25 3.69 8.25 8.25v6.24c1.19.26 2.38.62 3.51 1.05 6.72 2.47 12.39 7.31 14.97 14.91.2.65.4 1.33.6 2.04 1.08 4.42-1.62 8.9-6.04 9.98s-8.87-1.62-9.98-6.04c-.06-.2-.11-.43-.2-.68-.79-2.32-2.69-3.88-5.02-4.73-2.98-1.11-6.49-1.19-9.64-.43-.37.11-.79.23-1.25.37-1.16.4-2.07.96-2.75 1.64-.88.82-1.42 1.9-1.67 3.03-.26 1.19-.2 2.44.17 3.52.26.74.62 1.39 1.13 1.9 2.64 2.72 7.82 3.94 12.67 5.1 6.35 1.47 12.3 2.89 16.98 7.46 1.3 1.25 2.38 2.55 3.26 3.88 3 4.59 3.97 9.69 3.29 14.6-.62 4.73-2.86 9.24-6.26 12.76a24.26 24.26 0 0 1-3.97 3.29c-1.39.91-2.89 1.7-4.48 2.35-1.67.71-3.46 1.28-5.33 1.64v6.04c0 4.54-3.63 8.19-8.14 8.25a88.516 88.516 0 0 1 9.5 16.87c34.5-4.71 61.11-34.27 61.11-70.07 0-39.06-31.66-70.72-70.72-70.72s-70.72 31.66-70.72 70.72c0 5.84.74 11.51 2.07 16.95 23.67.53 44.99 10.5 60.41 26.29zm-142.78 26.82a87.447 87.447 0 0 1 9.5-16.87 8.235 8.235 0 0 1-8.14-8.25v-7c-6.21-2.1-12.05-6.24-16.38-12.87-1.22-1.81-2.3-3.85-3.23-6.12a8.246 8.246 0 0 1 4.45-10.8c4.2-1.73 9.01.26 10.77 4.45.51 1.28 1.13 2.41 1.81 3.46 2.32 3.57 5.47 5.64 8.7 6.52 3.29.88 6.63.62 9.38-.54.6-.25 1.19-.57 1.76-.94.48-.31.88-.62 1.19-.96.96-.99 1.62-2.21 1.79-3.49.14-1.11-.08-2.27-.79-3.34-.28-.43-.6-.79-.94-1.13-1.39-1.33-5.19-2.24-9.24-3.2-7.12-1.67-14.71-3.46-20.75-9.67-2.27-2.32-3.91-5.1-4.93-8.08-1.33-3.94-1.59-8.22-.68-12.3.91-4.17 3-8.14 6.29-11.37 2.38-2.32 5.39-4.22 8.99-5.44.57-.2 1.16-.37 1.81-.54v-6.55c0-4.56 3.69-8.25 8.25-8.25s8.25 3.69 8.25 8.25v6.24c1.19.26 2.38.62 3.51 1.05 6.72 2.47 12.39 7.31 14.97 14.91.2.65.4 1.33.6 2.04 1.08 4.42-1.62 8.9-6.04 9.98s-8.9-1.62-9.98-6.04c-.06-.2-.11-.43-.2-.68-.79-2.32-2.69-3.88-5.02-4.73-3-1.11-6.49-1.19-9.64-.43-.4.11-.79.23-1.25.37-1.16.4-2.07.96-2.78 1.64-.85.82-1.39 1.9-1.64 3.03-.26 1.19-.2 2.44.17 3.52.26.74.62 1.39 1.11 1.9 2.66 2.72 7.85 3.94 12.7 5.1 6.32 1.47 12.3 2.89 16.98 7.46 1.3 1.25 2.38 2.55 3.26 3.88 2.98 4.59 3.97 9.69 3.29 14.6-.62 4.73-2.86 9.24-6.26 12.76l-.4.4c13.44-9.18 29.59-14.68 47.03-15.08a71.254 71.254 0 0 0 2.04-16.95c0-39.06-31.63-70.72-70.7-70.72S184.3 34.94 184.3 74.01c0 35.8 26.62 65.36 61.12 70.07zm17.85-31.16v4.34a93.08 93.08 0 0 1 7.99-7.26c-.85.48-1.73.91-2.66 1.28-1.7.71-3.48 1.28-5.33 1.64zm-8.24 65.23c0-38.95 31.75-70.7 70.7-70.7s70.72 31.75 70.72 70.7-31.78 70.72-70.72 70.72-70.7-31.77-70.7-70.72zm50.82 28.71c0-4.56-3.69-8.28-8.25-8.28s-8.25 3.71-8.25 8.28v9.84c0 4.56 3.69 8.28 8.25 8.28s8.25-3.71 8.25-8.28zM334 193.94c0-4.56-3.71-8.28-8.28-8.28-4.54 0-8.25 3.71-8.25 8.28v22.76c0 4.56 3.71 8.28 8.25 8.28 4.56 0 8.28-3.71 8.28-8.28zm28.12-12.93c0-4.56-3.69-8.25-8.25-8.25s-8.28 3.69-8.28 8.25v35.69c0 4.56 3.71 8.28 8.28 8.28 4.56 0 8.25-3.71 8.25-8.28zm-74.75 2.75c2.27 3.94 7.29 5.3 11.23 3.03l46.15-26.65c-.08 3.8 2.49 7.29 6.32 8.19 4.42 1.05 8.87-1.67 9.92-6.09l4-16.75a8.204 8.204 0 0 0-6.09-9.89l-16.75-4c-4.42-1.08-8.84 1.67-9.89 6.09-.82 3.43.65 6.86 3.4 8.73l-45.24 26.11c-3.96 2.28-5.32 7.29-3.05 11.23z" fill="#000000" opacity="1" data-original="#000000"></path></g></svg>