<svg xmlns="http://www.w3.org/2000/svg" version="1.1" xmlns:xlink="http://www.w3.org/1999/xlink" width="512" height="512" x="0" y="0" viewBox="0 0 512 512" style="enable-background:new 0 0 512 512" xml:space="preserve" fill-rule="evenodd" class=""><g><path d="M307.66 465.229c0-17.696-14.346-32.042-32.042-32.042h-39.236a32.042 32.042 0 0 0-32.042 32.042c0 17.696 14.346 32.042 32.042 32.042h39.236c17.696 0 32.042-14.346 32.042-32.042zM67.361 382.606c5.352.409 11.827.644 18.331.263a90.96 90.96 0 0 0 89.238 73.36h12.226a50.247 50.247 0 0 0-.008 18H174.93a108.957 108.957 0 0 1-107.569-91.623zm-9.156-19.153A69.812 69.812 0 0 1 0 294.613V252.07a69.812 69.812 0 0 1 69.811-69.812h4.647C81.886 88.502 160.328 14.729 256 14.729s174.114 73.773 181.542 167.529h4.647A69.812 69.812 0 0 1 512 252.07v42.543a69.812 69.812 0 0 1-69.811 69.812h-20.601c-8.544 0-15.47-6.927-15.47-15.47V196.847c0-82.908-67.21-150.118-150.118-150.118s-150.118 67.21-150.118 150.118v152.108c0 6.032-3.453 11.259-8.491 13.81-13.868 4.812-35.375 1.331-39.186.688z" fill="#000000" opacity="1" data-original="#000000"></path></g></svg>