<svg xmlns="http://www.w3.org/2000/svg" version="1.1" xmlns:xlink="http://www.w3.org/1999/xlink" width="512" height="512" x="0" y="0" viewBox="0 0 512 512" style="enable-background:new 0 0 512 512" xml:space="preserve" class=""><g><path d="M191.234 91.137h130.579l36.861-76.284c1.534-3.068 1.534-6.659-.514-9.727-2.048-3.077-5.125-4.611-8.708-4.611h-13.824c-2.563 0-5.631.505-8.193 1.534s-5.125 2.563-6.659 4.611l-9.727 10.756-9.729-10.757c-2.048-2.048-4.097-3.591-6.659-4.611A19.553 19.553 0 0 0 285.953 0h-4.611c-2.563 0-5.631.514-8.175 1.534-2.563 1.029-5.125 2.563-6.659 4.611l-10.242 10.756-9.727-10.756c-2.048-2.048-4.097-3.591-6.659-4.611C236.803.514 234.249 0 231.686 0h-4.611c-2.563 0-5.64.514-8.193 1.534-2.563 1.029-5.125 2.563-6.659 4.611l-9.727 10.756-9.727-10.756c-2.048-2.048-4.097-3.591-6.659-4.611C182.526.514 179.459 0 176.896 0h-13.824c-3.582 0-6.659 1.534-8.699 4.611-2.048 3.068-2.048 6.659-.514 9.727l37.375 76.799zM461.549 473.091c-2.048-3.582-4.097-7.165-5.631-11.261-1.534-4.097-2.554-8.193-3.068-11.776L427.25 243.2c-2.563-23.046-10.242-45.578-23.551-66.052s-31.23-36.861-50.685-48.636l-33.279-19.455H193.786l-33.793 18.94c-19.969 11.776-37.375 27.648-50.685 48.636-13.31 20.483-20.988 43.52-23.551 66.052L59.645 449.54c-.505 4.097-1.534 8.193-3.068 11.776-1.534 4.097-3.582 7.679-5.631 11.261L26.367 512h459.267l-24.085-38.909zm-205.292-71.168c-50.694 0-91.651-40.967-91.651-91.651 0-50.694 40.967-91.651 91.651-91.651 50.694 0 91.651 40.967 91.651 91.651.001 50.693-40.966 91.651-91.651 91.651z" fill="#000000" opacity="1" data-original="#000000" class=""></path><path d="M265.47 299.01c-14.338-5.631-19.969-8.708-19.969-14.338 0-4.611 3.582-9.213 14.338-9.213 11.776 0 19.455 4.097 24.066 5.631l5.116-18.94c-5.631-2.563-12.795-5.116-24.066-5.631v-7.165c0-2.048-.514-3.582-2.048-5.116s-3.582-2.048-5.116-2.048h-1.534c-2.048 0-3.582.514-5.116 2.048s-2.048 3.068-2.048 5.116v8.193c-17.921 3.582-28.162 14.853-28.162 29.696 0 16.387 12.29 24.58 30.211 30.716 12.29 4.097 17.406 8.193 17.406 14.338 0 6.659-6.659 10.242-15.872 10.242-10.756 0-20.483-3.582-27.648-7.165l-5.116 19.455c6.145 3.582 17.406 6.659 28.162 7.165v8.193c0 2.048.514 3.582 2.048 5.116 1.534 1.534 3.068 2.048 5.116 2.048h1.02c2.048 0 3.582-.514 5.116-2.048 1.534-1.534 2.048-3.068 2.048-5.116v-9.727c18.94-3.068 29.696-15.872 29.696-30.716.514-14.347-7.679-23.569-27.648-30.734z" fill="#000000" opacity="1" data-original="#000000" class=""></path></g></svg>