<svg xmlns="http://www.w3.org/2000/svg" version="1.1" xmlns:xlink="http://www.w3.org/1999/xlink" width="512" height="512" x="0" y="0" viewBox="0 0 1706.66 1706.66" style="enable-background:new 0 0 512 512" xml:space="preserve" fill-rule="evenodd" class=""><g><path d="M1327.16 1448.8V747.15c0-31.25 25.43-56.69 56.7-56.69h129.74c31.27 0 56.7 25.43 56.7 56.69v701.65h-243.15zM984.3 1448.8V932.48c0-31.27 25.44-56.7 56.69-56.7h129.75c31.26 0 56.69 25.43 56.69 56.7v516.31H984.3zM641.4 1448.8v-405.13c0-31.27 25.43-56.7 56.7-56.7h129.74c31.25 0 56.7 25.43 56.7 56.7v405.13zM298.54 1448.8v-293.93c0-31.27 25.43-56.7 56.69-56.7h129.74c31.26 0 56.69 25.43 56.69 56.7v293.93zM1177.97 405.51c.18-.02.33-.08.51-.1l256.68-26.48c16.67-1.7 27.9 17.22 17.93 31.02l-151.61 209.5z" fill="#000000" opacity="1" data-original="#000000" class=""></path><path d="M87.59 379.98H35.54c-47.39 0-47.39-71.96 0-71.96h52.05v-79.84c0-47.39 71.96-47.39 71.96 0V1424.7h1511.57c47.39 0 47.37 71.98 0 71.98h-237.36v75.24c0 47.37-71.96 47.37-71.96 0v-75.24h-178.25v75.24c0 47.36-71.96 47.37-71.96 0v-75.24H933.33v75.24c0 47.37-71.96 47.37-71.96 0v-75.24H683.13v75.24c0 47.37-71.96 47.37-71.96 0v-75.24H432.91v75.24c0 47.37-71.96 47.36-71.96 0v-75.24H123.58c-19.85 0-35.98-16.13-35.98-35.98v-79.84H35.55c-47.39 0-47.39-71.96 0-71.96H87.6v-178.24H35.55c-47.39 0-47.39-71.96 0-71.96H87.6V880.43H35.55c-47.39 0-47.39-71.96 0-71.96H87.6V630.24H35.55c-47.39 0-47.39-71.96 0-71.96H87.6V380.02zm214.89 709.59c-36.61 0-49.79-48.87-18.02-67.16L1337.4 416.34c41.04-23.62 77.07 38.67 35.98 62.32L320.45 1084.75a36.034 36.034 0 0 1-17.98 4.82z" fill="#000000" opacity="1" data-original="#000000" class=""></path><path d="M611.54 749.07H477.05c-7.41 0-13.43-6.03-13.43-13.43v-62.09c-38.07-11.47-73.24-31.1-102.72-57.33l-56.5 31.44c-6.32 3.52-14.32 1.39-18.05-4.84l-67.24-112.28c-3.89-6.5-1.64-14.95 4.98-18.63l55.92-31.12c-8.58-37.38-8.59-76.37 0-113.72l-55.92-31.12c-6.62-3.68-8.88-12.13-4.98-18.63l67.24-112.28c3.73-6.22 11.73-8.36 18.05-4.84l56.5 31.45c29.48-26.22 64.64-45.85 102.71-57.32v-62.12c0-7.41 6.02-13.43 13.43-13.43h134.49c7.41 0 13.43 6.02 13.43 13.43v62.11c38.06 11.47 73.23 31.09 102.72 57.32l56.51-31.45c6.34-3.53 14.33-1.39 18.06 4.84l67.24 112.28c3.9 6.52 1.6 14.96-4.99 18.63l-55.91 31.13a254.47 254.47 0 0 1 0 113.73l55.91 31.11c6.62 3.67 8.88 12.13 4.99 18.63l-67.24 112.28c-3.72 6.22-11.71 8.36-18.06 4.84l-56.48-31.43c-29.48 26.24-64.67 45.86-102.75 57.34v62.07c0 7.41-6.02 13.43-13.43 13.43zm-67.25-186.08c-77.27 0-142.93-60.89-142.93-139.07s65.65-139.07 142.93-139.07c77.27 0 142.94 60.89 142.94 139.07 0 78.17-65.67 139.07-142.94 139.07z" fill="#000000" opacity="1" data-original="#000000" class=""></path></g></svg>