<svg xmlns="http://www.w3.org/2000/svg" version="1.1" xmlns:xlink="http://www.w3.org/1999/xlink" width="512" height="512" x="0" y="0" viewBox="0 0 64 64" style="enable-background:new 0 0 512 512" xml:space="preserve" class=""><g transform="matrix(1.11,0,0,1.11,-3.520000000000003,-3.5193329668045052)"><path d="M54.702 20.067h-3.37a1 1 0 0 0 0 2h3.37a1 1 0 0 0 0-2ZM26.41 50.57h11.22a3.25 3.25 0 0 0 0-6.5H24.16a1 1 0 1 0 0 2h13.47a1.25 1.25 0 0 1 0 2.5H26.41a3.255 3.255 0 0 0 0 6.51h1.17v.48A4.443 4.443 0 0 0 32.02 60a4.35 4.35 0 0 0 3.14-1.3 4.419 4.419 0 0 0 1.3-3.14v-.48h3.42a1 1 0 1 0 0-2H26.41a1.255 1.255 0 0 1 0-2.51Zm3.17 4.51h4.88v.48a2.42 2.42 0 0 1-.72 1.73 2.378 2.378 0 0 1-1.72.71 2.443 2.443 0 0 1-2.44-2.44ZM48.405 18.833a15.847 15.847 0 0 0-1.31-4.899 1 1 0 1 0-1.828.812 13.883 13.883 0 0 1 1.148 4.284 14.44 14.44 0 0 1-7.716 14.353 1 1 0 0 0-.539.887v4.97a1.246 1.246 0 0 1-1.25 1.24h-9.78a1.246 1.246 0 0 1-1.25-1.24v-4.97a1 1 0 0 0-.538-.888A14.463 14.463 0 1 1 42.859 11a1 1 0 1 0 1.502-1.32 16.42 16.42 0 0 0-23.32-1.405 16.466 16.466 0 0 0 2.84 26.59v4.375a3.248 3.248 0 0 0 3.25 3.24h9.78a3.248 3.248 0 0 0 3.25-3.24v-4.375a16.427 16.427 0 0 0 8.244-16.032Z" fill="#000000" opacity="1" data-original="#000000"></path><path d="M20.045 20.553a1 1 0 0 0 2 0 9.986 9.986 0 0 1 9.975-9.976 1 1 0 0 0 0-2 11.989 11.989 0 0 0-11.975 11.976ZM17.629 8.09a1 1 0 1 0 1.414-1.414L16.66 4.293a1 1 0 1 0-1.414 1.414ZM12.668 20.067h-3.37a1 1 0 0 0 0 2h3.37a1 1 0 0 0 0-2ZM17.629 34.044l-2.383 2.383a1 1 0 1 0 1.414 1.414l2.383-2.383a1 1 0 1 0-1.414-1.414ZM46.412 34.044a1 1 0 1 0-1.414 1.415l2.383 2.382a1 1 0 1 0 1.414-1.414ZM47.38 4.293l-2.382 2.383a1 1 0 1 0 1.414 1.414l2.383-2.383a1 1 0 1 0-1.414-1.414Z" fill="#000000" opacity="1" data-original="#000000"></path></g></svg>