<svg xmlns="http://www.w3.org/2000/svg" version="1.1" xmlns:xlink="http://www.w3.org/1999/xlink" width="512" height="512" x="0" y="0" viewBox="0 0 64 64" style="enable-background:new 0 0 512 512" xml:space="preserve" class=""><g transform="matrix(1.1199999999999999,0,0,1.1199999999999999,-3.8399999999999963,-3.8399999999999963)"><path d="M57 13.82H7a3 3 0 0 0-3 3v30.36a3 3 0 0 0 3 3h50a3 3 0 0 0 3-3V16.82a3 3 0 0 0-3-3zm1 33.36a1 1 0 0 1-1 1H7a1 1 0 0 1-1-1V30.55h52zm0-18.63H6v-5.37h52zm0-7.37H6v-4.36a1 1 0 0 1 1-1h50a1 1 0 0 1 1 1z" fill="#000000" opacity="1" data-original="#000000" class=""></path><path d="M44.66 44.27h6.59a2 2 0 0 0 2-2V36.9a2 2 0 0 0-2-2h-6.59a2 2 0 0 0-2 2v5.37a2 2 0 0 0 2 2zm0-7.37h6.59v5.37h-6.59zM12.36 42.82H32a1 1 0 0 0 0-2H12.36a1 1 0 0 0 0 2zM12.36 37.91h24.55a1 1 0 0 0 0-2H12.36a1 1 0 0 0 0 2z" fill="#000000" opacity="1" data-original="#000000" class=""></path></g></svg>