<svg xmlns="http://www.w3.org/2000/svg" version="1.1" xmlns:xlink="http://www.w3.org/1999/xlink" width="512" height="512" x="0" y="0" viewBox="0 0 64 64" style="enable-background:new 0 0 512 512" xml:space="preserve" class="hovered-paths"><g transform="matrix(1.11,0,0,1.11,-3.520000000000003,-3.520615944862371)"><path d="M59 25.26H41.59a1 1 0 0 0-1 1v17.41a1 1 0 0 0 1 1A18.43 18.43 0 0 0 60 26.26a1 1 0 0 0-1-1zM42.59 42.64V27.26H58a16.44 16.44 0 0 1-15.41 15.38zM12.51 43.8H6a2 2 0 0 0-2 2v12.84a1 1 0 0 0 1 1h8.51a1 1 0 0 0 1-1V45.8a2 2 0 0 0-2-2zm0 13.84H6V45.8h6.51z" fill="#000000" opacity="1" data-original="#000000" class="hovered-path"></path><path d="M39.11 40.2V23.77h16.41a1 1 0 0 0 1-1 18.32 18.32 0 0 0-5.39-13l-.06-.05A18.41 18.41 0 0 0 21.16 30h-2.39a2 2 0 0 0-2 2v26.64a1 1 0 0 0 1 1h8.51a1 1 0 0 0 1-1v-21a18.35 18.35 0 0 0 10.83 3.56 1 1 0 0 0 1-1zM25.28 57.64h-6.51V32h6.51zm11.83-34.87v16.4a16.28 16.28 0 0 1-9.83-4.06V32a2 2 0 0 0-2-2h-1.92a16.27 16.27 0 0 1-1.67-7.2A16.44 16.44 0 0 1 38.11 6.36a16.33 16.33 0 0 1 11.55 4.81l.06.05a16.31 16.31 0 0 1 4.72 10.55H38.11a1 1 0 0 0-1 1z" fill="#000000" opacity="1" data-original="#000000" class="hovered-path"></path><path d="M38.05 47h-6.51a2 2 0 0 0-2 2v9.64a1 1 0 0 0 1 1h8.51a1 1 0 0 0 1-1V49a2 2 0 0 0-2-2zm0 10.64h-6.51V49h6.51zM5 38.35h8.51a1 1 0 0 0 0-2H5a1 1 0 0 0 0 2zM5 34.1h8.51a1 1 0 0 0 0-2H5a1 1 0 0 0 0 2z" fill="#000000" opacity="1" data-original="#000000" class="hovered-path"></path></g></svg>