<svg xmlns="http://www.w3.org/2000/svg" version="1.1" xmlns:xlink="http://www.w3.org/1999/xlink" width="512" height="512" x="0" y="0" viewBox="0 0 64 64" style="enable-background:new 0 0 512 512" xml:space="preserve" class=""><g transform="matrix(1.12,0,0,1.12,-3.8399997711181655,-3.8412123870849655)"><path d="M55.17 9.58h-6.33V6.91A2.91 2.91 0 0 0 45.93 4H18.55a3.39 3.39 0 0 0-3.39 3.38v2.2H8.83a3 3 0 0 0-3 3v33.27a3 3 0 0 0 3 3h17.49l-.75 4.52h-2.28a2.87 2.87 0 0 0-2.81 2.3l-.63 3.15a1 1 0 0 0 1 1.2h22.32a1 1 0 0 0 1-1.2l-.63-3.15a2.87 2.87 0 0 0-2.81-2.3h-2.3l-.75-4.52h17.49a3 3 0 0 0 3-3V12.56a3 3 0 0 0-3-2.98zm-38-2.2A1.38 1.38 0 0 1 18.55 6h27.38a.91.91 0 0 1 .91.91v2.67H17.16zm0 4.2h29.67V26a.91.91 0 0 1-.91.91H18.55a1.39 1.39 0 0 1-1.39-1.39zm23.54 43.77a.87.87 0 0 1 .85.69L42 58H22.05l.39-2a.87.87 0 0 1 .85-.69zm-13.12-2 .76-4.52h7.3l.76 4.52zm28.54-7.5a1 1 0 0 1-1 1H8.83a1 1 0 0 1-1-1v-2.61h48.3zm0-4.61H7.87V12.56a1 1 0 0 1 1-1h6.33v13.93a3.39 3.39 0 0 0 3.39 3.39h27.34A2.92 2.92 0 0 0 48.84 26V11.58h6.33a1 1 0 0 1 1 1z" fill="#000000" opacity="1" data-original="#000000" class=""></path><path d="M28.28 46.33h7.44a1 1 0 0 0 0-2h-7.44a1 1 0 0 0 0 2zM27.33 24.21a1 1 0 1 0 1.42-1.41l-3.25-3.25 3.25-3.26a1 1 0 0 0-1.42-1.41l-4 4a1 1 0 0 0 0 1.41zM38.5 19.55l-3.25 3.25a1 1 0 1 0 1.42 1.41l4-4a1 1 0 0 0 0-1.41l-4-4a1 1 0 0 0-1.42 1.41zM30.65 24.27a1 1 0 0 0 .93-.66l2.71-7.44a1 1 0 0 0-1.87-.69l-2.71 7.44a1 1 0 0 0 .94 1.35zM22.08 6.84h-2a1 1 0 0 0 0 2h2a1 1 0 0 0 0-2zM27 6.84h-2a1 1 0 0 0 0 2h2a1 1 0 0 0 0-2zM32 6.84h-2a1 1 0 0 0 0 2h2a1 1 0 0 0 0-2z" fill="#000000" opacity="1" data-original="#000000" class=""></path></g></svg>