<svg xmlns="http://www.w3.org/2000/svg" version="1.1" xmlns:xlink="http://www.w3.org/1999/xlink" width="512" height="512" x="0" y="0" viewBox="0 0 64 64" style="enable-background:new 0 0 512 512" xml:space="preserve" class=""><g transform="matrix(1.11,0,0,1.11,-3.520000000000003,-3.520000000000003)"><path d="M55 11h-6v-1a3 3 0 0 0-6 0v1H21v-1a3 3 0 0 0-6 0v1H9a5 5 0 0 0-5 5v36a5 5 0 0 0 5 5h46a5 5 0 0 0 5-5V16a5 5 0 0 0-5-5zm-10-1a1 1 0 0 1 2 0v4a1 1 0 0 1-2 0zm-28 0a1 1 0 0 1 2 0v4a1 1 0 0 1-2 0zm41 42a3 3 0 0 1-3 3H9a3 3 0 0 1-3-3V22h52zm0-32H6v-4a3 3 0 0 1 3-3h6v1a3 3 0 0 0 6 0v-1h22v1a3 3 0 0 0 6 0v-1h6a3 3 0 0 1 3 3z" fill="#000000" opacity="1" data-original="#000000" class=""></path><path d="M17.5 48.14h29c3.27 0 3.38-5.25.13-5.42a14.71 14.71 0 0 0-10.34-12.61 2.13 2.13 0 0 0-2.14-2.25h-4.3a2.15 2.15 0 0 0-2.14 2.26 14.73 14.73 0 0 0-10.34 12.59c-3.24.18-3.15 5.42.13 5.43zM29.74 29.9a.15.15 0 0 1 .11 0h4.3a.13.13 0 0 1 .14.16l-.9 8.12h-2.78l-.9-8.18a.13.13 0 0 1 .03-.1zm-1.81 2.24.79 7.11a1 1 0 0 0 1 .89h4.58a1 1 0 0 0 1-.89l.79-7.1a12.73 12.73 0 0 1 8.56 10.56H40v-3.15a1 1 0 0 0-2 0v3.15H26v-3.15a1 1 0 0 0-2 0v3.15h-4.62a12.73 12.73 0 0 1 8.55-10.57zM17 45.21a.5.5 0 0 1 .5-.5h29c.51 0 .53.54.5.93a.5.5 0 0 1-.5.5h-29a.5.5 0 0 1-.5-.5z" fill="#000000" opacity="1" data-original="#000000" class=""></path></g></svg>