<svg xmlns="http://www.w3.org/2000/svg" version="1.1" xmlns:xlink="http://www.w3.org/1999/xlink" width="512" height="512" x="0" y="0" viewBox="0 0 64 64" style="enable-background:new 0 0 512 512" xml:space="preserve" class=""><g transform="matrix(1.15,0,0,1.15,-4.799999999999997,-4.799999999999997)"><path d="M52 4H12a3 3 0 0 0-3 3v50a3 3 0 0 0 3 3h40a3 3 0 0 0 3-3V7a3 3 0 0 0-3-3zM25 6h14v5a1 1 0 0 1-1 1H26a1 1 0 0 1-1-1zm1 8h12a3 3 0 0 0 3-3v-1h8v44H15V10h8v1a3 3 0 0 0 3 3zm27 43a1 1 0 0 1-1 1H12a1 1 0 0 1-1-1V7a1 1 0 0 1 1-1h11v2h-9a1 1 0 0 0-1 1v46a1 1 0 0 0 1 1h36a1 1 0 0 0 1-1V9a1 1 0 0 0-1-1h-9V6h11a1 1 0 0 1 1 1z" fill="#000000" opacity="1" data-original="#000000"></path><path d="M20.2 31.82v7.1h-1.7a1 1 0 0 0-1 1v2.7a1 1 0 0 0 1 1h27a1 1 0 0 0 1-1v-2.7a1 1 0 0 0-1-1h-1.57v-11a1 1 0 0 0-1-1H37.4a1 1 0 0 0-1 1v11h-.7V24.45a1 1 0 0 0-1-1h-5.4a1 1 0 0 0-1 1v14.47h-.7v-7.1a1 1 0 0 0-1-1h-5.4a1 1 0 0 0-1 1zm18.2-2.94h3.53v10H38.4zm-8.1-3.43h3.4v13.47h-3.4zm14.2 15.47v.7h-25v-.7zm-22.3-8.1h3.4v6.1h-3.4zM19 16c.09 6-1 4.91 5 5a1 1 0 0 0 1-1v-4a1 1 0 0 0-1-1h-4a1 1 0 0 0-1 1zm2 1h2v2h-2zM28 17h16a1 1 0 0 0 0-2H28a1 1 0 0 0 0 2zM28 20h10a1 1 0 0 0 0-2H28a1 1 0 0 0 0 2zM44.53 46H19.47a1 1 0 0 0-1 1v3a1 1 0 0 0 1 1h25.06a1 1 0 0 0 1-1v-3a1 1 0 0 0-1-1zm-1 3H20.47v-1h23.06z" fill="#000000" opacity="1" data-original="#000000"></path></g></svg>