<svg xmlns="http://www.w3.org/2000/svg" version="1.1" xmlns:xlink="http://www.w3.org/1999/xlink" width="512" height="512" x="0" y="0" viewBox="0 0 64 64" style="enable-background:new 0 0 512 512" xml:space="preserve" class=""><g transform="matrix(1.12,0,0,1.12,-3.8400000572204647,-3.839996280670171)"><path d="M56.93 37.15a3 3 0 0 0 3-3v-8.46a3 3 0 0 0-3-3h-6.44V19.6a1 1 0 0 0-.85-1l-3.34-.5a14.94 14.94 0 0 0-1.08-2.61l2-2.74a1 1 0 0 0-.1-1.29L43 7.38a1 1 0 0 0-1.3-.1L39 9.27a13.54 13.54 0 0 0-2.61-1.08l-.52-3.34a1 1 0 0 0-1-.85h-5.76a1 1 0 0 0-1 .85l-.51 3.34A13.72 13.72 0 0 0 25 9.27l-2.74-2a1 1 0 0 0-1.3.1l-4.08 4.08a1 1 0 0 0-.1 1.29l2 2.74a13.39 13.39 0 0 0-1.08 2.62l-3.34.52a1 1 0 0 0-.85 1v3.09H7.07a3 3 0 0 0-3 3v8.46a3 3 0 0 0 3 3h3.16v3.19H7.07a3 3 0 0 0-3 3v8.47a3 3 0 0 0 3 3h3.16v2.11A3.08 3.08 0 0 0 13.3 60h25.78a1 1 0 0 0 0-2H13.3a1.07 1.07 0 0 1-1.07-1.08v-2.11h39.54v2.11A1.07 1.07 0 0 1 50.7 58h-7.62a1 1 0 0 0 0 2h7.62a3.08 3.08 0 0 0 3.07-3.08v-2.11h3.16a3 3 0 0 0 3-3v-8.47a3 3 0 0 0-3-3h-3.16v-3.19ZM15.51 20.46l3.13-.46a1 1 0 0 0 .82-.75 12.27 12.27 0 0 1 1.35-3.29 1 1 0 0 0 0-1.1l-1.91-2.59 2.87-2.87 2.57 1.86a1 1 0 0 0 1.11.05A11.9 11.9 0 0 1 28.74 10a1 1 0 0 0 .74-.82L30 6h4l.49 3.13a1 1 0 0 0 .74.82 12.36 12.36 0 0 1 3.3 1.36 1 1 0 0 0 1.1-.05l2.59-1.86 2.87 2.87-1.87 2.57a1 1 0 0 0 0 1.1 12.61 12.61 0 0 1 1.36 3.3 1 1 0 0 0 .82.74l3.13.48v2.23h-8.46a7.69 7.69 0 0 0-.74-3.57 1 1 0 1 0-1.8.86 5.8 5.8 0 0 1 .54 2.71H25.93a1.27 1.27 0 0 1 0-.2 6.08 6.08 0 0 1 7.23-6 1 1 0 0 0 .4-2 7.79 7.79 0 0 0-1.56-.07 8.08 8.08 0 0 0-8.07 8.07 1.34 1.34 0 0 0 0 .2h-8.42Zm-9.44 5.23a1 1 0 0 1 1-1h49.86a1 1 0 0 1 1 1v3.23h-4.82a3.6 3.6 0 0 0-6.91 0H17.8a3.6 3.6 0 0 0-6.91 0H6.07Zm45.18 4.23a1.6 1.6 0 0 1-3.19 0 1.6 1.6 0 1 1 3.19 0Zm-35.31 0a1.6 1.6 0 1 1-1.6-1.6 1.6 1.6 0 0 1 1.6 1.6Zm42 21.89a1 1 0 0 1-1 1H7.07a1 1 0 0 1-1-1v-3.24h4.82a3.6 3.6 0 0 0 6.91 0h28.4a3.6 3.6 0 0 0 6.91 0h4.82Zm-45.19-4.24a1.6 1.6 0 1 1 1.59 1.6 1.59 1.59 0 0 1-1.59-1.6Zm35.31 0a1.6 1.6 0 1 1 1.6 1.6 1.6 1.6 0 0 1-1.6-1.6Zm8.87-5.23a1 1 0 0 1 1 1v3.23h-4.82a3.6 3.6 0 0 0-6.91 0H17.8a3.6 3.6 0 0 0-6.91 0H6.07v-3.23a1 1 0 0 1 1-1Zm-44.7-2v-3.19h6.31v3.19Zm8.31 0v-3.19h22.92v3.19Zm24.92 0v-3.19h6.31v3.19ZM7.07 35.15a1 1 0 0 1-1-1v-3.23h4.82a3.6 3.6 0 0 0 6.91 0h28.4a3.6 3.6 0 0 0 6.91 0h4.82v3.23a1 1 0 0 1-1 1Z" fill="#000000" opacity="1" data-original="#000000" class=""></path></g></svg>