<svg xmlns="http://www.w3.org/2000/svg" version="1.1" xmlns:xlink="http://www.w3.org/1999/xlink" width="512" height="512" x="0" y="0" viewBox="0 0 48 48" style="enable-background:new 0 0 512 512" xml:space="preserve" class=""><g><g data-name="Area graph"><path fill="#db5669" d="M47 17v25H6V30l4-1 7 9 15-25z" opacity="1" data-original="#db5669"></path><path fill="#f26674" d="M47 18.73V42H7v-5.88A5.28 5.28 0 0 1 11 31c.1 0-.59-.76 7 9l15-25z" opacity="1" data-original="#f26674"></path><path fill="#425b72" d="M47 48H1a1 1 0 0 1-1-1V1a1 1 0 0 1 2 0v45h45a1 1 0 0 1 0 2z" opacity="1" data-original="#425b72"></path><path fill="#6fabe6" d="M47 30v12H6v-4l10-8 8 6 15-11z" opacity="1" data-original="#6fabe6"></path><path fill="#82bcf4" d="M47 31.38V42H7a4.15 4.15 0 0 1 1.56-3.25L17 32l8 6 15-11z" opacity="1" data-original="#82bcf4"></path></g></g></svg>