<svg xmlns="http://www.w3.org/2000/svg" version="1.1" xmlns:xlink="http://www.w3.org/1999/xlink" width="512" height="512" x="0" y="0" viewBox="0 0 64 64" style="enable-background:new 0 0 512 512" xml:space="preserve" class=""><g><g data-name="01 Bar Chart"><path fill="#ff3c38" d="M17 14H9a1 1 0 0 0-1 1v47h10V15a1 1 0 0 0-1-1z" opacity="1" data-original="#ff3c38"></path><path fill="#ffcf4d" d="M21 22h10v40H21z" opacity="1" data-original="#ffcf4d"></path><path fill="#3abeff" d="M43 30h-8a1 1 0 0 0-1 1v31h10V31a1 1 0 0 0-1-1z" opacity="1" data-original="#3abeff"></path><path fill="#8bc34a" d="M56 38h-8a1 1 0 0 0-1 1v23h10V39a1 1 0 0 0-1-1z" opacity="1" data-original="#8bc34a"></path><path fill="#46464e" d="M61 62H3a1 1 0 0 1-1-1V3a1 1 0 0 1 2 0v57h57a1 1 0 0 1 0 2z" opacity="1" data-original="#46464e"></path></g></g></svg>