<svg xmlns="http://www.w3.org/2000/svg" version="1.1" xmlns:xlink="http://www.w3.org/1999/xlink" width="512" height="512" x="0" y="0" viewBox="0 0 512 512" style="enable-background:new 0 0 512 512" xml:space="preserve"><g><g fill-rule="evenodd" clip-rule="evenodd"><path fill="#c7e0ec" d="M249 458.26V279.232H124.398v-14H249V142.753h14v122.479h124.602v14H263V458.26zm36.669 1.03v14h144.156a7 7 0 0 0 7-7V281.942h-14V459.29zM75.174 392.197V281.942h14v110.255z" opacity="1" data-original="#c7e0ec"></path><path fill="#636c77" d="M324.566 101.546c-14.452 0-21.703 17.508-11.485 27.727a4.822 4.822 0 0 1 0 6.818l-10.379 10.378a4.82 4.82 0 0 1-6.818 0c-10.218-10.218-27.727-2.967-27.727 11.485a4.82 4.82 0 0 1-4.821 4.82h-14.677a4.82 4.82 0 0 1-4.821-4.82c0-14.47-17.495-21.716-27.727-11.485a4.82 4.82 0 0 1-6.818 0l-10.378-10.378a4.822 4.822 0 0 1 0-6.818c10.218-10.218 2.967-27.727-11.485-27.727a4.821 4.821 0 0 1-4.821-4.821V82.049a4.82 4.82 0 0 1 4.821-4.821c14.452 0 21.703-17.508 11.485-27.727a4.822 4.822 0 0 1 0-6.818l10.378-10.379a4.822 4.822 0 0 1 6.818 0c10.218 10.218 27.727 2.967 27.727-11.484a4.821 4.821 0 0 1 4.821-4.821h14.677a4.82 4.82 0 0 1 4.821 4.821c0 14.452 17.508 21.703 27.727 11.484a4.822 4.822 0 0 1 6.818 0l10.379 10.379a4.822 4.822 0 0 1 0 6.818c-10.218 10.218-2.967 27.727 11.485 27.727a4.821 4.821 0 0 1 4.821 4.821v14.676a4.821 4.821 0 0 1-4.821 4.821zM256 54.126c-19.474 0-35.26 15.786-35.26 35.26s15.787 35.26 35.26 35.26c19.474 0 35.26-15.787 35.26-35.26s-15.786-35.26-35.26-35.26z" opacity="1" data-original="#636c77"></path><path fill="#f76c82" d="m204.537 268.695 47.925-47.925a5.013 5.013 0 0 1 7.075 0l47.925 47.925a5.013 5.013 0 0 1 0 7.075l-47.925 47.925a5.013 5.013 0 0 1-7.075 0l-47.925-47.925a5.013 5.013 0 0 1 0-7.075z" opacity="1" data-original="#f76c82"></path><path fill="#c6ea94" d="M82.174 431.617c16.364 0 29.71-13.347 29.71-29.71 0-16.364-13.346-29.71-29.71-29.71s-29.71 13.346-29.71 29.71c0 16.363 13.346 29.71 29.71 29.71z" opacity="1" data-original="#c6ea94"></path><path fill="#b3a4ee" d="M218.663 436.58h74.674c12.284 0 22.334 10.05 22.334 22.334v14.753c0 12.284-10.05 22.334-22.334 22.334h-74.674c-12.284 0-22.334-10.05-22.334-22.334v-14.753c0-12.284 10.05-22.334 22.334-22.334z" opacity="1" data-original="#b3a4ee"></path><path fill="#fdcd56" d="M21.003 242.522h122.342a5.013 5.013 0 0 1 5.003 5.003v49.416a5.013 5.013 0 0 1-5.003 5.003H21.003a5.012 5.012 0 0 1-5.002-5.003v-49.416a5.01 5.01 0 0 1 5.002-5.003z" opacity="1" data-original="#fdcd56"></path><path fill="#66d4f1" d="M368.655 242.522h122.342a5.013 5.013 0 0 1 5.003 5.003v49.416a5.013 5.013 0 0 1-5.003 5.003H368.655a5.013 5.013 0 0 1-5.003-5.003v-49.416a5.013 5.013 0 0 1 5.003-5.003z" opacity="1" data-original="#66d4f1"></path></g></g></svg>