<svg xmlns="http://www.w3.org/2000/svg" version="1.1" xmlns:xlink="http://www.w3.org/1999/xlink" width="512" height="512" x="0" y="0" viewBox="0 0 64 64" style="enable-background:new 0 0 512 512" xml:space="preserve"><g><path fill="#77a1d3" d="M61 43H46.5a15.19 15.19 0 0 0-5.06-11.38l10-10.87A30.4 30.4 0 0 1 61 43z" opacity="1" data-original="#77a1d3"></path><path fill="#fcbf49" d="m51.45 20.75-10 10.87A14.17 14.17 0 0 0 32 28V13a28.41 28.41 0 0 1 19.45 7.75z" opacity="1" data-original="#fcbf49"></path><path fill="#72da73" d="M32 13v15a14.19 14.19 0 0 0-9.68 3.84L13 20.31A28.32 28.32 0 0 1 32 13z" opacity="1" data-original="#72da73"></path><path fill="#e684ae" d="M22.32 31.84A15.15 15.15 0 0 0 17.5 43H3a30.32 30.32 0 0 1 10-22.69z" opacity="1" data-original="#e684ae"></path><path fill="#e7604a" d="m32.36 41.98-2.22-.7L38.78 17l2.22.7z" opacity="1" data-original="#e7604a"></path><ellipse cx="30.52" cy="43.71" fill="#5439d3" rx="3.52" ry="3.29" opacity="1" data-original="#5439d3"></ellipse></g></svg>