<svg xmlns="http://www.w3.org/2000/svg" version="1.1" xmlns:xlink="http://www.w3.org/1999/xlink" width="512" height="512" x="0" y="0" viewBox="0 0 512 512" style="enable-background:new 0 0 512 512" xml:space="preserve" class=""><g><g fill-rule="evenodd" clip-rule="evenodd"><path fill="#f76c82" d="M213.326 16h85.349c2.754 0 5 2.246 5 5v58.7c0 2.754-2.246 5-5 5h-85.349a5.01 5.01 0 0 1-5-5V21c0-2.754 2.246-5 5-5z" opacity="1" data-original="#f76c82"></path><path fill="#fdcd56" d="M216.8 496h-58.7a5.01 5.01 0 0 1-5-5v-58.7c0-2.754 2.246-5 5-5h58.7c2.754 0 5 2.246 5 5V491a5.01 5.01 0 0 1-5 5zM79.7 361.861H21a5.01 5.01 0 0 1-5-5v-58.7c0-2.754 2.246-5 5-5h58.7c2.754 0 5 2.246 5 5v58.7a5.01 5.01 0 0 1-5 5zm137.1 0h-58.7a5.01 5.01 0 0 1-5-5v-58.7c0-2.754 2.246-5 5-5h58.7c2.754 0 5 2.246 5 5v58.7a5.01 5.01 0 0 1-5 5zM79.7 496H21a5.01 5.01 0 0 1-5-5v-58.7c0-2.754 2.246-5 5-5h58.7c2.754 0 5 2.246 5 5V491a5.01 5.01 0 0 1-5 5zM353.9 496h-58.7a5.01 5.01 0 0 1-5-5v-58.7c0-2.754 2.246-5 5-5h58.7c2.754 0 5 2.246 5 5V491c0 2.754-2.246 5-5 5zM491 361.861h-58.7a5.01 5.01 0 0 1-5-5v-58.7c0-2.754 2.246-5 5-5H491c2.754 0 5 2.246 5 5v58.7c0 2.754-2.246 5-5 5zm-137.1 0h-58.7a5.01 5.01 0 0 1-5-5v-58.7c0-2.754 2.246-5 5-5h58.7c2.754 0 5 2.246 5 5v58.7c0 2.754-2.246 5-5 5zM491 496h-58.7a5.01 5.01 0 0 1-5-5v-58.7c0-2.754 2.246-5 5-5H491c2.754 0 5 2.246 5 5V491c0 2.754-2.246 5-5 5z" opacity="1" data-original="#fdcd56"></path><g fill="#66d4f1"><path d="M76.226 150.139h85.349c2.754 0 5 2.246 5 5v58.7c0 2.754-2.246 5-5 5H76.226a5.01 5.01 0 0 1-5-5v-58.7c0-2.754 2.246-5 5-5zM350.426 159.023h85.349c2.754 0 5 2.246 5 5v58.7c0 2.754-2.246 5-5 5h-85.349a5.01 5.01 0 0 1-5-5v-58.7c0-2.754 2.246-5 5-5z" fill="#66d4f1" opacity="1" data-original="#66d4f1"></path></g></g><path fill-rule="evenodd" d="M434.299 300.16h54.698v54.698h-54.698zm54.699 188.838H434.3v-54.699h54.698zm-137.099-134.14h-54.698V300.16h54.698zm0 134.14h-54.698v-54.699h54.698zm.531-322.978h81.337v54.698H352.43zm-55.761-88.319h-81.337V22.997h81.337zM159.57 211.84H78.228v-54.703h81.342zm55.23 143.018h-54.698V300.16H214.8zm0 134.14h-54.698v-54.699H214.8zM77.701 354.858H22.998V300.16h54.703zm0 134.14H22.998v-54.699h54.703zM495.999 368.86a6.994 6.994 0 0 0 7.001-7.001v-68.7a6.994 6.994 0 0 0-7.001-7.001h-31.551l-53.88-51.438h30.201a6.994 6.994 0 0 0 7.001-7.001v-68.7a7 7 0 0 0-7.001-7.001h-44.357L310.67 47.839V16.001A6.997 6.997 0 0 0 303.669 9H208.33a6.994 6.994 0 0 0-7.001 7.001V47.67l-85.562 95.471H71.232a6.994 6.994 0 0 0-7.001 7.001v68.7a6.999 6.999 0 0 0 7.001 6.996h31.687L47.28 286.159H15.997a6.993 6.993 0 0 0-6.996 7.001v68.7a6.993 6.993 0 0 0 6.996 7.001h27.354v51.438H15.997a6.996 6.996 0 0 0-6.996 7.001V496a6.993 6.993 0 0 0 6.996 7.001h68.7A7 7 0 0 0 91.698 496v-68.7a7.003 7.003 0 0 0-7.001-7.001H57.348V368.86h27.349a7 7 0 0 0 7.001-7.001v-68.7a7 7 0 0 0-7.001-7.001H66.329l52.572-56.999 52.567 56.999H153.1a6.994 6.994 0 0 0-7.001 7.001v68.7a6.994 6.994 0 0 0 7.001 7.001h27.349v51.438H153.1a6.997 6.997 0 0 0-7.001 7.001v68.7A6.994 6.994 0 0 0 153.1 503h68.7a6.997 6.997 0 0 0 7.001-7.001v-68.7a7 7 0 0 0-7.001-7.001h-27.354V368.86H221.8a6.997 6.997 0 0 0 7.001-7.001v-68.7a6.997 6.997 0 0 0-7.001-7.001h-31.282l-55.64-60.321h31.692a6.998 6.998 0 0 0 6.996-6.996v-68.7a6.993 6.993 0 0 0-6.996-7.001h-32.002l66.761-74.492v16.053a6.999 6.999 0 0 0 7.001 6.996h95.339a7.002 7.002 0 0 0 7.001-6.996V69.867l67.599 82.151h-32.84a7 7 0 0 0-7.001 7.001v68.7a6.994 6.994 0 0 0 7.001 7.001h30.2l-53.88 51.438H290.2a6.994 6.994 0 0 0-7.001 7.001v68.7a6.994 6.994 0 0 0 7.001 7.001h27.349v51.438H290.2a6.997 6.997 0 0 0-7.001 7.001v68.7A6.994 6.994 0 0 0 290.2 503h68.7a6.994 6.994 0 0 0 7.001-7.001v-68.7a6.997 6.997 0 0 0-7.001-7.001h-27.35V368.86h27.35a6.994 6.994 0 0 0 7.001-7.001v-68.7a6.994 6.994 0 0 0-7.001-7.001h-16.881l51.08-48.761 51.081 48.761h-16.881a7.003 7.003 0 0 0-7.001 7.001v68.7a7.003 7.003 0 0 0 7.001 7.001h27.349v51.438h-27.349a7.006 7.006 0 0 0-7.001 7.001v68.7a7.003 7.003 0 0 0 7.001 7.001h68.7a6.994 6.994 0 0 0 7.001-7.001v-68.7a6.997 6.997 0 0 0-7.001-7.001H468.65V368.86z" clip-rule="evenodd" fill="#000000" opacity="1" data-original="#000000" class=""></path></g></svg>