<?xml version="1.0" encoding="UTF-8" standalone="no"?>
<!DOCTYPE svg PUBLIC "-//W3C//DTD SVG 1.1//EN" "http://www.w3.org/Graphics/SVG/1.1/DTD/svg11.dtd">
<svg width="100%" height="100%" viewBox="0 0 333 70" version="1.1" xmlns="http://www.w3.org/2000/svg" xmlns:xlink="http://www.w3.org/1999/xlink" xml:space="preserve" xmlns:serif="http://www.serif.com/" style="fill-rule:evenodd;clip-rule:evenodd;stroke-linejoin:round;stroke-miterlimit:2;">
    <g id="__x0023_Layer_x0020_1">
        <g id="_153253416">
            <path d="M134.016,37.367L128.432,31.839C133.818,27.389 138.977,22.882 143.654,18.375L148.813,24.328C144.249,28.636 139.289,33.03 133.988,37.367L134.016,37.367Z" style="fill:rgb(195,72,60);"/>
            <g>
                <path d="M130.246,48.393C124.719,42.242 117.604,36.715 109.498,31.584L112.02,22.996C121.601,29.09 130.02,35.468 136.001,43.093L130.246,48.393Z" style="fill:rgb(55,177,102);"/>
                <path d="M141.556,40.967L131.437,50.009L137.248,56.783L147.395,47.174L141.556,40.967Z" style="fill:rgb(57,133,188);"/>
                <path d="M138.325,57.945L148.161,68.773L153.49,63.473L143.909,52.39L138.325,57.945Z" style="fill:rgb(55,177,102);"/>
                <path d="M155.19,61.885L149.493,55.564L164.346,42.299L169.986,48.45L155.19,61.885Z" style="fill:rgb(55,177,102);"/>
                <path d="M173.841,33.965L185.293,21.352L188.354,30.252L179.284,39.238L173.841,33.965Z" style="fill:rgb(55,177,102);"/>
                <path d="M122.99,8.766L116.867,15.229C122.253,18.772 127.128,22.344 131.437,26.17L137.446,20.275C133.194,15.966 128.262,12.054 122.99,8.766Z" style="fill:rgb(243,160,51);"/>
                <path d="M139.997,35.411L145.836,30.422L158.166,44.481L152.611,49.782L139.997,35.411Z" style="fill:rgb(67,84,102);"/>
                <path d="M167.776,31.811L162.617,36.998L171.857,46.381L176.903,41.307L167.776,31.811Z" style="fill:rgb(100,141,200);"/>
                <path d="M179.936,13.273L173.331,7.434C167.464,16.873 160.066,25.32 151.449,33.058L157.203,38.897C166.982,30.677 174.777,22.174 179.936,13.273Z" style="fill:rgb(212,95,57);"/>
                <path d="M154.708,27.248C147.452,18.857 139.487,10.864 130.955,3.267L140.309,0.149C147.084,6.896 153.631,14.039 159.981,21.465L154.708,27.248Z" style="fill:rgb(232,87,73);"/>
                <path d="M158.053,15.144L152.129,8.823C154.482,5.904 156.211,2.786 157.515,-0.502L165.905,2.474C163.921,6.782 161.341,11.062 158.053,15.144Z" style="fill:rgb(231,131,55);"/>
                <path d="M11.026,68.575L11.026,22.571L19.048,22.571L19.048,68.575L11.026,68.575ZM49.349,68.575L49.349,49.102C49.349,46.239 48.811,44.17 47.733,42.837C46.656,41.505 44.842,40.825 42.404,40.825C41.271,40.825 40.08,41.193 38.805,41.789C37.472,42.469 36.537,43.234 35.8,44.226L35.8,68.575L28.062,68.575L28.062,34.929L33.589,34.929L35.035,38.104C37.132,35.553 40.25,34.334 44.332,34.334C48.3,34.334 51.418,35.496 53.686,37.934C55.954,40.315 57.116,43.659 57.116,47.968L57.116,68.603L49.377,68.603L49.349,68.575ZM83.902,28.41C82.23,27.814 80.897,27.559 79.99,27.559C78.545,27.559 77.297,28.155 76.277,29.458C75.257,30.734 74.775,32.321 74.775,34.135L74.775,34.929L81.606,34.929L81.606,41.392L74.888,41.392L74.888,68.603L67.15,68.603L67.15,41.392L62.36,41.392L62.36,34.929L67.15,34.929C67.32,30.847 68.539,27.503 70.75,24.952C73.017,22.457 75.909,21.182 79.452,21.182C81.323,21.182 83.533,21.607 86.17,22.4L83.902,28.438L83.902,28.41ZM86.708,51.653C86.708,46.551 88.154,42.327 91.073,39.124C94.021,35.893 97.848,34.305 102.638,34.305C107.684,34.305 111.51,35.836 114.345,38.926C117.094,42.044 118.54,46.296 118.54,51.653C118.54,57.01 117.094,61.262 114.288,64.436C111.397,67.611 107.57,69.198 102.666,69.198C97.621,69.198 93.738,67.611 90.903,64.436C88.097,61.205 86.708,56.953 86.708,51.653ZM94.73,51.653C94.73,59.079 97.366,62.792 102.638,62.792C105.047,62.792 106.947,61.829 108.336,59.873C109.781,57.974 110.433,55.253 110.433,51.653C110.433,44.34 107.854,40.712 102.638,40.712C100.172,40.712 98.273,41.675 96.884,43.631C95.438,45.53 94.73,48.251 94.73,51.653Z" style="fill:rgb(57,133,188);fill-rule:nonzero;"/>
                <path d="M212.873,53.552L189.176,53.552C189.346,56.216 190.253,58.314 191.926,59.816C193.598,61.29 195.809,61.999 198.644,61.999C202.187,61.999 204.879,61.092 206.75,59.249L209.755,65.202C207.005,67.441 202.98,68.547 197.595,68.547C192.493,68.547 188.553,67.016 185.605,64.04C182.657,61.063 181.154,56.868 181.154,51.454C181.154,46.154 182.77,41.845 186.002,38.557C189.233,35.269 193.088,33.625 197.623,33.625C202.413,33.625 206.268,35.099 209.131,38.019C212.079,40.938 213.496,44.651 213.496,49.158C213.496,50.122 213.326,51.596 212.844,53.552L212.873,53.552ZM189.545,47.656L205.73,47.656C205.191,42.724 202.555,40.23 197.765,40.23C193.315,40.23 190.622,42.724 189.545,47.656ZM238.185,64.578C237.477,65.797 236.258,66.761 234.529,67.498C232.8,68.235 230.929,68.603 229.058,68.603C225.458,68.603 222.709,67.696 220.668,65.854C218.627,64.096 217.55,61.46 217.55,58.172C217.55,54.289 218.995,51.171 221.858,48.988C224.749,46.806 228.803,45.7 234.16,45.7C235.067,45.7 236.144,45.814 237.335,46.125C237.335,42.242 234.869,40.23 229.965,40.23C227.074,40.23 224.636,40.712 222.652,41.704L221.036,35.609C223.672,34.334 226.847,33.654 230.504,33.654C235.549,33.654 239.262,34.872 241.587,37.168C243.996,39.493 245.13,43.915 245.13,50.434L245.13,57.605C245.13,62.112 246.037,64.918 247.823,66.052C247.171,67.214 246.434,67.866 245.668,68.178C244.903,68.433 243.996,68.547 242.975,68.547C241.842,68.547 240.878,68.121 239.971,67.271C239.064,66.477 238.469,65.57 238.185,64.522L238.185,64.578ZM237.391,52.106C236.059,51.794 235.124,51.681 234.444,51.681C228.321,51.681 225.26,53.75 225.26,57.832C225.26,60.865 226.989,62.396 230.419,62.396C235.096,62.396 237.363,60.015 237.363,55.281L237.363,52.106L237.391,52.106ZM267.267,68.603L264.461,68.603L249.523,34.334L257.97,34.334L265.878,54.912L274.382,34.334L282.545,34.334L267.239,68.603L267.267,68.603ZM316.503,53.58L292.806,53.58C292.92,56.245 293.827,58.342 295.499,59.845C297.172,61.319 299.468,62.027 302.274,62.027C305.817,62.027 308.453,61.12 310.295,59.278L313.3,65.23C310.607,67.469 306.526,68.575 301.14,68.575C296.094,68.575 292.069,67.044 289.15,64.068C286.202,61.092 284.785,56.897 284.785,51.483C284.785,46.182 286.4,41.874 289.575,38.586C292.806,35.298 296.718,33.654 301.197,33.654C305.987,33.654 309.842,35.127 312.761,38.047C315.653,40.967 317.155,44.68 317.155,49.187C317.155,50.15 316.928,51.624 316.503,53.58ZM293.118,47.684L309.36,47.684C308.822,42.752 306.129,40.258 301.338,40.258C296.888,40.258 294.195,42.752 293.118,47.684Z" style="fill:rgb(55,177,102);fill-rule:nonzero;"/>
            </g>
        </g>
        <g id="_152534616">
            <path d="M333,68.518L329.995,68.518L329.995,65.003L333,65.003L333,68.518Z" style="fill:none;fill-rule:nonzero;"/>
        </g>
        <g transform="matrix(1,0,0,1,33.3142,15.5762)">
            <g transform="matrix(12,0,0,12,282.242,11.597)">
                <path d="M0.37,-0.728C0.432,-0.728 0.492,-0.712 0.551,-0.68C0.61,-0.649 0.656,-0.603 0.689,-0.544C0.722,-0.485 0.738,-0.424 0.738,-0.359C0.738,-0.296 0.722,-0.235 0.69,-0.176C0.657,-0.118 0.612,-0.072 0.553,-0.04C0.495,-0.007 0.434,0.009 0.37,0.009C0.306,0.009 0.245,-0.007 0.187,-0.04C0.128,-0.072 0.083,-0.118 0.05,-0.176C0.018,-0.235 0.001,-0.296 0.001,-0.359C0.001,-0.424 0.018,-0.485 0.051,-0.544C0.084,-0.603 0.13,-0.649 0.189,-0.68C0.248,-0.712 0.308,-0.728 0.37,-0.728ZM0.37,-0.667C0.318,-0.667 0.268,-0.654 0.219,-0.627C0.17,-0.601 0.132,-0.563 0.104,-0.513C0.076,-0.464 0.063,-0.413 0.063,-0.359C0.063,-0.306 0.076,-0.255 0.103,-0.207C0.13,-0.158 0.168,-0.12 0.217,-0.093C0.266,-0.066 0.317,-0.052 0.37,-0.052C0.423,-0.052 0.474,-0.066 0.523,-0.093C0.572,-0.12 0.61,-0.158 0.637,-0.207C0.664,-0.255 0.677,-0.306 0.677,-0.359C0.677,-0.413 0.663,-0.464 0.636,-0.513C0.608,-0.563 0.57,-0.601 0.521,-0.627C0.472,-0.654 0.422,-0.667 0.37,-0.667ZM0.208,-0.156L0.208,-0.552L0.345,-0.552C0.391,-0.552 0.425,-0.549 0.446,-0.541C0.467,-0.534 0.483,-0.521 0.496,-0.503C0.508,-0.485 0.514,-0.465 0.514,-0.445C0.514,-0.416 0.504,-0.391 0.483,-0.369C0.462,-0.348 0.435,-0.336 0.401,-0.333C0.415,-0.327 0.426,-0.32 0.435,-0.312C0.451,-0.296 0.47,-0.27 0.493,-0.233L0.542,-0.156L0.463,-0.156L0.428,-0.218C0.401,-0.267 0.378,-0.298 0.361,-0.311C0.35,-0.32 0.333,-0.324 0.31,-0.324L0.272,-0.324L0.272,-0.156L0.208,-0.156ZM0.272,-0.379L0.35,-0.379C0.387,-0.379 0.413,-0.384 0.426,-0.396C0.44,-0.407 0.446,-0.421 0.446,-0.439C0.446,-0.451 0.443,-0.462 0.437,-0.471C0.43,-0.48 0.421,-0.487 0.409,-0.492C0.398,-0.496 0.376,-0.499 0.345,-0.499L0.272,-0.499L0.272,-0.379Z" style="fill-rule:nonzero;"/>
            </g>
        </g>
    </g>
</svg>
